<?xml version="1.0" encoding="utf-8"?>
<!-- Generator: Adobe Illustrator 25.0.0, SVG Export Plug-In . SVG Version: 6.00 Build 0)  -->
<svg version="1.1" id="Layer_1" xmlns="http://www.w3.org/2000/svg" xmlns:xlink="http://www.w3.org/1999/xlink" x="0px" y="0px"
	 viewBox="0 0 1000 1000" style="enable-background:new 0 0 1000 1000;" xml:space="preserve">
<style type="text/css">
	.st0{fill:url(#SVGID_1_);}
	.st1{fill:url(#SVGID_2_);}
	.st2{fill:url(#SVGID_3_);}
</style>
<g>
	<g>
		<g>
			<path d="M749.8,382.5c-30.1-27.9-63.6-41.8-100.7-41.8c-37.8,0-67.9,13.4-90.3,40.2c-23.1,27.9-44.2,73.2-63.3,135.9
				c-15,48.1-28.4,82.4-40.2,102.9c-11.4,20.6-28.2,37.8-50.6,51.7c-21.6,13.6-46.8,20.4-75.4,20.4c-10.6,0-23.1-2.2-37.4-6.6
				c27.9,19.4,56.3,29.2,85.3,29.2c26.1,0,49.5-7.2,70.4-21.5c20.6-13.2,36.9-31.5,49-55c10.3-20.2,23.3-54.1,39.1-101.8
				c19.4-59.4,36.9-99.2,52.3-119.4c15.8-20.9,38-31.4,66.6-31.4c27.2,0,50.4,10.8,69.9,32.5c19.5,21.7,29.2,49.7,29.2,84.2
				c0,44.8-15,84.4-45.1,118.9c-30.4,35.2-69.1,54.1-116.1,56.7v12.7c11.4,1.5,25,2.2,40.7,2.2c12.1,0,30.5-0.9,55-2.8
				c24.6-2.2,42.7-3.3,54.5-3.3c9.9,0,18,0.2,24.2,0.6l4.4-3.9c0.4-17.6,4.2-44,11.6-79.2c8.4-40.4,12.7-71.9,12.7-94.7
				C795.4,453,780.2,410.8,749.8,382.5z"/>
			<path d="M404.7,620.3c16.9-22,37.2-69.2,61.1-141.4c15.8-48.1,30.6-82.7,44.6-104c13.6-20.9,31.9-38.5,55-52.8
				c22.8-13.6,48.8-20.4,78.1-20.4c31.2,0,55.4,6.2,72.6,18.7c-26-33.8-62-50.6-107.9-50.6c-30.1,0-57.4,7.7-82,23.1
				c-23.8,15.4-42.2,34.7-55,57.8c-11.7,21.7-27,59.6-45.7,113.9c-20.2,58.3-37.6,97.4-52.3,117.2c-13.6,19.1-32.1,28.6-55.6,28.6
				c-22,0-40.9-12.1-56.7-36.3c-15.8-23.8-23.7-54.3-23.7-91.4c0-46.6,10.1-86.2,30.3-118.9c20.6-33.4,52.1-50.3,94.7-50.6v-11.6
				c-13.9-0.7-25.7-1.1-35.2-1.1c-14.3,0-30.8,0.6-49.5,1.7c-15.4,0.7-28.6,1.1-39.6,1.1l-24.8,1.1c-14.7,60.9-22,112.5-22,154.6
				c0,62,11.6,109.9,34.7,143.6c23.9,33.8,56.7,50.6,98.5,50.6C360.7,653.3,387.5,642.3,404.7,620.3z"/>
		</g>
		<g>
			<path d="M997.7,501.1C998,633.6,946.6,758.3,853,852.1C759.5,946,635,997.9,502.5,998.1S245.3,947,151.4,853.4
				C57.5,759.9,5.7,635.4,5.4,502.8C5.2,370.3,56.6,245.6,150.1,151.8C243.7,57.9,368.2,6.1,500.7,5.8S757.9,57,851.8,150.5
				C945.7,244,997.5,368.5,997.7,501.1z M45.2,502.8c0.5,251.7,205.6,456,457.2,455.6s456-205.6,455.6-457.2S752.4,45.1,500.8,45.6
				C249.1,46,44.8,251.1,45.2,502.8z"/>
		</g>
	</g>
	<g>
		<g>
			<linearGradient id="SVGID_1_" gradientUnits="userSpaceOnUse" x1="528.146" y1="97.7629" x2="547.2386" y2="861.4677">
				<stop  offset="0" style="stop-color:#00FFAF"/>
				<stop  offset="3.522789e-02" style="stop-color:#00F6AE"/>
				<stop  offset="0.5157" style="stop-color:#0086A5"/>
				<stop  offset="0.8468" style="stop-color:#00409E"/>
				<stop  offset="1" style="stop-color:#00249C"/>
			</linearGradient>
			<path class="st0" d="M746.6,378.7c-30.1-27.9-63.6-41.8-100.7-41.8c-37.8,0-67.9,13.4-90.3,40.2c-23.1,27.9-44.2,73.2-63.3,135.9
				c-15,48.1-28.4,82.4-40.2,102.9c-11.4,20.6-28.2,37.8-50.6,51.7c-21.6,13.6-46.8,20.4-75.4,20.4c-10.6,0-23.1-2.2-37.4-6.6
				c27.9,19.4,56.3,29.2,85.3,29.2c26.1,0,49.5-7.2,70.4-21.5c20.6-13.2,36.9-31.5,49-55c10.3-20.2,23.3-54.1,39.1-101.8
				c19.4-59.4,36.9-99.2,52.3-119.4c15.8-20.9,38-31.4,66.6-31.4c27.2,0,50.4,10.8,69.9,32.5c19.5,21.7,29.2,49.7,29.2,84.2
				c0,44.8-15,84.4-45.1,118.9c-30.4,35.2-69.1,54.1-116.1,56.7v12.7c11.4,1.5,25,2.2,40.7,2.2c12.1,0,30.5-0.9,55-2.8
				c24.6-2.2,42.7-3.3,54.5-3.3c9.9,0,18,0.2,24.2,0.6l4.4-3.9c0.4-17.6,4.2-44,11.6-79.2c8.4-40.4,12.7-71.9,12.7-94.7
				C792.3,449.2,777,407,746.6,378.7z"/>
			<linearGradient id="SVGID_2_" gradientUnits="userSpaceOnUse" x1="441.3282" y1="21.5743" x2="460.9214" y2="805.2985">
				<stop  offset="0" style="stop-color:#00FFAF"/>
				<stop  offset="3.522789e-02" style="stop-color:#00F6AE"/>
				<stop  offset="0.5157" style="stop-color:#0086A5"/>
				<stop  offset="0.8468" style="stop-color:#00409E"/>
				<stop  offset="1" style="stop-color:#00249C"/>
			</linearGradient>
			<path class="st1" d="M401.5,616.5c16.9-22,37.2-69.2,61.1-141.4c15.8-48.1,30.6-82.7,44.6-104c13.6-20.9,31.9-38.5,55-52.8
				c22.8-13.6,48.8-20.4,78.1-20.4c31.2,0,55.4,6.2,72.6,18.7c-26-33.8-62-50.6-107.9-50.6c-30.1,0-57.4,7.7-82,23.1
				c-23.8,15.4-42.2,34.7-55,57.8c-11.7,21.7-27,59.6-45.7,113.9c-20.2,58.3-37.6,97.4-52.3,117.2c-13.6,19.1-32.1,28.6-55.6,28.6
				c-22,0-40.9-12.1-56.7-36.3c-15.8-23.8-23.7-54.3-23.7-91.4c0-46.6,10.1-86.2,30.3-118.9c20.6-33.4,52.1-50.3,94.7-50.6v-11.6
				c-13.9-0.7-25.7-1.1-35.2-1.1c-14.3,0-30.8,0.6-49.5,1.7c-15.4,0.7-28.6,1.1-39.6,1.1l-24.8,1.1c-14.7,60.9-22,112.5-22,154.6
				c0,62,11.6,109.9,34.7,143.6c23.9,33.8,56.7,50.6,98.5,50.6C357.5,649.5,384.3,638.5,401.5,616.5z"/>
		</g>
		<g>
			<linearGradient id="SVGID_3_" gradientUnits="userSpaceOnUse" x1="485.4431" y1="-20.6819" x2="508.2826" y2="892.8961">
				<stop  offset="0" style="stop-color:#00FFAF"/>
				<stop  offset="3.522789e-02" style="stop-color:#00F6AE"/>
				<stop  offset="0.5157" style="stop-color:#0086A5"/>
				<stop  offset="0.8468" style="stop-color:#00409E"/>
				<stop  offset="1" style="stop-color:#00249C"/>
			</linearGradient>
			<path class="st2" d="M994.6,497.3c0.2,132.5-51.1,257.2-144.7,351.1c-93.5,93.9-218,145.7-350.6,145.9
				c-132.5,0.2-257.2-51.1-351.1-144.7C54.3,756.1,2.5,631.6,2.3,499C2,366.5,53.4,241.8,147,148C240.5,54.1,365,2.2,497.5,2
				s257.2,51.1,351.1,144.7C942.5,240.2,994.3,364.7,994.6,497.3z M42,499c0.5,251.7,205.6,456,457.2,455.6s456-205.6,455.6-457.2
				S749.2,41.3,497.6,41.8S41.6,247.3,42,499z"/>
		</g>
	</g>
</g>
</svg>
