<svg xmlns="http://www.w3.org/2000/svg" xmlns:xlink="http://www.w3.org/1999/xlink" width="144" zoomAndPan="magnify" viewBox="0 0 108 107.999999" height="144" preserveAspectRatio="xMidYMid meet" version="1.0"><path stroke-linecap="round" transform="matrix(1.692453, 0, 0, 1.69164, -0.873227, 0.000002)" fill="none" stroke-linejoin="round" d="M 46.499034 6.890501 C 45.677372 6.414816 44.832629 5.980696 43.969422 5.588141 C 43.103907 5.197894 42.222236 4.846904 41.3221 4.542096 C 40.421965 4.237288 39.510289 3.976354 38.584765 3.759294 C 37.661549 3.544543 36.726793 3.373666 35.785112 3.251281 C 34.843432 3.126587 33.897136 3.048076 32.948531 3.018057 C 31.999927 2.985729 31.051322 3.001893 30.102718 3.06424 C 29.156421 3.124278 28.212433 3.232808 27.275369 3.387521 C 26.338305 3.542234 25.410473 3.74313 24.494181 3.9879 C 23.575581 4.234979 22.673137 4.523623 21.784542 4.858449 C 20.893638 5.193276 20.023507 5.569667 19.171841 5.989933 C 18.320174 6.410198 17.491587 6.869719 16.683773 7.373113 C 15.878268 7.874199 15.09815 8.41454 14.343421 8.991827 C 13.591 9.569114 12.866275 10.183348 12.173863 10.832219 C 11.479143 11.48109 10.819044 12.162289 10.193565 12.878126 C 9.568086 13.591653 8.977228 14.335199 8.423298 15.106455 C 7.871677 15.877711 7.356984 16.676677 6.881528 17.498734 C 6.406072 18.320791 5.97216 19.163631 5.579793 20.029562 C 5.189734 20.895493 4.838912 21.777588 4.534251 22.675847 C 4.22959 23.576415 3.968781 24.488529 3.751826 25.412189 C 3.537178 26.338158 3.366383 27.271054 3.241749 28.213187 C 3.119423 29.15532 3.040949 30.099763 3.010945 31.048823 C 2.978632 32.000193 2.994788 32.946944 3.057106 33.896004 C 3.119423 34.842756 3.225592 35.784889 3.380231 36.722403 C 3.53487 37.659918 3.735669 38.588196 3.98263 39.504928 C 4.227282 40.421661 4.518095 41.326847 4.852761 42.213561 C 5.187426 43.102583 5.563637 43.973133 5.9837 44.825209 C 6.403763 45.677285 6.865371 46.50627 7.366216 47.314472 C 7.867061 48.120365 8.407142 48.900858 8.98646 49.653641 C 9.56347 50.408732 10.177409 51.131496 10.828276 51.824241 C 11.476835 52.516986 12.157707 53.177403 12.8732 53.803182 C 13.586384 54.431271 14.329573 55.020104 15.100458 55.5743 C 15.873651 56.126187 16.669925 56.641127 17.493896 57.116812 C 18.315558 57.590187 19.1603 58.024307 20.025815 58.416863 C 20.89133 58.807109 21.773002 59.155791 22.673137 59.462908 C 23.570965 59.767715 24.482641 60.028649 25.408165 60.2434 C 26.333689 60.46046 27.266137 60.629028 28.207817 60.753722 C 29.149497 60.878416 30.095794 60.954618 31.044398 60.986946 C 31.995311 61.016965 32.943915 61.000801 33.890211 60.938454 C 34.838816 60.878416 35.780496 60.769886 36.71756 60.615173 C 37.654625 60.46046 38.582457 60.259564 39.501057 60.012485 C 40.417348 59.767715 41.3221 59.476763 42.210696 59.141936 C 43.099291 58.807109 43.969422 58.430718 44.821089 58.010453 C 45.672755 57.590187 46.50365 57.128357 47.309156 56.627272 C 48.114662 56.126187 48.894779 55.585846 49.649508 55.008558 C 50.401929 54.428962 51.126654 53.817037 51.819066 53.165857 C 52.513786 52.516986 53.171577 51.835787 53.799364 51.12226 C 54.424843 50.406423 55.015701 49.665186 55.567323 48.891621 C 56.121252 48.120365 56.635945 47.323709 57.109094 46.499342 C 57.58455 45.677285 58.018461 44.834446 58.410828 43.968514 C 58.800887 43.104893 59.149401 42.222797 59.45637 41.322229 C 59.761031 40.42397 60.02184 39.511856 60.236488 38.585887 C 60.453443 37.662227 60.62193 36.729331 60.746564 35.787198 C 60.871199 34.845065 60.947364 33.900623 60.979677 32.951562 C 61.009681 32.002502 60.993525 31.053441 60.933516 30.10669 C 60.871199 29.15763 60.762721 28.215497 60.608082 27.280291 C 60.453443 26.342776 60.252644 25.414498 60.007992 24.497766 C 59.761031 23.581034 59.470218 22.678156 59.135553 21.789134 C 58.803195 20.900111 58.424676 20.029562 58.004613 19.177485 C 57.58455 18.325409 57.12525 17.496425 56.624405 16.690531 C 56.121252 15.884638 55.581171 15.104146 55.004161 14.351363 C 54.427151 13.59858 53.813212 12.873507 53.164653 12.180762 C 52.513786 11.488018 51.832914 10.827601 51.11973 10.201821 C 50.406545 9.576042 49.663357 8.9849 48.890163 8.433013 C 48.119278 7.878817 47.323004 7.363877 46.499034 6.890501 Z M 46.499034 6.890501 " stroke="rgb(0%, 0%, 0%)" stroke-width="2" stroke-opacity="1" stroke-miterlimit="4"/><path stroke-linecap="round" transform="matrix(1.692453, 0, 0, 1.69164, -0.873227, 0.000002)" fill="none" stroke-linejoin="round" d="M 44.500271 10.349607 C 43.791703 9.940887 43.062362 9.566805 42.316865 9.229669 C 41.571368 8.890224 40.812023 8.590035 40.036522 8.326792 C 39.26102 8.063549 38.473979 7.839561 37.677705 7.65252 C 36.879123 7.467788 36.075925 7.320003 35.263495 7.213782 C 34.451065 7.107561 33.636327 7.040596 32.816973 7.012886 C 31.999927 6.987485 31.182881 6.999031 30.365834 7.054451 C 29.548788 7.107561 28.736358 7.199927 27.928544 7.333858 C 27.12073 7.467788 26.31984 7.640975 25.530491 7.851107 C 24.738833 8.063549 23.961024 8.312937 23.194754 8.601581 C 22.426177 8.890224 21.676064 9.215814 20.942107 9.578351 C 20.208151 9.940887 19.492658 10.338061 18.797938 10.769872 C 18.103218 11.201683 17.42927 11.668131 16.780711 12.166908 C 16.132152 12.663375 15.506673 13.194479 14.908891 13.753293 C 14.311108 14.312107 13.743331 14.900941 13.203249 15.515174 C 12.663168 16.131717 12.155399 16.771352 11.677635 17.438696 C 11.202179 18.103731 10.759035 18.789548 10.348204 19.500766 C 9.939681 20.209675 9.565778 20.937057 9.228804 21.682913 C 8.889523 22.428768 8.589477 23.188478 8.326361 23.964352 C 8.063244 24.740227 7.839364 25.525337 7.652413 26.321994 C 7.465462 27.12096 7.320055 27.924544 7.213886 28.737364 C 7.105408 29.547876 7.038474 30.363006 7.013086 31.182754 C 6.98539 32.000193 6.999238 32.817632 7.052323 33.63507 C 7.105408 34.452509 7.200037 35.26533 7.333904 36.071223 C 7.465462 36.879426 7.638565 37.678391 7.850905 38.47043 C 8.063244 39.260159 8.312513 40.040651 8.601018 40.807289 C 8.889523 41.571617 9.214956 42.322091 9.577318 43.0564 C 9.939681 43.79071 10.336664 44.506546 10.768267 45.2016 C 11.202179 45.896654 11.666095 46.568617 12.164631 47.219797 C 12.663168 47.868668 13.191709 48.492138 13.752563 49.090208 C 14.311108 49.688278 14.899659 50.256329 15.515905 50.79667 C 16.132152 51.337011 16.771479 51.845023 17.436195 52.320708 C 18.103218 52.798702 18.791014 53.242059 19.499582 53.650778 C 20.208151 54.059498 20.935183 54.43358 21.68068 54.770716 C 22.426177 55.110161 23.18783 55.41035 23.963332 55.673593 C 24.738833 55.936836 25.525875 56.160824 26.322148 56.347865 C 27.12073 56.532597 27.923928 56.680382 28.736358 56.786603 C 29.548788 56.892824 30.363526 56.95979 31.180573 56.987499 C 31.999927 57.0129 32.816973 57.001354 33.634019 56.945935 C 34.451065 56.892824 35.263495 56.800458 36.071309 56.666528 C 36.879123 56.532597 37.680013 56.359411 38.469363 56.149278 C 39.26102 55.936836 40.03883 55.685139 40.805099 55.398805 C 41.571368 55.110161 42.321481 54.784571 43.055438 54.422034 C 43.791703 54.059498 44.504887 53.662324 45.201915 53.230513 C 45.896635 52.798702 46.568275 52.332254 47.219142 51.833478 C 47.867701 51.334701 48.490872 50.805906 49.088655 50.247092 C 49.686437 49.685969 50.256523 49.099445 50.794296 48.482902 C 51.334378 47.868668 51.844454 47.226724 52.319911 46.561689 C 52.797675 45.896654 53.240819 45.208528 53.649342 44.499619 C 54.060173 43.79071 54.434075 43.063328 54.771049 42.317473 C 55.108023 41.571617 55.410376 40.811907 55.673493 40.036033 C 55.936609 39.260159 56.160489 38.475048 56.345132 37.676082 C 56.532084 36.879426 56.67749 36.075841 56.785968 35.263021 C 56.892138 34.452509 56.959071 33.63738 56.986767 32.817632 C 57.012156 32.000193 56.998308 31.182754 56.945223 30.365315 C 56.892138 29.547876 56.799816 28.735055 56.66595 27.929162 C 56.532084 27.12096 56.358981 26.321994 56.146641 25.529956 C 55.936609 24.740227 55.685033 23.959734 55.396528 23.195406 C 55.108023 22.428768 54.782589 21.678294 54.420227 20.943985 C 54.060173 20.209675 53.660882 19.493839 53.229278 18.798785 C 52.797675 18.103731 52.331451 17.431768 51.832914 16.780588 C 51.334378 16.131717 50.805836 15.508247 50.247291 14.910177 C 49.686437 14.314417 49.097887 13.744057 48.483948 13.203716 C 47.867701 12.665684 47.228374 12.155362 46.561351 11.679677 C 45.896635 11.201683 45.208839 10.758326 44.500271 10.349607 Z M 44.500271 10.349607 " stroke="rgb(0%, 0%, 0%)" stroke-width="1.72" stroke-opacity="1" stroke-miterlimit="4"/><path fill="rgb(0%, 0%, 0%)" d="M 54.0625 43.984375 C 54.0625 44.335938 54.097656 44.6875 54.164062 45.035156 C 54.234375 45.382812 54.335938 45.722656 54.46875 46.050781 C 54.605469 46.378906 54.769531 46.691406 54.964844 46.984375 C 55.160156 47.28125 55.386719 47.554688 55.636719 47.804688 C 55.886719 48.058594 56.15625 48.28125 56.453125 48.480469 C 56.746094 48.675781 57.058594 48.84375 57.386719 48.980469 C 57.710938 49.117188 58.050781 49.21875 58.398438 49.289062 C 58.746094 49.359375 59.097656 49.394531 59.453125 49.394531 C 59.804688 49.398438 60.15625 49.363281 60.503906 49.292969 C 60.855469 49.226562 61.191406 49.125 61.519531 48.988281 C 61.847656 48.855469 62.160156 48.6875 62.453125 48.492188 C 62.75 48.296875 63.023438 48.070312 63.273438 47.820312 C 63.527344 47.570312 63.75 47.296875 63.949219 47.003906 C 64.144531 46.710938 64.3125 46.398438 64.449219 46.070312 C 64.585938 45.742188 64.6875 45.40625 64.757812 45.058594 C 64.828125 44.710938 64.859375 44.359375 64.863281 44.003906 C 64.863281 43.652344 64.828125 43.300781 64.757812 42.953125 C 64.691406 42.605469 64.585938 42.265625 64.453125 41.9375 C 64.316406 41.609375 64.152344 41.300781 63.953125 41.003906 C 63.757812 40.710938 63.53125 40.4375 63.28125 40.1875 C 63.03125 39.933594 62.757812 39.710938 62.464844 39.515625 C 62.167969 39.316406 61.859375 39.148438 61.53125 39.015625 C 61.203125 38.878906 60.863281 38.777344 60.515625 38.707031 C 60.167969 38.636719 59.816406 38.601562 59.460938 38.601562 C 59.109375 38.601562 58.757812 38.636719 58.410156 38.707031 C 58.066406 38.773438 57.726562 38.878906 57.402344 39.011719 C 57.074219 39.148438 56.761719 39.3125 56.46875 39.507812 C 56.175781 39.707031 55.902344 39.929688 55.652344 40.179688 C 55.402344 40.425781 55.175781 40.699219 54.980469 40.992188 C 54.78125 41.285156 54.617188 41.597656 54.480469 41.921875 C 54.34375 42.25 54.242188 42.585938 54.171875 42.933594 C 54.101562 43.277344 54.066406 43.628906 54.0625 43.984375 Z M 54.0625 43.984375 " fill-opacity="1" fill-rule="nonzero"/><path fill="rgb(0%, 0%, 0%)" d="M 64.863281 63.773438 C 64.863281 64.128906 64.828125 64.480469 64.757812 64.828125 C 64.6875 65.175781 64.585938 65.511719 64.449219 65.839844 C 64.316406 66.167969 64.148438 66.476562 63.953125 66.773438 C 63.753906 67.066406 63.53125 67.339844 63.28125 67.589844 C 63.03125 67.839844 62.757812 68.066406 62.460938 68.261719 C 62.167969 68.457031 61.855469 68.625 61.527344 68.761719 C 61.203125 68.894531 60.863281 69 60.515625 69.066406 C 60.167969 69.136719 59.816406 69.171875 59.460938 69.171875 C 59.109375 69.171875 58.757812 69.136719 58.410156 69.066406 C 58.0625 69 57.722656 68.894531 57.398438 68.761719 C 57.070312 68.625 56.757812 68.457031 56.464844 68.261719 C 56.167969 68.066406 55.894531 67.839844 55.644531 67.589844 C 55.394531 67.339844 55.171875 67.066406 54.972656 66.773438 C 54.777344 66.476562 54.609375 66.167969 54.476562 65.839844 C 54.339844 65.511719 54.238281 65.175781 54.167969 64.828125 C 54.097656 64.480469 54.0625 64.128906 54.0625 63.773438 C 54.0625 63.421875 54.097656 63.070312 54.167969 62.722656 C 54.238281 62.375 54.339844 62.035156 54.476562 61.710938 C 54.609375 61.382812 54.777344 61.070312 54.972656 60.777344 C 55.171875 60.480469 55.394531 60.210938 55.644531 59.960938 C 55.894531 59.707031 56.167969 59.484375 56.464844 59.289062 C 56.757812 59.089844 57.070312 58.925781 57.398438 58.789062 C 57.722656 58.652344 58.0625 58.550781 58.410156 58.480469 C 58.757812 58.414062 59.109375 58.378906 59.460938 58.378906 C 59.816406 58.378906 60.167969 58.414062 60.515625 58.480469 C 60.863281 58.550781 61.203125 58.652344 61.527344 58.789062 C 61.855469 58.925781 62.167969 59.089844 62.460938 59.289062 C 62.757812 59.484375 63.03125 59.707031 63.28125 59.960938 C 63.53125 60.210938 63.753906 60.480469 63.953125 60.777344 C 64.148438 61.070312 64.316406 61.382812 64.449219 61.710938 C 64.585938 62.035156 64.6875 62.375 64.757812 62.722656 C 64.828125 63.070312 64.863281 63.421875 64.863281 63.773438 Z M 64.863281 63.773438 " fill-opacity="1" fill-rule="nonzero"/><path fill="rgb(0%, 0%, 0%)" d="M 52.507812 63.773438 C 52.507812 64.128906 52.472656 64.480469 52.402344 64.828125 C 52.332031 65.175781 52.230469 65.511719 52.097656 65.839844 C 51.960938 66.167969 51.792969 66.476562 51.597656 66.773438 C 51.398438 67.066406 51.175781 67.339844 50.925781 67.589844 C 50.675781 67.839844 50.402344 68.066406 50.105469 68.261719 C 49.8125 68.457031 49.5 68.625 49.175781 68.761719 C 48.847656 68.894531 48.507812 69 48.160156 69.066406 C 47.8125 69.136719 47.460938 69.171875 47.109375 69.171875 C 46.753906 69.171875 46.402344 69.136719 46.054688 69.066406 C 45.707031 69 45.371094 68.894531 45.042969 68.761719 C 44.714844 68.625 44.402344 68.457031 44.109375 68.261719 C 43.8125 68.066406 43.539062 67.839844 43.289062 67.589844 C 43.039062 67.339844 42.816406 67.066406 42.617188 66.773438 C 42.421875 66.476562 42.253906 66.167969 42.121094 65.839844 C 41.984375 65.511719 41.882812 65.175781 41.8125 64.828125 C 41.742188 64.480469 41.707031 64.128906 41.707031 63.773438 C 41.707031 63.421875 41.742188 63.070312 41.8125 62.722656 C 41.882812 62.375 41.984375 62.035156 42.121094 61.710938 C 42.253906 61.382812 42.421875 61.070312 42.617188 60.777344 C 42.816406 60.480469 43.039062 60.210938 43.289062 59.960938 C 43.539062 59.707031 43.8125 59.484375 44.109375 59.289062 C 44.402344 59.089844 44.714844 58.925781 45.042969 58.789062 C 45.371094 58.652344 45.707031 58.550781 46.054688 58.480469 C 46.402344 58.414062 46.753906 58.378906 47.109375 58.378906 C 47.460938 58.378906 47.8125 58.414062 48.160156 58.480469 C 48.507812 58.550781 48.847656 58.652344 49.175781 58.789062 C 49.5 58.925781 49.8125 59.089844 50.105469 59.289062 C 50.402344 59.484375 50.675781 59.707031 50.925781 59.960938 C 51.175781 60.210938 51.398438 60.480469 51.597656 60.777344 C 51.792969 61.070312 51.960938 61.382812 52.097656 61.710938 C 52.230469 62.035156 52.332031 62.375 52.402344 62.722656 C 52.472656 63.070312 52.507812 63.421875 52.507812 63.773438 Z M 52.507812 63.773438 " fill-opacity="1" fill-rule="nonzero"/><path fill="rgb(0%, 0%, 0%)" d="M 47.109375 49.429688 C 47.460938 49.429688 47.8125 49.398438 48.160156 49.328125 C 48.507812 49.261719 48.84375 49.160156 49.171875 49.027344 C 49.5 48.890625 49.8125 48.726562 50.105469 48.53125 C 50.402344 48.335938 50.675781 48.113281 50.925781 47.863281 C 51.175781 47.617188 51.402344 47.34375 51.601562 47.050781 C 51.796875 46.757812 51.964844 46.449219 52.101562 46.121094 C 52.238281 45.796875 52.34375 45.460938 52.414062 45.113281 C 52.484375 44.765625 52.523438 44.414062 52.523438 44.0625 C 52.523438 43.707031 52.492188 43.355469 52.425781 43.007812 C 52.359375 42.664062 52.257812 42.324219 52.125 41.996094 C 51.992188 41.667969 51.828125 41.359375 51.632812 41.0625 C 51.4375 40.765625 51.214844 40.492188 50.964844 40.242188 C 50.71875 39.988281 50.445312 39.765625 50.152344 39.566406 C 49.859375 39.367188 49.550781 39.199219 49.222656 39.0625 C 48.898438 38.925781 48.5625 38.820312 48.214844 38.75 C 47.867188 38.675781 47.519531 38.640625 47.164062 38.636719 C 46.808594 38.632812 46.460938 38.667969 46.109375 38.734375 C 45.761719 38.800781 45.425781 38.898438 45.097656 39.03125 C 44.769531 39.164062 44.457031 39.328125 44.160156 39.523438 C 43.867188 39.714844 43.589844 39.9375 43.339844 40.1875 C 43.085938 40.433594 42.859375 40.703125 42.660156 40.996094 C 42.460938 41.289062 42.292969 41.597656 42.15625 41.925781 C 42.015625 42.25 41.910156 42.585938 41.839844 42.933594 C 41.765625 43.277344 41.730469 43.628906 41.726562 43.984375 C 41.722656 44.339844 41.753906 44.691406 41.820312 45.039062 C 41.886719 45.390625 41.988281 45.730469 42.121094 46.058594 C 42.253906 46.390625 42.417969 46.703125 42.613281 47 C 42.808594 47.296875 43.03125 47.570312 43.28125 47.824219 C 43.535156 48.078125 43.804688 48.304688 44.101562 48.503906 C 44.394531 48.703125 44.707031 48.871094 45.035156 49.007812 C 45.363281 49.148438 45.703125 49.25 46.050781 49.320312 C 46.398438 49.394531 46.75 49.429688 47.109375 49.429688 Z M 47.109375 49.429688 " fill-opacity="1" fill-rule="nonzero"/><path fill="rgb(0%, 0%, 0%)" d="M 35.546875 53.894531 C 35.546875 54.25 35.582031 54.601562 35.648438 54.949219 C 35.71875 55.296875 35.820312 55.636719 35.953125 55.964844 C 36.089844 56.292969 36.253906 56.601562 36.449219 56.898438 C 36.644531 57.195312 36.871094 57.46875 37.121094 57.71875 C 37.371094 57.96875 37.640625 58.195312 37.9375 58.390625 C 38.230469 58.589844 38.542969 58.757812 38.871094 58.894531 C 39.195312 59.03125 39.535156 59.132812 39.882812 59.203125 C 40.230469 59.273438 40.582031 59.308594 40.9375 59.308594 C 41.289062 59.308594 41.640625 59.277344 41.988281 59.207031 C 42.339844 59.140625 42.675781 59.035156 43.003906 58.902344 C 43.332031 58.765625 43.644531 58.601562 43.9375 58.40625 C 44.234375 58.207031 44.507812 57.984375 44.757812 57.734375 C 45.011719 57.484375 45.234375 57.210938 45.433594 56.917969 C 45.628906 56.621094 45.796875 56.3125 45.933594 55.984375 C 46.070312 55.65625 46.171875 55.320312 46.242188 54.972656 C 46.3125 54.625 46.347656 54.273438 46.347656 53.917969 C 46.347656 53.5625 46.3125 53.210938 46.242188 52.863281 C 46.175781 52.515625 46.074219 52.179688 45.9375 51.851562 C 45.800781 51.523438 45.636719 51.210938 45.4375 50.917969 C 45.242188 50.621094 45.019531 50.351562 44.765625 50.097656 C 44.515625 49.847656 44.242188 49.625 43.949219 49.425781 C 43.652344 49.230469 43.34375 49.0625 43.015625 48.925781 C 42.6875 48.792969 42.347656 48.6875 42 48.621094 C 41.652344 48.550781 41.300781 48.515625 40.949219 48.515625 C 40.59375 48.515625 40.242188 48.550781 39.894531 48.621094 C 39.550781 48.6875 39.210938 48.789062 38.886719 48.925781 C 38.558594 49.058594 38.246094 49.226562 37.953125 49.421875 C 37.660156 49.617188 37.386719 49.839844 37.136719 50.089844 C 36.886719 50.339844 36.660156 50.613281 36.464844 50.90625 C 36.265625 51.199219 36.101562 51.507812 35.964844 51.835938 C 35.828125 52.164062 35.726562 52.5 35.65625 52.84375 C 35.585938 53.191406 35.550781 53.542969 35.546875 53.894531 Z M 35.546875 53.894531 " fill-opacity="1" fill-rule="nonzero"/><path fill="rgb(0%, 0%, 0%)" d="M 66.234375 48.515625 C 65.878906 48.515625 65.527344 48.550781 65.179688 48.621094 C 64.832031 48.6875 64.492188 48.792969 64.164062 48.925781 C 63.835938 49.0625 63.527344 49.230469 63.230469 49.425781 C 62.9375 49.625 62.664062 49.847656 62.414062 50.097656 C 62.164062 50.351562 61.9375 50.621094 61.742188 50.917969 C 61.542969 51.210938 61.378906 51.523438 61.242188 51.851562 C 61.109375 52.179688 61.003906 52.515625 60.9375 52.863281 C 60.867188 53.210938 60.832031 53.5625 60.832031 53.917969 C 60.835938 54.273438 60.867188 54.625 60.9375 54.972656 C 61.007812 55.320312 61.109375 55.65625 61.246094 55.984375 C 61.382812 56.3125 61.550781 56.621094 61.746094 56.917969 C 61.945312 57.210938 62.167969 57.484375 62.421875 57.734375 C 62.671875 57.984375 62.945312 58.207031 63.242188 58.40625 C 63.535156 58.601562 63.847656 58.765625 64.175781 58.902344 C 64.503906 59.035156 64.839844 59.140625 65.191406 59.207031 C 65.539062 59.277344 65.890625 59.308594 66.242188 59.308594 C 66.597656 59.308594 66.949219 59.273438 67.296875 59.203125 C 67.644531 59.132812 67.984375 59.03125 68.308594 58.894531 C 68.636719 58.757812 68.949219 58.589844 69.242188 58.390625 C 69.539062 58.195312 69.808594 57.96875 70.058594 57.71875 C 70.308594 57.46875 70.535156 57.195312 70.730469 56.898438 C 70.925781 56.601562 71.089844 56.292969 71.226562 55.964844 C 71.359375 55.636719 71.460938 55.296875 71.53125 54.949219 C 71.597656 54.601562 71.632812 54.25 71.632812 53.894531 C 71.628906 53.542969 71.59375 53.191406 71.523438 52.84375 C 71.453125 52.5 71.351562 52.164062 71.214844 51.835938 C 71.078125 51.507812 70.914062 51.199219 70.714844 50.90625 C 70.519531 50.613281 70.292969 50.339844 70.042969 50.089844 C 69.792969 49.839844 69.519531 49.617188 69.226562 49.421875 C 68.933594 49.226562 68.621094 49.058594 68.292969 48.925781 C 67.96875 48.789062 67.628906 48.6875 67.285156 48.621094 C 66.9375 48.550781 66.585938 48.515625 66.234375 48.515625 Z M 66.234375 48.515625 " fill-opacity="1" fill-rule="nonzero"/><path fill="rgb(0%, 0%, 0%)" d="M 56.214844 25.542969 C 56.214844 25.933594 56.140625 26.304688 55.992188 26.664062 C 55.839844 27.023438 55.628906 27.339844 55.355469 27.613281 C 55.082031 27.886719 54.765625 28.097656 54.40625 28.246094 C 54.046875 28.394531 53.671875 28.46875 53.285156 28.46875 C 52.898438 28.46875 52.523438 28.394531 52.164062 28.246094 C 51.804688 28.097656 51.488281 27.886719 51.214844 27.613281 C 50.941406 27.339844 50.730469 27.023438 50.582031 26.664062 C 50.429688 26.304688 50.355469 25.933594 50.355469 25.542969 C 50.355469 25.15625 50.429688 24.78125 50.582031 24.425781 C 50.730469 24.066406 50.941406 23.75 51.214844 23.472656 C 51.488281 23.199219 51.804688 22.988281 52.164062 22.839844 C 52.523438 22.691406 52.898438 22.617188 53.285156 22.617188 C 53.671875 22.617188 54.046875 22.691406 54.40625 22.839844 C 54.765625 22.988281 55.082031 23.199219 55.355469 23.472656 C 55.628906 23.75 55.839844 24.066406 55.992188 24.425781 C 56.140625 24.78125 56.214844 25.15625 56.214844 25.542969 Z M 56.214844 25.542969 " fill-opacity="1" fill-rule="nonzero"/><path fill="rgb(0%, 0%, 0%)" d="M 28.507812 40.871094 C 29.355469 40.875 30.066406 40.5625 30.640625 39.941406 C 31.195312 39.351562 31.457031 38.652344 31.4375 37.84375 C 31.421875 37.453125 31.332031 37.085938 31.171875 36.730469 C 31.007812 36.378906 30.785156 36.070312 30.503906 35.808594 C 30.21875 35.542969 29.894531 35.339844 29.53125 35.203125 C 29.167969 35.066406 28.792969 35.003906 28.40625 35.015625 C 27.597656 35.054688 26.917969 35.363281 26.359375 35.949219 C 25.960938 36.375 25.710938 36.875 25.613281 37.449219 C 25.515625 38.023438 25.582031 38.578125 25.816406 39.113281 C 26.050781 39.648438 26.410156 40.074219 26.898438 40.394531 C 27.386719 40.714844 27.925781 40.871094 28.507812 40.871094 Z M 28.507812 40.871094 " fill-opacity="1" fill-rule="nonzero"/><path fill="rgb(0%, 0%, 0%)" d="M 35.71875 47.90625 C 35.984375 47.910156 36.25 47.875 36.511719 47.8125 C 36.773438 47.746094 37.019531 47.652344 37.257812 47.523438 C 37.496094 47.398438 37.710938 47.246094 37.910156 47.0625 C 38.109375 46.882812 38.28125 46.679688 38.429688 46.457031 C 38.578125 46.230469 38.699219 45.992188 38.785156 45.738281 C 38.875 45.488281 38.929688 45.226562 38.953125 44.957031 C 38.976562 44.691406 38.96875 44.425781 38.925781 44.160156 C 38.882812 43.894531 38.804688 43.640625 38.699219 43.390625 C 38.59375 43.144531 38.457031 42.917969 38.292969 42.703125 C 38.128906 42.492188 37.941406 42.300781 37.730469 42.136719 C 37.519531 41.96875 37.292969 41.832031 37.046875 41.722656 C 36.800781 41.613281 36.546875 41.539062 36.28125 41.492188 C 36.015625 41.445312 35.75 41.433594 35.480469 41.453125 C 35.214844 41.476562 34.953125 41.53125 34.699219 41.617188 C 34.445312 41.703125 34.203125 41.816406 33.976562 41.964844 C 33.753906 42.109375 33.546875 42.28125 33.363281 42.476562 C 32.921875 42.945312 32.640625 43.496094 32.527344 44.128906 C 32.414062 44.765625 32.488281 45.378906 32.742188 45.96875 C 33 46.5625 33.398438 47.035156 33.9375 47.386719 C 34.480469 47.738281 35.074219 47.910156 35.71875 47.90625 Z M 35.71875 47.90625 " fill-opacity="1" fill-rule="nonzero"/><path fill="rgb(0%, 0%, 0%)" d="M 77.875 39.636719 L 77.976562 39.636719 C 78.738281 39.652344 79.40625 39.410156 79.976562 38.90625 C 80.265625 38.644531 80.492188 38.332031 80.65625 37.980469 C 80.824219 37.625 80.914062 37.25 80.929688 36.859375 C 80.945312 36.46875 80.886719 36.089844 80.753906 35.722656 C 80.617188 35.351562 80.417969 35.027344 80.152344 34.738281 C 79.882812 34.449219 79.574219 34.226562 79.21875 34.0625 C 78.863281 33.898438 78.488281 33.808594 78.097656 33.792969 C 77.703125 33.78125 77.324219 33.839844 76.957031 33.976562 C 76.589844 34.113281 76.265625 34.316406 75.976562 34.585938 C 75.691406 34.851562 75.46875 35.164062 75.304688 35.519531 C 75.144531 35.875 75.058594 36.25 75.042969 36.640625 C 75.03125 37.035156 75.09375 37.414062 75.234375 37.777344 C 75.371094 38.144531 75.578125 38.46875 75.84375 38.753906 C 76.398438 39.335938 77.074219 39.628906 77.875 39.636719 Z M 77.875 39.636719 " fill-opacity="1" fill-rule="nonzero"/><path fill="rgb(0%, 0%, 0%)" d="M 68.515625 41.074219 C 68.207031 41.367188 67.960938 41.707031 67.785156 42.097656 C 67.609375 42.488281 67.515625 42.898438 67.5 43.324219 C 67.488281 43.753906 67.554688 44.167969 67.703125 44.566406 C 67.855469 44.96875 68.074219 45.328125 68.363281 45.640625 C 69.003906 46.332031 69.792969 46.675781 70.734375 46.671875 C 71.578125 46.667969 72.3125 46.382812 72.933594 45.808594 C 73.25 45.515625 73.496094 45.175781 73.671875 44.785156 C 73.851562 44.394531 73.949219 43.984375 73.964844 43.554688 C 73.976562 43.125 73.910156 42.710938 73.761719 42.308594 C 73.609375 41.90625 73.386719 41.546875 73.09375 41.234375 C 72.800781 40.917969 72.460938 40.671875 72.070312 40.496094 C 71.679688 40.316406 71.269531 40.222656 70.839844 40.207031 C 70.410156 40.191406 69.996094 40.257812 69.59375 40.410156 C 69.191406 40.558594 68.832031 40.78125 68.515625 41.074219 Z M 68.515625 41.074219 " fill-opacity="1" fill-rule="nonzero"/><path fill="rgb(0%, 0%, 0%)" d="M 75.929688 68.78125 C 75.667969 69.066406 75.46875 69.390625 75.335938 69.753906 C 75.199219 70.117188 75.136719 70.496094 75.152344 70.882812 C 75.164062 71.269531 75.25 71.640625 75.40625 71.996094 C 75.566406 72.347656 75.785156 72.660156 76.066406 72.925781 C 76.628906 73.449219 77.292969 73.707031 78.0625 73.703125 L 78.164062 73.703125 C 78.757812 73.6875 79.296875 73.503906 79.78125 73.15625 C 80.261719 72.8125 80.609375 72.359375 80.816406 71.804688 C 81.023438 71.246094 81.058594 70.679688 80.921875 70.101562 C 80.785156 69.523438 80.496094 69.03125 80.058594 68.628906 C 79.777344 68.367188 79.453125 68.167969 79.089844 68.035156 C 78.726562 67.898438 78.351562 67.839844 77.964844 67.855469 C 77.578125 67.867188 77.207031 67.957031 76.855469 68.117188 C 76.503906 68.277344 76.195312 68.5 75.929688 68.78125 Z M 75.929688 68.78125 " fill-opacity="1" fill-rule="nonzero"/><path fill="rgb(0%, 0%, 0%)" d="M 68.515625 61.847656 C 68.222656 62.160156 68.003906 62.515625 67.851562 62.917969 C 67.703125 63.320312 67.632812 63.734375 67.648438 64.160156 C 67.660156 64.589844 67.757812 65 67.933594 65.390625 C 68.113281 65.777344 68.355469 66.121094 68.671875 66.414062 C 68.984375 66.707031 69.339844 66.925781 69.742188 67.078125 C 70.144531 67.230469 70.558594 67.296875 70.984375 67.28125 C 71.414062 67.269531 71.824219 67.171875 72.214844 66.996094 C 72.605469 66.820312 72.945312 66.574219 73.238281 66.261719 C 73.53125 65.949219 73.753906 65.589844 73.90625 65.191406 C 74.054688 64.789062 74.125 64.375 74.109375 63.945312 C 74.09375 63.519531 74 63.109375 73.820312 62.71875 C 73.644531 62.328125 73.398438 61.988281 73.085938 61.695312 C 72.773438 61.402344 72.417969 61.179688 72.015625 61.027344 C 71.613281 60.878906 71.199219 60.808594 70.769531 60.824219 C 70.34375 60.839844 69.933594 60.933594 69.542969 61.109375 C 69.152344 61.289062 68.808594 61.535156 68.515625 61.847656 Z M 68.515625 61.847656 " fill-opacity="1" fill-rule="nonzero"/><path fill="rgb(0%, 0%, 0%)" d="M 28.695312 67.867188 C 28.289062 67.828125 27.894531 67.867188 27.507812 67.992188 C 27.121094 68.113281 26.777344 68.308594 26.472656 68.574219 C 26.164062 68.839844 25.925781 69.15625 25.75 69.523438 C 25.578125 69.886719 25.484375 70.273438 25.46875 70.679688 C 25.453125 71.082031 25.519531 71.472656 25.671875 71.851562 C 25.820312 72.226562 26.035156 72.558594 26.320312 72.847656 C 26.609375 73.132812 26.941406 73.351562 27.316406 73.5 C 27.695312 73.648438 28.085938 73.71875 28.492188 73.703125 L 28.59375 73.703125 C 29.179688 73.710938 29.71875 73.554688 30.207031 73.234375 C 30.699219 72.917969 31.0625 72.488281 31.292969 71.953125 C 31.527344 71.414062 31.59375 70.855469 31.488281 70.28125 C 31.382812 69.703125 31.128906 69.203125 30.726562 68.78125 C 30.175781 68.195312 29.5 67.890625 28.695312 67.867188 Z M 28.695312 67.867188 " fill-opacity="1" fill-rule="nonzero"/><path fill="rgb(0%, 0%, 0%)" d="M 35.800781 67.292969 C 36.671875 67.304688 37.421875 67.011719 38.054688 66.414062 C 38.246094 66.230469 38.414062 66.027344 38.558594 65.804688 C 38.699219 65.582031 38.8125 65.34375 38.898438 65.09375 C 38.984375 64.84375 39.035156 64.585938 39.054688 64.320312 C 39.078125 64.054688 39.066406 63.792969 39.023438 63.53125 C 38.980469 63.269531 38.902344 63.019531 38.796875 62.777344 C 38.691406 62.53125 38.558594 62.304688 38.398438 62.09375 C 38.234375 61.886719 38.050781 61.699219 37.84375 61.535156 C 37.636719 61.367188 37.410156 61.230469 37.167969 61.121094 C 36.925781 61.011719 36.675781 60.933594 36.414062 60.886719 C 36.152344 60.839844 35.890625 60.824219 35.625 60.839844 C 35.363281 60.855469 35.101562 60.90625 34.851562 60.988281 C 34.597656 61.066406 34.359375 61.175781 34.132812 61.316406 C 33.90625 61.457031 33.703125 61.621094 33.519531 61.8125 C 33.332031 62 33.171875 62.210938 33.039062 62.4375 C 32.90625 62.667969 32.804688 62.910156 32.730469 63.164062 C 32.65625 63.417969 32.613281 63.679688 32.601562 63.945312 C 32.582031 64.375 32.648438 64.796875 32.796875 65.203125 C 32.945312 65.609375 33.164062 65.972656 33.460938 66.292969 C 33.753906 66.609375 34.097656 66.859375 34.492188 67.039062 C 34.886719 67.21875 35.300781 67.3125 35.734375 67.328125 Z M 35.800781 67.292969 " fill-opacity="1" fill-rule="nonzero"/><path fill="rgb(0%, 0%, 0%)" d="M 56.214844 81.03125 C 56.214844 81.417969 56.140625 81.789062 55.992188 82.148438 C 55.839844 82.507812 55.628906 82.824219 55.355469 83.097656 C 55.082031 83.375 54.765625 83.585938 54.40625 83.734375 C 54.046875 83.882812 53.671875 83.957031 53.285156 83.957031 C 52.898438 83.957031 52.523438 83.882812 52.164062 83.734375 C 51.804688 83.585938 51.488281 83.375 51.214844 83.097656 C 50.941406 82.824219 50.730469 82.507812 50.582031 82.148438 C 50.429688 81.789062 50.355469 81.417969 50.355469 81.03125 C 50.355469 80.640625 50.429688 80.269531 50.582031 79.910156 C 50.730469 79.550781 50.941406 79.234375 51.214844 78.960938 C 51.488281 78.6875 51.804688 78.472656 52.164062 78.324219 C 52.523438 78.175781 52.898438 78.101562 53.285156 78.101562 C 53.671875 78.101562 54.046875 78.175781 54.40625 78.324219 C 54.765625 78.472656 55.082031 78.6875 55.355469 78.960938 C 55.628906 79.234375 55.839844 79.550781 55.992188 79.910156 C 56.140625 80.269531 56.214844 80.640625 56.214844 81.03125 Z M 56.214844 81.03125 " fill-opacity="1" fill-rule="nonzero"/><path fill="rgb(0%, 0%, 0%)" d="M 56.519531 71.167969 C 56.519531 71.597656 56.4375 72.007812 56.273438 72.402344 C 56.109375 72.800781 55.875 73.148438 55.570312 73.453125 C 55.269531 73.753906 54.917969 73.988281 54.523438 74.152344 C 54.125 74.316406 53.714844 74.398438 53.285156 74.398438 C 52.855469 74.398438 52.445312 74.316406 52.046875 74.152344 C 51.652344 73.988281 51.300781 73.753906 51 73.453125 C 50.695312 73.148438 50.460938 72.800781 50.296875 72.402344 C 50.132812 72.007812 50.050781 71.597656 50.050781 71.167969 C 50.050781 70.738281 50.132812 70.328125 50.296875 69.929688 C 50.460938 69.535156 50.695312 69.1875 51 68.882812 C 51.300781 68.578125 51.652344 68.347656 52.046875 68.183594 C 52.445312 68.019531 52.855469 67.9375 53.285156 67.9375 C 53.714844 67.9375 54.125 68.019531 54.523438 68.183594 C 54.917969 68.347656 55.269531 68.578125 55.570312 68.882812 C 55.875 69.1875 56.109375 69.535156 56.273438 69.929688 C 56.4375 70.328125 56.519531 70.738281 56.519531 71.167969 Z M 56.519531 71.167969 " fill-opacity="1" fill-rule="nonzero"/><path fill="rgb(0%, 0%, 0%)" d="M 53.285156 37.402344 C 53.714844 37.402344 54.125 37.320312 54.523438 37.15625 C 54.917969 36.992188 55.269531 36.757812 55.570312 36.457031 C 55.875 36.152344 56.109375 35.804688 56.273438 35.40625 C 56.4375 35.011719 56.519531 34.597656 56.519531 34.171875 C 56.519531 33.742188 56.4375 33.332031 56.273438 32.933594 C 56.109375 32.539062 55.875 32.1875 55.570312 31.886719 C 55.269531 31.582031 54.917969 31.351562 54.523438 31.1875 C 54.125 31.023438 53.714844 30.941406 53.285156 30.941406 C 52.855469 30.941406 52.445312 31.023438 52.046875 31.1875 C 51.652344 31.351562 51.300781 31.582031 51 31.886719 C 50.695312 32.1875 50.460938 32.539062 50.296875 32.933594 C 50.132812 33.332031 50.050781 33.742188 50.050781 34.171875 C 50.054688 34.597656 50.136719 35.011719 50.304688 35.40625 C 50.46875 35.800781 50.703125 36.148438 51.003906 36.449219 C 51.308594 36.753906 51.65625 36.988281 52.050781 37.152344 C 52.445312 37.316406 52.855469 37.398438 53.285156 37.402344 Z M 53.285156 37.402344 " fill-opacity="1" fill-rule="nonzero"/><path fill="rgb(0%, 0%, 0%)" d="M 21.214844 51.59375 C 20.90625 51.59375 20.609375 51.648438 20.320312 51.765625 C 20.035156 51.882812 19.785156 52.050781 19.566406 52.265625 C 19.34375 52.484375 19.175781 52.734375 19.058594 53.019531 C 18.9375 53.300781 18.878906 53.597656 18.878906 53.90625 C 18.878906 54.214844 18.933594 54.511719 19.054688 54.796875 C 19.171875 55.082031 19.339844 55.332031 19.558594 55.550781 C 19.773438 55.769531 20.027344 55.9375 20.3125 56.054688 C 20.597656 56.171875 20.894531 56.230469 21.203125 56.230469 C 21.511719 56.230469 21.808594 56.167969 22.089844 56.050781 C 22.375 55.929688 22.625 55.761719 22.84375 55.542969 C 23.0625 55.324219 23.226562 55.070312 23.34375 54.785156 C 23.460938 54.5 23.515625 54.203125 23.515625 53.894531 C 23.515625 53.589844 23.457031 53.296875 23.339844 53.015625 C 23.222656 52.734375 23.058594 52.484375 22.839844 52.269531 C 22.625 52.054688 22.375 51.886719 22.09375 51.769531 C 21.8125 51.652344 21.519531 51.59375 21.214844 51.59375 Z M 21.214844 51.59375 " fill-opacity="1" fill-rule="nonzero"/><path fill="rgb(0%, 0%, 0%)" d="M 28.609375 50.984375 C 28.21875 50.984375 27.847656 51.058594 27.488281 51.210938 C 27.128906 51.359375 26.8125 51.570312 26.535156 51.84375 C 26.261719 52.121094 26.050781 52.4375 25.902344 52.796875 C 25.753906 53.15625 25.679688 53.53125 25.679688 53.917969 C 25.683594 54.308594 25.757812 54.679688 25.90625 55.039062 C 26.058594 55.398438 26.269531 55.714844 26.546875 55.988281 C 26.820312 56.261719 27.136719 56.472656 27.496094 56.621094 C 27.859375 56.769531 28.230469 56.839844 28.621094 56.839844 C 29.007812 56.835938 29.382812 56.761719 29.742188 56.613281 C 30.101562 56.460938 30.417969 56.246094 30.691406 55.972656 C 30.964844 55.695312 31.171875 55.378906 31.320312 55.019531 C 31.46875 54.660156 31.539062 54.285156 31.539062 53.894531 C 31.535156 53.507812 31.460938 53.136719 31.308594 52.78125 C 31.160156 52.425781 30.949219 52.109375 30.671875 51.835938 C 30.398438 51.566406 30.082031 51.355469 29.726562 51.207031 C 29.367188 51.058594 28.996094 50.984375 28.609375 50.984375 Z M 28.609375 50.984375 " fill-opacity="1" fill-rule="nonzero"/><path fill="rgb(0%, 0%, 0%)" d="M 85.441406 51.59375 C 85.132812 51.59375 84.835938 51.652344 84.554688 51.773438 C 84.269531 51.890625 84.019531 52.058594 83.800781 52.277344 C 83.582031 52.492188 83.414062 52.746094 83.296875 53.03125 C 83.179688 53.3125 83.121094 53.609375 83.125 53.917969 C 83.125 54.226562 83.183594 54.523438 83.300781 54.804688 C 83.421875 55.089844 83.589844 55.339844 83.808594 55.558594 C 84.027344 55.773438 84.277344 55.941406 84.5625 56.058594 C 84.847656 56.175781 85.144531 56.230469 85.453125 56.230469 C 85.761719 56.230469 86.058594 56.167969 86.339844 56.046875 C 86.625 55.929688 86.875 55.761719 87.089844 55.542969 C 87.308594 55.324219 87.472656 55.070312 87.589844 54.785156 C 87.707031 54.5 87.761719 54.203125 87.761719 53.894531 C 87.761719 53.589844 87.703125 53.292969 87.582031 53.011719 C 87.464844 52.726562 87.296875 52.480469 87.082031 52.261719 C 86.863281 52.046875 86.613281 51.882812 86.328125 51.765625 C 86.042969 51.648438 85.75 51.59375 85.441406 51.59375 Z M 85.441406 51.59375 " fill-opacity="1" fill-rule="nonzero"/><path fill="rgb(0%, 0%, 0%)" d="M 77.960938 56.820312 C 78.347656 56.820312 78.722656 56.746094 79.082031 56.597656 C 79.441406 56.449219 79.757812 56.238281 80.03125 55.964844 C 80.304688 55.691406 80.519531 55.375 80.667969 55.015625 C 80.816406 54.65625 80.890625 54.285156 80.890625 53.894531 C 80.890625 53.507812 80.816406 53.132812 80.667969 52.777344 C 80.519531 52.417969 80.304688 52.101562 80.03125 51.828125 C 79.757812 51.550781 79.441406 51.339844 79.082031 51.191406 C 78.722656 51.042969 78.347656 50.96875 77.960938 50.96875 C 77.574219 50.96875 77.199219 51.042969 76.839844 51.191406 C 76.480469 51.339844 76.164062 51.550781 75.890625 51.828125 C 75.617188 52.101562 75.40625 52.417969 75.257812 52.777344 C 75.109375 53.132812 75.035156 53.507812 75.035156 53.894531 C 75.035156 54.285156 75.109375 54.65625 75.257812 55.015625 C 75.40625 55.375 75.617188 55.691406 75.890625 55.964844 C 76.164062 56.238281 76.480469 56.449219 76.839844 56.597656 C 77.199219 56.746094 77.574219 56.820312 77.960938 56.820312 Z M 77.960938 56.820312 " fill-opacity="1" fill-rule="nonzero"/><path fill="rgb(0%, 0%, 0%)" d="M 70.515625 78.933594 C 69.90625 78.816406 69.34375 78.921875 68.820312 79.253906 C 68.296875 79.605469 67.964844 80.089844 67.824219 80.707031 C 67.785156 80.875 67.769531 81.046875 67.769531 81.21875 C 67.773438 81.394531 67.792969 81.5625 67.832031 81.730469 C 67.871094 81.898438 67.929688 82.0625 68.007812 82.214844 C 68.082031 82.371094 68.175781 82.515625 68.285156 82.648438 C 68.394531 82.785156 68.515625 82.902344 68.652344 83.011719 C 68.789062 83.117188 68.933594 83.207031 69.089844 83.28125 C 69.246094 83.355469 69.410156 83.410156 69.578125 83.445312 C 69.746094 83.484375 69.917969 83.5 70.089844 83.5 C 70.355469 83.5 70.613281 83.453125 70.859375 83.367188 C 71.109375 83.277344 71.335938 83.152344 71.539062 82.984375 C 71.746094 82.820312 71.917969 82.621094 72.054688 82.398438 C 72.191406 82.171875 72.289062 81.929688 72.34375 81.671875 C 72.464844 81.066406 72.359375 80.5 72.019531 79.980469 C 71.664062 79.421875 71.164062 79.074219 70.515625 78.933594 Z M 70.515625 78.933594 " fill-opacity="1" fill-rule="nonzero"/><path fill="rgb(0%, 0%, 0%)" d="M 68.855469 75.597656 C 69.03125 74.808594 68.894531 74.078125 68.449219 73.398438 C 68.3125 73.1875 68.148438 72.996094 67.960938 72.824219 C 67.773438 72.652344 67.566406 72.511719 67.339844 72.394531 C 67.117188 72.277344 66.878906 72.191406 66.632812 72.132812 C 66.382812 72.078125 66.132812 72.054688 65.878906 72.066406 C 65.625 72.074219 65.378906 72.117188 65.132812 72.191406 C 64.890625 72.265625 64.664062 72.371094 64.445312 72.503906 C 64.230469 72.636719 64.035156 72.796875 63.863281 72.980469 C 63.6875 73.167969 63.539062 73.371094 63.417969 73.59375 C 63.296875 73.816406 63.207031 74.050781 63.148438 74.296875 C 63.085938 74.542969 63.058594 74.792969 63.0625 75.046875 C 63.070312 75.300781 63.105469 75.550781 63.175781 75.796875 C 63.246094 76.039062 63.347656 76.269531 63.476562 76.488281 C 63.605469 76.707031 63.761719 76.902344 63.945312 77.082031 C 64.125 77.257812 64.324219 77.410156 64.546875 77.535156 C 64.769531 77.660156 65 77.757812 65.246094 77.820312 C 65.492188 77.886719 65.742188 77.917969 65.996094 77.917969 C 66.332031 77.917969 66.65625 77.859375 66.972656 77.75 C 67.289062 77.636719 67.574219 77.476562 67.835938 77.265625 C 68.097656 77.054688 68.3125 76.804688 68.488281 76.519531 C 68.664062 76.234375 68.785156 75.925781 68.855469 75.597656 Z M 68.855469 75.597656 " fill-opacity="1" fill-rule="nonzero"/><path fill="rgb(0%, 0%, 0%)" d="M 37.039062 79.253906 C 36.515625 78.929688 35.949219 78.824219 35.34375 78.933594 C 34.722656 79.066406 34.238281 79.398438 33.890625 79.929688 C 33.550781 80.449219 33.445312 81.015625 33.566406 81.621094 C 33.691406 82.25 34.023438 82.734375 34.566406 83.078125 C 34.945312 83.328125 35.363281 83.449219 35.820312 83.449219 C 36.207031 83.449219 36.574219 83.355469 36.917969 83.167969 C 37.257812 82.984375 37.535156 82.726562 37.75 82.398438 C 38.089844 81.878906 38.195312 81.316406 38.070312 80.707031 C 37.929688 80.078125 37.585938 79.59375 37.039062 79.253906 Z M 37.039062 79.253906 " fill-opacity="1" fill-rule="nonzero"/><path fill="rgb(0%, 0%, 0%)" d="M 41.4375 72.539062 C 41.113281 72.328125 40.757812 72.1875 40.378906 72.117188 C 39.996094 72.046875 39.617188 72.050781 39.238281 72.132812 C 38.859375 72.214844 38.507812 72.363281 38.1875 72.582031 C 37.871094 72.804688 37.605469 73.074219 37.394531 73.398438 C 36.941406 74.074219 36.800781 74.808594 36.96875 75.597656 C 37.144531 76.386719 37.566406 77 38.238281 77.441406 C 38.566406 77.65625 38.917969 77.796875 39.300781 77.867188 C 39.683594 77.941406 40.0625 77.933594 40.441406 77.855469 C 40.824219 77.773438 41.171875 77.625 41.492188 77.40625 C 41.8125 77.1875 42.082031 76.914062 42.292969 76.589844 C 42.503906 76.265625 42.648438 75.910156 42.71875 75.527344 C 42.789062 75.148438 42.785156 74.765625 42.703125 74.386719 C 42.625 74.007812 42.476562 73.65625 42.253906 73.335938 C 42.035156 73.015625 41.761719 72.75 41.4375 72.539062 Z M 41.4375 72.539062 " fill-opacity="1" fill-rule="nonzero"/><path fill="rgb(0%, 0%, 0%)" d="M 68.769531 28.214844 C 69.292969 28.550781 69.855469 28.65625 70.464844 28.539062 C 71.085938 28.40625 71.570312 28.070312 71.917969 27.539062 C 72.085938 27.28125 72.195312 27.003906 72.253906 26.703125 C 72.308594 26.402344 72.304688 26.101562 72.242188 25.800781 C 72.175781 25.503906 72.058594 25.226562 71.886719 24.972656 C 71.714844 24.71875 71.5 24.511719 71.242188 24.34375 C 70.71875 24.011719 70.15625 23.90625 69.550781 24.019531 C 68.933594 24.160156 68.445312 24.492188 68.09375 25.019531 C 67.761719 25.539062 67.65625 26.105469 67.773438 26.710938 C 67.898438 27.347656 68.234375 27.851562 68.769531 28.214844 Z M 68.769531 28.214844 " fill-opacity="1" fill-rule="nonzero"/><path fill="rgb(0%, 0%, 0%)" d="M 64.40625 34.933594 C 64.730469 35.144531 65.085938 35.285156 65.464844 35.355469 C 65.847656 35.425781 66.230469 35.421875 66.609375 35.339844 C 66.988281 35.261719 67.339844 35.109375 67.660156 34.890625 C 67.980469 34.671875 68.246094 34.398438 68.457031 34.070312 C 68.667969 33.746094 68.808594 33.390625 68.878906 33.011719 C 68.949219 32.628906 68.945312 32.246094 68.863281 31.867188 C 68.78125 31.488281 68.632812 31.136719 68.410156 30.820312 C 68.191406 30.5 67.917969 30.234375 67.59375 30.023438 C 67.265625 29.8125 66.910156 29.671875 66.53125 29.601562 C 66.148438 29.53125 65.765625 29.535156 65.386719 29.617188 C 65.007812 29.699219 64.65625 29.847656 64.335938 30.070312 C 64.019531 30.289062 63.753906 30.5625 63.542969 30.890625 C 63.328125 31.214844 63.1875 31.566406 63.117188 31.949219 C 63.042969 32.332031 63.046875 32.710938 63.128906 33.089844 C 63.210938 33.46875 63.363281 33.820312 63.582031 34.140625 C 63.804688 34.457031 64.078125 34.722656 64.40625 34.933594 Z M 64.40625 34.933594 " fill-opacity="1" fill-rule="nonzero"/><path fill="rgb(0%, 0%, 0%)" d="M 35.292969 28.539062 C 35.453125 28.554688 35.609375 28.554688 35.769531 28.539062 C 36.226562 28.53125 36.648438 28.410156 37.039062 28.164062 C 37.566406 27.816406 37.890625 27.332031 38.019531 26.710938 C 38.144531 26.101562 38.035156 25.539062 37.699219 25.019531 C 37.351562 24.484375 36.867188 24.152344 36.242188 24.019531 C 35.632812 23.898438 35.070312 24.003906 34.550781 24.34375 C 34.296875 24.511719 34.085938 24.726562 33.914062 24.980469 C 33.746094 25.230469 33.628906 25.507812 33.566406 25.808594 C 33.507812 26.105469 33.503906 26.40625 33.558594 26.703125 C 33.613281 27.003906 33.726562 27.28125 33.890625 27.539062 C 34.222656 28.0625 34.691406 28.394531 35.292969 28.539062 Z M 35.292969 28.539062 " fill-opacity="1" fill-rule="nonzero"/><path fill="rgb(0%, 0%, 0%)" d="M 37.359375 34.085938 C 37.628906 34.5 37.984375 34.824219 38.417969 35.058594 C 38.855469 35.289062 39.320312 35.40625 39.8125 35.40625 C 40.390625 35.40625 40.921875 35.246094 41.402344 34.933594 C 41.730469 34.71875 42.003906 34.453125 42.222656 34.132812 C 42.441406 33.8125 42.589844 33.464844 42.671875 33.082031 C 42.75 32.703125 42.757812 32.320312 42.683594 31.941406 C 42.613281 31.558594 42.46875 31.203125 42.257812 30.878906 C 42.046875 30.554688 41.777344 30.28125 41.457031 30.0625 C 41.136719 29.84375 40.785156 29.695312 40.40625 29.617188 C 40.027344 29.535156 39.644531 29.53125 39.261719 29.605469 C 38.882812 29.675781 38.527344 29.820312 38.203125 30.03125 C 37.878906 30.246094 37.605469 30.511719 37.386719 30.832031 C 37.167969 31.152344 37.019531 31.503906 36.941406 31.882812 C 36.859375 32.265625 36.859375 32.644531 36.929688 33.027344 C 37.003906 33.410156 37.144531 33.761719 37.359375 34.085938 Z M 37.359375 34.085938 " fill-opacity="1" fill-rule="nonzero"/></svg>