<?xml version="1.0" encoding="UTF-8" standalone="no" ?>
<!DOCTYPE svg PUBLIC "-//W3C//DTD SVG 1.1//EN" "http://www.w3.org/Graphics/SVG/1.1/DTD/svg11.dtd">
<svg xmlns="http://www.w3.org/2000/svg" xmlns:xlink="http://www.w3.org/1999/xlink" version="1.1" width="500" height="500" viewBox="0 0 500 500" xml:space="preserve">
<desc>Created with Fabric.js 4.6.0</desc>
<defs>
</defs>
<g transform="matrix(1.31 0 0 1.31 250.53 251.98)" id="C9EoA2d-H2MxsKfrwvmP9"  >
<path style="stroke: rgb(104,31,29); stroke-width: 0; stroke-dasharray: none; stroke-linecap: butt; stroke-dashoffset: 0; stroke-linejoin: miter; stroke-miterlimit: 4; fill: rgb(255,255,255); fill-rule: nonzero; opacity: 1;" vector-effect="non-scaling-stroke"  transform=" translate(0, 0)" d="M 0 -187.5 C 103.5 -187.5 187.5 -103.5 187.5 0 C 187.5 103.5 103.5 187.5 0 187.5 C -103.5 187.5 -187.5 103.5 -187.5 0 C -187.5 -103.5 -103.5 -187.5 0 -187.5 z" stroke-linecap="round" />
</g>
<g transform="matrix(0.15 0 0 0.15 250 250)" id="rims3i9t6F4YTWrnqagrO"  >
<path style="stroke: none; stroke-width: 1; stroke-dasharray: none; stroke-linecap: butt; stroke-dashoffset: 0; stroke-linejoin: miter; stroke-miterlimit: 4; fill: rgb(12,10,11); fill-rule: evenodd; opacity: 1;" vector-effect="non-scaling-stroke"  transform=" translate(-1325, -989)" d="M 385 426 L 745 426 L 695 208 L 866 370 L 944 580 L 944 82 L 1053 186 L 1053 543 L 1086 245 L 1143 167 L 1141 665 L 1252 642 L 1271 393 L 1482 594 L 1252 642 L 1238 840 L 1328 705 L 1550 659 L 1779 876 L 1895 837 L 1891 565 L 1720 549 L 1537 470 L 1548 389 L 1669 348 L 1895 368 L 1996 82 L 1996 459 L 2062 483 L 2337 352 L 2642 381 L 2540 553 L 2534 676 L 2472 798 L 2476 912 L 2423 1017 L 2421 1136 L 2341 1241 L 2261 1095 L 2228 1114 L 2322 1280 L 2109 1555 L 2202 1279 L 2095 1178 L 2047 1342 L 2076 1442 L 2045 1545 L 2020 1440 L 2047 1342 L 1967 1173 L 1918 1266 L 1791 1340 L 1624 1278 L 1400 1398 L 1698 1572 L 1524 1567 L 1568 1810 L 1376 1896 L 956 1896 L 841 1787 L 841 1567 L 1060 1567 L 1365 1808 L 1495 1813 L 1389 1649 L 1524 1567 L 1400 1398 L 960 1286 L 1041 1189 L 933 1125 L 710 1769 L 385 1769 L 385 1444 L 642 1188 L 788 1046 L 638 1079 L 385 1360 L 276 1338 L 285 1235 L 371 1122 L 248 1050 L 406 874 L 305 771 L 570 576 L 8 690 L 385 426 z M 1625 1000 L 1895 978 L 1895 1108 L 1625 1000 z" stroke-linecap="round" />
</g>
<g transform="matrix(0.15 0 0 0.15 200.89 360.97)" id="kuNwjMS-fyz40O3iYPiLj"  >
<path style="stroke: none; stroke-width: 1; stroke-dasharray: none; stroke-linecap: butt; stroke-dashoffset: 0; stroke-linejoin: miter; stroke-miterlimit: 4; fill: rgb(229,63,51); fill-rule: nonzero; opacity: 1;" vector-effect="non-scaling-stroke"  transform=" translate(-1001.5, -1720)" d="M 943 1720 L 1001 1662 L 1060 1720 L 1001 1778 z" stroke-linecap="round" />
</g>
<g transform="matrix(0.15 0 0 0.15 164.84 304.88)" id="1Vt5qcvJfodituF4ucHCd"  >
<path style="stroke: none; stroke-width: 1; stroke-dasharray: none; stroke-linecap: butt; stroke-dashoffset: 0; stroke-linejoin: miter; stroke-miterlimit: 4; fill: rgb(166,187,30); fill-rule: nonzero; opacity: 1;" vector-effect="non-scaling-stroke"  transform=" translate(-764, -1350.5)" d="M 933 1125 L 687 1219 L 595 1428 L 777 1576 z" stroke-linecap="round" />
</g>
<g transform="matrix(0.15 0 0 0.15 172.81 235.5)" id="_A9a_jLbl85tPJuzhRDko"  >
<path style="stroke: none; stroke-width: 1; stroke-dasharray: none; stroke-linecap: butt; stroke-dashoffset: 0; stroke-linejoin: miter; stroke-miterlimit: 4; fill: rgb(225,80,95); fill-rule: nonzero; opacity: 1;" vector-effect="non-scaling-stroke"  transform=" translate(-816.5, -893.5)" d="M 911 712 L 987 835 L 841 956 L 541 837 L 587 984 L 490 1013 L 788 1046 L 934 1122 L 841 956 L 1143 806 L 1141 665 z" stroke-linecap="round" />
</g>
<g transform="matrix(0.15 0 0 0.15 161.27 201.5)" id="x4DApGGGBGhhBOZKqkqdr"  >
<path style="stroke: none; stroke-width: 1; stroke-dasharray: none; stroke-linecap: butt; stroke-dashoffset: 0; stroke-linejoin: miter; stroke-miterlimit: 4; fill: rgb(55,131,93); fill-rule: nonzero; opacity: 1;" vector-effect="non-scaling-stroke"  transform=" translate(-740.5, -669.5)" d="M 570 576 L 667 763 L 911 712 z" stroke-linecap="round" />
</g>
<g transform="matrix(0.15 0 0 0.15 235.65 244.84)" id="b-VJZuEn2OBZpckIN_yGp"  >
<path style="stroke: none; stroke-width: 1; stroke-dasharray: none; stroke-linecap: butt; stroke-dashoffset: 0; stroke-linejoin: miter; stroke-miterlimit: 4; fill: rgb(124,202,202); fill-rule: nonzero; opacity: 1;" vector-effect="non-scaling-stroke"  transform=" translate(-1230.5, -955)" d="M 1143 1108 L 1318 1017 L 1240 845 L 1143 802 z" stroke-linecap="round" />
</g>
<g transform="matrix(0.15 0 0 0.15 214.63 277.55)" id="yfhk1TEXTKPzKesO1fi9G"  >
<path style="stroke: none; stroke-width: 1; stroke-dasharray: none; stroke-linecap: butt; stroke-dashoffset: 0; stroke-linejoin: miter; stroke-miterlimit: 4; fill: rgb(229,63,51); fill-rule: nonzero; opacity: 1;" vector-effect="non-scaling-stroke"  transform=" translate(-1092, -1170.5)" d="M 1041 1189 L 1112 1233 L 1143 1108 z" stroke-linecap="round" />
</g>
<g transform="matrix(0.15 0 0 0.15 223.59 287.34)" id="EJeRPTayCLNDRUIwhXpxL"  >
<path style="stroke: none; stroke-width: 1; stroke-dasharray: none; stroke-linecap: butt; stroke-dashoffset: 0; stroke-linejoin: miter; stroke-miterlimit: 4; fill: rgb(128,186,128); fill-rule: nonzero; opacity: 1;" vector-effect="non-scaling-stroke"  transform=" translate(-1151, -1235)" d="M 1112 1233 L 1190 1276 L 1189 1194 z" stroke-linecap="round" />
</g>
<g transform="matrix(0.15 0 0 0.15 297.82 231.48)" id="otkkzEqdiE3KnFKBCgWdm"  >
<path style="stroke: none; stroke-width: 1; stroke-dasharray: none; stroke-linecap: butt; stroke-dashoffset: 0; stroke-linejoin: miter; stroke-miterlimit: 4; fill: rgb(229,63,51); fill-rule: nonzero; opacity: 1;" vector-effect="non-scaling-stroke"  transform=" translate(-1640, -867)" d="M 1628 791 L 1501 839 L 1605 943 L 1779 876 z" stroke-linecap="round" />
</g>
<g transform="matrix(0.15 0 0 0.15 280.89 267.31)" id="HX7C6OLMYt3B82QZUFBqO"  >
<path style="stroke: none; stroke-width: 1; stroke-dasharray: none; stroke-linecap: butt; stroke-dashoffset: 0; stroke-linejoin: miter; stroke-miterlimit: 4; fill: rgb(166,187,30); fill-rule: nonzero; opacity: 1;" vector-effect="non-scaling-stroke"  transform=" translate(-1528.5, -1103)" d="M 1625 1000 L 1347 1122 L 1605 1206 L 1704 1149 L 1707 1091 L 1710 1034 z" stroke-linecap="round" />
</g>
<g transform="matrix(0.15 0 0 0.15 272.24 258.12)" id="NoWNXuACLGWsCyeshbdYn"  >
<path style="stroke: none; stroke-width: 1; stroke-dasharray: none; stroke-linecap: butt; stroke-dashoffset: 0; stroke-linejoin: miter; stroke-miterlimit: 4; fill: rgb(229,63,51); fill-rule: nonzero; opacity: 1;" vector-effect="non-scaling-stroke"  transform=" translate(-1471.5, -1042.5)" d="M 1318 1017 L 1324 1085 L 1625 1000 z" stroke-linecap="round" />
</g>
<g transform="matrix(0.15 0 0 0.15 344.19 170.53)" id="AcFFz0MzgHG4pWNBmx2yK"  >
<path style="stroke: none; stroke-width: 1; stroke-dasharray: none; stroke-linecap: butt; stroke-dashoffset: 0; stroke-linejoin: miter; stroke-miterlimit: 4; fill: rgb(133,195,172); fill-rule: nonzero; opacity: 1;" vector-effect="non-scaling-stroke"  transform=" translate(-1945.5, -465.5)" d="M 1895 563 L 1992 517 L 1996 459 L 1895 368 z" stroke-linecap="round" />
</g>
<g transform="matrix(0.15 0 0 0.15 358.92 189.51)" id="L2RT5bU6SDV-qDumrdxZn"  >
<path style="stroke: none; stroke-width: 1; stroke-dasharray: none; stroke-linecap: butt; stroke-dashoffset: 0; stroke-linejoin: miter; stroke-miterlimit: 4; fill: rgb(229,63,51); fill-rule: nonzero; opacity: 1;" vector-effect="non-scaling-stroke"  transform=" translate(-2042.5, -590.5)" d="M 1992 517 L 2062 483 L 2093 597 L 1992 698 z" stroke-linecap="round" />
</g>
<g transform="matrix(0.15 0 0 0.15 418.05 184.35)" id="VDbzmycvSPtzOiufo-Kih"  >
<path style="stroke: none; stroke-width: 1; stroke-dasharray: none; stroke-linecap: butt; stroke-dashoffset: 0; stroke-linejoin: miter; stroke-miterlimit: 4; fill: rgb(166,187,30); fill-rule: nonzero; opacity: 1;" vector-effect="non-scaling-stroke"  transform=" translate(-2432, -556.5)" d="M 2387 619 L 2328 584 L 2324 547 L 2413 494 L 2540 553 z" stroke-linecap="round" />
</g>
<g transform="matrix(0.15 0 0 0.15 412.28 223.36)" id="68-xXMUups3yUOr0MpgWs"  >
<path style="stroke: none; stroke-width: 1; stroke-dasharray: none; stroke-linecap: butt; stroke-dashoffset: 0; stroke-linejoin: miter; stroke-miterlimit: 4; fill: rgb(229,63,51); fill-rule: nonzero; opacity: 1;" vector-effect="non-scaling-stroke"  transform=" translate(-2394, -813.5)" d="M 2349 850 L 2316 835 L 2316 808 L 2384 777 L 2472 798 z" stroke-linecap="round" />
</g>
<g transform="matrix(0.15 0 0 0.15 404.84 257.44)" id="IMlGUGXl3gg8m1H3iIEEG"  >
<path style="stroke: none; stroke-width: 1; stroke-dasharray: none; stroke-linecap: butt; stroke-dashoffset: 0; stroke-linejoin: miter; stroke-miterlimit: 4; fill: rgb(147,200,132); fill-rule: nonzero; opacity: 1;" vector-effect="non-scaling-stroke"  transform=" translate(-2345, -1038)" d="M 2300 1070 L 2267 1054 L 2267 1028 L 2334 997 L 2423 1017 L 2363 1079 z" stroke-linecap="round" />
</g>
<g transform="matrix(0.15 0 0 0.15 367.57 239.91)" id="_G4BnkJAAdHZIdq_1vDnu"  >
<path style="stroke: none; stroke-width: 1; stroke-dasharray: none; stroke-linecap: butt; stroke-dashoffset: 0; stroke-linejoin: miter; stroke-miterlimit: 4; fill: rgb(55,131,93); fill-rule: nonzero; opacity: 1;" vector-effect="non-scaling-stroke"  transform=" translate(-2099.5, -922.5)" d="M 1981 1143 L 2218 657 L 2093 1188 z" stroke-linecap="round" />
</g>
<g transform="matrix(0.15 0 0 0.15 342.52 273.23)" id="fcDxxFBcN_qpU1nOJF7gO"  >
<path style="stroke: none; stroke-width: 1; stroke-dasharray: none; stroke-linecap: butt; stroke-dashoffset: 0; stroke-linejoin: miter; stroke-miterlimit: 4; fill: rgb(229,63,51); fill-rule: nonzero; opacity: 1;" vector-effect="non-scaling-stroke"  transform=" translate(-1934.5, -1142)" d="M 1888 1111 L 1967 1173 L 1981 1143 z" stroke-linecap="round" />
</g>
<g transform="matrix(0.15 0 0 0.15 315.96 280.97)" id="wh0qZmn6uwUtakFO2wPCL"  >
<path style="stroke: none; stroke-width: 1; stroke-dasharray: none; stroke-linecap: butt; stroke-dashoffset: 0; stroke-linejoin: miter; stroke-miterlimit: 4; fill: rgb(229,63,51); fill-rule: nonzero; opacity: 1;" vector-effect="non-scaling-stroke"  transform=" translate(-1759.5, -1193)" d="M 1731 1163 L 1624 1278 L 1895 1108 z" stroke-linecap="round" />
</g>
<g transform="matrix(0.15 0 0 0.15 172.5 174.02)" id="sK18SITFqNFmMYVxmIco-"  >
<path style="stroke: none; stroke-width: 1; stroke-dasharray: none; stroke-linecap: butt; stroke-dashoffset: 0; stroke-linejoin: miter; stroke-miterlimit: 4; fill: rgb(229,63,51); fill-rule: nonzero; opacity: 1;" vector-effect="non-scaling-stroke"  transform=" translate(-814.5, -488.5)" d="M 745 426 L 825 551 L 884 528 z" stroke-linecap="round" />
</g>
</svg>