<?xml version="1.0" encoding="utf-8"?>
<svg id="master-artboard" height="500px" width="500px" viewBox="0 0 500 500" xmlns="http://www.w3.org/2000/svg"><g transform="matrix(0.17219369113445282, 0, 0, 0.17219369113445282, 15.775679382006757, 20.34517733974039)"><defs>
  
 <linearGradient id="gradient-0" gradientUnits="userSpaceOnUse" x1="654" y1="778" x2="654" y2="884">
                <stop offset="0" style="stop-color: #333333"/>
                <stop offset="1" style="stop-color: #000000"/>
              </linearGradient><linearGradient id="gradient-1" gradientUnits="objectBoundingBox" x1="0.5" y1="0" x2="0.5" y2="1">
                <stop offset="0" style="stop-color: #0c0a0b"/>
                <stop offset="1" style="stop-color: #000000"/>
              </linearGradient><style id="ee-google-fonts">@import url(https://fonts.googleapis.com/css?family=Aclonica:400);</style></defs><g id="Layer_x0020_1">
  <metadata id="CorelCorpID_0Corel-Layer"/>
  <path class="fil0" d="M385 426l360 0 -50 -218 171 162 78 210 0 -498 109 104 0 357 33 -298 57 -78 -2 498 111 -23 19 -249 211 201 -230 48 -14 198 90 -135 222 -46 229 217 116 -39 -4 -272 -171 -16 -183 -79 11 -81 121 -41 226 20 101 -286 0 377 66 24 275 -131 305 29 -102 172 -6 123 -62 122 4 114 -53 105 -2 119 -80 105 -80 -146 -33 19 94 166 -213 275 93 -276 -107 -101 -48 164 29 100 -31 103 -25 -105 27 -98 -80 -169 -49 93 -127 74 -167 -62 -224 120 298 174 -174 -5 44 243 -192 86 -420 0 -115 -109 0 -220 219 0 305 241 130 5 -106 -164 135 -82 -124 -169 -440 -112 81 -97 -108 -64 -223 644 -325 0 0 -325 257 -256 146 -142 -150 33 -253 281 -109 -22 9 -103 86 -113 -123 -72 158 -176 -101 -103 265 -195 -562 114 377 -264zm1240 574l270 -22 0 130 -270 -108z" style="fill: rgb(12, 10, 11);"/>
  <path d="M 943 1720 L 1001 1662 L 1060 1720 L 1001 1778 Z" class="fil1" style="fill: rgb(229, 63, 51);"/>
  <path d="M 933 1125 L 687 1219 L 595 1428 L 777 1576 Z" class="fil2" style="fill: rgb(166, 187, 30);"/>
  <path d="M 911 712 L 987 835 L 841 956 L 541 837 L 587 984 L 490 1013 L 788 1046 L 934 1122 L 841 956 L 1143 806 L 1141 665 Z" class="fil3" style="fill: rgb(225, 80, 95);"/>
  <path d="M 570 576 L 667 763 L 911 712 Z" class="fil4" style="fill: rgb(55, 131, 93);"/>
  <path d="M 1143 1108 L 1318 1017 L 1240 845 L 1143 802 Z" class="fil5" style="fill: rgb(124, 202, 202);"/>
  <path d="M 1041 1189 L 1112 1233 L 1143 1108 Z" class="fil6" style="fill: rgb(229, 63, 51);"/>
  <path d="M 1112 1233 L 1190 1276 L 1189 1194 Z" class="fil7" style="fill: rgb(128, 186, 128);"/>
  <path d="M 1628 791 L 1501 839 L 1605 943 L 1779 876 Z" class="fil6" style="fill: rgb(229, 63, 51);"/>
  <path d="M 1625 1000 L 1347 1122 L 1605 1206 L 1704 1149 L 1707 1091 L 1710 1034 Z" class="fil2" style="fill: rgb(166, 187, 30);"/>
  <path d="M 1318 1017 L 1324 1085 L 1625 1000 Z" class="fil6" style="fill: rgb(229, 63, 51);"/>
  <path d="M 1895 563 L 1992 517 L 1996 459 L 1895 368 Z" class="fil8" style="fill: rgb(133, 195, 172);"/>
  <path d="M 1992 517 L 2062 483 L 2093 597 L 1992 698 Z" class="fil1" style="fill: rgb(229, 63, 51);"/>
  <path d="M 2387 619 L 2328 584 L 2324 547 L 2413 494 L 2540 553 Z" class="fil9" style="fill: rgb(166, 187, 30);"/>
  <path d="M 2349 850 L 2316 835 L 2316 808 L 2384 777 L 2472 798 Z" class="fil1" style="fill: rgb(229, 63, 51);"/>
  <path d="M 2300 1070 L 2267 1054 L 2267 1028 L 2334 997 L 2423 1017 L 2363 1079 Z" class="fil10" style="fill: rgb(147, 200, 132);"/>
  <path d="M 1981 1143 L 2218 657 L 2093 1188 Z" class="fil4" style="fill: rgb(55, 131, 93);"/>
  <path d="M 1888 1111 L 1967 1173 L 1981 1143 Z" class="fil1" style="fill: rgb(229, 63, 51);"/>
  <path d="M 1731 1163 L 1624 1278 L 1895 1108 Z" class="fil1" style="fill: rgb(229, 63, 51);"/>
  <path d="M 745 426 L 825 551 L 884 528 Z" class="fil1" style="fill: rgb(229, 63, 51);"/>
 </g></g><path d="M 84.43543243408203 394.61492919921875" style="fill: rgb(2, 51, 12); fill-opacity: 1; stroke: rgb(0, 0, 0); stroke-opacity: 1; stroke-width: 0; paint-order: fill;"/><path d="M 215.60592651367188 362.92999267578125 L 215.60592651367188 363.1499938964844 C 215.5859375 363.8033447265625 215.51593017578125 364.48333740234375 215.39593505859375 365.19000244140625 C 215.2759246826172 365.8900146484375 215.10592651367188 366.59332275390625 214.88592529296875 367.29998779296875 C 214.66592407226562 368 214.4059295654297 368.6933288574219 214.10592651367188 369.3800048828125 C 213.7992706298828 370.0666809082031 213.4559326171875 370.7266540527344 213.075927734375 371.3599853515625 C 212.6959228515625 371.9866638183594 212.2892608642578 372.57666015625 211.85592651367188 373.1300048828125 C 211.41592407226562 373.6766662597656 210.9525909423828 374.163330078125 210.46592712402344 374.5899963378906 L 208.72593688964844 373.5799865722656 C 208.999267578125 373.1199951171875 209.2459259033203 372.6166687011719 209.46592712402344 372.07000732421875 C 209.69259643554688 371.5299987792969 209.89593505859375 370.9633483886719 210.075927734375 370.3699951171875 C 210.249267578125 369.77667236328125 210.40260314941406 369.1666564941406 210.5359344482422 368.5400085449219 C 210.66259765625 367.913330078125 210.76925659179688 367.2933349609375 210.85592651367188 366.67999267578125 C 210.94259643554688 366.05999755859375 211.0059356689453 365.45001220703125 211.04592895507812 364.8500061035156 C 211.09259033203125 364.25665283203125 211.11593627929688 363.69000244140625 211.11593627929688 363.1499938964844 C 211.11593627929688 362.7300109863281 211.1125946044922 362.25 211.10592651367188 361.7099914550781 C 211.10592651367188 361.1766662597656 211.075927734375 360.6333312988281 211.01593017578125 360.0799865722656 C 210.9559326171875 359.52667236328125 210.85926818847656 358.9866638183594 210.72593688964844 358.4599914550781 C 210.59259033203125 357.9266662597656 210.39593505859375 357.4533386230469 210.13592529296875 357.0400085449219 C 209.8759307861328 356.6266784667969 209.5392608642578 356.2966613769531 209.1259307861328 356.04998779296875 C 208.71926879882812 355.7966613769531 208.20925903320312 355.6700134277344 207.59593200683594 355.6700134277344 C 207.05593872070312 355.6700134277344 206.59259033203125 355.7633361816406 206.2059326171875 355.95001220703125 C 205.8192596435547 356.1300048828125 205.4925994873047 356.3766784667969 205.22593688964844 356.69000244140625 C 204.95925903320312 356.9966735839844 204.7459259033203 357.35333251953125 204.5859375 357.760009765625 C 204.4192657470703 358.1666564941406 204.2926025390625 358.59332275390625 204.2059326171875 359.0400085449219 C 204.1192626953125 359.4866638183594 204.05926513671875 359.94000244140625 204.0259246826172 360.3999938964844 C 203.999267578125 360.8599853515625 203.98593139648438 361.2933349609375 203.98593139648438 361.70001220703125 L 203.98593139648438 364.9599914550781 L 209.0359344482422 364.9599914550781 L 209.0359344482422 366.8999938964844 L 203.98593139648438 366.8999938964844 L 203.98593139648438 371 L 199.3359375 371 L 199.3359375 362.4200134277344 C 199.3359375 361.1933288574219 199.5325927734375 360.0533447265625 199.92593383789062 359 C 200.31259155273438 357.9466552734375 200.86593627929688 357.0299987792969 201.5859375 356.25 C 202.2992706298828 355.4766540527344 203.1559295654297 354.8666687011719 204.1559295654297 354.4200134277344 C 205.16259765625 353.9800109863281 206.2825927734375 353.760009765625 207.51593017578125 353.760009765625 C 208.34925842285156 353.760009765625 209.13259887695312 353.8800048828125 209.86593627929688 354.1199951171875 C 210.59925842285156 354.3599853515625 211.26593017578125 354.6866760253906 211.86593627929688 355.1000061035156 C 212.46592712402344 355.5199890136719 213.00259399414062 356.01666259765625 213.47593688964844 356.5899963378906 C 213.9492645263672 357.163330078125 214.34259033203125 357.7900085449219 214.6559295654297 358.4700012207031 C 214.97593688964844 359.1499938964844 215.21592712402344 359.8699951171875 215.3759307861328 360.6300048828125 C 215.5426025390625 361.3900146484375 215.6192626953125 362.15667724609375 215.60592651367188 362.92999267578125 ZM 223.27325439453125 371 L 218.62326049804688 371 L 218.62326049804688 354.1199951171875 L 230.74325561523438 354.1199951171875 L 230.74325561523438 356.2799987792969 L 223.27325439453125 356.2799987792969 L 223.27325439453125 361.5 L 229.0432586669922 361.5 L 229.0432586669922 363.6400146484375 L 223.27325439453125 363.6400146484375 L 223.27325439453125 371 ZM 235.32342529296875 371 L 233.16342163085938 371 L 233.16342163085938 354.1199951171875 L 236.18341064453125 354.1199951171875 L 246.44342041015625 365.7099914550781 L 246.44342041015625 354.1199951171875 L 248.5834197998047 354.1199951171875 L 248.5834197998047 371 L 245.56341552734375 371 L 235.32342529296875 359.4200134277344 L 235.32342529296875 371 ZM 255.61390686035156 358.4100036621094 L 254.3039093017578 371 L 251.43389892578125 371 L 254.3039093017578 354.1199951171875 L 258.55389404296875 354.1199951171875 L 262.50390625 367 L 266.50390625 354.1199951171875 L 270.75390625 354.1199951171875 L 273.1438903808594 371 L 268.4139099121094 371 L 267.0238952636719 358.739990234375 L 263.7239074707031 371 L 259.4739074707031 371 L 255.61390686035156 358.4100036621094 Z" transform="matrix(3.0879318714141846, 0, 0, 3.0879318714141846, -477.7939533893167, -679.2239466517203)" style="fill: rgb(12, 10, 11); white-space: pre; color: rgb(51, 51, 51);"/></svg>