<svg xmlns="http://www.w3.org/2000/svg" xmlns:xlink="http://www.w3.org/1999/xlink" width="144" zoomAndPan="magnify" viewBox="0 0 108 107.999999" height="144" preserveAspectRatio="xMidYMid meet" version="1.0"><defs><clipPath id="id1"><path d="M 1 1 L 107 1 L 107 106.5 L 1 106.5 Z M 1 1 " clip-rule="nonzero"/></clipPath></defs><path fill="rgb(100%, 100%, 100%)" d="M 36.550781 75.320312 C 36.914062 75.320312 37.253906 75.125 37.4375 74.804688 L 44.46875 62.589844 L 51.792969 49.902344 L 59.074219 37.167969 L 60.28125 35.152344 L 60.816406 37.167969 L 62.9375 45.140625 C 63.007812 45.40625 62.972656 45.6875 62.835938 45.921875 L 60.546875 49.902344 L 53.222656 62.589844 L 46.824219 73.777344 C 46.429688 74.464844 46.925781 75.320312 47.714844 75.320312 L 54.101562 75.320312 C 54.46875 75.320312 54.808594 75.125 54.992188 74.804688 L 62.019531 62.589844 L 65.816406 56 L 67.605469 62.589844 L 70.796875 74.558594 C 70.914062 75.007812 71.324219 75.320312 71.789062 75.320312 L 77.523438 75.320312 C 78.199219 75.320312 78.691406 74.679688 78.515625 74.023438 L 75.464844 62.589844 L 72.070312 49.902344 L 71.292969 47.042969 C 71.21875 46.777344 71.253906 46.496094 71.394531 46.257812 L 75.738281 38.714844 C 76.132812 38.027344 75.636719 37.167969 74.847656 37.167969 L 69.464844 37.167969 C 69 37.167969 68.59375 36.855469 68.472656 36.40625 L 65.484375 25.246094 C 65.367188 24.792969 64.960938 24.480469 64.496094 24.480469 L 58.234375 24.480469 C 57.871094 24.480469 57.53125 24.675781 57.347656 24.996094 L 50.320312 37.167969 L 42.992188 49.902344 L 35.710938 62.589844 L 29.277344 73.773438 C 28.882812 74.460938 29.375 75.320312 30.164062 75.320312 Z M 36.550781 75.320312 " fill-opacity="1" fill-rule="nonzero"/><g clip-path="url(#id1)"><path fill="rgb(100%, 100%, 100%)" d="M 104.558594 40.144531 C 100.925781 26.550781 92.238281 15.1875 80.09375 8.148438 C 67.949219 1.113281 53.800781 -0.757812 40.253906 2.882812 C 26.710938 6.527344 15.386719 15.246094 8.375 27.4375 C 1.363281 39.625 -0.5 53.828125 3.132812 67.421875 C 6.761719 81.019531 15.449219 92.382812 27.59375 99.417969 C 35.683594 104.109375 44.660156 106.5 53.757812 106.5 C 58.316406 106.5 62.910156 105.898438 67.433594 104.683594 C 80.976562 101.039062 92.300781 92.320312 99.3125 80.132812 C 106.324219 67.941406 108.1875 53.742188 104.558594 40.144531 Z M 101.800781 64.957031 L 98.144531 63.972656 C 97.265625 63.738281 96.363281 64.261719 96.125 65.144531 C 95.890625 66.023438 96.414062 66.929688 97.292969 67.167969 L 100.941406 68.148438 C 99.855469 71.710938 98.359375 75.171875 96.457031 78.480469 C 94.5625 81.777344 92.328125 84.800781 89.804688 87.519531 L 87.417969 85.125 C 87.347656 85 87.257812 84.882812 87.152344 84.773438 C 86.507812 84.125 85.464844 84.125 84.820312 84.769531 L 84.777344 84.808594 C 84.46875 85.117188 84.292969 85.539062 84.292969 85.976562 C 84.292969 86.417969 84.464844 86.839844 84.773438 87.148438 L 87.480469 89.867188 C 82.039062 94.988281 75.46875 98.808594 68.164062 101.03125 L 67.179688 97.355469 C 67.066406 96.929688 66.789062 96.566406 66.410156 96.347656 C 66.03125 96.128906 65.578125 96.070312 65.15625 96.1875 L 65.105469 96.203125 C 64.226562 96.4375 63.703125 97.339844 63.9375 98.222656 C 63.976562 98.378906 64.039062 98.519531 64.117188 98.648438 L 64.980469 101.886719 C 57.550781 103.628906 49.960938 103.617188 42.699219 101.914062 L 43.679688 98.242188 C 43.914062 97.359375 43.394531 96.453125 42.515625 96.21875 C 41.636719 95.980469 40.734375 96.503906 40.5 97.386719 L 39.519531 101.050781 C 35.976562 99.960938 32.53125 98.460938 29.238281 96.554688 C 25.949219 94.648438 22.929688 92.402344 20.21875 89.863281 L 22.921875 87.148438 C 23.566406 86.503906 23.566406 85.457031 22.921875 84.8125 L 22.878906 84.769531 C 22.234375 84.121094 21.191406 84.121094 20.546875 84.769531 C 20.4375 84.878906 20.34375 85.003906 20.273438 85.132812 L 17.882812 87.53125 C 12.78125 82.070312 8.980469 75.476562 6.765625 68.144531 L 10.40625 67.167969 C 11.285156 66.929688 11.804688 66.023438 11.570312 65.144531 C 11.335938 64.261719 10.433594 63.738281 9.554688 63.972656 L 5.914062 64.953125 C 4.183594 57.492188 4.195312 49.875 5.894531 42.585938 L 9.675781 43.605469 C 9.820312 43.644531 9.960938 43.660156 10.101562 43.660156 C 10.832031 43.660156 11.496094 43.175781 11.691406 42.433594 C 11.929688 41.554688 11.40625 40.648438 10.527344 40.410156 L 6.753906 39.394531 C 7.839844 35.84375 9.332031 32.386719 11.230469 29.089844 C 13.128906 25.785156 15.371094 22.753906 17.902344 20.03125 L 20.644531 22.785156 C 20.964844 23.109375 21.386719 23.269531 21.808594 23.269531 C 22.230469 23.269531 22.652344 23.109375 22.972656 22.785156 C 23.617188 22.140625 23.617188 21.09375 22.972656 20.445312 L 20.226562 17.6875 C 25.664062 12.570312 32.226562 8.757812 39.523438 6.535156 L 40.527344 10.285156 C 40.722656 11.023438 41.386719 11.511719 42.117188 11.511719 C 42.257812 11.511719 42.402344 11.492188 42.542969 11.453125 C 43.421875 11.21875 43.941406 10.3125 43.707031 9.429688 L 42.707031 5.675781 C 46.425781 4.804688 50.1875 4.375 53.925781 4.375 C 57.652344 4.375 61.359375 4.804688 64.988281 5.65625 L 63.976562 9.449219 C 63.738281 10.332031 64.261719 11.238281 65.140625 11.472656 C 65.28125 11.511719 65.425781 11.53125 65.566406 11.53125 C 66.292969 11.53125 66.960938 11.042969 67.15625 10.304688 L 68.167969 6.515625 C 71.710938 7.605469 75.160156 9.105469 78.449219 11.011719 C 81.734375 12.917969 84.75 15.164062 87.460938 17.699219 L 84.722656 20.445312 C 84.078125 21.09375 84.078125 22.140625 84.722656 22.785156 C 85.042969 23.109375 85.464844 23.269531 85.886719 23.269531 C 86.308594 23.269531 86.730469 23.109375 87.050781 22.785156 L 89.796875 20.03125 C 94.898438 25.488281 98.699219 32.074219 100.917969 39.402344 L 97.167969 40.410156 C 96.289062 40.648438 95.769531 41.554688 96.003906 42.433594 C 96.203125 43.175781 96.867188 43.660156 97.59375 43.660156 C 97.734375 43.660156 97.878906 43.644531 98.023438 43.605469 L 101.769531 42.597656 C 103.503906 50.054688 103.496094 57.667969 101.800781 64.957031 Z M 101.800781 64.957031 " fill-opacity="1" fill-rule="nonzero"/></g><path fill="rgb(100%, 100%, 100%)" d="M 99.195312 52.179688 L 95.507812 52.179688 C 95.390625 49.125 94.9375 46.03125 94.117188 42.953125 C 93.296875 39.890625 92.15625 36.996094 90.742188 34.300781 L 93.90625 32.46875 C 94.691406 32.011719 94.964844 31 94.507812 30.210938 C 94.054688 29.417969 93.046875 29.148438 92.257812 29.605469 L 89.097656 31.4375 C 85.746094 26.117188 81.269531 21.699219 76.09375 18.421875 L 77.941406 15.207031 C 78.394531 14.417969 78.125 13.40625 77.335938 12.949219 C 76.550781 12.492188 75.542969 12.761719 75.085938 13.554688 L 73.238281 16.765625 C 67.816406 13.902344 61.757812 12.222656 55.488281 11.96875 L 55.488281 8.3125 C 55.488281 7.402344 54.75 6.660156 53.84375 6.660156 C 52.933594 6.660156 52.195312 7.402344 52.195312 8.3125 L 52.195312 11.96875 C 49.164062 12.089844 46.101562 12.542969 43.054688 13.363281 C 40.003906 14.183594 37.125 15.328125 34.441406 16.742188 L 32.609375 13.554688 C 32.15625 12.761719 31.148438 12.492188 30.359375 12.949219 C 29.570312 13.40625 29.300781 14.417969 29.757812 15.207031 L 31.589844 18.394531 C 26.289062 21.757812 21.886719 26.246094 18.617188 31.445312 L 15.4375 29.605469 C 14.652344 29.148438 13.644531 29.417969 13.1875 30.210938 C 12.734375 31 13.003906 32.011719 13.792969 32.46875 L 16.96875 34.308594 C 14.101562 39.769531 12.425781 45.867188 12.179688 52.179688 L 8.488281 52.179688 C 7.578125 52.179688 6.839844 52.921875 6.839844 53.835938 C 6.839844 54.746094 7.578125 55.488281 8.488281 55.488281 L 12.183594 55.488281 C 12.304688 58.511719 12.757812 61.570312 13.570312 64.613281 C 14.390625 67.683594 15.535156 70.582031 16.953125 73.285156 L 13.808594 75.105469 C 13.019531 75.5625 12.75 76.574219 13.207031 77.363281 C 13.511719 77.894531 14.066406 78.191406 14.632812 78.191406 C 14.914062 78.191406 15.195312 78.121094 15.457031 77.96875 L 18.601562 76.144531 C 21.953125 81.460938 26.425781 85.875 31.601562 89.152344 L 29.96875 91.992188 C 29.859375 92.097656 29.765625 92.21875 29.683594 92.355469 C 29.230469 93.148438 29.503906 94.160156 30.292969 94.613281 L 30.351562 94.648438 C 30.609375 94.792969 30.890625 94.863281 31.167969 94.863281 C 31.734375 94.863281 32.289062 94.566406 32.59375 94.039062 L 34.453125 90.804688 C 39.875 93.667969 45.925781 95.34375 52.195312 95.597656 L 52.195312 99.355469 C 52.195312 100.269531 52.933594 101.007812 53.84375 101.007812 C 54.75 101.007812 55.488281 100.269531 55.488281 99.355469 L 55.488281 95.601562 C 58.519531 95.480469 61.585938 95.023438 64.632812 94.203125 C 67.6875 93.382812 70.566406 92.238281 73.253906 90.824219 L 75.101562 94.039062 C 75.40625 94.566406 75.960938 94.863281 76.53125 94.863281 C 76.8125 94.863281 77.09375 94.792969 77.351562 94.644531 L 77.40625 94.613281 C 78.195312 94.160156 78.464844 93.148438 78.011719 92.359375 C 77.933594 92.222656 77.839844 92.105469 77.734375 92 L 76.105469 89.171875 C 81.402344 85.808594 85.800781 81.324219 89.066406 76.128906 L 92.242188 77.96875 C 92.5 78.121094 92.785156 78.191406 93.0625 78.191406 C 93.632812 78.191406 94.1875 77.894531 94.492188 77.363281 C 94.945312 76.574219 94.675781 75.5625 93.890625 75.105469 L 90.714844 73.265625 C 93.566406 67.832031 95.246094 61.769531 95.503906 55.488281 L 99.195312 55.488281 C 100.105469 55.488281 100.84375 54.746094 100.84375 53.835938 C 100.84375 52.921875 100.105469 52.179688 99.195312 52.179688 Z M 73.082031 87.136719 C 73.070312 87.144531 73.058594 87.152344 73.046875 87.15625 C 73.035156 87.164062 73.019531 87.175781 73.007812 87.183594 C 70.175781 88.820312 67.085938 90.121094 63.78125 91.011719 C 60.464844 91.902344 57.132812 92.328125 53.851562 92.328125 C 40.226562 92.328125 27.5 84.976562 20.648438 73.160156 C 20.636719 73.132812 20.621094 73.105469 20.605469 73.074219 C 20.589844 73.046875 20.566406 73.015625 20.546875 72.988281 C 18.925781 70.152344 17.636719 67.0625 16.753906 63.757812 C 15.902344 60.570312 15.476562 57.363281 15.445312 54.203125 C 15.472656 54.085938 15.488281 53.960938 15.488281 53.835938 C 15.488281 53.707031 15.472656 53.585938 15.445312 53.46875 C 15.589844 36.578125 26.878906 21.136719 43.90625 16.558594 C 47.222656 15.664062 50.554688 15.238281 53.835938 15.238281 C 70.785156 15.238281 86.34375 26.613281 90.933594 43.808594 C 95.519531 60.988281 87.734375 78.621094 73.082031 87.136719 Z M 73.082031 87.136719 " fill-opacity="1" fill-rule="nonzero"/></svg>