<svg xmlns="http://www.w3.org/2000/svg" xmlns:xlink="http://www.w3.org/1999/xlink" width="200" zoomAndPan="magnify" viewBox="0 0 150 149.999998" height="200" preserveAspectRatio="xMidYMid meet" version="1.0"><defs><clipPath id="id1"><path d="M 69 1.746094 L 82 1.746094 L 82 66 L 69 66 Z M 69 1.746094 " clip-rule="nonzero"/></clipPath><clipPath id="id2"><path d="M 73 1.746094 L 92 1.746094 L 92 48 L 73 48 Z M 73 1.746094 " clip-rule="nonzero"/></clipPath><clipPath id="id3"><path d="M 15 56 L 79 56 L 79 69 L 15 69 Z M 15 56 " clip-rule="nonzero"/></clipPath><clipPath id="id4"><path d="M 15 46 L 60 46 L 60 65 L 15 65 Z M 15 46 " clip-rule="nonzero"/></clipPath><clipPath id="id5"><path d="M 15 61 L 59 61 L 59 79 L 15 79 Z M 15 61 " clip-rule="nonzero"/></clipPath><clipPath id="id6"><path d="M 59 1.746094 L 77 1.746094 L 77 47 L 59 47 Z M 59 1.746094 " clip-rule="nonzero"/></clipPath></defs><path fill="rgb(0%, 0%, 0%)" d="M 50.628906 145.285156 L 47.238281 145.285156 L 47.238281 140.683594 L 35.335938 140.683594 L 35.335938 145.285156 L 31.945312 145.285156 L 31.945312 135.921875 C 31.945312 134.554688 32.183594 133.292969 32.65625 132.144531 C 33.125 130.992188 33.769531 130.003906 34.601562 129.175781 C 35.4375 128.351562 36.425781 127.710938 37.558594 127.25 C 38.699219 126.789062 39.945312 126.558594 41.292969 126.558594 L 48.917969 126.558594 C 49.152344 126.558594 49.375 126.597656 49.582031 126.679688 C 49.789062 126.769531 49.972656 126.890625 50.128906 127.046875 C 50.28125 127.203125 50.40625 127.386719 50.496094 127.59375 C 50.582031 127.800781 50.628906 128.023438 50.628906 128.261719 L 50.628906 145.285156 M 35.335938 137.292969 L 47.238281 137.292969 L 47.238281 129.945312 L 41.292969 129.945312 C 41.179688 129.945312 40.957031 129.960938 40.625 129.992188 C 40.292969 130.019531 39.90625 130.097656 39.46875 130.226562 C 39.03125 130.34375 38.570312 130.53125 38.078125 130.78125 C 37.597656 131.035156 37.152344 131.382812 36.746094 131.832031 C 36.332031 132.277344 35.996094 132.828125 35.734375 133.492188 C 35.46875 134.160156 35.335938 134.96875 35.335938 135.921875 Z M 73.207031 132.84375 C 73.207031 133.625 73.109375 134.320312 72.917969 134.929688 C 72.730469 135.539062 72.476562 136.074219 72.152344 136.535156 C 71.824219 137.003906 71.445312 137.40625 71.015625 137.738281 C 70.59375 138.066406 70.148438 138.335938 69.683594 138.554688 C 69.222656 138.769531 68.757812 138.921875 68.28125 139.011719 C 67.808594 139.105469 67.363281 139.15625 66.949219 139.15625 L 74.019531 145.285156 L 68.78125 145.285156 L 61.726562 139.15625 L 59.292969 139.15625 L 59.292969 135.765625 L 66.949219 135.765625 C 67.371094 135.730469 67.757812 135.640625 68.105469 135.5 C 68.460938 135.347656 68.765625 135.15625 69.015625 134.917969 C 69.277344 134.671875 69.476562 134.375 69.617188 134.027344 C 69.757812 133.683594 69.828125 133.289062 69.828125 132.84375 L 69.828125 130.703125 C 69.828125 130.511719 69.800781 130.367188 69.75 130.269531 C 69.707031 130.164062 69.644531 130.089844 69.570312 130.046875 C 69.5 130.003906 69.421875 129.972656 69.339844 129.957031 C 69.25 129.949219 69.171875 129.945312 69.105469 129.945312 L 57.9375 129.945312 L 57.9375 145.285156 L 54.546875 145.285156 L 54.546875 128.261719 C 54.546875 128.023438 54.589844 127.800781 54.679688 127.59375 C 54.761719 127.386719 54.878906 127.203125 55.035156 127.046875 C 55.183594 126.890625 55.363281 126.769531 55.578125 126.679688 C 55.789062 126.597656 56.007812 126.558594 56.246094 126.558594 L 69.105469 126.558594 C 69.859375 126.558594 70.5 126.691406 71.015625 126.957031 C 71.542969 127.234375 71.96875 127.578125 72.296875 127.996094 C 72.621094 128.410156 72.855469 128.859375 72.996094 129.332031 C 73.136719 129.816406 73.207031 130.265625 73.207031 130.683594 Z M 94.566406 139.769531 C 94.566406 140.445312 94.480469 141.050781 94.3125 141.585938 C 94.140625 142.121094 93.917969 142.59375 93.644531 143 C 93.363281 143.410156 93.035156 143.757812 92.667969 144.050781 C 92.289062 144.332031 91.898438 144.566406 91.5 144.75 C 91.105469 144.9375 90.703125 145.070312 90.289062 145.152344 C 89.875 145.242188 89.484375 145.285156 89.121094 145.285156 L 76.0625 145.285156 L 76.0625 141.886719 L 89.121094 141.886719 C 89.773438 141.886719 90.277344 141.695312 90.632812 141.316406 C 90.996094 140.929688 91.175781 140.414062 91.175781 139.769531 C 91.175781 139.457031 91.128906 139.167969 91.03125 138.910156 C 90.9375 138.648438 90.800781 138.421875 90.621094 138.230469 C 90.445312 138.035156 90.230469 137.886719 89.976562 137.785156 C 89.71875 137.679688 89.433594 137.628906 89.121094 137.628906 L 81.332031 137.628906 C 80.78125 137.628906 80.191406 137.53125 79.5625 137.335938 C 78.925781 137.144531 78.335938 136.828125 77.796875 136.390625 C 77.253906 135.953125 76.804688 135.378906 76.441406 134.671875 C 76.085938 133.976562 75.90625 133.113281 75.90625 132.085938 C 75.90625 131.070312 76.085938 130.210938 76.441406 129.511719 C 76.804688 128.8125 77.253906 128.242188 77.796875 127.792969 C 78.335938 127.355469 78.925781 127.039062 79.5625 126.847656 C 80.191406 126.652344 80.78125 126.558594 81.332031 126.558594 L 92.855469 126.558594 L 92.855469 129.945312 L 81.332031 129.945312 C 80.683594 129.945312 80.183594 130.144531 79.828125 130.539062 C 79.464844 130.929688 79.285156 131.449219 79.285156 132.085938 C 79.285156 132.742188 79.464844 133.257812 79.828125 133.636719 C 80.183594 134.015625 80.683594 134.203125 81.332031 134.203125 L 89.144531 134.203125 C 89.515625 134.210938 89.902344 134.265625 90.308594 134.359375 C 90.71875 134.449219 91.121094 134.589844 91.523438 134.785156 C 91.929688 134.976562 92.3125 135.21875 92.675781 135.507812 C 93.039062 135.800781 93.363281 136.148438 93.644531 136.558594 C 93.925781 136.964844 94.152344 137.4375 94.324219 137.972656 C 94.484375 138.5 94.566406 139.097656 94.566406 139.769531 Z M 119.109375 145.285156 L 115.695312 145.285156 L 115.695312 134.128906 L 109.695312 144.730469 C 109.546875 144.996094 109.339844 145.199219 109.074219 145.34375 C 108.804688 145.476562 108.519531 145.542969 108.21875 145.542969 C 107.921875 145.542969 107.644531 145.476562 107.394531 145.34375 C 107.136719 145.199219 106.929688 144.996094 106.785156 144.730469 L 100.757812 134.128906 L 100.757812 145.285156 L 97.371094 145.285156 L 97.371094 128.007812 C 97.371094 127.613281 97.484375 127.261719 97.714844 126.957031 C 97.945312 126.652344 98.242188 126.449219 98.613281 126.34375 C 98.800781 126.300781 98.984375 126.285156 99.171875 126.300781 C 99.347656 126.308594 99.523438 126.34375 99.691406 126.414062 C 99.863281 126.480469 100.019531 126.570312 100.160156 126.691406 C 100.292969 126.808594 100.40625 126.953125 100.503906 127.113281 L 108.21875 140.558594 L 115.929688 127.113281 C 116.128906 126.78125 116.40625 126.546875 116.753906 126.414062 C 117.109375 126.269531 117.476562 126.25 117.851562 126.34375 C 118.222656 126.449219 118.523438 126.652344 118.753906 126.957031 C 118.988281 127.261719 119.109375 127.613281 119.109375 128.007812 Z M 119.109375 145.285156 " fill-opacity="1" fill-rule="evenodd"/><path stroke-linecap="butt" transform="matrix(0.297178, 0, 0, 0.298091, 39.639594, -57.880022)" fill-opacity="1" fill="rgb(90.19928%, 90.19928%, 90.19928%)" fill-rule="evenodd" stroke-linejoin="miter" d="M 110.193517 405.00273 L 117.554418 600.465259 C 117.554418 600.465259 117.554418 604.13444 119.999288 604.13444 C 122.444158 604.13444 122.444158 600.465259 122.444158 600.465259 L 129.805059 405.00273 " stroke="rgb(0%, 0%, 0%)" stroke-width="1.838" stroke-opacity="1" stroke-miterlimit="4"/><path stroke-linecap="butt" transform="matrix(0.297178, 0, 0, 0.298091, 39.639594, -57.880022)" fill-opacity="1" fill="rgb(90.19928%, 90.19928%, 90.19928%)" fill-rule="evenodd" stroke-linejoin="miter" d="M 101.531315 468.151961 C 90.279653 492.74858 99.940835 512.837347 88.702318 534.315162 C 77.450656 555.792977 84.482945 573.470568 83.73371 583.324941 C 82.971331 593.179313 74.913774 595.918095 76.951166 598.198229 C 78.988558 600.491467 87.41416 595.957408 90.700276 582.866293 C 93.986392 569.775178 86.139147 562.240253 99.625368 535.913877 C 113.111588 509.587501 102.39885 497.715079 115.924504 474.20611 " stroke="rgb(0%, 0%, 0%)" stroke-width="1.838" stroke-opacity="1" stroke-miterlimit="4"/><path fill="rgb(90.19928%, 90.19928%, 90.19928%)" d="M 78.214844 62.847656 L 76.027344 4.582031 C 76.027344 4.582031 76.027344 3.484375 75.300781 3.484375 C 74.574219 3.484375 74.574219 4.582031 74.574219 4.582031 L 72.386719 62.847656 " fill-opacity="1" fill-rule="evenodd"/><g clip-path="url(#id1)"><path stroke-linecap="butt" transform="matrix(0.297178, 0, 0, 0.298091, 39.639594, -57.880022)" fill="none" stroke-linejoin="miter" d="M 129.805059 405.00273 L 122.444158 209.540202 C 122.444158 209.540202 122.444158 205.857916 119.999288 205.857916 C 117.554418 205.857916 117.554418 209.540202 117.554418 209.540202 L 110.193517 405.00273 " stroke="rgb(0%, 0%, 0%)" stroke-width="1.838" stroke-opacity="1" stroke-miterlimit="4"/></g><path fill="rgb(90.19928%, 90.19928%, 90.19928%)" d="M 80.789062 44.023438 C 84.132812 36.691406 81.261719 30.699219 84.605469 24.300781 C 87.945312 17.898438 85.855469 12.625 86.078125 9.6875 C 86.304688 6.753906 88.699219 5.9375 88.09375 5.253906 C 87.488281 4.570312 84.984375 5.925781 84.007812 9.824219 C 83.03125 13.726562 85.363281 15.972656 81.355469 23.824219 C 77.351562 31.671875 80.535156 35.210938 76.511719 42.21875 " fill-opacity="1" fill-rule="evenodd"/><g clip-path="url(#id2)"><path stroke-linecap="butt" transform="matrix(0.297178, 0, 0, 0.298091, 39.639594, -57.880022)" fill="none" stroke-linejoin="miter" d="M 138.467261 341.8535 C 149.718922 317.256881 140.057741 297.155009 151.309403 275.690299 C 162.54792 254.212484 155.515631 236.521789 156.264866 226.667416 C 157.027245 216.826148 165.084802 214.087366 163.04741 211.794128 C 161.010018 209.500889 152.584416 214.048053 149.2983 227.126064 C 146.012183 240.217178 153.859429 247.752104 140.373208 274.091584 C 126.900132 300.41796 137.612871 312.290382 124.074072 335.799351 " stroke="rgb(0%, 0%, 0%)" stroke-width="1.838" stroke-opacity="1" stroke-miterlimit="4"/></g><path fill="rgb(90.19928%, 90.19928%, 90.19928%)" d="M 75.300781 59.925781 L 17.230469 62.117188 C 17.230469 62.117188 16.136719 62.117188 16.136719 62.847656 C 16.136719 63.578125 17.230469 63.578125 17.230469 63.578125 L 75.300781 65.769531 " fill-opacity="1" fill-rule="evenodd"/><g clip-path="url(#id3)"><path stroke-linecap="butt" transform="matrix(0.297178, 0, 0, 0.298091, 39.639594, -57.880022)" fill="none" stroke-linejoin="miter" d="M 119.999288 395.200775 L -75.406323 402.552242 C -75.406323 402.552242 -79.086773 402.552242 -79.086773 405.00273 C -79.086773 407.453219 -75.406323 407.453219 -75.406323 407.453219 L 119.999288 414.804686 " stroke="rgb(0%, 0%, 0%)" stroke-width="1.838" stroke-opacity="1" stroke-miterlimit="4"/></g><path fill="rgb(90.19928%, 90.19928%, 90.19928%)" d="M 56.539062 57.339844 C 49.234375 53.984375 43.261719 56.867188 36.882812 53.511719 C 30.503906 50.160156 25.246094 52.257812 22.320312 52.03125 C 19.394531 51.808594 18.582031 49.40625 17.902344 50.011719 C 17.21875 50.617188 18.570312 53.128906 22.457031 54.109375 C 26.34375 55.089844 28.585938 52.75 36.40625 56.769531 C 44.230469 60.792969 47.757812 57.597656 54.742188 61.632812 " fill-opacity="1" fill-rule="evenodd"/><g clip-path="url(#id4)"><path stroke-linecap="butt" transform="matrix(0.297178, 0, 0, 0.298091, 39.639594, -57.880022)" fill="none" stroke-linejoin="miter" d="M 56.866424 386.525782 C 32.286276 375.269258 12.188389 384.940171 -9.276522 373.683647 C -30.741432 362.440228 -48.433882 369.477193 -58.279086 368.717148 C -68.12429 367.970208 -70.858338 359.911113 -73.145475 361.942267 C -75.445756 363.973421 -70.897772 372.399434 -57.819029 375.688593 C -44.740287 378.977752 -37.195364 371.128325 -10.880146 384.612566 C 15.448216 398.109911 27.317668 387.39066 50.819971 400.927318 " stroke="rgb(0%, 0%, 0%)" stroke-width="1.838" stroke-opacity="1" stroke-miterlimit="4"/></g><path stroke-linecap="butt" transform="matrix(0.297178, 0, 0, 0.298091, 39.639594, -57.880022)" fill-opacity="1" fill="rgb(90.19928%, 90.19928%, 90.19928%)" fill-rule="evenodd" stroke-linejoin="miter" d="M 119.999288 414.804686 L 315.404899 407.453219 C 315.404899 407.453219 319.085349 407.453219 319.085349 405.00273 C 319.085349 402.552242 315.404899 402.552242 315.404899 402.552242 L 119.999288 395.200775 " stroke="rgb(0%, 0%, 0%)" stroke-width="1.838" stroke-opacity="1" stroke-miterlimit="4"/><path stroke-linecap="butt" transform="matrix(0.297178, 0, 0, 0.298091, 39.639594, -57.880022)" fill-opacity="1" fill="rgb(90.19928%, 90.19928%, 90.19928%)" fill-rule="evenodd" stroke-linejoin="miter" d="M 183.132152 423.479679 C 207.7123 434.736203 227.810187 425.06529 249.275097 436.308709 C 270.740008 447.552129 288.432458 440.528268 298.277662 441.275208 C 308.122866 442.035253 310.856914 450.094348 313.157196 448.063194 C 315.444332 446.018935 310.909492 437.592923 297.817605 434.303764 C 284.738863 431.027709 277.207085 438.864032 250.878722 425.379791 C 224.55036 411.89555 212.680908 422.614801 189.178605 409.078142 " stroke="rgb(0%, 0%, 0%)" stroke-width="1.838" stroke-opacity="1" stroke-miterlimit="4"/><path stroke-linecap="butt" transform="matrix(0.297178, 0, 0, 0.298091, 39.639594, -57.880022)" fill-opacity="1" fill="rgb(90.19928%, 90.19928%, 90.19928%)" fill-rule="evenodd" stroke-linejoin="miter" d="M 113.072155 398.070599 L -19.910393 541.48317 C -19.910393 541.48317 -22.499853 544.077805 -20.777928 545.807562 C -19.042859 547.537319 -16.440255 544.942684 -16.440255 544.942684 L 126.926421 411.934862 " stroke="rgb(0%, 0%, 0%)" stroke-width="1.838" stroke-opacity="1" stroke-miterlimit="4"/><path stroke-linecap="butt" transform="matrix(0.297178, 0, 0, 0.298091, 39.639594, -57.880022)" fill-opacity="1" fill="rgb(90.19928%, 90.19928%, 90.19928%)" fill-rule="evenodd" stroke-linejoin="miter" d="M 62.295088 436.583898 C 36.95256 446.018935 29.578516 467.064311 6.457403 474.29784 C -16.676855 481.531369 -24.208633 499.012397 -31.714123 505.446568 C -39.206468 511.867635 -46.843401 508.106724 -47.014279 511.173112 C -47.198302 514.226395 -38.03661 516.978281 -26.456337 510.046149 C -14.876063 503.114017 -15.099519 492.237515 13.042779 483.156292 C 41.198223 474.075068 42.013179 458.101025 68.196953 451.050955 " stroke="rgb(0%, 0%, 0%)" stroke-width="1.838" stroke-opacity="1" stroke-miterlimit="4"/><path stroke-linecap="butt" transform="matrix(0.297178, 0, 0, 0.298091, 39.639594, -57.880022)" fill-opacity="1" fill="rgb(90.19928%, 90.19928%, 90.19928%)" fill-rule="evenodd" stroke-linejoin="miter" d="M 126.926421 411.934862 L 259.908969 268.522291 C 259.908969 268.522291 262.498429 265.927656 260.776504 264.184795 C 259.041435 262.455038 256.438831 265.049673 256.438831 265.049673 L 113.072155 398.070599 " stroke="rgb(0%, 0%, 0%)" stroke-width="1.838" stroke-opacity="1" stroke-miterlimit="4"/><path stroke-linecap="butt" transform="matrix(0.297178, 0, 0, 0.298091, 39.639594, -57.880022)" fill-opacity="1" fill="rgb(90.19928%, 90.19928%, 90.19928%)" fill-rule="evenodd" stroke-linejoin="miter" d="M 177.703488 373.408459 C 203.046015 363.973421 210.42006 342.928046 233.554318 335.694517 C 256.675431 328.474092 264.207209 310.993064 271.712699 304.558893 C 279.205043 298.124721 286.841977 301.885632 287.012855 298.832349 C 287.196878 295.779066 278.035186 293.02718 266.454913 299.959312 C 254.874639 306.87834 255.098095 317.754841 226.955797 326.836065 C 198.800353 335.930393 197.985397 351.891331 171.801623 358.941401 " stroke="rgb(0%, 0%, 0%)" stroke-width="1.838" stroke-opacity="1" stroke-miterlimit="4"/><path stroke-linecap="butt" transform="matrix(0.297178, 0, 0, 0.298091, 39.639594, -57.880022)" fill-opacity="1" fill="rgb(90.19928%, 90.19928%, 90.19928%)" fill-rule="evenodd" stroke-linejoin="miter" d="M 126.926421 398.070599 L -16.440255 265.049673 C -16.440255 265.049673 -19.042859 262.455038 -20.777928 264.184795 C -22.499853 265.927656 -19.910393 268.522291 -19.910393 268.522291 L 113.072155 411.934862 " stroke="rgb(0%, 0%, 0%)" stroke-width="1.838" stroke-opacity="1" stroke-miterlimit="4"/><path stroke-linecap="butt" transform="matrix(0.297178, 0, 0, 0.298091, 39.639594, -57.880022)" fill-opacity="1" fill="rgb(90.19928%, 90.19928%, 90.19928%)" fill-rule="evenodd" stroke-linejoin="miter" d="M 88.426284 347.291751 C 78.988558 321.935087 57.94427 314.557412 50.714815 291.415361 C 43.485359 268.286415 26.016366 260.751489 19.588723 253.255876 C 13.16108 245.747159 16.920396 238.120503 13.857736 237.937044 C 10.80822 237.753585 8.061027 246.926538 14.98816 258.497564 C 21.915293 270.081693 32.785765 269.858921 41.86859 298.019888 C 50.938271 326.16775 66.908795 326.993316 73.954228 353.188649 " stroke="rgb(0%, 0%, 0%)" stroke-width="1.838" stroke-opacity="1" stroke-miterlimit="4"/><path stroke-linecap="butt" transform="matrix(0.297178, 0, 0, 0.298091, 39.639594, -57.880022)" fill-opacity="1" fill="rgb(90.19928%, 90.19928%, 90.19928%)" fill-rule="evenodd" stroke-linejoin="miter" d="M 113.072155 411.934862 L 256.438831 544.942684 C 256.438831 544.942684 259.041435 547.537319 260.776504 545.807562 C 262.498429 544.077805 259.908969 541.48317 259.908969 541.48317 L 126.926421 398.070599 " stroke="rgb(0%, 0%, 0%)" stroke-width="1.838" stroke-opacity="1" stroke-miterlimit="4"/><path stroke-linecap="butt" transform="matrix(0.297178, 0, 0, 0.298091, 39.639594, -57.880022)" fill-opacity="1" fill="rgb(90.19928%, 90.19928%, 90.19928%)" fill-rule="evenodd" stroke-linejoin="miter" d="M 151.572292 462.71371 C 161.010018 488.070374 182.054305 495.448049 189.283761 518.576995 C 196.513216 541.719046 213.98221 549.253972 220.409853 556.749585 C 226.850641 564.245198 223.078179 571.884958 226.14084 572.068417 C 229.190356 572.238771 231.950693 563.078923 225.02356 551.494793 C 218.096427 539.923768 207.212811 540.133435 198.129986 511.985573 C 189.060305 483.824607 173.089781 483.012145 166.044348 456.816812 " stroke="rgb(0%, 0%, 0%)" stroke-width="1.838" stroke-opacity="1" stroke-miterlimit="4"/><path stroke-linecap="butt" transform="matrix(0.297178, 0, 0, 0.298091, 39.639594, -57.880022)" fill-opacity="1" fill="rgb(90.19928%, 90.19928%, 90.19928%)" fill-rule="evenodd" stroke-linejoin="miter" d="M 110.942752 401.24182 L 42.959581 584.648467 C 42.959581 584.648467 41.553123 588.042459 43.813971 588.972859 C 46.074819 589.916363 47.481277 586.52237 47.481277 586.52237 L 129.055824 408.750537 " stroke="rgb(0%, 0%, 0%)" stroke-width="1.838" stroke-opacity="1" stroke-miterlimit="4"/><path stroke-linecap="butt" transform="matrix(0.297178, 0, 0, 0.298091, 39.639594, -57.880022)" fill-opacity="1" fill="rgb(90.19928%, 90.19928%, 90.19928%)" fill-rule="evenodd" stroke-linejoin="miter" d="M 78.778247 456.266435 C 58.969539 474.690966 60.205118 496.955034 41.605701 512.483534 C 23.006284 528.025137 22.73025 547.052463 18.261132 555.871602 C 13.805158 564.677637 5.313834 564.12726 6.312813 567.023292 C 7.311793 569.919325 16.84153 568.949613 24.885942 558.112424 C 32.930354 547.275235 28.566392 537.316028 51.096004 518.144556 C 73.625617 498.986188 68.262675 483.916336 89.767019 467.378812 " stroke="rgb(0%, 0%, 0%)" stroke-width="1.838" stroke-opacity="1" stroke-miterlimit="4"/><path stroke-linecap="butt" transform="matrix(0.297178, 0, 0, 0.298091, 39.639594, -57.880022)" fill-opacity="1" fill="rgb(90.19928%, 90.19928%, 90.19928%)" fill-rule="evenodd" stroke-linejoin="miter" d="M 129.055824 408.750537 L 197.038995 225.356994 C 197.038995 225.356994 198.445453 221.963001 196.184605 221.019498 C 193.923757 220.089098 192.517299 223.483091 192.517299 223.483091 L 110.942752 401.24182 " stroke="rgb(0%, 0%, 0%)" stroke-width="1.838" stroke-opacity="1" stroke-miterlimit="4"/><path stroke-linecap="butt" transform="matrix(0.297178, 0, 0, 0.298091, 39.639594, -57.880022)" fill-opacity="1" fill="rgb(90.19928%, 90.19928%, 90.19928%)" fill-rule="evenodd" stroke-linejoin="miter" d="M 161.220329 353.725922 C 181.029037 335.314495 179.793457 313.050427 198.392875 297.508823 C 216.992292 281.980324 217.268326 262.939894 221.737444 254.133859 C 226.193418 245.314719 234.684742 245.878201 233.685762 242.982168 C 232.686783 240.086136 223.157046 241.055848 215.125778 251.893037 C 207.081366 262.717122 211.445328 272.689433 188.915716 291.847801 C 166.386104 311.019273 171.735901 326.089124 150.244701 342.626649 " stroke="rgb(0%, 0%, 0%)" stroke-width="1.838" stroke-opacity="1" stroke-miterlimit="4"/><path stroke-linecap="butt" transform="matrix(0.297178, 0, 0, 0.298091, 39.639594, -57.880022)" fill-opacity="1" fill="rgb(90.19928%, 90.19928%, 90.19928%)" fill-rule="evenodd" stroke-linejoin="miter" d="M 123.74546 395.947715 L -59.593532 327.936819 C -59.593532 327.936819 -62.984804 326.534668 -63.931205 328.788594 C -64.864462 331.055623 -61.473191 332.470879 -61.473191 332.470879 L 116.253116 414.057746 " stroke="rgb(0%, 0%, 0%)" stroke-width="1.838" stroke-opacity="1" stroke-miterlimit="4"/><path stroke-linecap="butt" transform="matrix(0.297178, 0, 0, 0.298091, 39.639594, -57.880022)" fill-opacity="1" fill="rgb(90.19928%, 90.19928%, 90.19928%)" fill-rule="evenodd" stroke-linejoin="miter" d="M 68.74902 363.763754 C 50.333625 343.950175 28.066902 345.195076 12.54329 326.587085 C -2.993467 307.979094 -22.013508 307.703905 -30.820299 303.235367 C -39.640235 298.766828 -39.075023 290.275294 -41.97995 291.284319 C -44.871732 292.28024 -43.899041 301.807007 -33.068003 309.852997 C -22.236964 317.898988 -12.27346 313.535283 6.878025 336.074539 C 26.042655 358.600691 41.106211 353.25417 57.641948 374.758193 " stroke="rgb(0%, 0%, 0%)" stroke-width="1.838" stroke-opacity="1" stroke-miterlimit="4"/><path stroke-linecap="butt" transform="matrix(0.297178, 0, 0, 0.298091, 39.639594, -57.880022)" fill-opacity="1" fill="rgb(90.19928%, 90.19928%, 90.19928%)" fill-rule="evenodd" stroke-linejoin="miter" d="M 116.253116 414.057746 L 299.592108 482.068642 C 299.592108 482.068642 302.98338 483.470793 303.929781 481.203763 C 304.863038 478.936733 301.471766 477.534582 301.471766 477.534582 L 123.74546 395.947715 " stroke="rgb(0%, 0%, 0%)" stroke-width="1.838" stroke-opacity="1" stroke-miterlimit="4"/><path stroke-linecap="butt" transform="matrix(0.297178, 0, 0, 0.298091, 39.639594, -57.880022)" fill-opacity="1" fill="rgb(90.19928%, 90.19928%, 90.19928%)" fill-rule="evenodd" stroke-linejoin="miter" d="M 171.249555 446.228603 C 189.66495 466.042182 211.931673 464.810385 227.455286 483.418376 C 242.992043 502.026367 262.012084 502.301555 270.832019 506.75699 C 279.638811 511.225528 279.086743 519.717062 281.978525 518.721142 C 284.870308 517.712117 283.897617 508.198454 273.066578 500.152464 C 262.23554 492.106473 252.272035 496.470178 233.12055 473.930922 C 213.955921 451.391665 198.892365 456.751291 182.356628 435.247268 " stroke="rgb(0%, 0%, 0%)" stroke-width="1.838" stroke-opacity="1" stroke-miterlimit="4"/><path stroke-linecap="butt" transform="matrix(0.297178, 0, 0, 0.298091, 39.639594, -57.880022)" fill-opacity="1" fill="rgb(90.19928%, 90.19928%, 90.19928%)" fill-rule="evenodd" stroke-linejoin="miter" d="M 116.253116 395.947715 L -61.473191 477.534582 C -61.473191 477.534582 -64.864462 478.936733 -63.931205 481.203763 C -62.984804 483.470793 -59.593532 482.068642 -59.593532 482.068642 L 123.74546 414.057746 " stroke="rgb(0%, 0%, 0%)" stroke-width="1.838" stroke-opacity="1" stroke-miterlimit="4"/><path fill="rgb(90.19928%, 90.19928%, 90.19928%)" d="M 55.867188 64.960938 C 47.835938 64.667969 43.417969 69.621094 36.246094 68.976562 C 29.074219 68.328125 25.019531 72.28125 22.230469 73.199219 C 19.4375 74.113281 17.773438 72.207031 17.375 73.027344 C 16.976562 73.851562 19.179688 75.652344 23.148438 75.066406 C 27.113281 74.476562 28.289062 71.457031 37.050781 72.167969 C 45.8125 72.878906 47.851562 68.574219 55.84375 69.617188 " fill-opacity="1" fill-rule="evenodd"/><g clip-path="url(#id5)"><path stroke-linecap="butt" transform="matrix(0.297178, 0, 0, 0.298091, 39.639594, -57.880022)" fill="none" stroke-linejoin="miter" d="M 54.605576 412.092113 C 27.580557 411.109296 12.714168 427.725446 -11.419069 425.56325 C -35.552306 423.387949 -49.196261 436.649419 -58.581408 439.72891 C -67.979701 442.795298 -73.579242 436.400439 -74.919978 439.152325 C -76.260713 441.917315 -68.847235 447.95836 -55.492459 445.992727 C -42.150828 444.01399 -38.194344 433.884429 -8.71131 436.269397 C 20.771725 438.654364 27.633135 424.213515 54.52671 427.712342 " stroke="rgb(0%, 0%, 0%)" stroke-width="1.838" stroke-opacity="1" stroke-miterlimit="4"/></g><path stroke-linecap="butt" transform="matrix(0.297178, 0, 0, 0.298091, 39.639594, -57.880022)" fill-opacity="1" fill="rgb(90.19928%, 90.19928%, 90.19928%)" fill-rule="evenodd" stroke-linejoin="miter" d="M 123.74546 414.057746 L 301.471766 332.470879 C 301.471766 332.470879 304.863038 331.055623 303.929781 328.788594 C 302.98338 326.534668 299.592108 327.936819 299.592108 327.936819 L 116.253116 395.947715 " stroke="rgb(0%, 0%, 0%)" stroke-width="1.838" stroke-opacity="1" stroke-miterlimit="4"/><path stroke-linecap="butt" transform="matrix(0.297178, 0, 0, 0.298091, 39.639594, -57.880022)" fill-opacity="1" fill="rgb(90.19928%, 90.19928%, 90.19928%)" fill-rule="evenodd" stroke-linejoin="miter" d="M 185.392999 397.900244 C 212.418019 398.896164 227.284408 382.266911 251.417645 384.442211 C 275.550882 386.617511 289.194837 373.356042 298.593129 370.27655 C 307.978276 367.197059 313.590963 373.605022 314.918554 370.840032 C 316.259289 368.088146 308.845811 362.033997 295.491035 364.012734 C 282.149403 365.978367 278.19292 376.107928 248.709885 373.736064 C 219.226851 371.351096 212.365441 385.791946 185.471866 382.280015 " stroke="rgb(0%, 0%, 0%)" stroke-width="1.838" stroke-opacity="1" stroke-miterlimit="4"/><path stroke-linecap="butt" transform="matrix(0.297178, 0, 0, 0.298091, 39.639594, -57.880022)" fill-opacity="1" fill="rgb(90.19928%, 90.19928%, 90.19928%)" fill-rule="evenodd" stroke-linejoin="miter" d="M 129.055824 401.24182 L 47.481277 223.483091 C 47.481277 223.483091 46.074819 220.089098 43.813971 221.019498 C 41.553123 221.963001 42.959581 225.356994 42.959581 225.356994 L 110.942752 408.750537 " stroke="rgb(0%, 0%, 0%)" stroke-width="1.838" stroke-opacity="1" stroke-miterlimit="4"/><path fill="rgb(90.19928%, 90.19928%, 90.19928%)" d="M 73.191406 43.347656 C 73.484375 35.289062 68.546875 30.859375 69.191406 23.660156 C 69.839844 16.464844 65.898438 12.394531 64.984375 9.597656 C 64.070312 6.796875 65.972656 5.125 65.152344 4.726562 C 64.335938 4.328125 62.539062 6.539062 63.125 10.519531 C 63.707031 14.496094 66.71875 15.679688 66.011719 24.46875 C 65.304688 33.257812 69.59375 35.304688 68.550781 43.324219 " fill-opacity="1" fill-rule="evenodd"/><g clip-path="url(#id6)"><path stroke-linecap="butt" transform="matrix(0.297178, 0, 0, 0.298091, 39.639594, -57.880022)" fill="none" stroke-linejoin="miter" d="M 112.901277 339.58647 C 113.887112 312.552466 97.272509 297.692282 99.441345 273.541207 C 101.623326 249.403236 88.360562 235.74864 85.284757 226.366019 C 82.208952 216.970294 88.610306 211.361688 85.849969 210.025058 C 83.102776 208.688428 77.056322 216.105416 79.027992 229.458615 C 80.986517 242.798709 91.120899 246.769288 88.741751 276.25378 C 86.362603 305.738273 100.795225 312.604883 97.285653 339.507845 " stroke="rgb(0%, 0%, 0%)" stroke-width="1.838" stroke-opacity="1" stroke-miterlimit="4"/></g><path stroke-linecap="butt" transform="matrix(0.297178, 0, 0, 0.298091, 39.639594, -57.880022)" fill-opacity="1" fill="rgb(90.19928%, 90.19928%, 90.19928%)" fill-rule="evenodd" stroke-linejoin="miter" d="M 110.942752 408.750537 L 192.517299 586.52237 C 192.517299 586.52237 193.923757 589.916363 196.184605 588.972859 C 198.445453 588.042459 197.038995 584.648467 197.038995 584.648467 L 129.055824 401.24182 " stroke="rgb(0%, 0%, 0%)" stroke-width="1.838" stroke-opacity="1" stroke-miterlimit="4"/><path stroke-linecap="butt" transform="matrix(0.297178, 0, 0, 0.298091, 39.639594, -57.880022)" fill-opacity="1" fill="rgb(90.19928%, 90.19928%, 90.19928%)" fill-rule="evenodd" stroke-linejoin="miter" d="M 127.097299 470.405887 C 126.111464 497.43989 142.726067 512.313179 140.557231 536.45115 C 138.375249 560.602225 151.638014 574.243717 154.713819 583.639442 C 157.789624 593.022063 151.388269 598.643772 154.148607 599.980403 C 156.8958 601.317033 162.942254 593.900045 160.983729 580.546846 C 159.012059 567.193647 148.877677 563.236173 151.256825 533.751681 C 153.635973 504.254084 139.203351 497.387473 142.712923 470.497616 " stroke="rgb(0%, 0%, 0%)" stroke-width="1.838" stroke-opacity="1" stroke-miterlimit="4"/><path fill="rgb(0%, 0%, 0%)" d="M 73.84375 62.847656 L 75.300781 102.847656 L 76.757812 62.847656 " fill-opacity="1" fill-rule="evenodd"/><path fill="rgb(0%, 0%, 0%)" d="M 70.734375 83.535156 C 68.140625 90.835938 70.871094 95.679688 67.390625 101.863281 C 71.257812 97.4375 68.707031 91.695312 72.089844 84.183594 " fill-opacity="1" fill-rule="evenodd"/><path fill="rgb(0%, 0%, 0%)" d="M 74.269531 61.8125 L 47.109375 91.132812 L 76.332031 63.878906 " fill-opacity="1" fill-rule="evenodd"/><path fill="rgb(0%, 0%, 0%)" d="M 73.957031 62.289062 L 60.042969 99.800781 L 76.644531 63.40625 " fill-opacity="1" fill-rule="evenodd"/><path fill="rgb(0%, 0%, 0%)" d="M 63.191406 80.207031 C 58.011719 85.953125 58.6875 91.480469 53.109375 95.855469 C 58.375 93.25 58.207031 86.96875 64.195312 81.328125 " fill-opacity="1" fill-rule="evenodd"/><path fill="rgb(0%, 0%, 0%)" d="M 76.757812 62.847656 L 75.300781 22.847656 L 73.84375 62.847656 " fill-opacity="1" fill-rule="evenodd"/><path fill="rgb(0%, 0%, 0%)" d="M 79.867188 42.15625 C 82.460938 34.859375 79.730469 30.015625 83.210938 23.828125 C 79.34375 28.257812 81.894531 33.996094 78.511719 41.507812 " fill-opacity="1" fill-rule="evenodd"/><path fill="rgb(0%, 0%, 0%)" d="M 75.300781 61.386719 L 35.433594 62.847656 L 75.300781 64.308594 " fill-opacity="1" fill-rule="evenodd"/><path fill="rgb(0%, 0%, 0%)" d="M 54.679688 58.265625 C 47.40625 55.660156 42.578125 58.402344 36.414062 54.910156 C 40.828125 58.792969 46.546875 56.230469 54.035156 59.625 " fill-opacity="1" fill-rule="evenodd"/><path fill="rgb(0%, 0%, 0%)" d="M 57.492188 74.234375 C 50.511719 77.554688 49.03125 82.921875 42.207031 84.824219 C 48.066406 84.4375 50.308594 78.570312 57.992188 75.65625 " fill-opacity="1" fill-rule="evenodd"/><path fill="rgb(0%, 0%, 0%)" d="M 76.332031 61.8125 L 47.109375 34.5625 L 74.269531 63.878906 " fill-opacity="1" fill-rule="evenodd"/><path fill="rgb(0%, 0%, 0%)" d="M 63.949219 44.976562 C 60.640625 37.976562 55.292969 36.488281 53.398438 29.644531 C 53.78125 35.519531 59.632812 37.769531 62.535156 45.480469 " fill-opacity="1" fill-rule="evenodd"/><path fill="rgb(0%, 0%, 0%)" d="M 76.644531 63.40625 L 90.558594 25.890625 L 73.957031 62.289062 " fill-opacity="1" fill-rule="evenodd"/><path fill="rgb(0%, 0%, 0%)" d="M 75.859375 61.496094 L 38.46875 47.539062 L 74.742188 64.195312 " fill-opacity="1" fill-rule="evenodd"/><path fill="rgb(0%, 0%, 0%)" d="M 58 50.695312 C 52.269531 45.496094 46.761719 46.175781 42.402344 40.582031 C 45 45.863281 51.257812 45.695312 56.882812 51.703125 " fill-opacity="1" fill-rule="evenodd"/><path fill="rgb(0%, 0%, 0%)" d="M 74.742188 61.496094 L 38.46875 78.152344 L 75.859375 64.195312 " fill-opacity="1" fill-rule="evenodd"/><path fill="rgb(0%, 0%, 0%)" d="M 54.503906 66.53125 C 46.789062 66.917969 43.375 71.304688 36.34375 70.445312 C 41.90625 72.335938 46.214844 67.777344 54.421875 68.035156 " fill-opacity="1" fill-rule="evenodd"/><path fill="rgb(0%, 0%, 0%)" d="M 76.644531 62.289062 L 60.042969 25.890625 L 73.957031 63.40625 " fill-opacity="1" fill-rule="evenodd"/><path fill="rgb(0%, 0%, 0%)" d="M 71.628906 41.980469 C 71.242188 34.238281 66.871094 30.8125 67.730469 23.761719 C 65.84375 29.339844 70.390625 33.660156 70.128906 41.898438 " fill-opacity="1" fill-rule="evenodd"/><path fill="rgb(0%, 0%, 0%)" d="M 75.300781 64.308594 L 115.167969 62.847656 L 75.300781 61.386719 " fill-opacity="1" fill-rule="evenodd"/><path fill="rgb(0%, 0%, 0%)" d="M 95.921875 67.429688 C 103.195312 70.03125 108.023438 67.289062 114.1875 70.785156 C 109.773438 66.902344 104.054688 69.460938 96.566406 66.070312 " fill-opacity="1" fill-rule="evenodd"/><path fill="rgb(0%, 0%, 0%)" d="M 76.332031 63.878906 L 103.492188 34.5625 L 74.269531 61.8125 " fill-opacity="1" fill-rule="evenodd"/><path fill="rgb(0%, 0%, 0%)" d="M 93.109375 51.457031 C 100.089844 48.136719 101.570312 42.773438 108.394531 40.871094 C 102.535156 41.257812 100.292969 47.125 92.609375 50.039062 " fill-opacity="1" fill-rule="evenodd"/><path fill="rgb(0%, 0%, 0%)" d="M 74.269531 63.878906 L 103.492188 91.132812 L 76.332031 61.8125 " fill-opacity="1" fill-rule="evenodd"/><path fill="rgb(0%, 0%, 0%)" d="M 86.652344 80.714844 C 89.960938 87.71875 95.308594 89.203125 97.203125 96.050781 C 96.820312 90.171875 90.96875 87.925781 88.066406 80.214844 " fill-opacity="1" fill-rule="evenodd"/><path fill="rgb(0%, 0%, 0%)" d="M 87.410156 45.484375 C 92.59375 39.738281 91.914062 34.214844 97.492188 29.835938 C 92.226562 32.441406 92.394531 38.726562 86.40625 44.367188 " fill-opacity="1" fill-rule="evenodd"/><path fill="rgb(0%, 0%, 0%)" d="M 74.742188 64.195312 L 112.132812 78.152344 L 75.859375 61.496094 " fill-opacity="1" fill-rule="evenodd"/><path fill="rgb(0%, 0%, 0%)" d="M 92.605469 74.996094 C 98.332031 80.195312 103.839844 79.515625 108.199219 85.113281 C 105.605469 79.828125 99.34375 80 93.71875 73.992188 " fill-opacity="1" fill-rule="evenodd"/><path fill="rgb(0%, 0%, 0%)" d="M 75.859375 64.195312 L 112.132812 47.539062 L 74.742188 61.496094 " fill-opacity="1" fill-rule="evenodd"/><path fill="rgb(0%, 0%, 0%)" d="M 96.097656 59.164062 C 103.8125 58.773438 107.226562 54.386719 114.257812 55.25 C 108.695312 53.355469 104.386719 57.917969 96.179688 57.660156 " fill-opacity="1" fill-rule="evenodd"/><path fill="rgb(0%, 0%, 0%)" d="M 73.957031 63.40625 L 90.558594 99.800781 L 76.644531 62.289062 " fill-opacity="1" fill-rule="evenodd"/><path fill="rgb(0%, 0%, 0%)" d="M 78.972656 83.714844 C 79.359375 91.453125 83.730469 94.878906 82.875 101.933594 C 84.757812 96.355469 80.214844 92.03125 80.472656 83.792969 " fill-opacity="1" fill-rule="evenodd"/><path stroke-linecap="butt" transform="matrix(0.364077, 0, 0, 0.365295, 75.300993, 62.846535)" fill-opacity="1" fill="rgb(90.19928%, 90.19928%, 90.19928%)" fill-rule="evenodd" stroke-linejoin="miter" d="M 64.996893 0.00306907 C 64.996893 2.131059 64.90033 4.248356 64.685746 6.376345 C 64.481891 8.493642 64.170744 10.589552 63.752306 12.685461 C 63.333867 14.770678 62.818866 16.834507 62.196572 18.866256 C 61.585008 20.908699 60.866152 22.908368 60.050733 24.875956 C 59.235314 26.843545 58.323332 28.76836 57.325517 30.639708 C 56.316972 32.521749 55.233324 34.33963 54.042383 36.114737 C 52.862171 37.879151 51.596126 39.590098 50.244247 41.236884 C 48.892368 42.88367 47.465385 44.455602 45.963298 45.963374 C 44.46121 47.471146 42.884018 48.89337 41.231722 50.240741 C 39.590155 51.598805 37.884212 52.860628 36.113895 54.047597 C 34.343577 55.223873 32.519614 56.325295 30.642005 57.319783 C 28.764395 58.324964 26.843869 59.233904 24.869697 60.057297 C 22.906254 60.869997 20.910623 61.586456 18.872076 62.195981 C 16.833528 62.816199 14.773523 63.340176 12.681329 63.746526 C 10.589136 64.163569 8.486213 64.473679 6.372562 64.687547 C 4.248181 64.890722 2.1238 64.997656 -0.000581217 64.997656 C -2.124962 64.997656 -4.249343 64.890722 -6.373724 64.687547 C -8.487376 64.473679 -10.590298 64.163569 -12.682492 63.746526 C -14.763956 63.340176 -16.834691 62.816199 -18.873238 62.195981 C -20.901056 61.586456 -22.907416 60.869997 -24.870859 60.057297 C -26.845031 59.233904 -28.765558 58.324964 -30.643167 57.319783 C -32.520776 56.325295 -34.34474 55.223873 -36.115057 54.047597 C -37.885375 52.860628 -39.591317 51.598805 -41.232884 50.240741 C -42.885181 48.89337 -44.451643 47.471146 -45.96446 45.963374 C -47.466548 44.455602 -48.893531 42.88367 -50.245409 41.236884 C -51.597288 39.590098 -52.863333 37.879151 -54.043545 36.114737 C -55.223757 34.33963 -56.318135 32.521749 -57.326679 30.639708 C -58.324495 28.76836 -59.236476 26.843545 -60.051895 24.875956 C -60.867314 22.908368 -61.58617 20.908699 -62.197735 18.866256 C -62.820028 16.834507 -63.335029 14.770678 -63.753468 12.685461 C -64.161178 10.589552 -64.483054 8.493642 -64.686908 6.376345 C -64.890763 4.248356 -64.998055 2.131059 -64.998055 0.00306907 C -64.998055 -2.124921 -64.890763 -4.252911 -64.686908 -6.370207 C -64.483054 -8.487504 -64.161178 -10.594107 -63.753468 -12.679323 C -63.335029 -14.764539 -62.820028 -16.828369 -62.197735 -18.870811 C -61.58617 -20.902561 -60.867314 -22.912923 -60.051895 -24.869818 C -59.236476 -26.837407 -58.324495 -28.762222 -57.326679 -30.644263 C -56.318135 -32.515611 -55.223757 -34.344185 -54.043545 -36.108599 C -52.863333 -37.883706 -51.597288 -39.594653 -50.245409 -41.230746 C -48.893531 -42.877532 -47.466548 -44.460158 -45.96446 -45.957236 C -44.451643 -47.465008 -42.885181 -48.897926 -41.232884 -50.245296 C -39.591317 -51.592667 -37.885375 -52.865183 -36.115057 -54.041459 C -34.34474 -55.228428 -32.520776 -56.319157 -30.643167 -57.324338 C -28.765558 -58.329519 -26.845031 -59.23846 -24.870859 -60.051159 C -22.907416 -60.863859 -20.901056 -61.580318 -18.873238 -62.200536 C -16.834691 -62.820754 -14.763956 -63.334038 -12.682492 -63.751081 C -10.590298 -64.168125 -8.487376 -64.478234 -6.373724 -64.692102 C -4.249343 -64.895277 -2.124962 -65.002211 -0.000581217 -65.002211 C 2.1238 -65.002211 4.248181 -64.895277 6.372562 -64.692102 C 8.486213 -64.478234 10.589136 -64.168125 12.681329 -63.751081 C 14.773523 -63.334038 16.833528 -62.820754 18.872076 -62.200536 C 20.910623 -61.580318 22.906254 -60.863859 24.869697 -60.051159 C 26.843869 -59.23846 28.764395 -58.329519 30.642005 -57.324338 C 32.519614 -56.319157 34.343577 -55.228428 36.113895 -54.041459 C 37.884212 -52.865183 39.590155 -51.592667 41.231722 -50.245296 C 42.884018 -48.897926 44.46121 -47.465008 45.963298 -45.957236 C 47.465385 -44.460158 48.892368 -42.877532 50.244247 -41.230746 C 51.596126 -39.594653 52.862171 -37.883706 54.042383 -36.108599 C 55.233324 -34.344185 56.316972 -32.515611 57.325517 -30.644263 C 58.323332 -28.762222 59.235314 -26.837407 60.050733 -24.869818 C 60.866152 -22.912923 61.585008 -20.902561 62.196572 -18.870811 C 62.818866 -16.828369 63.333867 -14.764539 63.752306 -12.679323 C 64.170744 -10.594107 64.481891 -8.487504 64.685746 -6.370207 C 64.90033 -4.252911 64.996893 -2.124921 64.996893 0.00306907 Z M 64.996893 0.00306907 " stroke="rgb(0%, 0%, 0%)" stroke-width="1" stroke-opacity="1" stroke-miterlimit="4"/><path fill="rgb(0%, 0%, 0%)" d="M 83.675781 56.636719 C 81.308594 56.636719 80.761719 57.183594 79.667969 58.097656 C 78.578125 59.011719 78.03125 58.828125 77.847656 59.011719 C 77.667969 59.195312 77.847656 59.742188 78.214844 59.558594 C 78.578125 59.375 79.304688 59.011719 80.398438 58.097656 C 81.488281 57.183594 82.582031 57.183594 83.675781 57.183594 C 86.953125 57.183594 88.773438 59.925781 89.136719 59.742188 C 89.5 59.558594 87.316406 56.636719 83.675781 56.636719 " fill-opacity="1" fill-rule="evenodd"/><path fill="rgb(0%, 0%, 0%)" d="M 87.863281 59.742188 C 85.496094 57.183594 81.125 57.003906 79.304688 59.925781 L 80.035156 59.925781 C 81.855469 57.003906 86.222656 58.28125 86.585938 59.558594 L 86.585938 59.925781 " fill-opacity="1" fill-rule="evenodd"/><path fill="rgb(0%, 0%, 0%)" d="M 84.949219 59.558594 C 84.949219 59.777344 84.90625 59.988281 84.824219 60.1875 C 84.742188 60.390625 84.621094 60.566406 84.46875 60.722656 C 84.316406 60.875 84.136719 60.996094 83.9375 61.078125 C 83.738281 61.160156 83.527344 61.203125 83.308594 61.203125 C 83.09375 61.203125 82.882812 61.160156 82.683594 61.078125 C 82.484375 60.996094 82.304688 60.875 82.152344 60.722656 C 82 60.566406 81.878906 60.390625 81.796875 60.1875 C 81.714844 59.988281 81.671875 59.777344 81.671875 59.558594 C 81.671875 59.339844 81.714844 59.132812 81.796875 58.929688 C 81.878906 58.726562 82 58.550781 82.152344 58.398438 C 82.304688 58.242188 82.484375 58.125 82.683594 58.039062 C 82.882812 57.957031 83.09375 57.914062 83.308594 57.914062 C 83.527344 57.914062 83.738281 57.957031 83.9375 58.039062 C 84.136719 58.125 84.316406 58.242188 84.46875 58.398438 C 84.621094 58.550781 84.742188 58.726562 84.824219 58.929688 C 84.90625 59.132812 84.949219 59.339844 84.949219 59.558594 Z M 84.949219 59.558594 " fill-opacity="1" fill-rule="evenodd"/><path fill="rgb(0%, 0%, 0%)" d="M 79.304688 59.925781 C 81.125 61.566406 85.132812 61.75 87.863281 59.742188 L 86.585938 59.558594 C 84.765625 61.566406 81.855469 61.386719 80.035156 59.925781 L 80.035156 59.558594 " fill-opacity="1" fill-rule="evenodd"/><path fill="rgb(0%, 0%, 0%)" d="M 88.042969 60.65625 C 84.949219 63.03125 81.855469 62.847656 80.035156 61.75 C 78.214844 60.65625 78.214844 60.289062 78.578125 60.289062 C 78.941406 60.289062 79.304688 60.65625 80.761719 61.386719 C 82.21875 62.117188 84.402344 62.117188 88.042969 60.65625 " fill-opacity="1" fill-rule="evenodd"/><path fill="rgb(0%, 0%, 0%)" d="M 80.761719 73.804688 C 77.121094 72.710938 76.394531 73.441406 75.300781 73.441406 L 74.9375 73.441406 L 75.300781 74.171875 C 76.757812 74.171875 77.484375 73.074219 80.761719 73.804688 " fill-opacity="1" fill-rule="evenodd"/><path fill="rgb(0%, 0%, 0%)" d="M 78.578125 79.652344 C 78.578125 77.835938 77.109375 76.363281 75.300781 76.363281 C 73.492188 76.363281 72.023438 77.835938 72.023438 79.652344 C 72.382812 78.128906 73.742188 77.050781 75.300781 77.050781 C 76.859375 77.050781 78.21875 78.128906 78.578125 79.652344 " fill-opacity="1" fill-rule="evenodd"/><path fill="rgb(0%, 0%, 0%)" d="M 66.925781 56.636719 C 69.292969 56.636719 69.839844 57.183594 70.933594 58.097656 C 72.023438 59.011719 72.570312 58.828125 72.753906 59.011719 C 72.933594 59.195312 72.753906 59.742188 72.386719 59.558594 C 72.023438 59.375 71.296875 59.011719 70.203125 58.097656 C 69.113281 57.183594 68.019531 57.183594 66.925781 57.183594 C 63.648438 57.183594 61.828125 59.925781 61.464844 59.742188 C 61.101562 59.558594 63.285156 56.636719 66.925781 56.636719 " fill-opacity="1" fill-rule="evenodd"/><path fill="rgb(0%, 0%, 0%)" d="M 62.738281 59.742188 C 65.105469 57.183594 69.476562 57.003906 71.296875 59.925781 L 70.566406 59.925781 C 68.746094 57.003906 64.378906 58.28125 64.015625 59.558594 L 64.015625 59.925781 " fill-opacity="1" fill-rule="evenodd"/><path fill="rgb(0%, 0%, 0%)" d="M 65.652344 59.558594 C 65.652344 59.777344 65.695312 59.988281 65.777344 60.1875 C 65.859375 60.390625 65.980469 60.566406 66.132812 60.722656 C 66.285156 60.875 66.464844 60.996094 66.664062 61.078125 C 66.863281 61.160156 67.074219 61.203125 67.292969 61.203125 C 67.507812 61.203125 67.71875 61.160156 67.917969 61.078125 C 68.117188 60.996094 68.296875 60.875 68.449219 60.722656 C 68.601562 60.566406 68.722656 60.390625 68.804688 60.1875 C 68.886719 59.988281 68.929688 59.777344 68.929688 59.558594 C 68.929688 59.339844 68.886719 59.132812 68.804688 58.929688 C 68.722656 58.726562 68.601562 58.550781 68.449219 58.398438 C 68.296875 58.242188 68.117188 58.125 67.917969 58.039062 C 67.71875 57.957031 67.507812 57.914062 67.292969 57.914062 C 67.074219 57.914062 66.863281 57.957031 66.664062 58.039062 C 66.464844 58.125 66.285156 58.242188 66.132812 58.398438 C 65.980469 58.550781 65.859375 58.726562 65.777344 58.929688 C 65.695312 59.132812 65.652344 59.339844 65.652344 59.558594 Z M 65.652344 59.558594 " fill-opacity="1" fill-rule="evenodd"/><path fill="rgb(0%, 0%, 0%)" d="M 71.296875 59.925781 C 69.476562 61.566406 65.472656 61.75 62.738281 59.742188 L 64.015625 59.558594 C 65.835938 61.566406 68.746094 61.386719 70.566406 59.925781 L 70.566406 59.558594 " fill-opacity="1" fill-rule="evenodd"/><path fill="rgb(0%, 0%, 0%)" d="M 62.558594 60.65625 C 65.652344 63.03125 68.746094 62.847656 70.566406 61.75 C 72.386719 60.65625 72.386719 60.289062 72.023438 60.289062 C 71.660156 60.289062 71.296875 60.65625 69.839844 61.386719 C 68.382812 62.117188 66.199219 62.117188 62.558594 60.65625 " fill-opacity="1" fill-rule="evenodd"/><path fill="rgb(0%, 0%, 0%)" d="M 69.292969 73.804688 C 73.296875 73.441406 72.023438 75.816406 75.300781 75.816406 L 75.664062 75.816406 L 75.300781 76.363281 C 71.296875 76.363281 73.117188 74.171875 69.292969 73.804688 " fill-opacity="1" fill-rule="evenodd"/><path fill="rgb(0%, 0%, 0%)" d="M 90.226562 57.734375 C 86.042969 54.078125 80.761719 53.53125 77.847656 56.269531 C 75.734375 59.105469 75.921875 62.445312 78.394531 65.953125 C 78.214844 65.953125 77.847656 66.132812 77.667969 66.316406 C 75.832031 62.808594 75.515625 59.195312 76.757812 55.90625 C 80.761719 52.617188 86.222656 52.253906 90.226562 57.734375 " fill-opacity="1" fill-rule="evenodd"/><path fill="rgb(0%, 0%, 0%)" d="M 79.125 66.132812 C 79.640625 66.320312 79.941406 66.855469 79.828125 67.394531 C 79.714844 67.929688 79.222656 68.300781 78.675781 68.261719 C 78.128906 68.21875 77.699219 67.777344 77.667969 67.230469 C 77.484375 67.59375 76.757812 68.691406 75.300781 68.691406 L 74.9375 68.691406 L 75.300781 69.238281 C 75.664062 69.238281 76.757812 69.238281 77.484375 68.691406 C 77.910156 69.300781 78.6875 69.550781 79.382812 69.296875 C 80.082031 69.046875 80.523438 68.355469 80.460938 67.617188 C 80.402344 66.875 79.851562 66.269531 79.125 66.132812 " fill-opacity="1" fill-rule="evenodd"/><path fill="rgb(0%, 0%, 0%)" d="M 81.308594 73.804688 C 79.667969 72.710938 78.941406 71.066406 77.121094 71.066406 C 76.757812 71.066406 76.027344 71.25 75.300781 71.613281 L 74.9375 71.613281 L 75.300781 72.160156 C 76.027344 72.160156 77.121094 71.25 78.394531 71.980469 C 79.667969 72.710938 80.398438 73.441406 81.308594 73.804688 " fill-opacity="1" fill-rule="evenodd"/><path fill="rgb(0%, 0%, 0%)" d="M 81.308594 73.804688 C 77.304688 73.441406 78.578125 75.816406 75.300781 75.816406 L 74.9375 75.816406 L 75.300781 76.363281 C 79.304688 76.363281 77.484375 74.171875 81.308594 73.804688 " fill-opacity="1" fill-rule="evenodd"/><path fill="rgb(0%, 0%, 0%)" d="M 60.375 57.734375 C 64.5625 54.078125 69.839844 53.53125 72.753906 56.269531 C 74.867188 59.105469 74.679688 62.445312 72.207031 65.953125 C 72.386719 65.953125 72.753906 66.132812 72.933594 66.316406 C 74.769531 62.808594 75.085938 59.195312 73.84375 55.90625 C 69.839844 52.617188 64.378906 52.253906 60.375 57.734375 " fill-opacity="1" fill-rule="evenodd"/><path fill="rgb(0%, 0%, 0%)" d="M 71.476562 66.132812 C 70.960938 66.320312 70.660156 66.855469 70.773438 67.394531 C 70.886719 67.929688 71.378906 68.300781 71.925781 68.261719 C 72.472656 68.21875 72.902344 67.777344 72.933594 67.230469 C 73.117188 67.59375 73.84375 68.691406 75.300781 68.691406 L 75.664062 68.691406 L 75.300781 69.238281 C 74.9375 69.238281 73.84375 69.238281 73.117188 68.691406 C 72.691406 69.300781 71.914062 69.550781 71.21875 69.296875 C 70.519531 69.046875 70.078125 68.355469 70.140625 67.617188 C 70.199219 66.875 70.75 66.269531 71.476562 66.132812 " fill-opacity="1" fill-rule="evenodd"/><path fill="rgb(0%, 0%, 0%)" d="M 69.292969 73.804688 C 70.933594 72.710938 71.660156 71.066406 73.480469 71.066406 C 73.84375 71.066406 74.574219 71.25 75.300781 71.613281 L 75.664062 71.613281 L 75.300781 72.160156 C 74.574219 72.160156 73.480469 71.25 72.207031 71.980469 C 70.933594 72.710938 70.203125 73.441406 69.292969 73.804688 " fill-opacity="1" fill-rule="evenodd"/><path fill="rgb(0%, 0%, 0%)" d="M 69.839844 73.804688 C 73.480469 72.710938 74.207031 73.441406 75.300781 73.441406 L 75.664062 73.441406 L 75.300781 74.171875 C 73.84375 74.171875 73.117188 73.074219 69.839844 73.804688 " fill-opacity="1" fill-rule="evenodd"/><path fill="rgb(0%, 0%, 0%)" d="M 72.023438 79.652344 C 72.023438 77.835938 73.492188 76.363281 75.300781 76.363281 C 77.109375 76.363281 78.578125 77.835938 78.578125 79.652344 C 78.21875 78.128906 76.859375 77.050781 75.300781 77.050781 C 73.742188 77.050781 72.382812 78.128906 72.023438 79.652344 " fill-opacity="1" fill-rule="evenodd"/></svg>