<?xml version="1.0" encoding="utf-8"?>
<svg id="master-artboard" xmlns="http://www.w3.org/2000/svg" height="980px" style="shape-rendering:geometricPrecision; text-rendering:geometricPrecision; image-rendering:optimizeQuality; fill-rule:evenodd; clip-rule:evenodd" viewBox="0 0 1400 980" width="1400px" version="1.1"><defs><style id="ee-google-fonts">@import url(https://fonts.googleapis.com/css?family=Bungee:400);</style></defs><g transform="matrix(0.6964991688728334, 0.0005423967959359287, -0.0005423967959359287, 0.6964991688728334, 438.5673679548521, 151.62848066385197)"><g>
	<path d="M130.668,173.814c0,0,31.5,112.5,99,174l-39.3,36.6c-2.7,2.5-3.8,6.399-2.7,9.899c4.6,14.601,21.1,51,71.1,51&#10;&#9;&#9;c46.2,0,59.5-34.3,63.2-52.199c1.199-5.7-2.9-11.101-8.601-11.601l-19.899-1.7c-4.9-0.399-9.301,2.9-10.301,7.7&#10;&#9;&#9;c-2.3,11.601-10,30.2-36.399,22.2c-37.3-11.3,91.3-80,91.3-80s34.3,22.8,81.7,39.3c0.8-2.2,1.6-4.3,2.399-6.6&#10;&#9;&#9;c8.2-22.2,20.801-43.7,36.801-61.2c18.1-20,40.399-33,66.199-40c-5,1.4-10.899,6.5-15.1,9.5c-6.2,4.4-11.8,9.6-16.9,15.2&#10;&#9;&#9;c-10.3,11.3-18.3,24.6-24.1,38.7c-10,24.6-15.4,54.8-12.9,81.4c4.101,44.101,19.5,132.7,77.5,193.601c80,84,77,103,44,204&#10;&#9;&#9;c-23.5,71.8-6,112.8,6.101,130.5c3.899,5.699,12.2,5.6,16-0.101l12.5-18.8c1.399-2.2,1.899-4.8,1.399-7.3&#10;&#9;&#9;c-3.199-15.7-9.199-80.9,72.801-202.2c2.399-3.5,2.199-8.2-0.5-11.5c-17.301-21.2-77.5-100.4-84.4-188.5c-8-103,84-96,97-186&#10;&#9;&#9;c0,0,88.8,68.7,81.3,253.2c-7.399,181,8.4,284.1,118.101,329c3.8,1.5,8.1,0.5,10.8-2.5c3.8-4.2,3.1-10.8-1.4-14.2&#10;&#9;&#9;c-27-20-102.9-98.9-55.5-333.3c57-282-214.5-433.5-352.5-433.5s-258,112.5-286.5,0c0,0,63.8-26.4,67.4-108.4&#10;&#9;&#9;c0.199-5.7-4.4-10.3-10.101-10c-25.1,1-89.4,10-109.8,73.5l-62.1,11c-3.4,0.6-6.2,2.9-7.4,6.1l-10.2,27.2c-0.9,2.3-2.6,4.2-4.8,5.3&#10;&#9;&#9;l-43.3,21.1c-5.3,2.6-7.1,9.2-3.8,14C37.769,171.614,62.968,191.714,130.668,173.814z"/>
</g><g>
</g><g>
</g><g>
</g><g>
</g><g>
</g><g>
</g><g>
</g><g>
</g><g>
</g><g>
</g><g>
</g><g>
</g><g>
</g><g>
</g><g>
</g></g><g transform="matrix(8.47071841573848, 0, 0, 8.47071841573848, -182.2036499602574, -6598.092934765422)"><g id="g-3" transform="matrix(1, 0, 0, 1, 0, 0)">
	<g id="g-4">
		<g>
			<path class="st0" d="M163,887H57V781h106V887z M63,881h94v-94H63V881z" style="fill: rgb(0, 0, 0);"/>
		</g>
	</g>
</g></g><path d="M 91.8690414428711 134.75999450683594 L 90.73904418945312 138.41000366210938 L 94.50904083251953 138.41000366210938 L 93.37904357910156 134.75999450683594 C 93.31904602050781 134.6133270263672 93.25238037109375 134.50999450683594 93.17904663085938 134.4499969482422 C 93.105712890625 134.38333129882812 93.02237701416016 134.35000610351562 92.92904663085938 134.35000610351562 L 92.32904052734375 134.35000610351562 C 92.22904205322266 134.35000610351562 92.14237976074219 134.38333129882812 92.06904602050781 134.4499969482422 C 92.00238037109375 134.50999450683594 91.93570709228516 134.6133270263672 91.8690414428711 134.75999450683594 M 90.4990463256836 146.13999938964844 C 90.4990463256836 146.44000244140625 90.432373046875 146.66000366210938 90.29904174804688 146.8000030517578 C 90.15904235839844 146.93333435058594 89.93904113769531 147 89.63904571533203 147 L 86.10904693603516 147 C 85.80237579345703 147 85.5823745727539 146.93333435058594 85.44904327392578 146.8000030517578 C 85.31571197509766 146.66000366210938 85.2490463256836 146.44000244140625 85.2490463256836 146.13999938964844 L 85.2490463256836 139.8000030517578 C 85.2490463256836 139.32000732421875 85.32238006591797 138.76666259765625 85.46903991699219 138.13999938964844 C 85.62237548828125 137.52000427246094 85.85904693603516 136.7933349609375 86.17904663085938 135.9600067138672 L 88.26904296875 130.50999450683594 C 88.36237335205078 130.23666381835938 88.50904083251953 130.0366668701172 88.70904541015625 129.91000366210938 C 88.90904235839844 129.7833251953125 89.1690444946289 129.72000122070312 89.48904418945312 129.72000122070312 L 95.94904327392578 129.72000122070312 C 96.25570678710938 129.72000122070312 96.50904083251953 129.7833251953125 96.70904541015625 129.91000366210938 C 96.90904235839844 130.0366668701172 97.05570983886719 130.23666381835938 97.14904022216797 130.50999450683594 L 99.23904418945312 135.9600067138672 C 99.55904388427734 136.7933349609375 99.79570770263672 137.52000427246094 99.94904327392578 138.13999938964844 C 100.09571075439453 138.76666259765625 100.1690444946289 139.32000732421875 100.1690444946289 139.8000030517578 L 100.1690444946289 146.13999938964844 C 100.1690444946289 146.44000244140625 100.10237884521484 146.66000366210938 99.96903991699219 146.8000030517578 C 99.83570861816406 146.93333435058594 99.61570739746094 147 99.30904388427734 147 L 95.68904113769531 147 C 95.3690414428711 147 95.13237762451172 146.93333435058594 94.97904205322266 146.8000030517578 C 94.82571411132812 146.66000366210938 94.7490463256836 146.44000244140625 94.7490463256836 146.13999938964844 L 94.7490463256836 142.77999877929688 L 90.4990463256836 142.77999877929688 L 90.4990463256836 146.13999938964844 ZM 100.31904602050781 171.260009765625 C 100.31904602050781 172 100.20904541015625 172.6699981689453 99.98904418945312 173.27000427246094 C 99.77571105957031 173.87001037597656 99.39237976074219 174.3800048828125 98.83904266357422 174.8000030517578 C 98.28571319580078 175.22666931152344 97.52904510498047 175.55999755859375 96.56904602050781 175.8000030517578 C 95.60903930664062 176.04000854492188 94.38571166992188 176.16000366210938 92.89904022216797 176.16000366210938 C 91.4123764038086 176.16000366210938 90.18904113769531 176.04000854492188 89.22904205322266 175.8000030517578 C 88.26904296875 175.55999755859375 87.51237487792969 175.22666931152344 86.95904541015625 174.8000030517578 C 86.40570831298828 174.3800048828125 86.02237701416016 173.87001037597656 85.80904388427734 173.27000427246094 C 85.59571075439453 172.6699981689453 85.48904418945312 172 85.48904418945312 171.260009765625 L 85.48904418945312 159.3800048828125 C 85.48904418945312 159.0800018310547 85.55570983886719 158.86000061035156 85.68904113769531 158.72000122070312 C 85.82238006591797 158.586669921875 86.04237365722656 158.52000427246094 86.34904479980469 158.52000427246094 L 90.1190414428711 158.52000427246094 C 90.4190444946289 158.52000427246094 90.63904571533203 158.586669921875 90.77904510498047 158.72000122070312 C 90.9123764038086 158.86000061035156 90.97904205322266 159.0800018310547 90.97904205322266 159.3800048828125 L 90.97904205322266 170.3300018310547 C 90.97904205322266 170.65000915527344 91.09904479980469 170.9166717529297 91.33904266357422 171.1300048828125 C 91.57904052734375 171.35000610351562 92.11570739746094 171.4600067138672 92.94904327392578 171.4600067138672 C 93.79570770263672 171.4600067138672 94.33904266357422 171.35000610351562 94.57904052734375 171.1300048828125 C 94.81904602050781 170.9166717529297 94.93904113769531 170.65000915527344 94.93904113769531 170.3300018310547 L 94.93904113769531 159.3800048828125 C 94.93904113769531 159.0800018310547 95.00904083251953 158.86000061035156 95.14904022216797 158.72000122070312 C 95.28237915039062 158.586669921875 95.50238037109375 158.52000427246094 95.80904388427734 158.52000427246094 L 99.44904327392578 158.52000427246094 C 99.75570678710938 158.52000427246094 99.9757080078125 158.586669921875 100.10903930664062 158.72000122070312 C 100.24903869628906 158.86000061035156 100.31904602050781 159.0800018310547 100.31904602050781 159.3800048828125 L 100.31904602050781 171.260009765625 ZM 94.55904388427734 204.60000610351562 L 86.46903991699219 204.60000610351562 C 86.1623764038086 204.60000610351562 85.94237518310547 204.53334045410156 85.80904388427734 204.40000915527344 C 85.67571258544922 204.260009765625 85.60904693603516 204.04000854492188 85.60904693603516 203.74000549316406 L 85.60904693603516 188.1800079345703 C 85.60904693603516 187.8800048828125 85.67571258544922 187.66000366210938 85.80904388427734 187.52000427246094 C 85.94237518310547 187.3866729736328 86.1623764038086 187.32000732421875 86.46903991699219 187.32000732421875 L 94.55904388427734 187.32000732421875 C 96.55904388427734 187.32000732421875 98.04237365722656 187.72000122070312 99.00904083251953 188.52000427246094 C 99.9757080078125 189.32000732421875 100.45904541015625 190.5533447265625 100.45904541015625 192.22000122070312 L 100.45904541015625 199.70001220703125 C 100.45904541015625 201.36666870117188 99.9757080078125 202.60000610351562 99.00904083251953 203.40000915527344 C 98.04237365722656 204.20001220703125 96.55904388427734 204.60000610351562 94.55904388427734 204.60000610351562 M 91.04904174804688 191.90000915527344 L 91.04904174804688 200.0600128173828 L 93.90904235839844 200.0600128173828 C 94.29570770263672 200.0600128173828 94.57904052734375 199.9666748046875 94.75904083251953 199.77999877929688 C 94.94570922851562 199.586669921875 95.03904724121094 199.29000854492188 95.03904724121094 198.88999938964844 L 95.03904724121094 193.0600128173828 C 95.03904724121094 192.66000366210938 94.94570922851562 192.36666870117188 94.75904083251953 192.1800079345703 C 94.57904052734375 191.99334716796875 94.29570770263672 191.90000915527344 93.90904235839844 191.90000915527344 L 91.04904174804688 191.90000915527344 ZM 90.04904174804688 233.39999389648438 L 86.46903991699219 233.39999389648438 C 86.1623764038086 233.39999389648438 85.94237518310547 233.3333282470703 85.80904388427734 233.1999969482422 C 85.67571258544922 233.05999755859375 85.60904693603516 232.83999633789062 85.60904693603516 232.5399932861328 L 85.60904693603516 216.97999572753906 C 85.60904693603516 216.67999267578125 85.67571258544922 216.45999145507812 85.80904388427734 216.3199920654297 C 85.94237518310547 216.18666076660156 86.1623764038086 216.1199951171875 86.46903991699219 216.1199951171875 L 90.32904052734375 216.1199951171875 C 90.58904266357422 216.1199951171875 90.80237579345703 216.17666625976562 90.96903991699219 216.2899932861328 C 91.13571166992188 216.4033203125 91.29237365722656 216.58665466308594 91.43904113769531 216.83999633789062 L 93.59904479980469 220.75 C 93.67904663085938 220.89666748046875 93.74571228027344 221 93.79904174804688 221.05999755859375 C 93.85903930664062 221.1266632080078 93.93570709228516 221.1599884033203 94.02904510498047 221.1599884033203 L 94.2490463256836 221.1599884033203 C 94.34237670898438 221.1599884033203 94.41571044921875 221.1266632080078 94.46903991699219 221.05999755859375 C 94.52904510498047 221 94.59904479980469 220.89666748046875 94.67904663085938 220.75 L 96.80904388427734 216.83999633789062 C 96.9557113647461 216.58665466308594 97.11237335205078 216.4033203125 97.27904510498047 216.2899932861328 C 97.44570922851562 216.17666625976562 97.65904235839844 216.1199951171875 97.9190444946289 216.1199951171875 L 101.80904388427734 216.1199951171875 C 102.10903930664062 216.1199951171875 102.32904052734375 216.18666076660156 102.46903991699219 216.3199920654297 C 102.60237884521484 216.45999145507812 102.6690444946289 216.67999267578125 102.6690444946289 216.97999572753906 L 102.6690444946289 232.5399932861328 C 102.6690444946289 232.83999633789062 102.60237884521484 233.05999755859375 102.46903991699219 233.1999969482422 C 102.32904052734375 233.3333282470703 102.10903930664062 233.39999389648438 101.80904388427734 233.39999389648438 L 98.10903930664062 233.39999389648438 C 97.80237579345703 233.39999389648438 97.5823745727539 233.3333282470703 97.44904327392578 233.1999969482422 C 97.31571197509766 233.05999755859375 97.2490463256836 232.83999633789062 97.2490463256836 232.5399932861328 L 97.2490463256836 224.08999633789062 L 95.82904052734375 226.6999969482422 C 95.682373046875 226.97332763671875 95.50904083251953 227.1699981689453 95.30904388427734 227.2899932861328 C 95.10903930664062 227.4099884033203 94.85903930664062 227.47000122070312 94.55904388427734 227.47000122070312 L 93.59904479980469 227.47000122070312 C 93.29237365722656 227.47000122070312 93.03904724121094 227.4099884033203 92.83904266357422 227.2899932861328 C 92.63904571533203 227.1699981689453 92.46903991699219 226.97332763671875 92.32904052734375 226.6999969482422 L 90.90904235839844 224.08999633789062 L 90.90904235839844 232.5399932861328 C 90.90904235839844 232.83999633789062 90.84237670898438 233.05999755859375 90.70904541015625 233.1999969482422 C 90.56904602050781 233.3333282470703 90.34904479980469 233.39999389648438 90.04904174804688 233.39999389648438 Z" transform="matrix(7.22735834121704, 0, 0, 7.22735834121704, -531.5631684679685, -831.5537233988941)" style="fill: rgb(0, 0, 0); white-space: pre; color: rgb(0, 0, 0);"/></svg>