<svg xmlns="http://www.w3.org/2000/svg" xmlns:xlink="http://www.w3.org/1999/xlink" width="144" zoomAndPan="magnify" viewBox="0 0 108 107.999999" height="144" preserveAspectRatio="xMidYMid meet" version="1.0"><defs><clipPath id="id1"><path d="M 3 3 L 105 3 L 105 104.632812 L 3 104.632812 Z M 3 3 " clip-rule="nonzero"/></clipPath></defs><path fill="rgb(100%, 100%, 100%)" d="M 66.359375 55.570312 C 67.589844 53.4375 69.574219 53.4375 70.804688 55.570312 L 78.464844 69.066406 C 79.695312 71.195312 78.691406 72.9375 76.230469 72.9375 L 60.792969 72.9375 C 58.363281 72.9375 57.355469 71.195312 58.558594 69.066406 Z M 51.539062 29.59375 C 52.769531 27.460938 54.726562 27.460938 55.957031 29.59375 L 57.664062 32.679688 L 61.6875 39.777344 C 62.667969 41.796875 62.667969 44.179688 61.6875 46.203125 L 48.183594 69.683594 C 46.953125 71.589844 44.910156 72.796875 42.648438 72.9375 L 31.433594 72.9375 C 28.972656 72.9375 27.964844 71.226562 29.195312 69.066406 Z M 51.539062 29.59375 " fill-opacity="1" fill-rule="nonzero"/><g clip-path="url(#id1)"><path fill="rgb(100%, 100%, 100%)" d="M 102.4375 41.0625 C 98.957031 28.035156 90.632812 17.148438 78.992188 10.40625 C 67.351562 3.664062 53.789062 1.875 40.808594 5.363281 C 27.824219 8.855469 16.972656 17.207031 10.253906 28.886719 C 3.53125 40.5625 1.746094 54.167969 5.226562 67.195312 C 8.707031 80.21875 17.03125 91.105469 28.671875 97.847656 C 36.425781 102.339844 45.03125 104.632812 53.75 104.632812 C 58.121094 104.632812 62.519531 104.058594 66.855469 102.890625 C 79.839844 99.402344 90.6875 91.046875 97.410156 79.371094 C 104.128906 67.691406 105.914062 54.085938 102.4375 41.0625 Z M 99.792969 64.832031 L 96.289062 63.890625 C 95.449219 63.664062 94.582031 64.164062 94.355469 65.007812 C 94.132812 65.855469 94.632812 66.722656 95.472656 66.949219 L 98.972656 67.890625 C 97.929688 71.300781 96.496094 74.621094 94.675781 77.785156 C 92.855469 80.945312 90.714844 83.84375 88.296875 86.449219 L 86.007812 84.15625 C 85.941406 84.035156 85.855469 83.921875 85.753906 83.816406 C 85.140625 83.195312 84.136719 83.195312 83.519531 83.8125 L 83.480469 83.851562 C 83.183594 84.148438 83.015625 84.550781 83.015625 84.972656 C 83.011719 85.390625 83.179688 85.796875 83.476562 86.09375 L 86.070312 88.695312 C 80.855469 93.601562 74.558594 97.261719 67.554688 99.394531 L 66.613281 95.871094 C 66.503906 95.460938 66.238281 95.117188 65.875 94.90625 C 65.511719 94.695312 65.078125 94.640625 64.675781 94.75 L 64.625 94.765625 C 63.78125 94.988281 63.28125 95.859375 63.503906 96.703125 C 63.542969 96.851562 63.601562 96.988281 63.675781 97.109375 L 64.503906 100.214844 C 57.382812 101.878906 50.109375 101.871094 43.152344 100.238281 L 44.089844 96.722656 C 44.316406 95.875 43.816406 95.007812 42.972656 94.78125 C 42.132812 94.554688 41.265625 95.054688 41.039062 95.902344 L 40.101562 99.410156 C 36.707031 98.367188 33.402344 96.929688 30.25 95.105469 C 27.097656 93.277344 24.203125 91.125 21.605469 88.695312 L 24.195312 86.09375 C 24.8125 85.476562 24.8125 84.472656 24.195312 83.855469 L 24.152344 83.8125 C 23.535156 83.191406 22.535156 83.191406 21.917969 83.8125 C 21.8125 83.917969 21.726562 84.035156 21.65625 84.164062 L 19.367188 86.460938 C 14.476562 81.226562 10.832031 74.910156 8.710938 67.886719 L 12.199219 66.949219 C 13.039062 66.722656 13.539062 65.855469 13.316406 65.007812 C 13.089844 64.164062 12.222656 63.664062 11.382812 63.890625 L 7.894531 64.828125 C 6.234375 57.679688 6.246094 50.382812 7.875 43.402344 L 11.5 44.375 C 11.636719 44.410156 11.773438 44.429688 11.910156 44.429688 C 12.605469 44.429688 13.242188 43.960938 13.433594 43.253906 C 13.65625 42.410156 13.160156 41.542969 12.316406 41.316406 L 8.699219 40.34375 C 9.738281 36.9375 11.167969 33.628906 12.988281 30.46875 C 14.808594 27.304688 16.957031 24.398438 19.382812 21.789062 L 22.011719 24.429688 C 22.320312 24.738281 22.726562 24.894531 23.128906 24.894531 C 23.53125 24.894531 23.9375 24.738281 24.246094 24.429688 C 24.863281 23.808594 24.863281 22.808594 24.246094 22.1875 L 21.609375 19.546875 C 26.820312 14.644531 33.113281 10.988281 40.109375 8.863281 L 41.066406 12.453125 C 41.257812 13.160156 41.894531 13.628906 42.589844 13.628906 C 42.726562 13.628906 42.863281 13.609375 43 13.574219 C 43.84375 13.347656 44.34375 12.476562 44.117188 11.632812 L 43.15625 8.039062 C 46.722656 7.203125 50.324219 6.789062 53.910156 6.789062 C 57.484375 6.789062 61.035156 7.203125 64.511719 8.015625 L 63.542969 11.652344 C 63.316406 12.496094 63.816406 13.367188 64.65625 13.59375 C 64.792969 13.628906 64.933594 13.644531 65.066406 13.644531 C 65.765625 13.644531 66.402344 13.179688 66.589844 12.472656 L 67.5625 8.84375 C 70.957031 9.886719 74.261719 11.324219 77.414062 13.148438 C 80.5625 14.976562 83.453125 17.125 86.054688 19.554688 L 83.425781 22.1875 C 82.8125 22.808594 82.8125 23.808594 83.425781 24.429688 C 83.734375 24.738281 84.140625 24.894531 84.542969 24.894531 C 84.949219 24.894531 85.351562 24.738281 85.660156 24.429688 L 88.289062 21.789062 C 93.179688 27.019531 96.824219 33.332031 98.949219 40.351562 L 95.355469 41.316406 C 94.515625 41.542969 94.015625 42.410156 94.238281 43.253906 C 94.429688 43.960938 95.066406 44.429688 95.765625 44.429688 C 95.898438 44.429688 96.035156 44.410156 96.171875 44.375 L 99.765625 43.410156 C 101.429688 50.554688 101.417969 57.851562 99.792969 64.832031 Z M 99.792969 64.832031 " fill-opacity="1" fill-rule="nonzero"/></g><path fill="rgb(100%, 100%, 100%)" d="M 97.296875 52.59375 L 93.765625 52.59375 C 93.652344 49.660156 93.21875 46.699219 92.429688 43.75 C 91.644531 40.816406 90.554688 38.042969 89.199219 35.460938 L 92.226562 33.707031 C 92.984375 33.269531 93.242188 32.300781 92.804688 31.542969 C 92.371094 30.785156 91.40625 30.523438 90.648438 30.960938 L 87.621094 32.71875 C 84.40625 27.621094 80.121094 23.390625 75.15625 20.246094 L 76.925781 17.167969 C 77.363281 16.410156 77.105469 15.441406 76.347656 15.003906 C 75.59375 14.566406 74.628906 14.828125 74.191406 15.585938 L 72.421875 18.664062 C 67.222656 15.917969 61.417969 14.3125 55.410156 14.066406 L 55.410156 10.566406 C 55.410156 9.691406 54.703125 8.980469 53.828125 8.980469 C 52.957031 8.980469 52.25 9.691406 52.25 10.566406 L 52.25 14.066406 C 49.347656 14.183594 46.410156 14.617188 43.488281 15.402344 C 40.566406 16.1875 37.808594 17.28125 35.238281 18.640625 L 33.480469 15.585938 C 33.042969 14.828125 32.078125 14.566406 31.324219 15.003906 C 30.566406 15.441406 30.308594 16.410156 30.746094 17.167969 L 32.503906 20.222656 C 27.421875 23.441406 23.199219 27.746094 20.066406 32.726562 L 17.023438 30.960938 C 16.269531 30.523438 15.300781 30.785156 14.867188 31.542969 C 14.429688 32.300781 14.6875 33.269531 15.445312 33.707031 L 18.488281 35.46875 C 15.742188 40.699219 14.136719 46.542969 13.902344 52.59375 L 10.363281 52.59375 C 9.488281 52.59375 8.78125 53.300781 8.78125 54.175781 C 8.78125 55.050781 9.488281 55.757812 10.363281 55.757812 L 13.902344 55.757812 C 14.019531 58.65625 14.453125 61.585938 15.234375 64.503906 C 16.019531 67.445312 17.113281 70.222656 18.472656 72.808594 L 15.460938 74.554688 C 14.707031 74.992188 14.445312 75.960938 14.882812 76.71875 C 15.175781 77.226562 15.707031 77.511719 16.25 77.511719 C 16.519531 77.511719 16.789062 77.441406 17.039062 77.296875 L 20.054688 75.550781 C 23.265625 80.640625 27.550781 84.875 32.511719 88.011719 L 30.949219 90.730469 C 30.84375 90.832031 30.753906 90.949219 30.675781 91.082031 C 30.242188 91.839844 30.503906 92.808594 31.257812 93.246094 L 31.316406 93.277344 C 31.5625 93.417969 31.832031 93.484375 32.097656 93.484375 C 32.640625 93.484375 33.171875 93.199219 33.464844 92.691406 L 35.246094 89.597656 C 40.441406 92.339844 46.246094 93.945312 52.25 94.1875 L 52.25 97.785156 C 52.25 98.660156 52.957031 99.371094 53.828125 99.371094 C 54.703125 99.371094 55.410156 98.660156 55.410156 97.785156 L 55.410156 94.191406 C 58.3125 94.074219 61.25 93.636719 64.175781 92.851562 C 67.097656 92.066406 69.859375 90.96875 72.433594 89.613281 L 74.207031 92.691406 C 74.5 93.199219 75.03125 93.480469 75.578125 93.480469 C 75.84375 93.480469 76.117188 93.414062 76.363281 93.273438 L 76.414062 93.246094 C 77.167969 92.808594 77.429688 91.839844 76.992188 91.082031 C 76.917969 90.953125 76.832031 90.839844 76.730469 90.742188 L 75.167969 88.027344 C 80.246094 84.808594 84.460938 80.511719 87.589844 75.535156 L 90.632812 77.296875 C 90.882812 77.441406 91.152344 77.511719 91.421875 77.511719 C 91.96875 77.511719 92.496094 77.226562 92.789062 76.71875 C 93.226562 75.960938 92.96875 74.992188 92.210938 74.554688 L 89.171875 72.792969 C 91.90625 67.585938 93.515625 61.777344 93.761719 55.757812 L 97.296875 55.757812 C 98.171875 55.757812 98.878906 55.050781 98.878906 54.175781 C 98.878906 53.300781 98.171875 52.59375 97.296875 52.59375 Z M 72.273438 86.082031 C 72.261719 86.089844 72.25 86.09375 72.238281 86.101562 C 72.222656 86.109375 72.210938 86.117188 72.199219 86.125 C 69.484375 87.695312 66.523438 88.941406 63.355469 89.792969 C 60.179688 90.648438 56.984375 91.054688 53.839844 91.054688 C 40.777344 91.054688 28.585938 84.011719 22.015625 72.691406 C 22.003906 72.664062 21.992188 72.636719 21.976562 72.609375 C 21.957031 72.582031 21.9375 72.554688 21.921875 72.523438 C 20.363281 69.808594 19.128906 66.851562 18.28125 63.683594 C 17.46875 60.628906 17.058594 57.558594 17.027344 54.53125 C 17.054688 54.414062 17.070312 54.296875 17.070312 54.175781 C 17.070312 54.054688 17.054688 53.9375 17.027344 53.824219 C 17.164062 37.644531 27.988281 22.851562 44.304688 18.464844 C 47.484375 17.609375 50.679688 17.199219 53.824219 17.199219 C 70.070312 17.199219 84.980469 28.09375 89.378906 44.570312 C 93.777344 61.03125 86.3125 77.921875 72.273438 86.082031 Z M 72.273438 86.082031 " fill-opacity="1" fill-rule="nonzero"/></svg>