<svg xmlns="http://www.w3.org/2000/svg" xmlns:xlink="http://www.w3.org/1999/xlink" width="200" zoomAndPan="magnify" viewBox="0 0 150 149.999998" height="200" preserveAspectRatio="xMidYMid meet" version="1.0"><path fill="rgb(0%, 0%, 0%)" d="M 39.949219 127.136719 L 45.257812 127.136719 C 46.109375 127.136719 46.800781 126.851562 47.40625 126.246094 C 47.976562 125.675781 48.257812 124.949219 48.257812 124.058594 C 48.257812 123.125 47.976562 122.398438 47.40625 121.789062 C 46.800781 121.222656 46.109375 120.898438 45.257812 120.898438 L 36.378906 120.898438 L 36.378906 117.335938 L 45.257812 117.335938 C 47.082031 117.335938 48.625 117.984375 49.921875 119.242188 C 51.21875 120.578125 51.867188 122.113281 51.867188 123.9375 C 51.867188 126.164062 50.894531 127.742188 48.90625 128.714844 C 51.097656 129.726562 52.152344 131.304688 52.152344 133.53125 C 52.152344 135.351562 51.542969 136.890625 50.246094 138.1875 C 48.949219 139.484375 47.367188 140.128906 45.542969 140.128906 L 36.378906 140.128906 L 36.378906 124.503906 L 39.949219 124.503906 Z M 39.949219 130.292969 L 39.949219 136.527344 L 45.542969 136.527344 C 46.394531 136.527344 47.082031 136.203125 47.691406 135.636719 C 48.300781 135.03125 48.582031 134.300781 48.582031 133.410156 C 48.582031 132.519531 48.300781 131.75 47.691406 131.183594 C 47.082031 130.574219 46.394531 130.292969 45.542969 130.292969 Z M 61.355469 117.335938 C 64.476562 117.335938 67.191406 118.472656 69.421875 120.699219 C 71.652344 122.925781 72.746094 125.597656 72.746094 128.714844 C 72.746094 131.871094 71.652344 134.542969 69.421875 136.769531 C 67.191406 138.996094 64.476562 140.128906 61.355469 140.128906 L 55.234375 140.128906 L 55.234375 124.542969 L 58.839844 124.542969 L 58.839844 136.527344 L 61.355469 136.527344 C 63.503906 136.527344 65.328125 135.757812 66.867188 134.21875 C 68.410156 132.722656 69.136719 130.859375 69.136719 128.714844 C 69.136719 126.566406 68.410156 124.746094 66.867188 123.207031 C 65.328125 121.710938 63.503906 120.941406 61.355469 120.941406 L 55.234375 120.941406 L 55.234375 117.335938 Z M 74.246094 117.335938 L 90.21875 117.335938 L 90.21875 120.941406 L 74.246094 120.941406 Z M 84.058594 124.542969 L 84.058594 140.128906 L 80.449219 140.128906 L 80.449219 124.542969 Z M 92.328125 140.128906 L 92.328125 136.527344 L 95.894531 136.527344 L 95.894531 140.128906 Z M 92.328125 132.925781 L 92.328125 116.769531 L 104.695312 134.382812 L 117.058594 116.769531 L 117.058594 140.128906 L 113.449219 140.128906 L 113.449219 128.148438 L 104.695312 140.65625 L 95.894531 128.148438 L 95.894531 132.925781 Z M 92.328125 132.925781 " fill-opacity="1" fill-rule="evenodd"/><path fill="rgb(27.839661%, 65.879822%, 34.899902%)" d="M 35.203125 41.511719 L 34.070312 24.75 L 52.03125 17.664062 L 52.839844 11.632812 L 57.910156 9.40625 L 68.085938 20.863281 L 81.707031 15.234375 L 69.828125 23.535156 L 74.773438 31.710938 L 86.246094 20.699219 L 93.382812 20.863281 L 97.558594 25.722656 L 99.910156 18.636719 L 101.328125 23.695312 L 98.371094 31.710938 L 109.113281 27.625 L 96.058594 55.640625 L 97.355469 62.925781 L 98.125 51.1875 L 95.003906 48.472656 L 91.558594 70.171875 L 95.855469 68.957031 L 108.261719 61.023438 L 114.871094 33.777344 L 103.234375 64.261719 L 108.261719 61.023438 L 116.410156 60.253906 L 115.03125 66.003906 L 119.613281 67.664062 L 116.085938 77.582031 L 104.976562 86.933594 L 98.410156 104.910156 L 101.410156 92.925781 L 95.125 99.484375 L 86.652344 103.734375 L 76.4375 100.210938 L 76.394531 92.316406 L 81.421875 83.976562 L 79.558594 80.132812 L 73.070312 92.441406 L 70.882812 91.265625 L 65.207031 112.804688 L 63.625 103.167969 L 69.382812 90.089844 L 69.058594 85.960938 L 65.125 82.398438 L 56.8125 86.691406 L 60.382812 96.609375 L 55.71875 102.882812 L 42.664062 101.386719 L 37.515625 95.476562 L 30.582031 97.175781 L 33.746094 90.660156 L 29.851562 82.601562 L 34.71875 68.3125 L 42.542969 60.496094 L 42.90625 55.597656 L 45.460938 53.167969 L 38.894531 46.855469 L 28.230469 54.628906 Z M 35.203125 41.511719 " fill-opacity="1" fill-rule="evenodd"/><path fill="rgb(91.369629%, 31.759644%, 17.248535%)" d="M 35.203125 41.511719 L 38.894531 46.855469 L 57.136719 30.335938 L 58.152344 40.214844 L 63.421875 47.746094 L 66.339844 46.367188 L 75.097656 55.195312 L 76.394531 43.617188 L 79.113281 42.886719 L 74.773438 31.710938 L 73.839844 32.96875 L 76.394531 43.617188 L 72.382812 44.101562 L 70.191406 40.011719 L 73.839844 32.96875 L 71.773438 28.71875 L 66.058594 25.679688 L 63.460938 27.136719 L 66.828125 35.921875 L 66.339844 46.367188 L 57.136719 30.335938 L 55.109375 26.289062 Z M 35.203125 41.511719 " fill-opacity="1" fill-rule="evenodd"/><path fill="rgb(76.858521%, 33.729553%, 51.368713%)" d="M 51.949219 17.746094 L 61.515625 24.507812 L 63.460938 27.136719 L 69.828125 23.535156 L 68.003906 20.78125 L 61.515625 24.507812 L 66.058594 25.679688 L 57.460938 30.863281 L 61.515625 24.507812 L 55.109375 26.289062 Z M 51.949219 17.746094 " fill-opacity="1" fill-rule="evenodd"/><path fill="rgb(49.01886%, 3.138733%, 13.729858%)" d="M 79.113281 42.886719 L 98.371094 31.710938 L 97.558594 25.722656 L 85.234375 62.441406 L 98.371094 31.710938 L 95.042969 48.433594 L 87.542969 48.472656 L 81.179688 53.089844 Z M 79.113281 42.886719 " fill-opacity="1" fill-rule="evenodd"/><path fill="rgb(91.369629%, 31.759644%, 17.248535%)" d="M 81.179688 53.089844 L 77.691406 57.300781 L 79.515625 60.820312 L 75.097656 64.707031 L 77.003906 69.566406 L 81.179688 68.59375 L 82.515625 62.078125 Z M 81.179688 53.089844 " fill-opacity="1" fill-rule="evenodd"/><path fill="rgb(91.369629%, 31.759644%, 17.248535%)" d="M 42.542969 60.496094 L 51.097656 58.066406 L 60.910156 61.023438 L 48.90625 74.667969 Z M 42.542969 60.496094 " fill-opacity="1" fill-rule="evenodd"/><path fill="rgb(76.858521%, 33.729553%, 51.368713%)" d="M 61.839844 75.636719 L 48.90625 74.667969 L 60.460938 80.859375 L 56.367188 83.855469 L 63.707031 80.457031 L 66.625 72.074219 L 75.097656 64.707031 L 77.652344 57.378906 L 75.097656 55.195312 L 68.855469 60.578125 L 60.910156 61.023438 L 66.136719 68.3125 Z M 61.839844 75.636719 " fill-opacity="1" fill-rule="evenodd"/><path fill="rgb(49.01886%, 3.138733%, 13.729858%)" d="M 45.460938 53.167969 L 51.097656 58.066406 L 58.515625 58.472656 L 60.910156 61.023438 L 63.785156 54.707031 L 63.421875 47.746094 L 53.488281 50.011719 Z M 45.460938 53.167969 " fill-opacity="1" fill-rule="evenodd"/><path fill="rgb(49.01886%, 3.138733%, 13.729858%)" d="M 48.90625 74.667969 L 56.8125 86.691406 L 37.515625 95.476562 L 33.746094 90.660156 Z M 48.90625 74.667969 " fill-opacity="1" fill-rule="evenodd"/><path fill="rgb(49.01886%, 3.138733%, 13.729858%)" d="M 63.707031 80.457031 L 65.125 82.398438 L 70.71875 80.253906 L 69.058594 85.960938 L 69.382812 90.089844 L 70.882812 91.265625 L 74.289062 83.25 L 83.085938 74.789062 L 91.558594 71.429688 L 91.558594 70.171875 Z M 63.707031 80.457031 " fill-opacity="1" fill-rule="evenodd"/><path fill="rgb(91.369629%, 31.759644%, 17.248535%)" d="M 81.421875 83.976562 L 95.449219 69.039062 L 101.410156 67.664062 L 99.910156 70.820312 L 91.558594 71.429688 L 89.816406 87.015625 L 86.042969 96.8125 L 89.652344 82.480469 L 87.828125 81.429688 L 81.625 91.550781 Z M 81.421875 83.976562 " fill-opacity="1" fill-rule="evenodd"/><path fill="rgb(49.01886%, 3.138733%, 13.729858%)" d="M 103.234375 64.261719 L 108.261719 61.023438 L 107.449219 66.609375 L 101.410156 67.664062 Z M 103.234375 64.261719 " fill-opacity="1" fill-rule="evenodd"/><path fill="rgb(91.369629%, 31.759644%, 17.248535%)" d="M 107.492188 66.570312 L 115.074219 66.609375 L 104.976562 86.933594 L 101.449219 92.886719 L 102.464844 88.554688 L 104.976562 86.933594 L 107.207031 77.296875 L 105.789062 73.492188 Z M 107.492188 66.570312 " fill-opacity="1" fill-rule="evenodd"/><path fill="rgb(49.01886%, 3.138733%, 13.729858%)" d="M 99.910156 70.820312 L 105.789062 73.492188 L 102.464844 88.554688 L 93.019531 89.523438 Z M 99.910156 70.820312 " fill-opacity="1" fill-rule="evenodd"/><path fill="rgb(27.839661%, 65.879822%, 34.899902%)" d="M 150.554688 150.050781 L -0.320312 150.050781 L -0.320312 -0.609375 L 150.554688 -0.609375 Z M 8.21875 141.523438 L 142.015625 141.523438 L 142.015625 7.917969 L 8.21875 7.917969 Z M 8.21875 141.523438 " fill-opacity="1" fill-rule="evenodd"/></svg>