<svg xmlns="http://www.w3.org/2000/svg" xmlns:xlink="http://www.w3.org/1999/xlink" width="144" zoomAndPan="magnify" viewBox="0 0 108 107.999999" height="144" preserveAspectRatio="xMidYMid meet" version="1.0"><path fill="rgb(89.408875%, 54.899597%, 17.248535%)" d="M 50.273438 2.167969 C 33.835938 3.554688 19.480469 11.972656 10.570312 25.4375 C -5.390625 49.558594 1.214844 81.867188 25.378906 97.902344 C 43.441406 109.890625 67.828125 109.269531 84.941406 96.390625 C 115.859375 73.121094 112.722656 26.988281 78.953125 8.304688 C 70.90625 3.855469 59.417969 1.394531 50.273438 2.167969 M 54.957031 8.375 C 58.621094 9.171875 59.425781 9.375 59.59375 9.542969 C 59.710938 9.660156 59.625 10.175781 59.089844 12.539062 C 56.785156 22.726562 56.828125 22.507812 56.996094 22.609375 C 57.390625 22.851562 63.125 24.183594 63.246094 24.058594 C 63.316406 23.984375 63.65625 22.683594 63.996094 21.167969 C 65.613281 13.960938 66.183594 11.53125 66.292969 11.425781 C 66.410156 11.308594 67.375 11.5 71.890625 12.535156 C 74.191406 13.0625 74.089844 13.019531 74.089844 13.417969 C 74.089844 13.597656 73.695312 15.476562 73.214844 17.589844 C 71.71875 24.203125 71.386719 25.710938 71.386719 25.917969 C 71.386719 26.25 71.640625 26.410156 72.757812 26.777344 C 82.601562 30.042969 87.632812 35.542969 87.636719 43.039062 C 87.636719 44.726562 87.601562 44.953125 86.988281 47.421875 C 85.714844 52.558594 82.675781 55.480469 77.714844 56.335938 C 76.347656 56.570312 76.332031 56.515625 78.050781 57.496094 C 85.21875 61.566406 87.121094 66.972656 84.351562 75.382812 C 81.011719 85.535156 72 89.441406 57.996094 86.804688 C 57.3125 86.675781 56.511719 86.570312 56.21875 86.566406 L 55.683594 86.5625 L 55.28125 88.34375 C 53.316406 97.070312 52.808594 99.273438 52.753906 99.363281 C 52.644531 99.542969 51.96875 99.480469 50.558594 99.152344 C 49.808594 98.980469 48.28125 98.632812 47.164062 98.378906 C 44.601562 97.796875 44.75 97.90625 44.980469 96.761719 C 45.164062 95.855469 46.421875 90.242188 47.15625 87.046875 C 47.367188 86.128906 47.546875 85.15625 47.558594 84.890625 L 47.574219 84.40625 L 46.117188 84 C 44.191406 83.464844 41.664062 82.835938 41.441406 82.835938 C 41.230469 82.835938 41.34375 82.394531 39.964844 88.507812 C 38.398438 95.429688 38.339844 95.660156 38.164062 95.808594 C 38.035156 95.914062 37.679688 95.871094 36.363281 95.589844 C 33.996094 95.085938 30.558594 94.292969 30.445312 94.222656 C 30.273438 94.117188 30.328125 93.839844 31.753906 87.527344 C 32.523438 84.101562 33.15625 81.140625 33.15625 80.941406 C 33.15625 80.53125 33.257812 80.570312 30.511719 79.871094 C 28.171875 79.277344 20.824219 77.335938 19.296875 76.910156 C 18.890625 76.796875 18.507812 76.652344 18.445312 76.59375 C 18.328125 76.472656 21.488281 68.445312 21.765625 68.15625 C 21.890625 68.027344 22.039062 68.054688 22.796875 68.355469 C 25.082031 69.257812 28.503906 69.65625 29.484375 69.136719 C 30.410156 68.644531 30.605469 67.980469 34.777344 51.246094 C 36.140625 45.78125 37.746094 39.390625 38.34375 37.042969 C 40.089844 30.226562 40.222656 29.378906 39.6875 28.59375 C 39.003906 27.585938 37.074219 26.707031 33.609375 25.820312 C 31.40625 25.257812 31.320312 25.222656 31.320312 24.945312 C 31.320312 24.457031 32.980469 17.089844 33.121094 16.945312 C 33.226562 16.839844 34.550781 17.144531 42.230469 19.046875 C 44.996094 19.734375 47.5 20.347656 47.792969 20.410156 C 48.089844 20.476562 48.410156 20.550781 48.511719 20.582031 C 48.816406 20.675781 48.890625 20.410156 50.28125 14.21875 C 51.019531 10.941406 51.671875 8.152344 51.730469 8.019531 C 51.871094 7.699219 51.78125 7.6875 54.957031 8.375 M 54.703125 32.613281 C 54.542969 32.871094 51.089844 46.921875 51.167969 47 C 51.300781 47.128906 60.484375 49.425781 61.714844 49.632812 C 67.484375 50.613281 71.652344 47.710938 71.648438 42.714844 C 71.648438 39.632812 70.21875 37.800781 66.230469 35.765625 C 63.984375 34.621094 54.984375 32.160156 54.703125 32.613281 M 48.808594 56.277344 C 48.648438 56.582031 45.53125 69.144531 45.238281 70.667969 C 44.742188 73.265625 44.820312 73.339844 49.058594 74.472656 C 54.308594 75.875 58.171875 76.335938 61.183594 75.917969 C 67.617188 75.023438 70.660156 66.914062 66.28125 62.347656 C 64.175781 60.15625 61.855469 59.230469 52.835938 56.976562 C 48.609375 55.921875 48.96875 55.984375 48.808594 56.277344 " fill-opacity="1" fill-rule="evenodd"/></svg>