<svg xmlns="http://www.w3.org/2000/svg" xmlns:xlink="http://www.w3.org/1999/xlink" width="1080" zoomAndPan="magnify" viewBox="0 0 810 809.999993" height="1080" preserveAspectRatio="xMidYMid meet" version="1.0"><path fill="rgb(0%, 0%, 0%)" d="M 341.828125 84.566406 C 341.417969 107.980469 341.285156 109.867188 338.039062 116.097656 C 331.40625 129.222656 321.671875 131.925781 310.304688 123.949219 L 304.21875 119.621094 L 306.789062 124.765625 C 310.441406 131.941406 312.335938 142.492188 312.335938 155.214844 C 312.335938 167.933594 310.171875 182.953125 308.007812 185.660156 C 304.625 189.585938 285.554688 180.921875 277.703125 171.859375 C 275.132812 168.886719 273.105469 166.988281 273.105469 167.667969 C 273.105469 168.34375 276.351562 174.976562 280.410156 182.550781 C 287.441406 195.679688 297.863281 221.117188 303.140625 238.03125 C 306.523438 248.855469 307.875 270.914062 305.578125 276.597656 C 300.84375 287.964844 284.476562 287.554688 253.085938 275.109375 C 244.027344 271.457031 232.117188 267.257812 226.707031 265.769531 C 217.371094 263.199219 216.425781 262.523438 203.167969 249.265625 L 189.363281 235.585938 L 190.042969 240.863281 C 190.449219 243.703125 190.175781 246.953125 189.5 248.039062 C 187.601562 250.746094 171.503906 250.070312 159.460938 246.683594 C 148.640625 243.710938 126.996094 234.097656 119.957031 229.09375 C 117.660156 227.472656 116.308594 226.929688 116.984375 228.007812 C 117.660156 229.09375 123.882812 238.425781 130.777344 248.714844 C 143.628906 268.066406 147.289062 276.589844 147.289062 287.011719 C 147.289062 299.191406 142.285156 305.011719 132 305.011719 L 127.671875 305.011719 L 132.40625 308.261719 C 136.875 311.234375 148.371094 323.6875 154.996094 332.484375 C 158.242188 336.953125 160.273438 348.453125 158.785156 354.945312 C 157.699219 360.222656 149.71875 368.210938 144.449219 369.289062 C 139.445312 370.371094 139.445312 371.992188 144.449219 373.753906 C 149.726562 375.652344 170.015625 389.316406 182.601562 399.464844 C 202.082031 415.296875 214.933594 431.257812 214.933594 439.652344 C 214.933594 443.167969 209.789062 448.171875 200.1875 453.726562 C 196.261719 456.164062 188.144531 461.710938 182.191406 466.179688 C 172.722656 473.488281 169.472656 474.976562 154.324219 479.710938 C 144.855469 482.683594 130.652344 486.210938 122.535156 487.5625 C 108.199219 490 102.785156 491.753906 109.816406 491.753906 C 111.847656 491.753906 116.992188 492.976562 121.183594 494.328125 C 126.328125 496.089844 134.710938 497.167969 145.265625 497.710938 C 163.261719 498.523438 169.617188 500.285156 194.640625 511.242188 C 210.609375 518.417969 214.523438 521.390625 215.746094 527.75 C 216.964844 534.246094 215.335938 537.488281 207.085938 546.148438 L 199.644531 553.992188 L 207.628906 550.476562 C 216.554688 546.550781 242.257812 541.816406 255.109375 541.816406 C 259.710938 541.816406 267.550781 540.863281 272.425781 539.785156 C 277.429688 538.566406 285.277344 537.757812 289.878906 538.023438 L 298.128906 538.433594 L 297.996094 543.570312 C 297.863281 547.363281 296.101562 551.289062 291.773438 557.777344 C 288.394531 562.789062 282.980469 571.851562 279.867188 578.074219 C 275.402344 586.871094 272.96875 589.988281 268.503906 592.691406 L 262.957031 596.074219 L 270.398438 595.535156 C 274.457031 595.265625 280.953125 593.769531 284.601562 592.148438 C 288.394531 590.53125 302.464844 584.707031 315.851562 579.160156 C 351.566406 564.542969 370.78125 551.6875 401.484375 521.917969 C 407.839844 515.832031 413.25 510.960938 413.390625 511.230469 C 414.335938 512.171875 416.507812 528.6875 418.394531 550.609375 C 423.128906 603.25 425.160156 695.675781 422.042969 714.21875 C 421.101562 719.355469 418.527344 728.425781 416.367188 734.238281 C 411.496094 746.828125 412.039062 748.449219 420.558594 746.148438 C 425.425781 744.796875 426.914062 744.929688 431.515625 747.371094 C 434.488281 748.988281 437.191406 750.210938 437.46875 750.210938 C 439.089844 750.210938 437.875 739.109375 435.4375 732.210938 C 433.140625 725.71875 432.734375 720.984375 432.734375 700.542969 C 432.597656 662.65625 430.296875 592.425781 428 562.113281 C 425.835938 531.53125 425.425781 509.339844 427.054688 509.339844 C 427.730469 509.339844 436.390625 513.667969 446.402344 519.078125 C 478.601562 536.128906 502.953125 543.167969 530.953125 543.167969 C 558.007812 543.167969 570.457031 539.511719 581.28125 528.550781 C 588.3125 521.242188 588.453125 519.621094 581.957031 523.003906 C 576.003906 526.121094 565.722656 526.386719 559.367188 523.683594 C 553.414062 521.242188 547.058594 511.90625 544.078125 501.222656 L 541.78125 492.691406 L 545.164062 489.988281 C 551.382812 484.84375 564.777344 479.570312 580.878906 476.046875 C 589.804688 474.152344 601.710938 470.632812 607.257812 468.46875 C 612.800781 466.171875 622.8125 463.464844 629.445312 462.378906 C 636.074219 461.4375 643.382812 459.675781 645.679688 458.597656 C 649.871094 456.835938 649.871094 456.835938 641.753906 456.699219 C 630.796875 456.433594 619.296875 451.832031 617.535156 446.820312 C 614.964844 439.378906 623.082031 428.417969 639.722656 416.640625 C 665.019531 398.773438 672.601562 393.90625 684.230469 387.683594 C 696.816406 380.917969 710.070312 370.632812 710.070312 367.652344 C 710.070312 366.84375 706.277344 368.195312 701.675781 370.625 C 689.636719 376.851562 676.785156 379.695312 660.683594 379.695312 C 648.644531 379.695312 645.804688 379.152344 634.304688 374.960938 C 604.679688 364 601.296875 362.507812 596.152344 357.636719 C 591.285156 353.035156 591.007812 352.359375 591.007812 344.78125 C 591.007812 334.632812 594.390625 327.191406 603.183594 317.585938 C 606.976562 313.390625 611.035156 308.246094 612.246094 305.816406 C 616.980469 296.613281 625.773438 284.839844 635.785156 274.417969 C 646.066406 263.460938 650.398438 257.636719 648.09375 257.636719 C 647.417969 257.636719 646.066406 258.582031 644.980469 259.800781 C 641.191406 264.402344 629.558594 268.730469 614.132812 271.304688 C 593.84375 274.550781 587.488281 265.890625 596.546875 246.8125 C 600.472656 238.425781 611.5625 222.457031 619.277344 213.792969 C 622.25 210.410156 622.390625 210.003906 620.085938 210.820312 C 614.675781 212.847656 608.855469 213.257812 606.152344 211.765625 C 601.683594 209.324219 596.816406 199.585938 595.195312 189.570312 C 592.355469 173.066406 597.765625 149.109375 607.914062 133.140625 L 611.429688 127.59375 L 605.609375 130.566406 C 602.359375 132.1875 592.488281 139.09375 583.554688 145.859375 C 556.632812 166.566406 541.078125 175.085938 530.796875 175.085938 C 525.792969 175.085938 524.03125 173.464844 521.460938 166.160156 L 519.699219 160.878906 L 518.613281 169.40625 C 517.394531 180.5 509.820312 195.929688 499.40625 208.921875 C 488.988281 221.777344 468.835938 241.398438 466.128906 241.398438 C 463.15625 241.398438 459.097656 235.71875 455.441406 226.78125 C 452.601562 219.472656 452.46875 217.3125 452.734375 189.972656 L 453.144531 160.878906 L 449.085938 167.378906 C 443.40625 176.308594 437.855469 179.421875 429.203125 178.746094 C 413.914062 177.660156 408.777344 168.054688 410.265625 144.105469 C 410.808594 136.253906 411.484375 128.277344 411.882812 126.382812 C 412.5625 123.265625 412.425781 123.265625 410.265625 127.058594 C 404.71875 136.9375 398.222656 140.320312 391.191406 136.796875 C 387 134.632812 375.226562 121.636719 367.382812 110.679688 C 364.542969 106.886719 357.78125 93.765625 352.367188 81.585938 L 342.222656 59.527344 Z M 341.828125 84.566406 " fill-opacity="1" fill-rule="evenodd"/><path fill="rgb(0%, 0%, 0%)" d="M 813.554688 812.414062 L -3.84375 812.414062 L -3.84375 -5.210938 L 813.554688 -5.210938 Z M 42.421875 766.132812 L 767.289062 766.132812 L 767.289062 41.066406 L 42.421875 41.066406 Z M 42.421875 766.132812 " fill-opacity="1" fill-rule="evenodd"/><path fill="rgb(100%, 5.879211%, 7.449341%)" d="M 43.574219 42.347656 L 105.09375 42.347656 L 105.09375 103.882812 L 43.574219 103.882812 Z M 43.574219 42.347656 " fill-opacity="1" fill-rule="evenodd"/><path fill="rgb(100%, 5.879211%, 7.449341%)" d="M 43.628906 703.691406 L 105.144531 703.691406 L 105.144531 765.226562 L 43.628906 765.226562 Z M 43.628906 703.691406 " fill-opacity="1" fill-rule="evenodd"/><path fill="rgb(100%, 5.879211%, 7.449341%)" d="M 704.355469 42.621094 L 765.875 42.621094 L 765.875 104.15625 L 704.355469 104.15625 Z M 704.355469 42.621094 " fill-opacity="1" fill-rule="evenodd"/><path fill="rgb(100%, 5.879211%, 7.449341%)" d="M 704.355469 703.847656 L 765.875 703.847656 L 765.875 765.382812 L 704.355469 765.382812 Z M 704.355469 703.847656 " fill-opacity="1" fill-rule="evenodd"/></svg>