<?xml version="1.0" encoding="utf-8"?>
<!-- Generator: Adobe Illustrator 21.0.0, SVG Export Plug-In . SVG Version: 6.00 Build 0)  -->
<svg version="1.1" id="Слой_1" xmlns="http://www.w3.org/2000/svg" xmlns:xlink="http://www.w3.org/1999/xlink" x="0px" y="0px"
	 viewBox="0 0 37.8 38" style="enable-background:new 0 0 37.8 38;" xml:space="preserve">
<style type="text/css">
	.st0{fill-rule:evenodd;clip-rule:evenodd;}
</style>
<g>
	<path class="st0" d="M2.4,26.3l3.1-1.8c-0.4-0.8-0.6-1.7-0.8-2.6H1C1.3,23.5,1.7,25,2.4,26.3L2.4,26.3z M4.3,19.9
		c0-0.4,0-0.7,0-1.1c0-7.5,5.7-13.7,13-14.5V0.8C8,1.6,0.8,9.4,0.8,18.8c0,0.4,0,0.7,0,1.1H4.3L4.3,19.9z M35.5,26.3l-3.1-1.8
		c0.8-1.8,1.2-3.7,1.2-5.7c0-6.6-4.4-12.3-10.7-14.1c-0.8-0.2-1.5-0.4-2.3-0.5V0.8c9.3,0.8,16.5,8.6,16.5,18.1
		C37.1,21.5,36.5,24,35.5,26.3L35.5,26.3z M33.7,29.3l-3.1-1.8c-2.7,3.6-6.9,5.9-11.7,5.9c-4.8,0-9.1-2.3-11.8-5.9l-3.1,1.8
		C7.4,34,12.8,37,18.9,37C25,37,30.4,34,33.7,29.3L33.7,29.3z"/>
	<path class="st0" d="M23.6,8.4c4,1.8,6.8,5.8,6.8,10.5c0,6.3-5.1,11.5-11.5,11.5c-1.6,0-3.2-0.3-4.6-1V22h5.3l0.7-2h-6v-2.1h6.3
		l0.7-2.1h-7v-4.6c0-0.7,0.3-1.4,1-2.2c0.4-0.4,1.2-0.6,2.3-0.6H23.6L23.6,8.4z M12.2,28.2c-2.1-1.5-3.7-3.7-4.4-6.2h4.4V28.2
		L12.2,28.2z M7.5,19.9c0-0.3,0-0.7,0-1.1c0-4.1,2.1-7.6,5.3-9.7c-0.3,0.7-0.5,1.5-0.5,2.4v8.4H7.5L7.5,19.9z"/>
</g>
</svg>
