<?xml version="1.0" encoding="utf-8"?>
<!-- Generator: Adobe Illustrator 21.0.0, SVG Export Plug-In . SVG Version: 6.00 Build 0)  -->
<svg version="1.1" id="Слой_1" xmlns="http://www.w3.org/2000/svg" xmlns:xlink="http://www.w3.org/1999/xlink" x="0px" y="0px"
	 viewBox="0 0 37.8 38" style="enable-background:new 0 0 37.8 38;" xml:space="preserve">
<style type="text/css">
	.st0{fill-rule:evenodd;clip-rule:evenodd;fill:#FFFFFF;}
</style>
<g>
	<path class="st0" d="M2.4,26.3l3.1-1.8c-0.8-1.8-1.2-3.7-1.2-5.7c0-7.5,5.7-13.7,13-14.5V0.8C8,1.6,0.8,9.4,0.8,18.8
		C0.8,21.5,1.3,24,2.4,26.3L2.4,26.3z M35.5,26.3l-3.1-1.8c0.8-1.8,1.2-3.7,1.2-5.7c0-6.4-4-11.8-9.7-13.8l0,0
		c-0.1,0-0.2-0.1-0.3-0.1c0,0,0,0-0.1,0c-0.1,0-0.2-0.1-0.2-0.1c0,0-0.1,0-0.1,0c-0.1,0-0.1,0-0.2-0.1c-0.1,0-0.2,0-0.3-0.1
		c0,0,0,0-0.1,0c-0.2-0.1-0.5-0.1-0.7-0.2l0,0c-0.1,0-0.2,0-0.3-0.1l0,0c-0.1,0-0.2,0-0.3-0.1l0,0c-0.1,0-0.2,0-0.3,0l0,0
		c-0.1,0-0.1,0-0.2,0V0.8c9.3,0.8,16.5,8.6,16.5,18.1C37.1,21.5,36.5,24,35.5,26.3L35.5,26.3z M33.7,29.3l-3.1-1.8
		c-2.7,3.6-6.9,5.9-11.7,5.9c-4.8,0-9.1-2.3-11.8-5.9l-3.1,1.8C7.4,34,12.8,37,18.9,37C25,37,30.4,34,33.7,29.3L33.7,29.3z"/>
	<path class="st0" d="M24,8.6c3.8,1.9,6.4,5.8,6.4,10.3c0,6.3-5.1,11.5-11.5,11.5c-1.6,0-3.2-0.3-4.6-1v-4h4l0.7-2c0,0-2.4,0-4.7,0
		v-4.7h6.2l0.7-2h-6.9v-8H24L24,8.6z M12.2,28.2c-2.9-2.1-4.8-5.5-4.8-9.3c0-3.8,1.9-7.3,4.8-9.3v13.8l-2.1,0l0.7,2h1.4V28.2
		L12.2,28.2z"/>
</g>
</svg>
