<?xml version="1.0" encoding="utf-8"?>
<!-- Generator: Adobe Illustrator 21.0.0, SVG Export Plug-In . SVG Version: 6.00 Build 0)  -->
<svg version="1.1" id="Слой_1" xmlns="http://www.w3.org/2000/svg" xmlns:xlink="http://www.w3.org/1999/xlink" x="0px" y="0px"
	 viewBox="0 0 37.8 38" style="enable-background:new 0 0 37.8 38;" xml:space="preserve">
<style type="text/css">
	.st0{fill-rule:evenodd;clip-rule:evenodd;fill:#FFFFFF;}
</style>
<g>
	<path class="st0" d="M2.4,26.3l3.1-1.8c-0.8-1.8-1.2-3.7-1.2-5.7c0-7.5,5.7-13.7,13-14.5V0.8C8,1.6,0.8,9.4,0.8,18.8
		C0.8,21.5,1.3,24.1,2.4,26.3L2.4,26.3z M35.5,26.3l-3.1-1.8c0.8-1.8,1.2-3.7,1.2-5.7c0-7.2-5.2-13.2-12-14.4
		c-0.3-0.1-0.6-0.1-0.9-0.1V0.8c9.3,0.8,16.5,8.6,16.5,18.1C37.1,21.5,36.5,24,35.5,26.3L35.5,26.3z M33.7,29.4l-3.1-1.8
		c-2.5,3.3-6.3,5.6-10.7,5.9V37C25.6,36.7,30.6,33.7,33.7,29.4L33.7,29.4z M17.9,33.4c-4.4-0.3-8.3-2.6-10.7-5.9l-3.1,1.8
		c3.1,4.4,8.1,7.3,13.8,7.7V33.4L17.9,33.4z"/>
	<path class="st0" d="M19.1,7.4c2,0,3.8,0.6,5.5,1.5l-5.6,11l-5.6-11c1.6-0.9,3.5-1.4,5.4-1.5C18.8,7.4,19,7.4,19.1,7.4L19.1,7.4z
		 M20,30.3c5.8-0.5,10.4-5.5,10.4-11.5c0-3.6-1.6-6.8-4.2-8.9L20,22.3v2.4h4.8l-0.7,2H20V30.3L20,30.3z M17.9,30.3
		C12,29.8,7.4,24.9,7.4,18.9c0-3.6,1.6-6.8,4.2-8.9l6.3,12.3v2.4H13l0.7,2h4.1V30.3L17.9,30.3z"/>
</g>
</svg>
