<?xml version="1.0" encoding="utf-8"?>
<svg id="master-artboard" xmlns="http://www.w3.org/2000/svg" height="980px" style="shape-rendering:geometricPrecision; text-rendering:geometricPrecision; image-rendering:optimizeQuality; fill-rule:evenodd; clip-rule:evenodd" viewBox="0 0 1400 980" width="1400px" version="1.1"><defs><style id="ee-google-fonts">@import url(https://fonts.googleapis.com/css?family=Fredoka+One:400);</style></defs><g transform="matrix(0.7877817012017552, 0, 0, 0.7877817012017552, 2.1934880841318924, -16.39761303672251)"><metadata> Svg Vector Icons : http://www.onlinewebfonts.com/icon </metadata><g><g><path d="M963.8,302.2c0,0,7.3-9.1,12.8-22.5c5.5-13.1,3.2-28.7,3.2-28.7s-15,8.6-23.2,16.6c-8.3,8-8.9,20.2-8.9,20.2s-7.2-6.3-26.1-16.8c-18.9-10.2-59.8-30.5-123.1-18.4c-63.2,12.2-116.9,56.9-125.7,62.2c-8.9,5.1-22.2,3.4-23.8,0.6c-1.7-2.9,1.1-16.2,1.1-16.2s5.5,0,10.5,0c5,0,7.1-6.2,10.5-11.5c3.2-5.1-0.6-14.4-2.2-19.6c-1.7-5.1-11.1-9.2-18.8-8.6c-7.8,0.6-24.4,4.6-28.9,5.2c-4.4,0.6-16.5-13.3-21-16.2c-4.5-2.9-10-35.8-16-52.4c-6.1-16.7-33.3-39.3-33.3-39.3s4.4-11.4,2.1-12c-2.1-0.6-5.5-4.6-3.8-8.6c1.6-4,10.5-13.9,11.1-20.2c0.7-6.4,2.3-17.3,3.3-21.4c1.1-4,0.6-14.5-2.7-16.7c-3.3-2.4-5-14.6-9-19.1c-3.9-4.7-13.2-1.2-19.4,1.1c-6.1,2.2-13.9,12-17.7,17.9c-3.9,5.6-5.6,17.8-5.6,24.1c0,6.4,0.6,12.6,3.3,15c2.8,2.3,3.3,9.8,3.3,9.8s-3.3,9.7-5.5,11.4c-2.2,1.9-16.6-18.8-28.8-18.8c-12.1,0-18.2,21.9-18.2,21.9s-10.5,8.6-15.5,9.8c-5,1.1-24.5,3.4-28.9,0c-4.4-3.4-7.7-6.9-10.5-11.6c-2.8-4.5-9.5-7-16.1-7c-6.7,0-11.6,5.3-13.9,8.1c-2.2,2.7-38.2,24.1-42.7,29.2c-4.4,5.3,2.8,15,1.7,22.6c-1.1,7.6,6.7,40.8,7.2,50.2c0.5,9.1-4.4,12.6-12.1,14.9c-7.8,2.3-23.9,9.2-23.9,9.2s5.5-0.5,12.8,0c7.2,0.6,16.6-4.5,18.8-1.7c2.3,2.8-9.5,13.8-13.9,18.4c-4.3,4.7,7.8,16.8,13.9,17.3c6.1,0.5,11.1,10.4,16.6,6.3c5.5-4,9.4-36.4,12.2-45.6c2.8-9.2,24.4-42.6,26.6-46.1c2.1-3.4,2.8-24.1,6.6-27c3.9-2.9,3.9-11,3.9-11s23.8,8.7,34.3,10.4c10.5,1.7,32.7-3.5,32.7-3.5c0,24.2,23.3,53.1,26.6,68.1c3.3,15-7.8,29.9-18.9,40.4c-11.1,10.3-26.6,41.4-38.8,52.7c-12.3,11.5-36.6,17.4-71,19.6c-34.3,2.5-74.2,37-74.2,37s-28.9-8-59.9-6.9c-31,1.1-72.1,41.4-82,62.2c-10,20.7-24.4,142.9-33.3,154.4c-8.9,11.4-22.1,49.6-32.1,88.8c-10,39.2-73.2,166-73.2,166s17.7-11.6,28.7-24.3C56.6,830.1,150.8,701,186.3,633.1c35.4-68,45.4-134.9,51-159c5.5-24.2,26.6-31.2,26.6-31.2s-7.8,34.5-3.4,64.5c4.5,30,32.2,68,31,103.8c-1.1,35.7-31,74.9-44.3,86.5c-13,11.2-53.6,159.2-55.3,165.6L10,877.2v65.9h942.2v-65.9l-197.2-57.7L646.7,828c-0.7-1.2-1.2-2.3-1.5-3.2c-1.7-5.2-6.1-14.4-10-18.6c-3.8-4-12.2-28.1-12.2-40.1c0-12.1,12.2-57,14.9-64.5c2.8-7.5,15.4-31.2,17.7-48.9c2.2-17.9,23.9-70.9,23.9-70.9s38.7,9.2,61.4,13.2c22.7,4,82,17.9,91.5,22.5c9.3,4.7,26,18.5,33.2,39.8c7.1,21.4,27.7,74.5,24.4,80.1c-3.3,5.7,3.9,17.4-1.1,22c-5,4.5-11.6,18.3-12.2,24.7c-0.5,6.4,15.4,21.9,22.8,24.1c7.1,2.4,12.7-7.3,18.2-18.3c5.5-11,6.7-29.5,5-40.9c-1.6-11.5-6.6-33.9-6.1-41.4c0.7-7.6-33.2-76.7-36-87.7c-2.8-11-17.1-29.3-32.6-35.2c-15.4-5.7-85.4-52.3-85.4-52.3s11.1-12.2,16.2-26.1c5-13.8,7.1-45.5,3.8-58.6c-3.2-13.3-1.1-29.4,16.6-52.4c17.7-23.2,55.3-44.5,55.3-44.5c-4.4,13.3,3.9,21.4,4.5,31.1c0.6,9.9,0,16.8-5,21.4c-5,4.6-6,17.4-7.7,23.1c-1.7,5.7,5.6,21.9,9.9,23.6c4.5,1.7,6.7,9.8,10.1,12.2c3.2,2.2,20.5,2.2,28.3-0.7c7.6-2.9,16-28.2,20.5-32.8c4.4-4.6,16.7-15.6,24.9-22.5c7.1-5.9,15.9-18.1,17.2-20.1c-1.4,2.5,6.7,13.3,6.7,13.3s-0.5-7.5,2.3-13.8c2.7-6.4,17.1-8,23.2-32.8C995.3,327.6,963.8,302.2,963.8,302.2z M351.8,184.4c-4.5,0.3-10.4,5.7-10.4,5.7s-4.4-14.9-2.9-16.5c1.5-1.5,8.9-3.8,8.9-3.8s-5.2,3.4-0.4,5.7c4.9,2.3,21.1,4.2,21.1,4.2S356.2,183.9,351.8,184.4z M470,137.1c-0.7,1,4.8-13.3,10-13.3c5.2,0,11.1,6.7,11.1,6.7S478.1,127.9,470,137.1z M220.6,416.3c-18.3,10.4-36,30.5-44.3,38.7c-8.3,8.2-21.6,35.1-21.6,35.1s2.2-29.4,17.2-44.3c14.9-15,42.6-39.8,59.3-42c16.6-2.4,45.5,3.9,45.5,3.9S238.9,405.9,220.6,416.3z M543.5,101.2c0.7-2.7,5.4-11.4,6.9-7.3c0,0,2.2,10.1,1,9.7c-1.2-0.3-5.1,2.2-5.9,2C544.6,105.5,542.8,103.9,543.5,101.2z M521.4,125.7l10.4,6.4l-4.1,15l-13.3-6.5L521.4,125.7z M446,349.8c3.3-4.4,17-19.2,21.4-26.4c4.5-7.3,10.4-21.3,22.2-32.3c11.8-11.2,16.6-29.7,16.6-29.7c1.1,8.9-3.7,31.2-4.1,32.3c-0.3,1.1,12.6-11.5,12.6-11.5s-2.2,14.6-8.1,26c-5.9,11.6-24,33.5-24,33.5l6.3-15.4c0,0-15.5,14.6-24.7,22.3c-9.3,7.7-30.4,33.7-30.4,33.7S442.7,354.5,446,349.8z M610.8,623.7c-1.1,8.1-2.2,49.6-0.6,62.3c1.6,12.5-15,77.7-17.2,84.1c-2.2,6.3-2.2,9.8-0.5,20.7c1.6,11,12.7,20.8,13.2,29.9c0.2,3.3,0.7,6.9,1.3,10.3L233.4,860h0c-1.6-5.2,0-21.8,4.4-40.4c4.4-18.3,25.5-74.2,37.2-84.7c11.6-10.3,27.1-39.2,27.1-39.2s8.3,3.3,13.8,9.2c5.6,5.8,30,19.1,42.1,27.1c12.2,8,44.3,30,46,35.2c1.7,5.1,1.7,11,0,18.4c-1.6,7.6-1.6,20.2-1.6,27.6c0,7.5,25,21.9,32.2,23.1c7.2,1.1,8.9-13.3,10.5-23.1c1.7-9.7-3.3-33.4-7.7-39.1c-4.5-5.7-8.9-20.8-16.1-30c-7.3-9.2-54.3-43.7-60.4-47.2c-6.1-3.4-7.1-23-7.1-32.2c0-9.3,18.3-29.5,33.7-59.4c15.5-30,24.9-60,24.9-60s7.1-1.7,17.7,1.1c10.5,2.9,43.3,13.8,76,21.9c32.7,8.1,95.2,2.3,97.6,3.5C605.8,573.1,611.9,615.7,610.8,623.7z M662.1,267.7c4.1,5.8,5.6,13.4,5.2,15.4c-0.3,1.8-7.3-7.8-11.4-10.1c-4.1-2.2-14.1-8-14.1-8S658,262,662.1,267.7z M872.4,268.1c-10.8-1.5-24.8-3.1-24.8-3.1l23.3,11.9c0,0-50.5-15.6-82.3-4.5c-31.6,11.2-95.4,35.9-95.4,35.9c1-0.7,77.5-51.4,130-52.8c52.4-1.6,105.7,26,105.7,26S883,269.6,872.4,268.1z"/></g><g/><g/><g/><g/><g/><g/><g/><g/><g/><g/><g/><g/><g/><g/><g/></g></g><path d="M 1177.9031982421875 409.3900146484375 L 1178.333251953125 409.0799865722656 C 1178.8798828125 408.760009765625 1179.2666015625 408.6000061035156 1179.4932861328125 408.6000061035156 C 1179.986572265625 408.6000061035156 1180.5198974609375 409.0466613769531 1181.09326171875 409.94000244140625 C 1181.446533203125 410.5 1181.623291015625 410.95001220703125 1181.623291015625 411.2900085449219 C 1181.623291015625 411.6233215332031 1181.5166015625 411.9033203125 1181.30322265625 412.1300048828125 C 1181.083251953125 412.3500061035156 1180.8299560546875 412.54998779296875 1180.543212890625 412.7300109863281 C 1180.256591796875 412.9033203125 1179.9798583984375 413.07000732421875 1179.7132568359375 413.2300109863281 C 1179.4532470703125 413.3900146484375 1178.9132080078125 413.6000061035156 1178.09326171875 413.8599853515625 C 1177.2799072265625 414.11334228515625 1176.4932861328125 414.239990234375 1175.7332763671875 414.239990234375 C 1174.9732666015625 414.239990234375 1174.20654296875 414.1400146484375 1173.4332275390625 413.94000244140625 C 1172.6531982421875 413.739990234375 1171.853271484375 413.4033203125 1171.033203125 412.92999267578125 C 1170.20654296875 412.4566650390625 1169.466552734375 411.8800048828125 1168.813232421875 411.20001220703125 C 1168.1531982421875 410.5199890136719 1167.61328125 409.6499938964844 1167.1932373046875 408.5899963378906 C 1166.7666015625 407.5233459472656 1166.55322265625 406.3666687011719 1166.55322265625 405.1199951171875 C 1166.55322265625 403.8733215332031 1166.7598876953125 402.739990234375 1167.1732177734375 401.7200012207031 C 1167.59326171875 400.7066650390625 1168.1265869140625 399.8666687011719 1168.773193359375 399.20001220703125 C 1169.419921875 398.5400085449219 1170.159912109375 397.9866638183594 1170.9932861328125 397.5400085449219 C 1172.5599365234375 396.67333984375 1174.1365966796875 396.239990234375 1175.7232666015625 396.239990234375 C 1176.4765625 396.239990234375 1177.2398681640625 396.3566589355469 1178.0133056640625 396.5899963378906 C 1178.78662109375 396.8233337402344 1179.373291015625 397.05999755859375 1179.773193359375 397.29998779296875 L 1180.353271484375 397.6300048828125 C 1180.639892578125 397.80999755859375 1180.86328125 397.9533386230469 1181.023193359375 398.05999755859375 C 1181.4432373046875 398.3999938964844 1181.6531982421875 398.7799987792969 1181.6531982421875 399.20001220703125 C 1181.6531982421875 399.6266784667969 1181.4832763671875 400.0733337402344 1181.1431884765625 400.5400085449219 C 1180.523193359375 401.3999938964844 1179.9632568359375 401.8299865722656 1179.4632568359375 401.8299865722656 C 1179.1766357421875 401.8299865722656 1178.7698974609375 401.6533203125 1178.2432861328125 401.29998779296875 C 1177.5699462890625 400.760009765625 1176.6732177734375 400.489990234375 1175.55322265625 400.489990234375 C 1174.5133056640625 400.489990234375 1173.4898681640625 400.8500061035156 1172.4832763671875 401.57000732421875 C 1172.0032958984375 401.92333984375 1171.603271484375 402.4200134277344 1171.283203125 403.05999755859375 C 1170.9632568359375 403.70001220703125 1170.80322265625 404.42333984375 1170.80322265625 405.2300109863281 C 1170.80322265625 406.03668212890625 1170.9632568359375 406.760009765625 1171.283203125 407.3999938964844 C 1171.603271484375 408.0400085449219 1172.0098876953125 408.5433349609375 1172.5032958984375 408.9100036621094 C 1173.4832763671875 409.6166687011719 1174.4998779296875 409.9700012207031 1175.55322265625 409.9700012207031 C 1176.046630859375 409.9700012207031 1176.5133056640625 409.90667724609375 1176.9532470703125 409.7799987792969 C 1177.3931884765625 409.64666748046875 1177.7099609375 409.51666259765625 1177.9031982421875 409.3900146484375 ZM 1191.4544677734375 396.19000244140625 C 1193.8211669921875 396.19000244140625 1195.87451171875 397.0466613769531 1197.614501953125 398.760009765625 C 1199.3612060546875 400.47332763671875 1200.2344970703125 402.5966796875 1200.2344970703125 405.1300048828125 C 1200.2344970703125 407.6700134277344 1199.401123046875 409.8299865722656 1197.7344970703125 411.6099853515625 C 1196.074462890625 413.39666748046875 1194.02783203125 414.2900085449219 1191.594482421875 414.2900085449219 C 1189.1611328125 414.2900085449219 1187.094482421875 413.4100036621094 1185.39453125 411.6499938964844 C 1183.6878662109375 409.8900146484375 1182.83447265625 407.7933349609375 1182.83447265625 405.3599853515625 C 1182.83447265625 404.0333251953125 1183.074462890625 402.7900085449219 1183.554443359375 401.6300048828125 C 1184.0345458984375 400.4700012207031 1184.6744384765625 399.4966735839844 1185.4744873046875 398.7099914550781 C 1186.2745361328125 397.92999267578125 1187.1944580078125 397.3133239746094 1188.2344970703125 396.8599853515625 C 1189.2745361328125 396.413330078125 1190.3477783203125 396.19000244140625 1191.4544677734375 396.19000244140625 M 1187.08447265625 405.239990234375 C 1187.08447265625 405.239990234375 1187.08447265625 405.5966796875 1187.08447265625 406.30999755859375 C 1187.08447265625 407.0233459472656 1187.5445556640625 407.8233337402344 1188.4644775390625 408.7099914550781 C 1189.384521484375 409.5966796875 1190.4111328125 410.0400085449219 1191.5445556640625 410.0400085449219 C 1192.6844482421875 410.0400085449219 1193.7078857421875 409.6066589355469 1194.614501953125 408.739990234375 C 1195.52783203125 407.8800048828125 1195.9844970703125 406.7200012207031 1195.9844970703125 405.260009765625 C 1195.9844970703125 403.8066711425781 1195.5245361328125 402.6400146484375 1194.6044921875 401.760009765625 C 1193.6844482421875 400.8800048828125 1192.6578369140625 400.44000244140625 1191.5245361328125 400.44000244140625 C 1190.384521484375 400.44000244140625 1189.3612060546875 400.8833312988281 1188.4544677734375 401.7699890136719 C 1187.5411376953125 402.65667724609375 1187.08447265625 403.8133239746094 1187.08447265625 405.239990234375 ZM 1214.7838134765625 399.9599914550781 C 1214.7838134765625 399.9599914550781 1214.8905029296875 400.17333984375 1215.1038818359375 400.6000061035156 C 1215.310546875 401.0199890136719 1215.413818359375 401.75 1215.413818359375 402.7900085449219 C 1215.413818359375 403.8299865722656 1215.203857421875 404.7699890136719 1214.7838134765625 405.6099853515625 C 1214.3704833984375 406.45001220703125 1213.837158203125 407.1199951171875 1213.183837890625 407.6199951171875 C 1211.8505859375 408.6400146484375 1210.473876953125 409.1499938964844 1209.0538330078125 409.1499938964844 L 1206.0538330078125 409.1499938964844 L 1206.0538330078125 411.8599853515625 C 1206.0538330078125 412.23333740234375 1206.04052734375 412.510009765625 1206.013916015625 412.69000244140625 C 1205.993896484375 412.8766784667969 1205.917236328125 413.0899963378906 1205.7838134765625 413.3299865722656 C 1205.5638427734375 413.7633361816406 1204.9405517578125 413.9800109863281 1203.913818359375 413.9800109863281 C 1202.7938232421875 413.9800109863281 1202.13720703125 413.6833190917969 1201.94384765625 413.0899963378906 C 1201.8505859375 412.8166809082031 1201.8038330078125 412.3999938964844 1201.8038330078125 411.8399963378906 L 1201.8038330078125 398.5199890136719 C 1201.8038330078125 398.1533203125 1201.8172607421875 397.8766784667969 1201.8438720703125 397.69000244140625 C 1201.8638916015625 397.510009765625 1201.937255859375 397.29998779296875 1202.0638427734375 397.05999755859375 C 1202.29052734375 396.6266784667969 1202.917236328125 396.4100036621094 1203.94384765625 396.4100036621094 L 1209.0738525390625 396.4100036621094 C 1210.4805908203125 396.4100036621094 1211.8505859375 396.9200134277344 1213.183837890625 397.94000244140625 C 1213.837158203125 398.44000244140625 1214.3704833984375 399.11334228515625 1214.7838134765625 399.9599914550781 M 1209.0738525390625 404.8999938964844 C 1209.5538330078125 404.8999938964844 1210.0272216796875 404.7266540527344 1210.493896484375 404.3800048828125 C 1210.953857421875 404.02667236328125 1211.183837890625 403.4966735839844 1211.183837890625 402.7900085449219 C 1211.183837890625 402.0899963378906 1210.953857421875 401.55999755859375 1210.493896484375 401.20001220703125 C 1210.0272216796875 400.8399963378906 1209.5472412109375 400.6600036621094 1209.0538330078125 400.6600036621094 L 1206.0538330078125 400.6600036621094 L 1206.0538330078125 404.8999938964844 L 1209.0738525390625 404.8999938964844 ZM 1235.67578125 397.0799865722656 C 1235.8023681640625 397.32000732421875 1235.875732421875 397.53668212890625 1235.895751953125 397.7300109863281 C 1235.92236328125 397.92333984375 1235.935791015625 398.2033386230469 1235.935791015625 398.57000732421875 L 1235.935791015625 411.8900146484375 C 1235.935791015625 412.989990234375 1235.6324462890625 413.63665771484375 1235.0257568359375 413.8299865722656 C 1234.7191162109375 413.92999267578125 1234.335693359375 413.9800109863281 1233.875732421875 413.9800109863281 C 1233.4090576171875 413.9800109863281 1233.0390625 413.94000244140625 1232.7657470703125 413.8599853515625 C 1232.492431640625 413.7799987792969 1232.2857666015625 413.6833190917969 1232.145751953125 413.57000732421875 C 1231.9990234375 413.4566650390625 1231.8857421875 413.2966613769531 1231.8057861328125 413.0899963378906 C 1231.7257080078125 412.8166809082031 1231.685791015625 412.3999938964844 1231.685791015625 411.8399963378906 L 1231.685791015625 403.79998779296875 C 1231.2857666015625 404.2933349609375 1230.702392578125 405.0799865722656 1229.935791015625 406.1600036621094 C 1229.1690673828125 407.239990234375 1228.682373046875 407.9166564941406 1228.4757080078125 408.19000244140625 C 1228.262451171875 408.46331787109375 1228.11572265625 408.6533203125 1228.0357666015625 408.760009765625 C 1227.9556884765625 408.8599853515625 1227.762451171875 409.0033264160156 1227.4556884765625 409.19000244140625 C 1227.1424560546875 409.3699951171875 1226.8057861328125 409.4599914550781 1226.44580078125 409.4599914550781 C 1226.085693359375 409.4599914550781 1225.7557373046875 409.3766784667969 1225.4556884765625 409.2099914550781 C 1225.162353515625 409.0433349609375 1224.952392578125 408.8800048828125 1224.8258056640625 408.7200012207031 L 1224.6357421875 408.4599914550781 C 1224.3157958984375 408.05999755859375 1223.682373046875 407.2066650390625 1222.7357177734375 405.8999938964844 C 1221.7890625 404.59332275390625 1221.2757568359375 403.8933410644531 1221.19580078125 403.79998779296875 L 1221.19580078125 411.8900146484375 C 1221.19580078125 412.25665283203125 1221.185791015625 412.5333251953125 1221.165771484375 412.7200012207031 C 1221.1390380859375 412.8999938964844 1221.0623779296875 413.10333251953125 1220.935791015625 413.3299865722656 C 1220.69580078125 413.7633361816406 1220.0723876953125 413.9800109863281 1219.0657958984375 413.9800109863281 C 1218.085693359375 413.9800109863281 1217.4757080078125 413.7633361816406 1217.2357177734375 413.3299865722656 C 1217.109130859375 413.10333251953125 1217.0357666015625 412.8933410644531 1217.0157470703125 412.70001220703125 C 1216.9891357421875 412.5133361816406 1216.9757080078125 412.2266540527344 1216.9757080078125 411.8399963378906 L 1216.9757080078125 398.5199890136719 C 1216.9757080078125 398.1533203125 1216.9891357421875 397.8766784667969 1217.0157470703125 397.69000244140625 C 1217.0357666015625 397.510009765625 1217.109130859375 397.29998779296875 1217.2357177734375 397.05999755859375 C 1217.4757080078125 396.6400146484375 1218.1024169921875 396.42999267578125 1219.11572265625 396.42999267578125 C 1219.5423583984375 396.42999267578125 1219.912353515625 396.48333740234375 1220.2257080078125 396.5899963378906 C 1220.5390625 396.69000244140625 1220.742431640625 396.7966613769531 1220.835693359375 396.9100036621094 L 1220.9857177734375 397.05999755859375 L 1226.435791015625 404.2099914550781 C 1229.15576171875 400.6099853515625 1230.9691162109375 398.23333740234375 1231.875732421875 397.0799865722656 C 1232.1490478515625 396.64666748046875 1232.7957763671875 396.42999267578125 1233.8157958984375 396.42999267578125 C 1234.8291015625 396.42999267578125 1235.4490966796875 396.64666748046875 1235.67578125 397.0799865722656 Z" transform="matrix(8.933887481689453, 0, 0, 8.933887481689453, -10354.874999999998, -2748.515158205588)" style="fill: rgb(0, 0, 0); white-space: pre; color: rgb(0, 0, 0);"/></svg>