<svg xmlns="http://www.w3.org/2000/svg" xmlns:xlink="http://www.w3.org/1999/xlink" width="144" zoomAndPan="magnify" viewBox="0 0 108 107.999999" height="144" preserveAspectRatio="xMidYMid meet" version="1.0"><defs><clipPath id="id1"><path d="M 1.535156 1.144531 L 106.535156 1.144531 L 106.535156 106.144531 L 1.535156 106.144531 Z M 1.535156 1.144531 " clip-rule="nonzero"/></clipPath></defs><g clip-path="url(#id1)"><path fill="rgb(100%, 100%, 100%)" d="M 54.46875 12.972656 C 54.453125 12.972656 54.441406 12.972656 54.421875 12.972656 C 37.285156 13.039062 23.289062 27.035156 23.222656 44.179688 C 23.222656 47.625 23.773438 51.03125 24.878906 54.34375 C 25.945312 57.253906 29.097656 58.828125 32.066406 57.925781 C 34.988281 56.878906 36.574219 53.675781 35.625 50.652344 C 33.039062 43.5 35.199219 35.074219 40.769531 29.921875 C 48.335938 22.484375 61.566406 22.882812 68.679688 30.761719 C 80.121094 42.695312 72.085938 63.1875 55.503906 64.003906 C 55.332031 64.015625 51.273438 64.261719 49.148438 64.523438 C 48.984375 64.546875 48.820312 64.574219 48.65625 64.597656 L 48.9375 63.070312 L 52.84375 45.507812 C 53.972656 40.695312 48.3125 36.796875 44.222656 39.570312 C 42.953125 40.390625 42.082031 41.660156 41.765625 43.136719 C 34.140625 78.386719 32.773438 85.054688 32.496094 86.425781 C 30.878906 93.625 41.453125 96.136719 43.457031 89.214844 C 43.660156 87.984375 44.757812 82.808594 44.796875 82.582031 C 45.542969 78.945312 48.511719 76.121094 52.179688 75.558594 C 52.789062 75.464844 55.21875 75.28125 56.757812 75.179688 C 65.046875 74.351562 72.519531 70.347656 77.796875 63.902344 C 83.074219 57.453125 85.523438 49.339844 84.695312 41.050781 C 83.136719 25.453125 70.144531 13.378906 54.46875 12.972656 Z M 75.308594 61.867188 C 70.574219 67.648438 63.871094 71.242188 56.488281 71.976562 C 56.097656 72.003906 52.628906 72.242188 51.691406 72.382812 C 46.699219 73.148438 42.660156 76.988281 41.644531 81.9375 C 41.644531 81.9375 40.480469 87.625 40.367188 88.125 C 40.324219 88.820312 39.894531 89.429688 39.296875 89.78125 C 37.410156 90.8125 34.96875 89.25 35.648438 87.023438 C 35.910156 85.523438 42.410156 55.371094 44.90625 43.8125 C 45.648438 40.691406 50.285156 41.644531 49.703125 44.824219 C 49.703125 44.824219 45.789062 62.433594 45.789062 62.433594 L 45.1875 65.730469 C 44.957031 66.332031 45.046875 67.023438 45.460938 67.554688 C 46.507812 68.921875 48.226562 67.777344 49.578125 67.710938 C 51.570312 67.464844 55.660156 67.214844 55.699219 67.210938 C 67.628906 66.488281 76.894531 56.933594 77.253906 44.988281 C 77.441406 38.859375 75.226562 33.023438 71.023438 28.558594 C 57.03125 13.734375 32.003906 23.238281 31.355469 43.582031 C 31.230469 46.375 31.648438 49.121094 32.578125 51.679688 C 32.980469 52.96875 32.320312 54.355469 31.074219 54.867188 C 29.757812 55.230469 28.371094 54.53125 27.914062 53.285156 C 26.933594 50.339844 26.4375 47.277344 26.4375 44.183594 C 26.5 28.816406 39.046875 16.261719 54.410156 16.1875 C 68.460938 16.5625 80.101562 27.386719 81.496094 41.371094 C 82.238281 48.804688 80.039062 56.085938 75.308594 61.867188 Z M 56.582031 81.261719 C 48.078125 79.714844 45.433594 92.011719 53.734375 94.132812 C 62.53125 95.988281 65.039062 83.46875 56.582031 81.261719 Z M 58.542969 88.410156 C 58.285156 91.40625 53.835938 92.015625 52.390625 89.558594 C 50.78125 87.164062 53.058594 83.746094 55.878906 84.398438 C 57.6875 84.820312 58.855469 86.578125 58.542969 88.410156 Z M 54.035156 1.144531 C 25.085938 1.144531 1.535156 24.695312 1.535156 53.644531 C 1.535156 82.59375 25.085938 106.144531 54.035156 106.144531 C 82.984375 106.144531 106.535156 82.59375 106.535156 53.644531 C 106.535156 24.695312 82.984375 1.144531 54.035156 1.144531 Z M 54.035156 102.933594 C 26.859375 102.933594 4.75 80.820312 4.75 53.644531 C 4.75 26.46875 26.859375 4.359375 54.035156 4.359375 C 81.210938 4.359375 103.324219 26.46875 103.324219 53.644531 C 103.324219 80.820312 81.210938 102.933594 54.035156 102.933594 Z M 54.035156 102.933594 " fill-opacity="1" fill-rule="nonzero"/></g></svg>