<svg xmlns="http://www.w3.org/2000/svg" xmlns:xlink="http://www.w3.org/1999/xlink" width="144" zoomAndPan="magnify" viewBox="0 0 108 107.999999" height="144" preserveAspectRatio="xMidYMid meet" version="1.0"><path fill="rgb(100%, 100%, 100%)" d="M 36.417969 25.171875 C 48.285156 18.304688 60.003906 18.289062 71.722656 25.183594 L 82.886719 13.988281 C 65.382812 0.00390625 40.9375 1.253906 25.355469 13.988281 Z M 82.894531 71.144531 L 94.011719 82.398438 C 106.378906 68.976562 107.972656 40.449219 94.046875 24.980469 L 82.867188 36.246094 C 89.910156 47.90625 89.816406 59.585938 82.894531 71.144531 Z M 71.6875 82.496094 C 61.425781 89.601562 46.789062 89.71875 36.554688 82.550781 L 25.355469 93.726562 C 42.75 108.007812 67.984375 106.140625 82.9375 93.59375 Z M 13.945312 82.332031 L 25.191406 71.296875 C 18.117188 59.558594 18.144531 47.871094 25.085938 36.265625 L 13.9375 25.144531 C 1.597656 40.484375 0.03125 64.558594 13.945312 82.332031 Z M 94.472656 101.617188 C 104.890625 101.640625 104.820312 85.921875 94.546875 85.875 C 84.1875 86.039062 84.121094 101.402344 94.472656 101.617188 Z M 21.683594 93.820312 C 21.710938 83.394531 6.210938 83.464844 6.164062 93.769531 C 6.210938 104.019531 21.65625 104.046875 21.683594 93.820312 Z M 102.414062 13.484375 C 102.390625 3.199219 86.898438 3.21875 86.890625 13.523438 C 86.953125 23.816406 102.398438 23.800781 102.414062 13.484375 Z M 13.746094 21.097656 C 24.113281 21.199219 24.101562 5.75 13.964844 5.640625 C 3.535156 5.539062 3.402344 21.011719 13.746094 21.097656 Z M 45.683594 43.390625 C 45.628906 40.902344 41.640625 40.953125 41.65625 43.441406 C 41.707031 45.925781 45.703125 45.875 45.683594 43.390625 Z M 85.65625 24.34375 C 88.347656 24.335938 88.285156 20.578125 85.621094 20.589844 C 83.042969 20.605469 83.023438 24.394531 85.65625 24.34375 Z M 27.921875 25.839844 C 25.28125 25.816406 25.316406 29.597656 27.914062 29.59375 C 30.5625 29.644531 30.613281 25.789062 27.921875 25.839844 Z M 85.691406 86.929688 C 88.335938 86.890625 88.28125 83.113281 85.640625 83.148438 C 83 83.183594 83.070312 86.949219 85.691406 86.929688 Z M 45.683594 64.121094 C 45.714844 61.605469 41.660156 61.613281 41.65625 64.105469 C 41.671875 66.53125 45.664062 66.585938 45.683594 64.121094 Z M 27.910156 81.675781 C 30.53125 81.757812 30.625 77.949219 28.011719 77.941406 C 25.300781 77.832031 25.265625 81.644531 27.910156 81.675781 Z M 57.410156 58.839844 C 57.445312 61.367188 61.410156 61.332031 61.457031 58.84375 C 61.402344 56.40625 57.460938 56.386719 57.410156 58.839844 Z M 71.902344 38.160156 C 71.9375 35.679688 67.90625 35.765625 67.882812 38.164062 C 67.855469 40.613281 71.964844 40.699219 71.902344 38.160156 Z M 78.671875 27.671875 C 78.582031 30.175781 82.402344 30.199219 82.417969 27.746094 C 82.511719 25.273438 78.640625 25.210938 78.671875 27.671875 Z M 38.582031 71.195312 C 41.082031 71.21875 40.984375 67.378906 38.527344 67.453125 C 36.074219 67.464844 36.074219 71.273438 38.582031 71.195312 Z M 35.183594 74.597656 C 35.261719 72.097656 31.441406 72.09375 31.425781 74.53125 C 31.355469 76.988281 35.1875 77.082031 35.183594 74.597656 Z M 70.035156 71.191406 C 72.539062 71.289062 72.472656 67.382812 70.042969 67.453125 C 67.582031 67.417969 67.542969 71.242188 70.035156 71.191406 Z M 78.671875 79.769531 C 78.574219 82.273438 82.414062 82.269531 82.417969 79.832031 C 82.523438 77.394531 78.613281 77.285156 78.671875 79.769531 Z M 66.683594 43.429688 C 66.679688 40.917969 62.964844 40.941406 62.890625 43.40625 C 62.910156 45.859375 66.652344 45.933594 66.683594 43.429688 Z M 38.675781 36.304688 C 36.175781 36.140625 35.992188 39.929688 38.4375 40.0625 C 40.914062 40.234375 41.132812 36.414062 38.675781 36.304688 Z M 75 76.441406 C 77.476562 76.519531 77.535156 72.695312 75.070312 72.6875 C 72.59375 72.625 72.519531 76.417969 75 76.441406 Z M 35.179688 32.96875 C 35.242188 30.480469 31.449219 30.453125 31.425781 32.910156 C 31.398438 35.382812 35.148438 35.457031 35.179688 32.96875 Z M 47.160156 58.84375 C 47.171875 61.324219 50.863281 61.363281 50.953125 58.878906 C 50.941406 56.429688 47.207031 56.347656 47.160156 58.84375 Z M 22.773438 83.148438 C 20.289062 83.203125 20.371094 86.964844 22.847656 86.929688 C 25.34375 86.824219 25.265625 83.160156 22.773438 83.148438 Z M 49.039062 50.523438 C 51.542969 50.53125 51.53125 46.785156 49.054688 46.761719 C 46.585938 46.734375 46.550781 50.53125 49.039062 50.523438 Z M 22.804688 24.34375 C 25.324219 24.351562 25.300781 20.613281 22.832031 20.589844 C 20.351562 20.617188 20.300781 24.3125 22.804688 24.34375 Z M 61.183594 48.648438 C 61.195312 46.160156 57.410156 46.191406 57.40625 48.644531 C 57.394531 51.09375 61.222656 51.125 61.183594 48.648438 Z M 54.265625 51.992188 C 51.789062 52.035156 51.835938 55.757812 54.292969 55.769531 C 56.808594 55.769531 56.765625 51.960938 54.265625 51.992188 Z M 66.683594 64.113281 C 66.699219 61.628906 62.953125 61.609375 62.894531 64.070312 C 62.875 66.527344 66.652344 66.59375 66.683594 64.113281 Z M 75.054688 31.050781 C 72.574219 31.042969 72.554688 34.792969 75.023438 34.832031 C 77.484375 34.855469 77.515625 31.054688 75.054688 31.050781 Z M 75.054688 31.050781 " fill-opacity="1" fill-rule="nonzero"/><path fill="rgb(100%, 100%, 100%)" d="M 36.417969 25.171875 L 25.355469 13.988281 C 40.9375 1.253906 65.382812 0.00390625 82.886719 13.988281 L 71.722656 25.183594 C 60.003906 18.289062 48.285156 18.304688 36.417969 25.171875 Z M 36.417969 25.171875 " fill-opacity="1" fill-rule="nonzero"/><path fill="rgb(100%, 100%, 100%)" d="M 82.894531 71.144531 C 89.816406 59.585938 89.910156 47.90625 82.867188 36.246094 L 94.046875 24.980469 C 107.972656 40.445312 106.378906 68.980469 94.011719 82.398438 Z M 82.894531 71.144531 " fill-opacity="1" fill-rule="nonzero"/><path fill="rgb(100%, 100%, 100%)" d="M 71.6875 82.496094 L 82.9375 93.59375 C 67.984375 106.140625 42.75 108.007812 25.355469 93.726562 L 36.554688 82.550781 C 46.789062 89.71875 61.425781 89.601562 71.6875 82.496094 Z M 71.6875 82.496094 " fill-opacity="1" fill-rule="nonzero"/><path fill="rgb(100%, 100%, 100%)" d="M 13.945312 82.332031 C 0.03125 64.558594 1.597656 40.484375 13.9375 25.144531 L 25.085938 36.261719 C 18.144531 47.871094 18.117188 59.558594 25.191406 71.296875 Z M 13.945312 82.332031 " fill-opacity="1" fill-rule="nonzero"/><path fill="rgb(100%, 100%, 100%)" d="M 94.472656 101.617188 C 84.121094 101.402344 84.191406 86.035156 94.546875 85.875 C 104.820312 85.925781 104.890625 101.640625 94.472656 101.617188 Z M 94.472656 101.617188 " fill-opacity="1" fill-rule="nonzero"/><path fill="rgb(100%, 100%, 100%)" d="M 21.683594 93.820312 C 21.652344 104.046875 6.210938 104.019531 6.164062 93.769531 C 6.214844 83.464844 21.714844 83.394531 21.683594 93.820312 Z M 21.683594 93.820312 " fill-opacity="1" fill-rule="nonzero"/><path fill="rgb(100%, 100%, 100%)" d="M 102.414062 13.484375 C 102.398438 23.804688 86.953125 23.816406 86.890625 13.519531 C 86.898438 3.21875 102.390625 3.203125 102.414062 13.484375 Z M 102.414062 13.484375 " fill-opacity="1" fill-rule="nonzero"/><path fill="rgb(100%, 100%, 100%)" d="M 13.746094 21.097656 C 3.402344 21.011719 3.539062 5.535156 13.964844 5.640625 C 24.105469 5.75 24.113281 21.203125 13.746094 21.097656 Z M 13.746094 21.097656 " fill-opacity="1" fill-rule="nonzero"/><path fill="rgb(100%, 100%, 100%)" d="M 45.683594 43.390625 C 45.699219 45.875 41.707031 45.925781 41.65625 43.441406 C 41.640625 40.953125 45.628906 40.902344 45.683594 43.390625 Z M 45.683594 43.390625 " fill-opacity="1" fill-rule="nonzero"/><path fill="rgb(100%, 100%, 100%)" d="M 85.65625 24.34375 C 83.023438 24.394531 83.042969 20.605469 85.621094 20.589844 C 88.285156 20.578125 88.347656 24.335938 85.65625 24.34375 Z M 85.65625 24.34375 " fill-opacity="1" fill-rule="nonzero"/><path fill="rgb(100%, 100%, 100%)" d="M 27.921875 25.839844 C 30.613281 25.789062 30.5625 29.644531 27.914062 29.59375 C 25.316406 29.597656 25.28125 25.816406 27.921875 25.839844 Z M 27.921875 25.839844 " fill-opacity="1" fill-rule="nonzero"/><path fill="rgb(100%, 100%, 100%)" d="M 85.691406 86.929688 C 83.070312 86.949219 83.003906 83.183594 85.640625 83.148438 C 88.28125 83.117188 88.335938 86.890625 85.691406 86.929688 Z M 85.691406 86.929688 " fill-opacity="1" fill-rule="nonzero"/><path fill="rgb(100%, 100%, 100%)" d="M 45.683594 64.121094 C 45.664062 66.585938 41.671875 66.53125 41.65625 64.105469 C 41.660156 61.613281 45.714844 61.605469 45.683594 64.121094 Z M 45.683594 64.121094 " fill-opacity="1" fill-rule="nonzero"/><path fill="rgb(100%, 100%, 100%)" d="M 27.910156 81.675781 C 25.265625 81.644531 25.300781 77.832031 28.011719 77.941406 C 30.625 77.953125 30.53125 81.757812 27.910156 81.675781 Z M 27.910156 81.675781 " fill-opacity="1" fill-rule="nonzero"/><path fill="rgb(100%, 100%, 100%)" d="M 57.410156 58.839844 C 57.464844 56.382812 61.402344 56.40625 61.457031 58.84375 C 61.410156 61.332031 57.445312 61.367188 57.410156 58.839844 Z M 57.410156 58.839844 " fill-opacity="1" fill-rule="nonzero"/><path fill="rgb(100%, 100%, 100%)" d="M 71.902344 38.160156 C 71.964844 40.699219 67.855469 40.613281 67.882812 38.164062 C 67.90625 35.765625 71.9375 35.679688 71.902344 38.160156 Z M 71.902344 38.160156 " fill-opacity="1" fill-rule="nonzero"/><path fill="rgb(100%, 100%, 100%)" d="M 78.671875 27.671875 C 78.640625 25.210938 82.511719 25.273438 82.417969 27.746094 C 82.402344 30.199219 78.582031 30.175781 78.671875 27.671875 Z M 78.671875 27.671875 " fill-opacity="1" fill-rule="nonzero"/><path fill="rgb(100%, 100%, 100%)" d="M 38.582031 71.195312 C 36.074219 71.273438 36.074219 67.464844 38.527344 67.453125 C 40.984375 67.378906 41.082031 71.21875 38.582031 71.195312 Z M 38.582031 71.195312 " fill-opacity="1" fill-rule="nonzero"/><path fill="rgb(100%, 100%, 100%)" d="M 35.183594 74.597656 C 35.1875 77.082031 31.355469 76.988281 31.425781 74.53125 C 31.441406 72.09375 35.261719 72.097656 35.183594 74.597656 Z M 35.183594 74.597656 " fill-opacity="1" fill-rule="nonzero"/><path fill="rgb(100%, 100%, 100%)" d="M 70.035156 71.191406 C 67.542969 71.242188 67.582031 67.417969 70.042969 67.453125 C 72.472656 67.382812 72.539062 71.289062 70.035156 71.191406 Z M 70.035156 71.191406 " fill-opacity="1" fill-rule="nonzero"/><path fill="rgb(100%, 100%, 100%)" d="M 78.671875 79.769531 C 78.617188 77.285156 82.523438 77.394531 82.417969 79.832031 C 82.414062 82.269531 78.574219 82.273438 78.671875 79.769531 Z M 78.671875 79.769531 " fill-opacity="1" fill-rule="nonzero"/><path fill="rgb(100%, 100%, 100%)" d="M 66.683594 43.429688 C 66.652344 45.933594 62.910156 45.859375 62.890625 43.40625 C 62.964844 40.941406 66.679688 40.917969 66.683594 43.429688 Z M 66.683594 43.429688 " fill-opacity="1" fill-rule="nonzero"/><path fill="rgb(100%, 100%, 100%)" d="M 38.675781 36.304688 C 41.132812 36.414062 40.914062 40.234375 38.4375 40.0625 C 35.992188 39.929688 36.175781 36.136719 38.675781 36.304688 Z M 38.675781 36.304688 " fill-opacity="1" fill-rule="nonzero"/><path fill="rgb(100%, 100%, 100%)" d="M 75 76.441406 C 72.519531 76.417969 72.59375 72.625 75.070312 72.6875 C 77.535156 72.699219 77.476562 76.519531 75 76.441406 Z M 75 76.441406 " fill-opacity="1" fill-rule="nonzero"/><path fill="rgb(100%, 100%, 100%)" d="M 35.179688 32.96875 C 35.148438 35.457031 31.398438 35.382812 31.425781 32.910156 C 31.449219 30.453125 35.242188 30.480469 35.179688 32.96875 Z M 35.179688 32.96875 " fill-opacity="1" fill-rule="nonzero"/><path fill="rgb(100%, 100%, 100%)" d="M 47.160156 58.84375 C 47.207031 56.347656 50.941406 56.429688 50.953125 58.878906 C 50.863281 61.363281 47.167969 61.324219 47.160156 58.84375 Z M 47.160156 58.84375 " fill-opacity="1" fill-rule="nonzero"/><path fill="rgb(100%, 100%, 100%)" d="M 22.773438 83.148438 C 25.265625 83.160156 25.34375 86.824219 22.84375 86.929688 C 20.367188 86.960938 20.289062 83.203125 22.773438 83.148438 Z M 22.773438 83.148438 " fill-opacity="1" fill-rule="nonzero"/><path fill="rgb(100%, 100%, 100%)" d="M 49.039062 50.523438 C 46.550781 50.53125 46.585938 46.734375 49.054688 46.761719 C 51.53125 46.785156 51.539062 50.53125 49.039062 50.523438 Z M 49.039062 50.523438 " fill-opacity="1" fill-rule="nonzero"/><path fill="rgb(100%, 100%, 100%)" d="M 22.804688 24.34375 C 20.300781 24.308594 20.351562 20.617188 22.832031 20.589844 C 25.300781 20.613281 25.324219 24.351562 22.804688 24.34375 Z M 22.804688 24.34375 " fill-opacity="1" fill-rule="nonzero"/><path fill="rgb(100%, 100%, 100%)" d="M 61.183594 48.648438 C 61.222656 51.125 57.394531 51.09375 57.40625 48.644531 C 57.410156 46.191406 61.195312 46.160156 61.183594 48.648438 Z M 61.183594 48.648438 " fill-opacity="1" fill-rule="nonzero"/><path fill="rgb(100%, 100%, 100%)" d="M 54.265625 51.992188 C 56.765625 51.960938 56.808594 55.769531 54.292969 55.769531 C 51.835938 55.753906 51.789062 52.035156 54.265625 51.992188 Z M 54.265625 51.992188 " fill-opacity="1" fill-rule="nonzero"/><path fill="rgb(100%, 100%, 100%)" d="M 66.683594 64.113281 C 66.648438 66.59375 62.875 66.527344 62.894531 64.070312 C 62.953125 61.609375 66.699219 61.628906 66.683594 64.113281 Z M 66.683594 64.113281 " fill-opacity="1" fill-rule="nonzero"/><path fill="rgb(100%, 100%, 100%)" d="M 75.054688 31.050781 C 77.515625 31.054688 77.484375 34.855469 75.023438 34.832031 C 72.554688 34.792969 72.574219 31.042969 75.054688 31.050781 Z M 75.054688 31.050781 " fill-opacity="1" fill-rule="nonzero"/></svg>