<svg xmlns="http://www.w3.org/2000/svg" xmlns:xlink="http://www.w3.org/1999/xlink" width="144" zoomAndPan="magnify" viewBox="0 0 108 107.999999" height="144" preserveAspectRatio="xMidYMid meet" version="1.0"><path fill="rgb(100%, 100%, 100%)" d="M 53.945312 106.949219 C 51.65625 106.953125 49.375 106.804688 47.105469 106.503906 C 44.835938 106.207031 42.59375 105.761719 40.382812 105.167969 C 38.171875 104.574219 36.007812 103.839844 33.894531 102.964844 C 31.777344 102.085938 29.726562 101.074219 27.746094 99.925781 C 25.761719 98.78125 23.863281 97.507812 22.042969 96.113281 C 20.226562 94.714844 18.507812 93.207031 16.890625 91.585938 C 15.269531 89.960938 13.761719 88.242188 12.371094 86.421875 C 10.976562 84.597656 9.703125 82.695312 8.558594 80.707031 C 7.414062 78.722656 6.402344 76.667969 5.527344 74.546875 C 4.648438 72.425781 3.914062 70.257812 3.320312 68.039062 C 2.730469 65.824219 2.28125 63.578125 1.984375 61.300781 C 1.683594 59.027344 1.535156 56.742188 1.535156 54.445312 C 1.535156 52.152344 1.683594 49.867188 1.980469 47.589844 C 2.28125 45.3125 2.726562 43.066406 3.316406 40.851562 C 3.910156 38.632812 4.644531 36.464844 5.519531 34.34375 C 6.394531 32.222656 7.40625 30.167969 8.550781 28.179688 C 9.410156 26.691406 10.335938 25.246094 11.335938 23.84375 C 12.332031 22.445312 13.398438 21.097656 14.53125 19.804688 C 15.660156 18.507812 16.851562 17.273438 18.105469 16.09375 C 19.355469 14.917969 20.664062 13.804688 22.023438 12.757812 C 23.386719 11.707031 24.792969 10.730469 26.253906 9.820312 C 27.710938 8.910156 29.207031 8.074219 30.746094 7.3125 C 32.285156 6.550781 33.859375 5.867188 35.464844 5.257812 C 37.070312 4.652344 38.703125 4.125 40.363281 3.679688 C 42.019531 3.234375 43.695312 2.871094 45.390625 2.589844 C 47.082031 2.308594 48.785156 2.113281 50.5 2 C 52.210938 1.886719 53.925781 1.855469 55.640625 1.914062 C 57.359375 1.96875 59.066406 2.109375 60.769531 2.335938 C 62.472656 2.558594 64.15625 2.867188 65.828125 3.257812 C 67.5 3.648438 69.148438 4.121094 70.777344 4.675781 C 72.402344 5.226562 73.996094 5.859375 75.558594 6.570312 C 77.121094 7.28125 78.648438 8.066406 80.132812 8.925781 C 82.371094 10.214844 84.5 11.664062 86.523438 13.265625 C 88.546875 14.871094 90.441406 16.617188 92.207031 18.5 C 93.972656 20.386719 95.59375 22.390625 97.0625 24.515625 C 98.535156 26.640625 99.84375 28.859375 100.984375 31.179688 C 102.128906 33.496094 103.097656 35.886719 103.886719 38.347656 C 104.679688 40.808594 105.285156 43.316406 105.707031 45.867188 C 106.128906 48.417969 106.359375 50.988281 106.40625 53.574219 C 106.449219 56.160156 106.300781 58.734375 105.964844 61.300781 C 105.628906 63.863281 105.105469 66.390625 104.398438 68.875 C 103.691406 71.363281 102.804688 73.785156 101.738281 76.140625 C 100.671875 78.496094 99.441406 80.757812 98.042969 82.933594 C 96.644531 85.105469 95.09375 87.164062 93.390625 89.105469 C 91.6875 91.050781 89.851562 92.855469 87.882812 94.527344 C 85.914062 96.199219 83.835938 97.714844 81.644531 99.078125 C 79.449219 100.441406 77.171875 101.636719 74.800781 102.664062 C 72.433594 103.6875 70.003906 104.535156 67.511719 105.199219 C 63.066406 106.375 58.542969 106.957031 53.945312 106.949219 Z M 53.945312 5.425781 C 52.96875 5.425781 51.992188 5.453125 51.015625 5.511719 C 50.039062 5.570312 49.0625 5.660156 48.09375 5.777344 C 47.121094 5.890625 46.15625 6.039062 45.195312 6.214844 C 44.230469 6.386719 43.273438 6.59375 42.324219 6.824219 C 41.375 7.058594 40.433594 7.316406 39.5 7.605469 C 38.5625 7.894531 37.640625 8.214844 36.722656 8.558594 C 35.808594 8.902344 34.902344 9.273438 34.011719 9.675781 C 33.117188 10.074219 32.238281 10.5 31.371094 10.953125 C 30.503906 11.402344 29.648438 11.882812 28.808594 12.386719 C 27.96875 12.890625 27.148438 13.417969 26.339844 13.96875 C 25.53125 14.523438 24.742188 15.101562 23.96875 15.699219 C 23.195312 16.300781 22.441406 16.925781 21.707031 17.570312 C 20.972656 18.21875 20.253906 18.886719 19.558594 19.574219 C 18.863281 20.261719 18.191406 20.972656 17.535156 21.703125 C 16.882812 22.433594 16.253906 23.179688 15.644531 23.949219 C 15.035156 24.714844 14.449219 25.5 13.890625 26.304688 C 13.328125 27.105469 12.792969 27.925781 12.277344 28.761719 C 11.765625 29.59375 11.28125 30.445312 10.816406 31.308594 C 10.355469 32.175781 9.921875 33.050781 9.511719 33.941406 C 9.105469 34.832031 8.722656 35.734375 8.367188 36.648438 C 8.011719 37.5625 7.683594 38.484375 7.386719 39.417969 C 7.085938 40.351562 6.8125 41.292969 6.570312 42.242188 C 6.328125 43.191406 6.113281 44.148438 5.925781 45.113281 C 5.742188 46.074219 5.582031 47.042969 5.453125 48.011719 C 5.328125 48.984375 5.226562 49.960938 5.15625 50.9375 C 5.089844 51.914062 5.046875 52.894531 5.035156 53.875 C 5.023438 54.855469 5.042969 55.835938 5.089844 56.816406 C 5.136719 57.792969 5.214844 58.769531 5.320312 59.746094 C 5.425781 60.71875 5.5625 61.691406 5.726562 62.65625 C 5.890625 63.625 6.082031 64.585938 6.304688 65.539062 C 6.527344 66.496094 6.773438 67.441406 7.054688 68.382812 C 7.332031 69.320312 7.636719 70.253906 7.972656 71.175781 C 8.304688 72.097656 8.667969 73.007812 9.054688 73.90625 C 9.445312 74.804688 9.859375 75.691406 10.300781 76.566406 C 10.742188 77.441406 11.210938 78.304688 11.703125 79.148438 C 12.195312 79.996094 12.714844 80.828125 13.257812 81.644531 C 13.800781 82.460938 14.367188 83.257812 14.957031 84.039062 C 15.546875 84.820312 16.160156 85.582031 16.796875 86.328125 C 17.433594 87.074219 18.089844 87.796875 18.769531 88.503906 C 19.449219 89.207031 20.152344 89.890625 20.871094 90.554688 C 21.59375 91.214844 22.332031 91.855469 23.089844 92.476562 C 23.851562 93.09375 24.625 93.6875 25.421875 94.261719 C 26.214844 94.832031 27.027344 95.378906 27.855469 95.902344 C 28.679688 96.425781 29.523438 96.921875 30.378906 97.394531 C 31.238281 97.867188 32.109375 98.3125 32.992188 98.730469 C 33.875 99.152344 34.769531 99.542969 35.679688 99.910156 C 36.585938 100.273438 37.503906 100.613281 38.429688 100.925781 C 39.359375 101.234375 40.292969 101.515625 41.238281 101.773438 C 42.183594 102.027344 43.132812 102.25 44.09375 102.449219 C 45.050781 102.644531 46.011719 102.8125 46.980469 102.953125 C 47.949219 103.09375 48.921875 103.203125 49.894531 103.28125 C 50.871094 103.363281 51.847656 103.414062 52.824219 103.4375 C 53.800781 103.457031 54.777344 103.449219 55.757812 103.414062 C 56.734375 103.378906 57.707031 103.3125 58.683594 103.214844 C 59.65625 103.121094 60.625 102.996094 61.589844 102.839844 C 62.554688 102.6875 63.515625 102.503906 64.472656 102.292969 C 65.425781 102.082031 66.375 101.839844 67.316406 101.574219 C 68.253906 101.304688 69.1875 101.007812 70.109375 100.683594 C 71.03125 100.359375 71.945312 100.007812 72.847656 99.625 C 73.746094 99.246094 74.636719 98.839844 75.515625 98.40625 C 76.390625 97.972656 77.253906 97.515625 78.105469 97.03125 C 78.957031 96.546875 79.789062 96.035156 80.609375 95.5 C 81.429688 94.964844 82.230469 94.40625 83.015625 93.820312 C 83.800781 93.238281 84.570312 92.632812 85.320312 92 C 86.070312 91.371094 86.800781 90.71875 87.511719 90.046875 C 88.21875 89.371094 88.910156 88.679688 89.578125 87.960938 C 90.246094 87.246094 90.894531 86.511719 91.519531 85.757812 C 92.144531 85.003906 92.746094 84.230469 93.324219 83.441406 C 93.902344 82.652344 94.457031 81.84375 94.988281 81.019531 C 95.519531 80.199219 96.023438 79.359375 96.503906 78.503906 C 96.984375 77.648438 97.441406 76.78125 97.867188 75.902344 C 98.296875 75.019531 98.699219 74.125 99.074219 73.21875 C 99.445312 72.316406 99.792969 71.398438 100.113281 70.472656 C 100.433594 69.546875 100.726562 68.609375 100.992188 67.667969 C 101.253906 66.722656 101.488281 65.773438 101.695312 64.8125 C 101.902344 63.855469 102.082031 62.890625 102.230469 61.921875 C 102.378906 60.953125 102.5 59.980469 102.59375 59.003906 C 102.683594 58.027344 102.746094 57.050781 102.777344 56.070312 C 102.808594 55.089844 102.8125 54.109375 102.789062 53.132812 C 102.761719 52.152344 102.707031 51.171875 102.621094 50.195312 C 102.535156 49.21875 102.421875 48.246094 102.28125 47.277344 C 102.136719 46.304688 101.964844 45.339844 101.765625 44.382812 C 101.5625 43.421875 101.335938 42.46875 101.078125 41.523438 C 100.820312 40.578125 100.535156 39.640625 100.21875 38.710938 C 99.90625 37.78125 99.566406 36.863281 99.195312 35.957031 C 98.828125 35.046875 98.433594 34.152344 98.007812 33.269531 C 97.585938 32.382812 97.136719 31.511719 96.664062 30.65625 C 96.191406 29.796875 95.691406 28.957031 95.164062 28.128906 C 94.640625 27.300781 94.089844 26.492188 93.515625 25.695312 C 92.945312 24.902344 92.347656 24.125 91.726562 23.367188 C 91.105469 22.609375 90.464844 21.871094 89.800781 21.152344 C 89.136719 20.433594 88.453125 19.734375 87.746094 19.054688 C 87.039062 18.375 86.3125 17.71875 85.570312 17.085938 C 84.824219 16.449219 84.058594 15.839844 83.277344 15.25 C 82.496094 14.660156 81.699219 14.097656 80.882812 13.554688 C 80.066406 13.015625 79.234375 12.5 78.386719 12.007812 C 74.675781 9.847656 70.746094 8.207031 66.601562 7.089844 C 62.457031 5.976562 58.238281 5.417969 53.945312 5.425781 Z M 53.945312 5.425781 " fill-opacity="1" fill-rule="nonzero"/><path fill="rgb(100%, 100%, 100%)" d="M 42.703125 61.964844 L 34.390625 75.441406 L 47.050781 75.441406 Z M 42.703125 61.964844 " fill-opacity="1" fill-rule="nonzero"/><path fill="rgb(100%, 100%, 100%)" d="M 37.203125 44.898438 L 34.023438 69.367188 L 41.304688 57.589844 Z M 37.203125 44.898438 " fill-opacity="1" fill-rule="nonzero"/><path fill="rgb(100%, 100%, 100%)" d="M 50.714844 75.441406 L 57.175781 75.441406 L 62.78125 58.0625 L 53.945312 43.761719 L 45.109375 58.0625 Z M 50.714844 75.441406 " fill-opacity="1" fill-rule="nonzero"/><path fill="rgb(100%, 100%, 100%)" d="M 52.199219 39.925781 L 52.199219 23.839844 L 38.476562 37.421875 L 43.714844 53.683594 Z M 52.199219 39.925781 " fill-opacity="1" fill-rule="nonzero"/><path fill="rgb(100%, 100%, 100%)" d="M 69.414062 37.40625 L 55.691406 23.457031 L 55.691406 39.925781 L 64.175781 53.683594 Z M 69.414062 37.40625 " fill-opacity="1" fill-rule="nonzero"/><path fill="rgb(100%, 100%, 100%)" d="M 37.410156 78.941406 L 50.835938 87.222656 L 48.167969 78.941406 Z M 37.410156 78.941406 " fill-opacity="1" fill-rule="nonzero"/><path fill="rgb(100%, 100%, 100%)" d="M 57.054688 87.222656 L 70.480469 78.941406 L 59.722656 78.941406 Z M 57.054688 87.222656 " fill-opacity="1" fill-rule="nonzero"/><path fill="rgb(100%, 100%, 100%)" d="M 66.585938 57.589844 L 73.867188 69.367188 L 70.671875 44.898438 Z M 66.585938 57.589844 " fill-opacity="1" fill-rule="nonzero"/><path fill="rgb(100%, 100%, 100%)" d="M 75.769531 16.542969 C 74.53125 15.824219 73.261719 15.171875 71.960938 14.578125 C 70.65625 13.988281 69.328125 13.460938 67.976562 13 C 66.621094 12.539062 65.25 12.148438 63.855469 11.820312 C 62.464844 11.496094 61.058594 11.238281 59.640625 11.050781 C 58.226562 10.867188 56.800781 10.75 55.375 10.703125 C 53.945312 10.65625 52.515625 10.679688 51.089844 10.769531 C 49.664062 10.863281 48.246094 11.027344 46.835938 11.261719 C 45.425781 11.496094 44.027344 11.796875 42.648438 12.167969 C 41.265625 12.539062 39.90625 12.976562 38.570312 13.480469 C 37.230469 13.988281 35.921875 14.554688 34.640625 15.191406 C 33.359375 15.824219 32.109375 16.519531 30.894531 17.277344 C 29.683594 18.03125 28.507812 18.847656 27.375 19.71875 C 26.238281 20.59375 25.152344 21.519531 24.105469 22.5 C 23.0625 23.476562 22.070312 24.507812 21.128906 25.585938 C 20.1875 26.660156 19.296875 27.78125 18.464844 28.949219 C 17.632812 30.113281 16.859375 31.316406 16.144531 32.558594 C 15.429688 33.796875 14.777344 35.070312 14.1875 36.378906 C 13.597656 37.683594 13.070312 39.015625 12.613281 40.371094 C 12.152344 41.726562 11.761719 43.105469 11.4375 44.5 C 11.113281 45.894531 10.855469 47.304688 10.667969 48.726562 C 10.484375 50.144531 10.367188 51.574219 10.320312 53.003906 C 10.273438 54.4375 10.296875 55.871094 10.390625 57.300781 C 10.484375 58.730469 10.644531 60.152344 10.878906 61.566406 C 11.113281 62.980469 11.414062 64.378906 11.78125 65.761719 C 12.152344 67.148438 12.589844 68.511719 13.09375 69.851562 C 13.597656 71.191406 14.164062 72.507812 14.796875 73.792969 C 15.429688 75.078125 16.121094 76.328125 16.878906 77.546875 C 17.632812 78.761719 18.445312 79.941406 19.316406 81.078125 C 20.1875 82.214844 21.109375 83.304688 22.085938 84.351562 C 23.0625 85.398438 24.089844 86.394531 25.164062 87.339844 C 26.238281 88.285156 27.359375 89.171875 28.519531 90.007812 C 29.683594 90.84375 30.882812 91.617188 32.121094 92.335938 C 33.359375 93.050781 34.628906 93.707031 35.929688 94.296875 C 37.230469 94.890625 38.558594 95.414062 39.914062 95.875 C 41.265625 96.335938 42.640625 96.730469 44.03125 97.054688 C 45.425781 97.378906 46.828125 97.636719 48.246094 97.824219 C 49.664062 98.011719 51.085938 98.128906 52.515625 98.175781 C 53.945312 98.222656 55.371094 98.199219 56.796875 98.105469 C 58.226562 98.011719 59.644531 97.847656 61.054688 97.613281 C 62.464844 97.378906 63.859375 97.078125 65.242188 96.707031 C 66.621094 96.335938 67.980469 95.898438 69.320312 95.394531 C 70.65625 94.886719 71.96875 94.320312 73.25 93.683594 C 74.53125 93.050781 75.78125 92.355469 76.992188 91.597656 C 78.207031 90.84375 79.382812 90.027344 80.515625 89.15625 C 81.648438 88.28125 82.738281 87.355469 83.78125 86.375 C 84.824219 85.398438 85.816406 84.367188 86.761719 83.289062 C 87.703125 82.214844 88.589844 81.09375 89.421875 79.925781 C 90.257812 78.761719 91.03125 77.558594 91.746094 76.316406 C 92.460938 75.078125 93.113281 73.804688 93.703125 72.496094 C 94.292969 71.191406 94.816406 69.859375 95.277344 68.503906 C 95.734375 67.148438 96.128906 65.769531 96.453125 64.375 C 96.777344 62.980469 97.03125 61.570312 97.21875 60.148438 C 97.40625 58.730469 97.523438 57.300781 97.570312 55.871094 C 97.617188 54.4375 97.59375 53.007812 97.5 51.578125 C 97.40625 50.144531 97.242188 48.722656 97.007812 47.308594 C 96.777344 45.894531 96.476562 44.496094 96.105469 43.113281 C 95.734375 41.726562 95.296875 40.367188 94.792969 39.023438 C 94.292969 37.683594 93.722656 36.371094 93.089844 35.085938 C 92.457031 33.796875 91.765625 32.546875 91.011719 31.332031 C 90.253906 30.113281 89.441406 28.9375 88.574219 27.800781 C 87.703125 26.664062 86.777344 25.570312 85.800781 24.523438 C 84.824219 23.480469 83.796875 22.484375 82.722656 21.539062 C 81.648438 20.59375 80.53125 19.703125 79.367188 18.867188 C 78.207031 18.035156 77.007812 17.257812 75.769531 16.542969 Z M 78.386719 77.542969 C 78.394531 77.59375 78.394531 77.648438 78.386719 77.699219 C 78.339844 77.84375 78.277344 77.976562 78.195312 78.101562 C 78.167969 78.160156 78.132812 78.210938 78.089844 78.261719 C 77.96875 78.421875 77.820312 78.5625 77.65625 78.679688 L 54.957031 92.683594 C 54.886719 92.726562 54.808594 92.761719 54.730469 92.789062 L 54.554688 92.789062 C 54.359375 92.871094 54.15625 92.921875 53.945312 92.945312 C 53.789062 92.964844 53.632812 92.964844 53.472656 92.945312 L 53.300781 92.945312 C 53.21875 92.917969 53.144531 92.882812 53.074219 92.839844 L 30.375 78.839844 C 30.207031 78.71875 30.0625 78.582031 29.9375 78.417969 C 29.898438 78.371094 29.863281 78.316406 29.835938 78.261719 C 29.753906 78.132812 29.6875 78 29.640625 77.859375 C 29.632812 77.804688 29.632812 77.753906 29.640625 77.699219 C 29.597656 77.507812 29.597656 77.316406 29.640625 77.121094 L 34.878906 36.863281 C 34.902344 36.664062 34.960938 36.480469 35.054688 36.304688 L 35.054688 36.214844 C 35.132812 36.082031 35.226562 35.960938 35.332031 35.847656 L 53.019531 18.34375 C 53.371094 18.023438 53.785156 17.851562 54.257812 17.835938 C 54.738281 17.84375 55.144531 18.019531 55.480469 18.363281 L 72.714844 35.867188 C 72.8125 35.964844 72.890625 36.074219 72.957031 36.199219 L 72.957031 36.304688 C 73.050781 36.480469 73.109375 36.664062 73.132812 36.863281 L 78.371094 77.121094 C 78.398438 77.261719 78.40625 77.402344 78.386719 77.542969 Z M 78.386719 77.542969 " fill-opacity="1" fill-rule="nonzero"/><path fill="rgb(100%, 100%, 100%)" d="M 53.945312 85.488281 L 56.058594 78.941406 L 51.832031 78.941406 Z M 53.945312 85.488281 " fill-opacity="1" fill-rule="nonzero"/><path fill="rgb(100%, 100%, 100%)" d="M 60.839844 75.441406 L 73.5 75.441406 L 65.1875 61.964844 Z M 60.839844 75.441406 " fill-opacity="1" fill-rule="nonzero"/></svg>