<svg xmlns="http://www.w3.org/2000/svg" xmlns:xlink="http://www.w3.org/1999/xlink" width="144" zoomAndPan="magnify" viewBox="0 0 108 107.999999" height="144" preserveAspectRatio="xMidYMid meet" version="1.0"><defs><clipPath id="id1"><path d="M 0.621094 0.621094 L 107.121094 0.621094 L 107.121094 107.121094 L 0.621094 107.121094 Z M 0.621094 0.621094 " clip-rule="nonzero"/></clipPath></defs><g clip-path="url(#id1)"><path fill="rgb(0%, 0%, 0%)" d="M 53.871094 0.621094 C 24.507812 0.621094 0.621094 24.507812 0.621094 53.871094 C 0.621094 83.234375 24.507812 107.121094 53.871094 107.121094 C 83.234375 107.121094 107.121094 83.234375 107.121094 53.871094 C 107.121094 24.507812 83.234375 0.621094 53.871094 0.621094 Z M 53.871094 99.25 C 28.851562 99.25 8.496094 78.890625 8.496094 53.871094 C 8.496094 28.851562 28.851562 8.496094 53.871094 8.496094 C 78.890625 8.496094 99.25 28.851562 99.25 53.871094 C 99.25 78.890625 78.890625 99.25 53.871094 99.25 " fill-opacity="1" fill-rule="nonzero"/></g><path fill="rgb(0%, 0%, 0%)" d="M 53.324219 64.554688 L 40.234375 56.902344 L 53.871094 84.003906 L 67.507812 56.902344 L 54.417969 64.554688 C 54.082031 64.75 53.660156 64.75 53.324219 64.554688 " fill-opacity="1" fill-rule="nonzero"/><path fill="rgb(0%, 0%, 0%)" d="M 39.09375 48.902344 L 53.871094 57.539062 L 68.648438 48.902344 L 53.871094 23.308594 L 39.09375 48.902344 " fill-opacity="1" fill-rule="nonzero"/></svg>