<?xml version="1.0" encoding="utf-8"?>
<!-- Generator: Adobe Illustrator 21.0.0, SVG Export Plug-In . SVG Version: 6.00 Build 0)  -->
<svg version="1.1" id="Слой_1" xmlns="http://www.w3.org/2000/svg" xmlns:xlink="http://www.w3.org/1999/xlink" x="0px" y="0px"
	 viewBox="0 0 37.8 38" style="enable-background:new 0 0 37.8 38;" xml:space="preserve">
<style type="text/css">
	.st0{fill-rule:evenodd;clip-rule:evenodd;fill:#FFFFFF;}
</style>
<g>
	<path class="st0" d="M18.9,7.5c6.3,0,11.5,5.1,11.5,11.5c0,6.3-5.1,11.5-11.5,11.5c-5.3,0-9.7-3.6-11.1-8.4h11.8l0.7-2l0,0H7.5
		c0-0.3,0-0.7,0-1c0-0.3,0-0.7,0-1h13.1l0.7-2H7.8C9.2,11.1,13.6,7.5,18.9,7.5L18.9,7.5z"/>
	<path class="st0" d="M2.4,26.4l3.1-1.8c-0.4-0.8-0.6-1.7-0.8-2.6H1C1.3,23.6,1.7,25.1,2.4,26.4L2.4,26.4z M4.3,20
		c0-0.4,0-0.7,0-1.1c0-0.3,0-0.7,0-1H0.8c0,0.3,0,0.7,0,1c0,0.4,0,0.7,0,1.1H4.3L4.3,20z M4.6,15.9C5.9,9.8,11,5.1,17.3,4.4V0.9
		C9,1.6,2.4,7.9,1,15.9H4.6L4.6,15.9z M35.5,26.4l-3.1-1.8c0.8-1.8,1.2-3.7,1.2-5.7c0-6.4-4-11.8-9.7-13.8l0,0
		c-0.1,0-0.2-0.1-0.3-0.1c0,0,0,0-0.1,0c-0.1,0-0.2-0.1-0.2-0.1c0,0-0.1,0-0.1,0c-0.1,0-0.1,0-0.2-0.1c-0.1,0-0.2,0-0.3-0.1
		c0,0,0,0-0.1,0c-0.2-0.1-0.5-0.1-0.7-0.2l0,0c-0.1,0-0.2,0-0.3-0.1l0,0c-0.1,0-0.2,0-0.3-0.1l0,0c-0.1,0-0.2,0-0.3,0l0,0
		c-0.1,0-0.1,0-0.2,0V0.9C29.8,1.7,37.1,9.5,37.1,19C37.1,21.6,36.5,24.2,35.5,26.4L35.5,26.4z M33.7,29.5l-3.1-1.8
		c-2.7,3.6-6.9,5.9-11.7,5.9c-4.8,0-9.1-2.3-11.8-5.9l-3.1,1.8c3.3,4.6,8.7,7.7,14.8,7.7C25,37.1,30.4,34.1,33.7,29.5L33.7,29.5z"/>
</g>
</svg>
