<?xml version="1.0" encoding="utf-8"?>
<!-- Generator: Adobe Illustrator 21.0.0, SVG Export Plug-In . SVG Version: 6.00 Build 0)  -->
<svg version="1.1" id="Слой_1" xmlns="http://www.w3.org/2000/svg" xmlns:xlink="http://www.w3.org/1999/xlink" x="0px" y="0px"
	 viewBox="0 0 37.8 38" style="enable-background:new 0 0 37.8 38;" xml:space="preserve">
<style type="text/css">
	.st0{fill-rule:evenodd;clip-rule:evenodd;}
</style>
<g>
	<path class="st0" d="M2.4,26.4l3.1-1.8c-0.6-1.4-1-3-1.1-4.7H0.8C0.9,22.3,1.5,24.5,2.4,26.4L2.4,26.4z M4.3,18
		c0.5-7.1,6-12.8,13-13.6V0.9C8.3,1.7,1.2,9,0.8,18H4.3L4.3,18z M35.4,26.4l-3.1-1.8c0.8-1.8,1.2-3.7,1.2-5.7c0-6.4-4-11.8-9.7-13.8
		l0,0c-0.1,0-0.2-0.1-0.3-0.1c0,0,0,0-0.1,0c-0.1,0-0.2-0.1-0.2-0.1c0,0-0.1,0-0.1,0c-0.1,0-0.1,0-0.2-0.1c-0.1,0-0.2,0-0.3-0.1
		c0,0,0,0-0.1,0c-0.2-0.1-0.5-0.1-0.7-0.2l0,0c-0.1,0-0.2,0-0.3-0.1l0,0c-0.1,0-0.2,0-0.3-0.1l0,0c-0.1,0-0.2,0-0.3,0l0,0
		c-0.1,0-0.1,0-0.2,0V0.9C29.8,1.7,37.1,9.5,37.1,19C37.1,21.6,36.5,24.2,35.4,26.4L35.4,26.4z M33.7,29.5l-3.1-1.8
		c-2.7,3.6-6.9,5.9-11.7,5.9c-4.8,0-9.1-2.3-11.8-5.9l-3.1,1.8c3.3,4.6,8.7,7.7,14.8,7.7C25,37.1,30.4,34.1,33.7,29.5L33.7,29.5z"/>
	<path class="st0" d="M26.2,10.1c2.6,2.1,4.2,5.3,4.2,8.9c0,4.4-2.5,8.3-6.2,10.2c0.8-0.6,1.5-1.4,2-2.4l-2.5-1.4
		c-0.7,1.4-2.1,2.3-3.6,2.6h-1.6c-0.4,0-0.8,0-1.2-0.1c-0.8-0.2-1.6-0.6-2.2-1.2c-0.6-0.8-0.9-1.5-0.9-2.3v-0.9
		c0.1-1,0.3-2.3,0.3-3.4h5l0.7-2h-5.7l-0.3-3.5v-1.8v-0.3c0-0.3,0-0.5,0-0.7c0.1-1.1,0.6-2,1.4-2.8c1-1,2.2-1.4,3.5-1.3
		c1.2,0.1,2.3,0.6,3.2,1.5c0.9,0.9,1.3,2,1.3,3.3h2.9C26.5,11.6,26.4,10.8,26.2,10.1L26.2,10.1z M9,24.9c-0.9-1.4-1.4-3.1-1.6-4.9
		h4.4c0,0.5-0.1,0.9-0.1,1.4C11.4,23.1,10.5,24.2,9,24.9L9,24.9L9,24.9z M11.9,18H7.5c0.3-3.2,1.9-6.1,4.3-8
		c-0.2,0.6-0.3,1.2-0.3,1.8c0,0.3,0,0.6,0,0.9l0,0.2c0,0.1,0,0.2,0,0.3L11.9,18L11.9,18z"/>
</g>
</svg>
