<svg xmlns="http://www.w3.org/2000/svg" xmlns:xlink="http://www.w3.org/1999/xlink" width="200" zoomAndPan="magnify" viewBox="0 0 150 149.999998" height="200" preserveAspectRatio="xMidYMid meet" version="1.0"><path fill="rgb(98.039246%, 1.568604%, 1.568604%)" d="M 74.691406 10.535156 C 74.640625 10.65625 74.460938 11.214844 74.292969 11.777344 C 74.128906 12.339844 73.957031 12.863281 73.914062 12.945312 C 73.871094 13.027344 73.753906 13.441406 73.65625 13.871094 C 73.558594 14.296875 73.449219 14.667969 73.417969 14.695312 C 73.382812 14.722656 73.277344 15.074219 73.183594 15.476562 C 73.085938 15.875 72.976562 16.25 72.933594 16.300781 C 72.894531 16.355469 72.804688 16.640625 72.734375 16.933594 C 72.667969 17.230469 72.582031 17.492188 72.546875 17.519531 C 72.511719 17.546875 72.382812 17.917969 72.261719 18.347656 C 72.136719 18.773438 71.980469 19.257812 71.910156 19.417969 C 71.839844 19.578125 71.753906 19.894531 71.714844 20.121094 C 71.679688 20.351562 71.617188 20.535156 71.574219 20.535156 C 71.535156 20.535156 71.5 20.589844 71.492188 20.65625 C 71.476562 20.882812 71.167969 21.945312 71.035156 22.238281 C 70.960938 22.398438 70.871094 22.707031 70.832031 22.921875 C 70.792969 23.136719 70.730469 23.355469 70.691406 23.40625 C 70.652344 23.460938 70.542969 23.832031 70.449219 24.234375 C 70.351562 24.636719 70.242188 25.007812 70.203125 25.0625 C 70.167969 25.117188 70.054688 25.464844 69.957031 25.839844 C 69.863281 26.214844 69.75 26.566406 69.714844 26.621094 C 69.492188 26.933594 69.40625 27.761719 69.554688 28.113281 C 69.636719 28.308594 70.0625 29.738281 70.496094 31.292969 C 70.929688 32.84375 71.367188 34.398438 71.46875 34.746094 C 71.570312 35.09375 71.765625 35.796875 71.910156 36.304688 C 72.050781 36.8125 72.246094 37.515625 72.347656 37.863281 C 72.445312 38.210938 72.644531 38.910156 72.785156 39.417969 C 72.925781 39.929688 73.125 40.628906 73.226562 40.976562 C 73.324219 41.324219 73.535156 42.070312 73.691406 42.632812 C 73.847656 43.195312 74.234375 44.5625 74.546875 45.671875 L 75.117188 47.691406 L 86.460938 47.691406 L 86.527344 47.488281 C 86.585938 47.304688 86.546875 47.160156 86.285156 46.621094 C 86.246094 46.542969 86.15625 46.234375 86.089844 45.941406 C 86.019531 45.644531 85.933594 45.363281 85.894531 45.308594 C 85.855469 45.253906 85.746094 44.902344 85.648438 44.53125 C 85.554688 44.15625 85.441406 43.804688 85.402344 43.75 C 85.363281 43.695312 85.253906 43.324219 85.160156 42.921875 C 85.066406 42.523438 84.957031 42.148438 84.917969 42.097656 C 84.878906 42.042969 84.789062 41.757812 84.722656 41.464844 C 84.65625 41.167969 84.5625 40.882812 84.519531 40.828125 C 84.476562 40.773438 84.367188 40.402344 84.277344 40 C 84.1875 39.601562 84.082031 39.25 84.042969 39.226562 C 84.003906 39.199219 83.914062 38.933594 83.847656 38.640625 C 83.777344 38.347656 83.691406 38.0625 83.648438 38.007812 C 83.609375 37.953125 83.496094 37.570312 83.402344 37.15625 C 83.304688 36.742188 83.195312 36.402344 83.164062 36.402344 C 83.128906 36.402344 83.039062 36.117188 82.96875 35.769531 C 82.894531 35.421875 82.808594 35.136719 82.777344 35.136719 C 82.742188 35.136719 82.632812 34.796875 82.53125 34.382812 C 82.433594 33.96875 82.316406 33.585938 82.277344 33.53125 C 82.238281 33.476562 82.15625 33.234375 82.09375 32.996094 C 82.03125 32.753906 81.902344 32.382812 81.804688 32.167969 C 81.710938 31.953125 81.574219 31.539062 81.507812 31.242188 C 81.4375 30.949219 81.351562 30.664062 81.3125 30.609375 C 81.273438 30.558594 81.167969 30.207031 81.074219 29.832031 C 80.984375 29.460938 80.871094 29.109375 80.828125 29.054688 C 80.785156 29 80.691406 28.691406 80.621094 28.371094 C 80.554688 28.050781 80.464844 27.765625 80.429688 27.738281 C 80.390625 27.710938 80.289062 27.363281 80.199219 26.964844 C 80.105469 26.5625 79.996094 26.191406 79.953125 26.136719 C 79.910156 26.082031 79.820312 25.792969 79.75 25.5 C 79.683594 25.207031 79.601562 24.941406 79.566406 24.917969 C 79.535156 24.890625 79.425781 24.539062 79.324219 24.136719 C 79.226562 23.734375 79.109375 23.363281 79.070312 23.308594 C 79.027344 23.257812 78.941406 22.949219 78.875 22.628906 C 78.808594 22.308594 78.699219 21.933594 78.632812 21.800781 C 78.566406 21.667969 78.476562 21.40625 78.4375 21.21875 C 78.398438 21.03125 78.308594 20.746094 78.238281 20.585938 C 78.167969 20.425781 78.015625 19.964844 77.902344 19.5625 C 77.789062 19.160156 77.628906 18.59375 77.546875 18.304688 C 77.464844 18.015625 77.320312 17.597656 77.222656 17.378906 C 77.121094 17.160156 76.988281 16.753906 76.925781 16.472656 C 76.863281 16.191406 76.773438 15.9375 76.730469 15.910156 C 76.683594 15.882812 76.597656 15.609375 76.53125 15.304688 C 76.46875 14.996094 76.390625 14.722656 76.355469 14.695312 C 76.320312 14.667969 76.203125 14.296875 76.089844 13.867188 C 75.976562 13.441406 75.765625 12.71875 75.621094 12.261719 C 75.476562 11.808594 75.289062 11.183594 75.207031 10.875 C 75.042969 10.28125 74.847656 10.152344 74.691406 10.535156 " fill-opacity="1" fill-rule="evenodd"/><path fill="rgb(98.039246%, 98.039246%, 1.568604%)" d="M 75.21875 47.960938 C 75.253906 48.105469 75.386719 48.492188 75.507812 48.8125 C 75.804688 49.589844 75.988281 50.09375 77.609375 54.605469 C 78.371094 56.71875 79.652344 60.265625 80.457031 62.488281 C 81.257812 64.710938 82.105469 67.054688 82.332031 67.695312 C 82.5625 68.335938 83.109375 69.847656 83.546875 71.054688 C 84.863281 74.664062 85.222656 75.65625 85.355469 76.066406 C 85.527344 76.589844 85.785156 77.1875 85.839844 77.1875 C 85.875 77.1875 87.625 75.640625 88.09375 75.195312 C 88.152344 75.140625 88.542969 74.785156 88.960938 74.410156 C 89.382812 74.035156 89.769531 73.683594 89.828125 73.628906 C 89.941406 73.519531 91.710938 71.925781 92.363281 71.34375 C 92.574219 71.15625 92.945312 70.820312 93.1875 70.597656 L 93.625 70.191406 L 92.964844 68.117188 C 92.601562 66.976562 92.109375 65.425781 91.867188 64.679688 C 91.628906 63.929688 91.351562 63.050781 91.25 62.730469 C 90.707031 60.96875 90.550781 60.46875 90.148438 59.226562 C 89.152344 56.132812 87.773438 51.796875 87.160156 49.835938 L 86.507812 47.742188 L 80.828125 47.714844 L 75.152344 47.691406 L 75.21875 47.960938 " fill-opacity="1" fill-rule="evenodd"/><path fill="rgb(1.568604%, 51.759338%, 1.568604%)" d="M 93.144531 70.640625 C 92.925781 70.839844 92.574219 71.15625 92.363281 71.34375 C 91.691406 71.945312 89.9375 73.523438 89.828125 73.628906 C 89.769531 73.683594 89.382812 74.035156 88.964844 74.410156 C 88.550781 74.785156 88.027344 75.257812 87.804688 75.457031 C 87.582031 75.660156 87.042969 76.140625 86.609375 76.527344 C 86.171875 76.917969 85.851562 77.257812 85.894531 77.285156 C 85.9375 77.3125 86.027344 77.554688 86.09375 77.820312 C 86.160156 78.085938 86.242188 78.347656 86.28125 78.402344 C 86.320312 78.457031 86.40625 78.675781 86.46875 78.890625 C 86.535156 79.101562 86.742188 79.714844 86.933594 80.25 C 87.125 80.789062 87.300781 81.289062 87.328125 81.371094 C 87.355469 81.453125 87.683594 82.394531 88.054688 83.464844 C 88.421875 84.535156 88.792969 85.628906 88.871094 85.898438 C 88.953125 86.164062 89.058594 86.472656 89.109375 86.578125 C 89.269531 86.925781 89.886719 88.851562 89.886719 89.007812 C 89.886719 89.089844 89.929688 89.15625 89.984375 89.15625 C 90.039062 89.15625 90.082031 89.21875 90.082031 89.289062 C 90.082031 89.359375 90.171875 89.679688 90.28125 89.996094 C 90.390625 90.3125 90.550781 90.808594 90.632812 91.105469 C 90.714844 91.398438 90.816406 91.683594 90.859375 91.738281 C 90.898438 91.789062 91 92.054688 91.082031 92.320312 C 91.269531 92.933594 92.269531 95.808594 92.339844 95.929688 C 92.371094 95.980469 92.488281 96.332031 92.601562 96.71875 C 92.75 97.214844 92.890625 97.480469 93.089844 97.640625 C 93.386719 97.882812 94.011719 98.359375 95.539062 99.5 C 97.933594 101.292969 98.445312 101.683594 98.90625 102.050781 C 99.175781 102.265625 99.507812 102.523438 99.636719 102.617188 C 99.9375 102.835938 103.699219 105.65625 104.769531 106.46875 C 105.210938 106.800781 105.574219 107.140625 105.574219 107.21875 C 105.574219 107.296875 105.636719 107.359375 105.714844 107.359375 C 105.863281 107.359375 105.738281 106.777344 105.417969 106.011719 C 105.34375 105.832031 105.304688 105.648438 105.332031 105.605469 C 105.359375 105.558594 105.339844 105.496094 105.289062 105.464844 C 105.234375 105.433594 105.21875 105.34375 105.246094 105.265625 C 105.277344 105.183594 105.265625 105.121094 105.21875 105.121094 C 105.113281 105.121094 104.953125 104.738281 104.789062 104.097656 C 104.722656 103.832031 104.625 103.558594 104.570312 103.492188 C 104.519531 103.425781 104.511719 103.367188 104.550781 103.367188 C 104.589844 103.367188 104.578125 103.3125 104.527344 103.246094 C 104.472656 103.179688 104.375 102.886719 104.308594 102.589844 C 104.238281 102.296875 104.148438 102.011719 104.109375 101.957031 C 104.066406 101.902344 103.984375 101.664062 103.921875 101.421875 C 103.863281 101.179688 103.75 100.832031 103.671875 100.644531 C 103.546875 100.328125 103.351562 99.652344 103.328125 99.425781 C 103.320312 99.375 103.28125 99.285156 103.238281 99.230469 C 103.195312 99.179688 103.089844 98.871094 103 98.550781 C 102.910156 98.230469 102.800781 97.878906 102.753906 97.773438 C 102.601562 97.417969 102.023438 95.535156 102.046875 95.460938 C 102.058594 95.421875 102.023438 95.386719 101.96875 95.386719 C 101.914062 95.386719 101.878906 95.355469 101.882812 95.3125 C 101.914062 95.144531 101.742188 94.609375 101.660156 94.609375 C 101.609375 94.609375 101.59375 94.566406 101.625 94.515625 C 101.65625 94.464844 101.640625 94.34375 101.585938 94.246094 C 101.535156 94.152344 101.394531 93.734375 101.277344 93.320312 C 101.160156 92.902344 101.035156 92.566406 101.003906 92.566406 C 100.972656 92.566406 100.9375 92.453125 100.929688 92.320312 C 100.921875 92.183594 100.84375 91.917969 100.753906 91.730469 C 100.664062 91.539062 100.613281 91.320312 100.640625 91.242188 C 100.671875 91.167969 100.644531 91.105469 100.585938 91.105469 C 100.523438 91.105469 100.5 91.078125 100.535156 91.042969 C 100.566406 91.011719 100.539062 90.925781 100.46875 90.855469 C 100.398438 90.785156 100.3125 90.554688 100.277344 90.339844 C 100.242188 90.125 100.144531 89.882812 100.0625 89.796875 C 99.953125 89.691406 99.945312 89.644531 100.03125 89.644531 C 100.101562 89.644531 100.078125 89.589844 99.976562 89.511719 C 99.875 89.441406 99.824219 89.335938 99.859375 89.277344 C 99.894531 89.21875 99.878906 89.140625 99.820312 89.105469 C 99.761719 89.070312 99.738281 88.976562 99.769531 88.902344 C 99.796875 88.824219 99.757812 88.738281 99.675781 88.707031 C 99.597656 88.675781 99.566406 88.601562 99.601562 88.539062 C 99.726562 88.339844 99.710938 88.195312 99.570312 88.25 C 99.496094 88.28125 99.433594 88.253906 99.433594 88.195312 C 99.433594 88.136719 99.488281 88.085938 99.558594 88.085938 C 99.625 88.082031 99.601562 88.035156 99.503906 87.980469 C 99.390625 87.914062 99.347656 87.8125 99.386719 87.691406 C 99.429688 87.558594 99.402344 87.503906 99.289062 87.503906 C 99.1875 87.503906 99.15625 87.460938 99.207031 87.382812 C 99.339844 87.167969 99.324219 87.027344 99.171875 87.085938 C 99.054688 87.128906 99.039062 87.097656 99.089844 86.933594 C 99.132812 86.800781 99.113281 86.722656 99.039062 86.722656 C 98.972656 86.722656 98.945312 86.644531 98.976562 86.53125 C 99.011719 86.398438 98.980469 86.335938 98.882812 86.335938 C 98.785156 86.335938 98.757812 86.273438 98.800781 86.140625 C 98.839844 86.023438 98.820312 85.945312 98.753906 85.945312 C 98.6875 85.945312 98.667969 85.867188 98.703125 85.75 C 98.742188 85.632812 98.722656 85.554688 98.652344 85.554688 C 98.582031 85.554688 98.558594 85.476562 98.585938 85.363281 C 98.621094 85.234375 98.589844 85.167969 98.5 85.167969 C 98.332031 85.167969 98.324219 85.050781 98.480469 84.894531 C 98.570312 84.804688 98.558594 84.777344 98.425781 84.777344 C 98.300781 84.777344 98.269531 84.726562 98.3125 84.59375 C 98.351562 84.472656 98.3125 84.386719 98.195312 84.339844 C 98.035156 84.273438 98.035156 84.265625 98.21875 84.1875 C 98.40625 84.109375 98.40625 84.105469 98.191406 84.042969 C 98.027344 83.992188 97.984375 83.925781 98.027344 83.792969 C 98.058594 83.691406 98.039062 83.609375 97.980469 83.609375 C 97.921875 83.609375 97.875 83.527344 97.875 83.421875 C 97.875 83.320312 97.820312 83.21875 97.753906 83.195312 C 97.660156 83.164062 97.660156 83.121094 97.765625 82.992188 C 97.882812 82.851562 97.878906 82.832031 97.730469 82.832031 C 97.609375 82.832031 97.574219 82.777344 97.613281 82.636719 C 97.640625 82.53125 97.628906 82.441406 97.585938 82.441406 C 97.511719 82.441406 97.359375 81.992188 97.410156 81.921875 C 97.425781 81.902344 97.386719 81.828125 97.328125 81.75 C 97.140625 81.523438 97.0625 80.984375 97.210938 80.976562 C 97.28125 80.972656 97.238281 80.929688 97.109375 80.878906 C 96.917969 80.800781 96.898438 80.761719 97 80.640625 C 97.097656 80.519531 97.089844 80.496094 96.949219 80.496094 C 96.828125 80.496094 96.796875 80.441406 96.832031 80.300781 C 96.859375 80.191406 96.847656 80.105469 96.804688 80.105469 C 96.761719 80.105469 96.699219 79.953125 96.664062 79.769531 C 96.628906 79.585938 96.539062 79.308594 96.460938 79.160156 C 96.382812 79.011719 96.289062 78.734375 96.257812 78.546875 C 96.222656 78.359375 96.160156 78.164062 96.117188 78.109375 C 96.078125 78.058594 95.96875 77.726562 95.878906 77.378906 C 95.789062 77.03125 95.679688 76.703125 95.640625 76.652344 C 95.597656 76.597656 95.503906 76.3125 95.429688 76.019531 C 95.359375 75.722656 95.273438 75.460938 95.238281 75.433594 C 95.207031 75.40625 95.128906 75.1875 95.0625 74.945312 C 94.910156 74.378906 94.902344 74.359375 94.785156 74.070312 C 94.734375 73.9375 94.503906 73.257812 94.277344 72.5625 C 94.046875 71.867188 93.824219 71.210938 93.78125 71.101562 C 93.652344 70.796875 93.546875 70.425781 93.570312 70.347656 C 93.601562 70.226562 93.558594 70.257812 93.144531 70.640625 " fill-opacity="1" fill-rule="evenodd"/><path fill="rgb(1.568604%, 1.568604%, 1.568604%)" d="M 69.359375 28.046875 C 69.304688 28.117188 69.179688 28.503906 69.082031 28.90625 C 68.988281 29.308594 68.878906 29.679688 68.839844 29.734375 C 68.800781 29.789062 68.710938 30.074219 68.644531 30.367188 C 68.578125 30.660156 68.488281 30.945312 68.453125 31 C 68.414062 31.054688 68.304688 31.402344 68.207031 31.777344 C 68.113281 32.152344 67.976562 32.597656 67.902344 32.765625 C 67.828125 32.933594 67.769531 33.164062 67.769531 33.273438 C 67.769531 33.382812 67.722656 33.496094 67.671875 33.53125 C 67.617188 33.5625 67.574219 33.664062 67.574219 33.753906 C 67.574219 33.847656 67.511719 34.035156 67.441406 34.171875 C 67.367188 34.3125 67.25 34.664062 67.183594 34.953125 C 67.117188 35.242188 67.027344 35.519531 66.988281 35.574219 C 66.949219 35.628906 66.839844 36 66.742188 36.402344 C 66.648438 36.804688 66.539062 37.152344 66.503906 37.179688 C 66.464844 37.207031 66.378906 37.503906 66.308594 37.835938 C 66.238281 38.171875 66.148438 38.445312 66.109375 38.445312 C 66.070312 38.445312 65.960938 38.816406 65.867188 39.273438 C 65.769531 39.730469 65.660156 40.101562 65.621094 40.101562 C 65.582031 40.101562 65.5 40.359375 65.4375 40.675781 C 65.375 40.992188 65.265625 41.375 65.191406 41.527344 C 65.117188 41.679688 65 42.078125 64.9375 42.414062 C 64.871094 42.746094 64.785156 43.019531 64.746094 43.019531 C 64.703125 43.019531 64.613281 43.304688 64.546875 43.652344 C 64.476562 44 64.390625 44.285156 64.351562 44.285156 C 64.316406 44.285156 64.207031 44.660156 64.105469 45.113281 C 64.003906 45.570312 63.894531 45.941406 63.859375 45.941406 C 63.828125 45.941406 63.71875 46.320312 63.621094 46.785156 L 63.445312 47.625 L 44.570312 47.558594 C 32.066406 47.511719 25.671875 47.519531 25.632812 47.585938 C 25.578125 47.671875 26.824219 48.765625 26.976562 48.765625 C 27.011719 48.765625 27.128906 48.839844 27.234375 48.933594 C 27.339844 49.027344 27.515625 49.179688 27.625 49.273438 C 27.730469 49.367188 27.84375 49.445312 27.875 49.445312 C 27.90625 49.445312 28.121094 49.597656 28.347656 49.785156 C 28.578125 49.972656 28.792969 50.125 28.828125 50.125 C 28.863281 50.125 28.976562 50.203125 29.078125 50.296875 C 29.324219 50.519531 29.417969 50.589844 30.109375 51.050781 C 30.425781 51.265625 30.753906 51.496094 30.835938 51.566406 C 30.917969 51.632812 31.203125 51.863281 31.472656 52.078125 C 31.742188 52.289062 32.03125 52.53125 32.113281 52.609375 C 32.199219 52.6875 32.304688 52.753906 32.351562 52.753906 C 32.394531 52.753906 32.5 52.820312 32.585938 52.902344 C 32.8125 53.125 34.140625 54.117188 34.210938 54.117188 C 34.269531 54.117188 34.730469 54.46875 35.027344 54.738281 C 35.109375 54.808594 35.277344 54.921875 35.402344 54.988281 C 35.527344 55.050781 35.703125 55.167969 35.792969 55.238281 C 35.882812 55.3125 36.128906 55.507812 36.34375 55.667969 C 36.558594 55.832031 36.78125 56 36.835938 56.046875 C 36.890625 56.089844 37.066406 56.210938 37.222656 56.3125 C 37.382812 56.414062 37.558594 56.546875 37.609375 56.605469 C 37.828125 56.84375 38.613281 57.425781 38.71875 57.425781 C 38.777344 57.425781 38.828125 57.464844 38.828125 57.515625 C 38.828125 57.59375 39.144531 57.820312 39.742188 58.171875 C 39.847656 58.238281 39.972656 58.355469 40.019531 58.441406 C 40.066406 58.527344 40.148438 58.59375 40.199219 58.59375 C 40.25 58.59375 40.59375 58.824219 40.964844 59.105469 C 41.335938 59.386719 41.742188 59.691406 41.867188 59.78125 C 41.992188 59.875 42.179688 60.015625 42.289062 60.097656 C 42.394531 60.179688 42.878906 60.53125 43.359375 60.878906 C 43.84375 61.226562 44.335938 61.585938 44.453125 61.683594 C 45.148438 62.234375 46.023438 62.878906 46.082031 62.878906 C 46.113281 62.878906 46.21875 62.953125 46.320312 63.046875 C 46.5625 63.273438 46.816406 63.464844 47.695312 64.101562 C 48.097656 64.390625 48.480469 64.671875 48.546875 64.726562 C 48.609375 64.78125 48.773438 64.875 48.910156 64.9375 C 49.046875 65 49.15625 65.085938 49.15625 65.128906 C 49.15625 65.171875 49.296875 65.28125 49.46875 65.367188 C 49.640625 65.457031 49.847656 65.605469 49.929688 65.703125 C 50.015625 65.796875 50.410156 66.117188 50.8125 66.417969 C 51.214844 66.714844 51.613281 67.023438 51.699219 67.109375 C 51.785156 67.191406 51.882812 67.257812 51.921875 67.257812 C 51.957031 67.257812 52.261719 67.464844 52.59375 67.71875 C 52.929688 67.976562 53.398438 68.316406 53.636719 68.476562 C 53.875 68.636719 54.144531 68.832031 54.234375 68.914062 C 54.324219 68.992188 54.558594 69.167969 54.753906 69.300781 C 54.945312 69.433594 55.226562 69.644531 55.371094 69.765625 C 55.519531 69.882812 55.664062 69.984375 55.695312 69.984375 C 56.089844 69.984375 56.390625 70.820312 56.078125 71.054688 C 56.011719 71.101562 55.820312 71.707031 55.460938 73 C 55.347656 73.402344 55.226562 73.753906 55.191406 73.777344 C 55.15625 73.804688 55.066406 74.089844 55 74.410156 C 54.929688 74.734375 54.84375 75.039062 54.808594 75.09375 C 54.769531 75.148438 54.660156 75.496094 54.5625 75.871094 C 54.460938 76.246094 54.351562 76.574219 54.316406 76.601562 C 54.28125 76.628906 54.167969 77 54.070312 77.429688 C 53.972656 77.855469 53.867188 78.230469 53.839844 78.257812 C 53.808594 78.285156 53.699219 78.566406 53.597656 78.890625 C 53.492188 79.210938 53.375 79.519531 53.335938 79.574219 C 53.296875 79.625 53.1875 79.976562 53.09375 80.351562 C 53 80.726562 52.894531 81.050781 52.859375 81.078125 C 52.820312 81.105469 52.734375 81.367188 52.667969 81.664062 C 52.597656 81.957031 52.511719 82.242188 52.472656 82.296875 C 52.433594 82.347656 52.320312 82.699219 52.226562 83.074219 C 52.128906 83.449219 52.019531 83.800781 51.980469 83.851562 C 51.941406 83.90625 51.855469 84.191406 51.789062 84.484375 C 51.722656 84.78125 51.628906 85.066406 51.585938 85.121094 C 51.542969 85.175781 51.433594 85.527344 51.339844 85.898438 C 51.246094 86.273438 51.140625 86.601562 51.105469 86.628906 C 51.070312 86.652344 50.960938 87.003906 50.863281 87.40625 C 50.769531 87.808594 50.65625 88.179688 50.617188 88.234375 C 50.578125 88.285156 50.492188 88.570312 50.425781 88.867188 C 50.355469 89.160156 50.265625 89.445312 50.222656 89.5 C 50.179688 89.554688 50.070312 89.90625 49.976562 90.277344 C 49.886719 90.652344 49.777344 91.003906 49.738281 91.054688 C 49.699219 91.109375 49.609375 91.40625 49.542969 91.714844 C 49.476562 92.019531 49.390625 92.273438 49.351562 92.273438 C 49.316406 92.273438 49.230469 92.523438 49.164062 92.832031 C 49.097656 93.140625 48.957031 93.574219 48.855469 93.792969 C 48.679688 94.167969 48.5 94.722656 48.121094 96.070312 C 48.039062 96.363281 47.9375 96.648438 47.894531 96.703125 C 47.851562 96.753906 47.738281 97.136719 47.640625 97.554688 C 47.542969 97.96875 47.433594 98.308594 47.394531 98.308594 C 47.355469 98.308594 47.292969 98.492188 47.253906 98.722656 C 47.21875 98.949219 47.109375 99.308594 47.015625 99.523438 C 46.921875 99.738281 46.789062 100.15625 46.722656 100.449219 C 46.652344 100.742188 46.566406 101.027344 46.527344 101.082031 C 46.488281 101.136719 46.398438 101.417969 46.332031 101.714844 C 46.265625 102.007812 46.175781 102.292969 46.136719 102.347656 C 46.097656 102.402344 45.988281 102.75 45.890625 103.125 C 45.792969 103.5 45.683594 103.851562 45.648438 103.90625 C 45.609375 103.957031 45.523438 104.242188 45.457031 104.539062 C 45.386719 104.832031 45.296875 105.117188 45.257812 105.167969 C 45.214844 105.222656 45.109375 105.550781 45.019531 105.898438 C 44.933594 106.246094 44.796875 106.671875 44.71875 106.839844 C 44.582031 107.140625 44.527344 107.554688 44.628906 107.554688 C 44.773438 107.554688 46.328125 106.453125 46.859375 105.972656 C 46.964844 105.878906 47.125 105.78125 47.21875 105.75 C 47.308594 105.722656 47.410156 105.632812 47.441406 105.554688 C 47.46875 105.476562 47.5625 105.414062 47.640625 105.414062 C 47.722656 105.414062 47.832031 105.324219 47.890625 105.21875 C 47.949219 105.109375 48.058594 105.023438 48.132812 105.023438 C 48.207031 105.023438 48.328125 104.941406 48.398438 104.84375 C 48.46875 104.746094 48.625 104.609375 48.75 104.546875 C 48.875 104.480469 49.050781 104.363281 49.140625 104.289062 C 49.230469 104.214844 49.480469 104.023438 49.695312 103.859375 C 49.90625 103.695312 50.257812 103.414062 50.472656 103.230469 C 50.820312 102.941406 51.265625 102.597656 52.140625 101.957031 C 52.757812 101.503906 53.117188 101.21875 53.300781 101.035156 C 53.410156 100.925781 53.535156 100.839844 53.582031 100.839844 C 53.625 100.839844 53.78125 100.738281 53.929688 100.621094 C 54.078125 100.5 54.320312 100.3125 54.472656 100.207031 C 54.847656 99.9375 55.65625 99.324219 56.144531 98.941406 C 56.28125 98.832031 56.574219 98.585938 56.792969 98.394531 C 57.015625 98.199219 57.351562 97.933594 57.539062 97.808594 C 57.730469 97.679688 57.949219 97.519531 58.027344 97.453125 C 58.105469 97.386719 58.5 97.09375 58.902344 96.804688 C 59.75 96.195312 59.996094 96.003906 60.335938 95.703125 C 60.472656 95.582031 60.613281 95.484375 60.644531 95.484375 C 60.675781 95.484375 60.835938 95.375 60.996094 95.246094 C 61.15625 95.113281 61.375 94.941406 61.484375 94.859375 C 61.589844 94.777344 62.070312 94.398438 62.546875 94.015625 C 63.027344 93.636719 63.574219 93.21875 63.765625 93.089844 C 64.285156 92.742188 64.578125 92.53125 64.761719 92.371094 C 64.855469 92.289062 65.046875 92.136719 65.1875 92.03125 C 65.332031 91.921875 65.558594 91.734375 65.695312 91.617188 C 65.832031 91.496094 65.972656 91.398438 66.011719 91.398438 C 66.046875 91.398438 66.160156 91.320312 66.265625 91.226562 C 66.367188 91.128906 66.683594 90.886719 66.964844 90.679688 C 67.246094 90.476562 67.476562 90.269531 67.476562 90.21875 C 67.476562 90.171875 67.527344 90.132812 67.589844 90.132812 C 67.683594 90.132812 68.507812 89.550781 68.902344 89.207031 C 68.964844 89.152344 69.15625 89 69.332031 88.867188 C 69.503906 88.730469 69.71875 88.558594 69.804688 88.476562 C 69.890625 88.394531 70.09375 88.246094 70.253906 88.144531 C 70.414062 88.042969 70.582031 87.902344 70.625 87.828125 C 70.664062 87.757812 70.765625 87.699219 70.839844 87.699219 C 70.917969 87.699219 71.035156 87.609375 71.105469 87.503906 C 71.171875 87.394531 71.28125 87.308594 71.347656 87.308594 C 71.414062 87.308594 71.523438 87.222656 71.589844 87.113281 C 71.65625 87.007812 71.753906 86.917969 71.800781 86.917969 C 71.898438 86.917969 72.59375 86.410156 74.105469 85.234375 C 74.699219 84.773438 75.125 84.503906 75.199219 84.546875 C 75.355469 84.640625 76.082031 85.199219 76.148438 85.273438 C 76.175781 85.304688 76.417969 85.484375 76.691406 85.667969 C 76.964844 85.855469 77.25 86.058594 77.328125 86.125 C 77.402344 86.1875 77.636719 86.371094 77.851562 86.535156 C 78.066406 86.699219 78.308594 86.882812 78.390625 86.949219 C 78.46875 87.011719 78.777344 87.238281 79.070312 87.453125 C 79.367188 87.667969 79.691406 87.917969 79.792969 88.011719 C 79.898438 88.105469 80.058594 88.207031 80.152344 88.234375 C 80.242188 88.265625 80.34375 88.351562 80.375 88.433594 C 80.402344 88.511719 80.480469 88.574219 80.546875 88.574219 C 80.609375 88.574219 80.730469 88.640625 80.816406 88.722656 C 81.042969 88.941406 82.1875 89.835938 82.476562 90.019531 C 82.613281 90.105469 82.746094 90.203125 82.773438 90.238281 C 82.867188 90.359375 83.75 91.007812 83.824219 91.007812 C 83.863281 91.007812 83.949219 91.09375 84.019531 91.203125 C 84.085938 91.308594 84.191406 91.398438 84.253906 91.398438 C 84.3125 91.398438 84.433594 91.464844 84.519531 91.546875 C 84.738281 91.757812 85.972656 92.683594 86.484375 93.015625 C 86.984375 93.339844 87.308594 93.597656 87.601562 93.902344 C 87.71875 94.023438 87.847656 94.121094 87.890625 94.121094 C 87.929688 94.121094 88.0625 94.21875 88.1875 94.339844 C 88.308594 94.460938 88.511719 94.636719 88.636719 94.730469 C 88.761719 94.820312 89.023438 95.019531 89.222656 95.167969 C 90.226562 95.917969 90.871094 96.371094 91.003906 96.421875 C 91.082031 96.453125 91.335938 96.648438 91.566406 96.859375 C 91.792969 97.066406 92.058594 97.261719 92.152344 97.292969 C 92.246094 97.324219 92.320312 97.386719 92.320312 97.433594 C 92.320312 97.484375 92.402344 97.566406 92.503906 97.617188 C 92.765625 97.757812 92.652344 97.261719 91.976562 95.339844 C 91.675781 94.480469 91.261719 93.277344 91.054688 92.664062 C 90.714844 91.65625 89.828125 89.078125 87.984375 83.707031 C 86.464844 79.300781 85.71875 77.1875 84.433594 73.679688 C 83.085938 70.003906 82.515625 68.421875 82.222656 67.550781 C 82.140625 67.308594 82.035156 67.023438 81.984375 66.917969 C 81.9375 66.808594 81.816406 66.480469 81.71875 66.1875 C 81.617188 65.890625 80.890625 63.878906 80.097656 61.710938 C 79.308594 59.542969 78.574219 57.527344 78.46875 57.230469 C 78.367188 56.9375 78.171875 56.390625 78.035156 56.015625 C 77.902344 55.640625 77.730469 55.136719 77.652344 54.894531 C 77.574219 54.65625 77.46875 54.371094 77.414062 54.261719 C 77.359375 54.15625 77.253906 53.871094 77.175781 53.628906 C 76.929688 52.855469 76.636719 52.03125 76.539062 51.828125 C 76.230469 51.183594 75.046875 47.546875 74.484375 45.503906 C 73.871094 43.265625 73.527344 42.039062 73.222656 40.976562 C 73.125 40.628906 72.925781 39.929688 72.785156 39.417969 C 72.644531 38.910156 72.445312 38.210938 72.347656 37.863281 C 72.246094 37.515625 72.050781 36.8125 71.910156 36.304688 C 71.765625 35.796875 71.570312 35.09375 71.46875 34.746094 C 71.367188 34.398438 70.929688 32.84375 70.496094 31.292969 C 69.609375 28.113281 69.515625 27.847656 69.359375 28.046875 M 119.238281 47.183594 C 117.0625 47.199219 115.804688 47.242188 115.804688 47.304688 C 115.804688 47.367188 113.878906 47.402344 110.363281 47.402344 C 99.167969 47.402344 86.492188 47.527344 86.523438 47.636719 C 86.542969 47.695312 86.90625 48.835938 87.335938 50.175781 C 88.273438 53.101562 89.203125 56.027344 89.886719 58.207031 C 90.164062 59.089844 90.449219 59.988281 90.519531 60.199219 C 90.589844 60.414062 90.789062 61.050781 90.964844 61.613281 C 91.136719 62.175781 91.421875 63.070312 91.597656 63.605469 C 91.773438 64.144531 92.183594 65.433594 92.515625 66.480469 C 92.84375 67.523438 93.222656 68.695312 93.351562 69.082031 C 93.480469 69.472656 93.589844 69.855469 93.589844 69.933594 C 93.589844 70.015625 93.628906 70.078125 93.679688 70.078125 C 93.730469 70.078125 93.789062 70.179688 93.8125 70.300781 L 93.855469 70.519531 L 93.867188 70.300781 C 93.875 70.179688 93.917969 70.078125 93.960938 70.078125 C 94.027344 70.078125 95.34375 69.128906 95.703125 68.816406 C 95.769531 68.761719 95.933594 68.664062 96.070312 68.605469 C 96.207031 68.542969 96.316406 68.464844 96.316406 68.429688 C 96.316406 68.398438 96.460938 68.285156 96.632812 68.183594 C 96.808594 68.082031 96.996094 67.960938 97.046875 67.914062 C 97.101562 67.871094 97.714844 67.394531 98.410156 66.859375 C 99.109375 66.324219 99.769531 65.804688 99.882812 65.710938 C 99.992188 65.613281 100.453125 65.28125 100.902344 64.96875 C 101.355469 64.65625 101.855469 64.296875 102.015625 64.171875 C 102.179688 64.042969 102.410156 63.863281 102.535156 63.773438 C 102.660156 63.683594 102.84375 63.53125 102.949219 63.4375 C 103.054688 63.34375 103.179688 63.265625 103.234375 63.265625 C 103.289062 63.265625 103.386719 63.179688 103.453125 63.070312 C 103.519531 62.964844 103.609375 62.878906 103.65625 62.878906 C 103.722656 62.878906 104.1875 62.550781 104.84375 62.042969 C 104.949219 61.957031 105.257812 61.726562 105.53125 61.53125 C 105.800781 61.332031 106.085938 61.113281 106.164062 61.046875 C 106.242188 60.980469 106.632812 60.6875 107.035156 60.394531 C 107.921875 59.75 108.160156 59.570312 108.40625 59.347656 C 108.507812 59.253906 108.621094 59.179688 108.652344 59.179688 C 108.683594 59.179688 109 58.957031 109.355469 58.6875 C 109.714844 58.417969 110.363281 57.9375 110.796875 57.621094 C 111.226562 57.304688 111.726562 56.914062 111.902344 56.75 C 112.078125 56.585938 112.242188 56.453125 112.273438 56.453125 C 112.300781 56.453125 112.511719 56.300781 112.742188 56.113281 C 112.96875 55.925781 113.191406 55.773438 113.230469 55.773438 C 113.269531 55.773438 113.371094 55.707031 113.457031 55.628906 C 113.863281 55.261719 114.054688 55.109375 114.589844 54.75 C 114.910156 54.535156 115.214844 54.324219 115.269531 54.285156 C 115.320312 54.242188 115.714844 53.949219 116.144531 53.632812 C 116.574219 53.316406 116.996094 52.988281 117.078125 52.90625 C 117.164062 52.820312 117.285156 52.753906 117.34375 52.753906 C 117.40625 52.753906 117.5 52.667969 117.558594 52.558594 C 117.617188 52.453125 117.722656 52.363281 117.796875 52.363281 C 117.875 52.363281 118.015625 52.261719 118.113281 52.140625 C 118.210938 52.015625 118.421875 51.828125 118.582031 51.726562 C 118.742188 51.625 118.917969 51.503906 118.972656 51.464844 C 119.113281 51.355469 120.429688 50.394531 120.679688 50.222656 C 121.140625 49.898438 122.390625 48.953125 122.535156 48.8125 C 122.621094 48.734375 122.722656 48.667969 122.765625 48.667969 C 122.808594 48.667969 122.960938 48.566406 123.105469 48.449219 C 123.25 48.328125 123.507812 48.125 123.679688 47.996094 C 123.917969 47.8125 123.988281 47.6875 123.988281 47.433594 L 123.988281 47.109375 L 123.332031 47.132812 C 122.96875 47.144531 121.128906 47.167969 119.238281 47.183594 M 93.492188 98.277344 C 93.492188 98.335938 93.875 98.671875 94.34375 99.023438 C 94.8125 99.375 95.257812 99.714844 95.332031 99.78125 C 95.410156 99.847656 95.453125 99.855469 95.429688 99.792969 C 95.410156 99.738281 95.019531 99.417969 94.5625 99.085938 C 94.109375 98.753906 93.679688 98.410156 93.613281 98.328125 C 93.546875 98.242188 93.492188 98.21875 93.492188 98.277344 M 95.925781 100.195312 C 95.925781 100.214844 96.046875 100.308594 96.195312 100.402344 L 96.464844 100.578125 L 96.277344 100.367188 C 96.113281 100.179688 95.925781 100.089844 95.925781 100.195312 M 98.800781 102.347656 C 98.960938 102.484375 99.183594 102.644531 99.289062 102.699219 C 99.394531 102.757812 99.351562 102.6875 99.191406 102.550781 C 99.03125 102.410156 98.8125 102.25 98.703125 102.195312 C 98.597656 102.140625 98.640625 102.207031 98.800781 102.347656 M 99.53125 102.859375 C 99.53125 102.9375 100.1875 103.457031 100.585938 103.699219 C 100.910156 103.890625 100.566406 103.542969 100.222656 103.324219 C 100.019531 103.199219 99.78125 103.019531 99.695312 102.933594 C 99.605469 102.84375 99.53125 102.8125 99.53125 102.859375 M 102.164062 104.855469 C 102.164062 104.882812 102.503906 105.164062 102.917969 105.476562 C 103.332031 105.789062 103.695312 106.066406 103.722656 106.09375 C 103.972656 106.34375 104.136719 106.425781 104.019531 106.242188 C 103.949219 106.132812 103.648438 105.878906 103.347656 105.675781 C 103.042969 105.476562 102.652344 105.195312 102.480469 105.054688 C 102.304688 104.917969 102.164062 104.828125 102.164062 104.855469 M 104.257812 106.484375 C 104.289062 106.535156 104.414062 106.628906 104.53125 106.691406 C 104.742188 106.804688 104.742188 106.800781 104.558594 106.59375 C 104.375 106.386719 104.144531 106.300781 104.257812 106.484375 M 104.941406 106.96875 C 105.039062 107.078125 105.132812 107.164062 105.152344 107.164062 C 105.175781 107.164062 105.144531 107.078125 105.085938 106.96875 C 105.027344 106.863281 104.933594 106.777344 104.875 106.777344 C 104.8125 106.777344 104.84375 106.863281 104.941406 106.96875 " fill-opacity="1" fill-rule="evenodd"/><path fill="rgb(1.568604%, 44.309998%, 1.568604%)" d="M 87.214844 50.027344 C 87.25 50.164062 87.320312 50.339844 87.371094 50.417969 C 87.433594 50.519531 87.441406 50.488281 87.394531 50.320312 C 87.359375 50.1875 87.289062 50.011719 87.238281 49.929688 C 87.175781 49.832031 87.167969 49.859375 87.214844 50.027344 M 79.027344 58.789062 C 79.066406 58.921875 79.136719 59.097656 79.183594 59.179688 C 79.246094 59.28125 79.253906 59.25 79.210938 59.082031 C 79.175781 58.949219 79.105469 58.773438 79.054688 58.691406 C 78.992188 58.589844 78.984375 58.621094 79.027344 58.789062 M 93.613281 70.226562 C 93.542969 70.351562 93.542969 70.488281 93.613281 70.65625 C 93.667969 70.796875 93.746094 70.996094 93.785156 71.101562 C 93.828125 71.210938 94.046875 71.867188 94.277344 72.5625 C 94.503906 73.257812 94.734375 73.9375 94.785156 74.070312 C 94.902344 74.359375 94.910156 74.378906 95.0625 74.945312 C 95.128906 75.1875 95.207031 75.40625 95.238281 75.433594 C 95.273438 75.460938 95.359375 75.722656 95.429688 76.019531 C 95.503906 76.3125 95.597656 76.597656 95.640625 76.652344 C 95.679688 76.703125 95.789062 77.03125 95.878906 77.378906 C 95.96875 77.726562 96.078125 78.058594 96.117188 78.109375 C 96.160156 78.164062 96.222656 78.359375 96.257812 78.546875 C 96.289062 78.734375 96.382812 79.011719 96.460938 79.160156 C 96.539062 79.308594 96.628906 79.585938 96.664062 79.769531 C 96.699219 79.953125 96.761719 80.105469 96.804688 80.105469 C 96.847656 80.105469 96.859375 80.191406 96.832031 80.300781 C 96.796875 80.441406 96.828125 80.496094 96.949219 80.496094 C 97.089844 80.496094 97.097656 80.519531 97 80.640625 C 96.890625 80.773438 97.117188 80.996094 97.238281 80.871094 C 97.265625 80.84375 96.433594 78.1875 96.144531 77.378906 C 96.117188 77.300781 96.082031 77.183594 96.070312 77.125 C 96.054688 77.066406 95.976562 76.867188 95.894531 76.6875 C 95.8125 76.507812 95.695312 76.175781 95.640625 75.953125 C 95.582031 75.730469 95.46875 75.421875 95.390625 75.273438 C 95.3125 75.121094 95.246094 74.9375 95.246094 74.867188 C 95.246094 74.792969 95.140625 74.421875 95.015625 74.039062 C 94.886719 73.65625 94.726562 73.144531 94.65625 72.902344 C 94.585938 72.660156 94.496094 72.421875 94.460938 72.367188 C 94.421875 72.3125 94.359375 72.117188 94.320312 71.929688 C 94.28125 71.742188 94.191406 71.457031 94.121094 71.296875 C 94.046875 71.136719 93.929688 70.789062 93.855469 70.523438 C 93.734375 70.105469 93.703125 70.066406 93.613281 70.226562 M 85.617188 76.941406 C 85.765625 77.402344 86.121094 78.253906 86.15625 78.21875 C 86.210938 78.164062 85.984375 77.34375 85.898438 77.28125 C 85.859375 77.257812 85.773438 77.148438 85.707031 77.039062 C 85.640625 76.933594 85.601562 76.890625 85.617188 76.941406 M 86.183594 78.378906 C 86.183594 78.46875 86.71875 80.058594 87.746094 83.027344 C 88.234375 84.445312 88.90625 86.386719 89.234375 87.34375 C 89.5625 88.304688 89.84375 89.039062 89.863281 88.984375 C 89.894531 88.890625 89.296875 86.988281 89.109375 86.578125 C 89.058594 86.472656 88.953125 86.164062 88.871094 85.898438 C 88.792969 85.628906 88.421875 84.535156 88.054688 83.464844 C 87.683594 82.394531 87.355469 81.453125 87.328125 81.371094 C 87.300781 81.289062 87.125 80.789062 86.933594 80.25 C 86.742188 79.714844 86.535156 79.101562 86.472656 78.890625 C 86.367188 78.542969 86.183594 78.214844 86.183594 78.378906 M 97.148438 81.296875 C 97.1875 81.472656 97.25 81.660156 97.292969 81.710938 C 97.335938 81.765625 97.375 81.84375 97.378906 81.882812 C 97.398438 82.121094 97.519531 82.441406 97.585938 82.441406 C 97.628906 82.441406 97.640625 82.53125 97.613281 82.636719 C 97.574219 82.777344 97.609375 82.832031 97.730469 82.832031 C 97.878906 82.832031 97.882812 82.851562 97.765625 82.992188 C 97.660156 83.121094 97.660156 83.164062 97.753906 83.195312 C 97.820312 83.21875 97.875 83.320312 97.875 83.421875 C 97.875 83.527344 97.921875 83.609375 97.980469 83.609375 C 98.039062 83.609375 98.058594 83.691406 98.027344 83.792969 C 97.984375 83.921875 98.023438 83.988281 98.160156 84.023438 C 98.347656 84.074219 98.351562 83.917969 98.167969 83.660156 C 98.128906 83.605469 98.042969 83.320312 97.972656 83.027344 C 97.90625 82.730469 97.816406 82.445312 97.777344 82.394531 C 97.738281 82.339844 97.652344 82.066406 97.585938 81.785156 C 97.519531 81.503906 97.433594 81.296875 97.386719 81.324219 C 97.34375 81.347656 97.332031 81.285156 97.359375 81.175781 C 97.398438 81.039062 97.363281 80.980469 97.246094 80.980469 C 97.109375 80.980469 97.09375 81.039062 97.148438 81.296875 M 98.195312 84.332031 C 98.296875 84.410156 98.34375 84.523438 98.304688 84.621094 C 98.273438 84.707031 98.292969 84.777344 98.351562 84.777344 C 98.414062 84.777344 98.460938 84.714844 98.460938 84.640625 C 98.460938 84.382812 98.34375 84.195312 98.183594 84.195312 C 98.039062 84.199219 98.042969 84.214844 98.195312 84.332031 M 98.609375 85.296875 C 98.558594 85.410156 98.574219 85.503906 98.644531 85.550781 C 98.707031 85.589844 98.730469 85.695312 98.695312 85.785156 C 98.660156 85.878906 98.683594 85.945312 98.75 85.945312 C 98.820312 85.945312 98.839844 86.019531 98.800781 86.140625 C 98.757812 86.273438 98.785156 86.335938 98.882812 86.335938 C 99.007812 86.335938 99.007812 86.277344 98.902344 85.921875 C 98.832031 85.691406 98.753906 85.417969 98.730469 85.3125 C 98.6875 85.128906 98.683594 85.128906 98.609375 85.296875 M 98.949219 86.578125 C 98.949219 86.660156 98.996094 86.722656 99.050781 86.722656 C 99.109375 86.722656 99.128906 86.804688 99.097656 86.90625 C 99.0625 87.019531 99.09375 87.113281 99.175781 87.144531 C 99.289062 87.1875 99.296875 87.128906 99.214844 86.8125 C 99.121094 86.441406 98.949219 86.289062 98.949219 86.578125 M 99.730469 88.921875 C 99.730469 88.980469 99.761719 89.058594 99.800781 89.101562 C 99.839844 89.140625 99.871094 89.242188 99.871094 89.328125 C 99.875 89.410156 99.929688 89.492188 99.996094 89.507812 C 100.066406 89.519531 100.078125 89.511719 100.027344 89.484375 C 99.976562 89.457031 99.953125 89.382812 99.980469 89.320312 C 100.003906 89.253906 99.957031 89.113281 99.878906 89.007812 C 99.800781 88.902344 99.730469 88.863281 99.730469 88.921875 M 89.886719 89.199219 C 89.886719 89.296875 90.667969 91.527344 90.71875 91.582031 C 90.796875 91.65625 90.675781 91.15625 90.5 90.667969 C 90.421875 90.453125 90.289062 90.027344 90.199219 89.71875 C 90.074219 89.273438 89.886719 88.964844 89.886719 89.199219 M 90.761719 91.742188 C 90.761719 91.796875 91.027344 92.605469 91.355469 93.539062 C 92.492188 96.824219 92.613281 97.191406 92.613281 97.402344 C 92.613281 97.523438 92.707031 97.667969 92.816406 97.726562 C 92.929688 97.785156 93.113281 97.921875 93.230469 98.027344 C 93.644531 98.402344 93.746094 98.480469 94.527344 99.058594 C 94.960938 99.378906 95.378906 99.6875 95.453125 99.75 C 95.804688 100.042969 96.523438 100.546875 96.585938 100.546875 C 96.628906 100.546875 96.714844 100.632812 96.78125 100.742188 C 96.847656 100.847656 96.96875 100.9375 97.046875 100.9375 C 97.125 100.9375 97.234375 101.023438 97.292969 101.128906 C 97.347656 101.238281 97.441406 101.324219 97.5 101.324219 C 97.558594 101.324219 97.722656 101.421875 97.867188 101.542969 C 98.011719 101.664062 98.253906 101.851562 98.402344 101.957031 C 98.75 102.207031 99.332031 102.652344 99.578125 102.855469 C 99.683594 102.945312 99.925781 103.121094 100.113281 103.246094 C 100.457031 103.480469 100.988281 103.90625 101.457031 104.316406 C 101.59375 104.4375 101.738281 104.539062 101.78125 104.539062 C 101.824219 104.539062 101.914062 104.59375 101.984375 104.660156 C 102.058594 104.730469 102.488281 105.058594 102.941406 105.390625 C 103.398438 105.71875 103.859375 106.082031 103.96875 106.1875 C 104.078125 106.296875 104.214844 106.386719 104.269531 106.386719 C 104.328125 106.386719 104.453125 106.472656 104.550781 106.582031 C 104.648438 106.6875 104.789062 106.777344 104.859375 106.777344 C 104.933594 106.777344 105.019531 106.839844 105.050781 106.914062 C 105.136719 107.148438 105.574219 107.398438 105.574219 107.21875 C 105.574219 107.140625 105.210938 106.800781 104.769531 106.46875 C 103.699219 105.65625 99.9375 102.835938 99.636719 102.617188 C 99.507812 102.523438 99.175781 102.265625 98.90625 102.050781 C 98.445312 101.683594 97.933594 101.292969 95.539062 99.5 C 94.011719 98.359375 93.386719 97.882812 93.089844 97.640625 C 92.890625 97.480469 92.75 97.214844 92.601562 96.71875 C 92.488281 96.332031 92.371094 95.980469 92.339844 95.929688 C 92.269531 95.804688 91.265625 92.921875 91.082031 92.320312 C 90.945312 91.859375 90.761719 91.535156 90.761719 91.742188 M 100.933594 92.296875 C 100.941406 92.445312 100.976562 92.566406 101.019531 92.566406 C 101.058594 92.566406 101.09375 92.640625 101.097656 92.734375 C 101.101562 92.828125 101.128906 92.855469 101.152344 92.792969 C 101.175781 92.734375 101.136719 92.535156 101.058594 92.355469 C 100.925781 92.039062 100.921875 92.039062 100.933594 92.296875 M 101.40625 93.757812 C 101.464844 93.984375 101.550781 94.214844 101.605469 94.269531 C 101.671875 94.332031 101.683594 94.300781 101.636719 94.171875 C 101.597656 94.0625 101.539062 93.855469 101.511719 93.707031 C 101.480469 93.558594 101.421875 93.417969 101.382812 93.390625 C 101.339844 93.367188 101.351562 93.53125 101.40625 93.757812 " fill-opacity="1" fill-rule="evenodd"/><path fill="rgb(1.568604%, 1.568604%, 1.568604%)" d="M 38.464844 135.953125 C 38.464844 136.308594 38.402344 136.636719 38.269531 136.9375 C 38.152344 137.25 37.980469 137.515625 37.753906 137.730469 C 37.539062 137.957031 37.28125 138.128906 36.976562 138.246094 C 36.664062 138.375 36.335938 138.441406 35.992188 138.441406 L 18.199219 138.441406 C 17.746094 138.441406 17.261719 138.386719 16.746094 138.28125 C 16.214844 138.171875 15.699219 138.003906 15.191406 137.777344 C 14.675781 137.550781 14.183594 137.257812 13.71875 136.890625 C 13.246094 136.535156 12.832031 136.105469 12.472656 135.597656 C 12.117188 135.082031 11.832031 134.484375 11.617188 133.804688 C 11.402344 133.136719 11.292969 132.378906 11.292969 131.527344 L 11.292969 118.195312 C 11.292969 117.746094 11.347656 117.253906 11.457031 116.726562 C 11.5625 116.210938 11.730469 115.691406 11.957031 115.175781 C 12.183594 114.667969 12.480469 114.183594 12.847656 113.722656 C 13.214844 113.246094 13.648438 112.832031 14.15625 112.476562 C 14.675781 112.109375 15.265625 111.820312 15.9375 111.605469 C 16.605469 111.398438 17.359375 111.296875 18.199219 111.296875 L 38.238281 111.296875 L 38.238281 116.210938 L 18.199219 116.210938 C 17.5625 116.210938 17.074219 116.382812 16.726562 116.726562 C 16.382812 117.058594 16.210938 117.566406 16.210938 118.246094 L 16.210938 131.527344 C 16.210938 132.160156 16.386719 132.652344 16.746094 132.996094 C 17.089844 133.339844 17.574219 133.511719 18.199219 133.511719 L 33.53125 133.511719 L 33.53125 127.339844 L 20.433594 127.339844 L 20.433594 122.382812 L 35.992188 122.382812 C 36.335938 122.382812 36.664062 122.453125 36.976562 122.589844 C 37.28125 122.71875 37.539062 122.898438 37.753906 123.125 C 37.980469 123.351562 38.152344 123.613281 38.269531 123.917969 C 38.402344 124.207031 38.464844 124.523438 38.464844 124.871094 Z M 48.570312 122.382812 L 65.875 122.382812 L 65.875 111.296875 L 70.808594 111.296875 L 70.808594 138.441406 L 65.875 138.441406 L 65.875 127.339844 L 48.570312 127.339844 L 48.570312 138.441406 L 43.636719 138.441406 L 43.636719 111.296875 L 48.570312 111.296875 Z M 100.902344 138.441406 L 83.113281 138.441406 C 82.660156 138.441406 82.175781 138.386719 81.65625 138.28125 C 81.128906 138.171875 80.609375 138.003906 80.105469 137.777344 C 79.585938 137.550781 79.097656 137.257812 78.632812 136.890625 C 78.15625 136.535156 77.742188 136.105469 77.386719 135.597656 C 77.03125 135.082031 76.746094 134.484375 76.53125 133.804688 C 76.3125 133.136719 76.207031 132.378906 76.207031 131.527344 L 76.207031 118.195312 C 76.207031 117.746094 76.261719 117.253906 76.367188 116.726562 C 76.476562 116.210938 76.644531 115.691406 76.871094 115.175781 C 77.097656 114.667969 77.394531 114.183594 77.757812 113.722656 C 78.125 113.246094 78.5625 112.832031 79.070312 112.476562 C 79.585938 112.109375 80.179688 111.820312 80.847656 111.605469 C 81.515625 111.398438 82.273438 111.296875 83.113281 111.296875 L 100.902344 111.296875 L 100.902344 116.210938 L 83.113281 116.210938 C 82.476562 116.210938 81.984375 116.382812 81.640625 116.726562 C 81.296875 117.058594 81.125 117.566406 81.125 118.246094 L 81.125 131.527344 C 81.125 132.160156 81.300781 132.652344 81.65625 132.996094 C 82.003906 133.339844 82.488281 133.511719 83.113281 133.511719 L 100.902344 133.511719 Z M 137.199219 138.441406 L 132.234375 138.441406 L 132.234375 122.269531 L 123.5 137.632812 C 123.285156 138.019531 122.980469 138.316406 122.59375 138.523438 C 122.207031 138.714844 121.789062 138.8125 121.347656 138.8125 C 120.917969 138.8125 120.519531 138.714844 120.152344 138.523438 C 119.773438 138.316406 119.476562 138.019531 119.261719 137.632812 L 110.496094 122.269531 L 110.496094 138.441406 L 105.5625 138.441406 L 105.5625 113.398438 C 105.5625 112.828125 105.730469 112.320312 106.0625 111.878906 C 106.398438 111.4375 106.835938 111.140625 107.375 110.992188 C 107.644531 110.925781 107.914062 110.90625 108.183594 110.925781 C 108.441406 110.9375 108.695312 110.992188 108.941406 111.085938 C 109.191406 111.183594 109.417969 111.320312 109.621094 111.492188 C 109.816406 111.664062 109.984375 111.867188 110.125 112.105469 L 121.347656 131.589844 L 132.574219 112.105469 C 132.863281 111.621094 133.261719 111.28125 133.769531 111.085938 C 134.285156 110.882812 134.820312 110.851562 135.371094 110.992188 C 135.910156 111.140625 136.347656 111.4375 136.679688 111.878906 C 137.027344 112.320312 137.199219 112.828125 137.199219 113.398438 Z M 137.199219 138.441406 " fill-opacity="1" fill-rule="nonzero"/><path fill="rgb(1.568604%, 1.568604%, 1.568604%)" d="M 150.035156 149.921875 L 0.0351562 149.921875 L 0.0351562 0.078125 L 150.035156 0.078125 Z M 8.523438 141.441406 L 141.546875 141.441406 L 141.546875 8.558594 L 8.523438 8.558594 Z M 8.523438 141.441406 " fill-opacity="1" fill-rule="nonzero"/></svg>