<svg xmlns="http://www.w3.org/2000/svg" xmlns:xlink="http://www.w3.org/1999/xlink" width="144" zoomAndPan="magnify" viewBox="0 0 108 107.999999" height="144" preserveAspectRatio="xMidYMid meet" version="1.0"><defs><clipPath id="id1"><path d="M 0 1 L 108 1 L 108 107.25 L 0 107.25 Z M 0 1 " clip-rule="nonzero"/></clipPath></defs><path fill="rgb(100%, 100%, 100%)" d="M 73.445312 78.722656 L 69.027344 78.722656 C 68.5 78.722656 68.074219 78.269531 68.074219 77.710938 L 68.074219 63.578125 L 40.234375 63.578125 L 40.234375 77.710938 C 40.234375 78.269531 39.804688 78.722656 39.28125 78.722656 L 34.859375 78.722656 C 34.335938 78.722656 33.90625 78.269531 33.90625 77.710938 L 33.90625 30.621094 C 33.90625 30.0625 34.335938 29.609375 34.859375 29.609375 L 39.28125 29.609375 C 39.804688 29.609375 40.234375 30.0625 40.234375 30.621094 L 40.234375 44.390625 L 68.074219 44.390625 L 68.074219 30.621094 C 68.074219 30.0625 68.5 29.609375 69.027344 29.609375 L 73.445312 29.609375 C 73.972656 29.609375 74.398438 30.0625 74.398438 30.621094 L 74.398438 77.710938 C 74.398438 78.269531 73.972656 78.722656 73.445312 78.722656 Z M 40.53125 57.910156 L 68.371094 57.910156 L 68.371094 50.085938 L 40.53125 50.085938 Z M 40.53125 57.910156 " fill-opacity="1" fill-rule="nonzero"/><g clip-path="url(#id1)"><path fill="rgb(100%, 100%, 100%)" d="M 105.5625 40.433594 C 101.882812 26.742188 93.074219 15.296875 80.765625 8.210938 C 68.453125 1.125 54.109375 -0.757812 40.378906 2.910156 C 26.644531 6.578125 15.167969 15.359375 8.0625 27.632812 C 0.953125 39.910156 -0.933594 54.207031 2.746094 67.898438 C 6.421875 81.589844 15.230469 93.03125 27.542969 100.121094 C 35.742188 104.839844 44.84375 107.25 54.066406 107.25 C 58.6875 107.25 63.34375 106.644531 67.925781 105.421875 C 81.660156 101.753906 93.136719 92.972656 100.246094 80.699219 C 107.351562 68.421875 109.242188 54.121094 105.5625 40.433594 Z M 102.765625 65.417969 L 99.0625 64.425781 C 98.167969 64.1875 97.253906 64.714844 97.015625 65.601562 C 96.777344 66.492188 97.304688 67.40625 98.195312 67.640625 L 101.894531 68.628906 C 100.792969 72.214844 99.28125 75.703125 97.351562 79.03125 C 95.429688 82.355469 93.164062 85.398438 90.605469 88.136719 L 88.1875 85.726562 C 88.113281 85.601562 88.023438 85.480469 87.917969 85.371094 C 87.265625 84.71875 86.207031 84.71875 85.550781 85.367188 L 85.511719 85.40625 C 85.195312 85.71875 85.019531 86.140625 85.019531 86.585938 C 85.019531 87.027344 85.195312 87.453125 85.507812 87.765625 L 88.25 90.5 C 82.734375 95.65625 76.074219 99.503906 68.667969 101.746094 L 67.671875 98.039062 C 67.558594 97.613281 67.277344 97.25 66.890625 97.027344 C 66.507812 96.808594 66.050781 96.75 65.621094 96.863281 L 65.570312 96.878906 C 64.679688 97.117188 64.148438 98.027344 64.382812 98.917969 C 64.425781 99.070312 64.488281 99.214844 64.566406 99.34375 L 65.441406 102.605469 C 57.910156 104.359375 50.21875 104.347656 42.855469 102.632812 L 43.851562 98.933594 C 44.089844 98.046875 43.558594 97.132812 42.667969 96.894531 C 41.777344 96.660156 40.863281 97.183594 40.625 98.074219 L 39.632812 101.761719 C 36.039062 100.664062 32.546875 99.15625 29.210938 97.238281 C 25.875 95.316406 22.816406 93.054688 20.066406 90.496094 L 22.808594 87.765625 C 23.460938 87.113281 23.460938 86.0625 22.808594 85.410156 L 22.761719 85.367188 C 22.109375 84.714844 21.050781 84.714844 20.402344 85.367188 C 20.289062 85.476562 20.195312 85.601562 20.121094 85.734375 L 17.699219 88.148438 C 12.527344 82.648438 8.671875 76.011719 6.429688 68.628906 L 10.117188 67.640625 C 11.007812 67.40625 11.539062 66.492188 11.300781 65.601562 C 11.0625 64.714844 10.144531 64.1875 9.253906 64.425781 L 5.566406 65.410156 C 3.808594 57.898438 3.820312 50.230469 5.542969 42.890625 L 9.378906 43.914062 C 9.523438 43.953125 9.667969 43.972656 9.8125 43.972656 C 10.550781 43.972656 11.222656 43.480469 11.421875 42.738281 C 11.664062 41.847656 11.132812 40.9375 10.242188 40.699219 L 6.417969 39.675781 C 7.515625 36.097656 9.03125 32.621094 10.953125 29.296875 C 12.878906 25.96875 15.152344 22.917969 17.714844 20.175781 L 20.5 22.949219 C 20.824219 23.273438 21.25 23.4375 21.679688 23.4375 C 22.105469 23.4375 22.535156 23.273438 22.859375 22.949219 C 23.511719 22.300781 23.511719 21.246094 22.859375 20.59375 L 20.074219 17.816406 C 25.585938 12.664062 32.238281 8.824219 39.636719 6.585938 L 40.652344 10.363281 C 40.851562 11.105469 41.527344 11.597656 42.265625 11.597656 C 42.40625 11.597656 42.550781 11.578125 42.695312 11.539062 C 43.585938 11.300781 44.117188 10.386719 43.878906 9.5 L 42.863281 5.722656 C 46.632812 4.84375 50.445312 4.410156 54.234375 4.410156 C 58.015625 4.410156 61.773438 4.84375 65.449219 5.699219 L 64.421875 9.519531 C 64.183594 10.40625 64.710938 11.320312 65.601562 11.558594 C 65.75 11.597656 65.894531 11.617188 66.035156 11.617188 C 66.773438 11.617188 67.449219 11.125 67.648438 10.382812 L 68.671875 6.566406 C 72.265625 7.664062 75.757812 9.175781 79.09375 11.09375 C 82.425781 13.011719 85.484375 15.273438 88.230469 17.828125 L 85.457031 20.59375 C 84.804688 21.246094 84.804688 22.300781 85.457031 22.949219 C 85.78125 23.273438 86.207031 23.4375 86.636719 23.4375 C 87.0625 23.4375 87.492188 23.273438 87.816406 22.949219 L 90.597656 20.175781 C 95.769531 25.671875 99.625 32.304688 101.871094 39.683594 L 98.074219 40.699219 C 97.179688 40.9375 96.652344 41.847656 96.890625 42.738281 C 97.089844 43.480469 97.765625 43.972656 98.503906 43.972656 C 98.644531 43.972656 98.792969 43.953125 98.9375 43.914062 L 102.734375 42.898438 C 104.496094 50.410156 104.484375 58.078125 102.765625 65.417969 Z M 102.765625 65.417969 " fill-opacity="1" fill-rule="nonzero"/></g><path fill="rgb(100%, 100%, 100%)" d="M 100.125 52.550781 L 96.390625 52.550781 C 96.269531 49.472656 95.808594 46.359375 94.976562 43.257812 C 94.148438 40.171875 92.992188 37.261719 91.558594 34.542969 L 94.761719 32.699219 C 95.5625 32.242188 95.835938 31.222656 95.375 30.425781 C 94.914062 29.628906 93.890625 29.355469 93.09375 29.816406 L 89.890625 31.660156 C 86.492188 26.304688 81.957031 21.855469 76.707031 18.554688 L 78.582031 15.320312 C 79.042969 14.523438 78.769531 13.503906 77.96875 13.042969 C 77.171875 12.585938 76.148438 12.859375 75.6875 13.652344 L 73.8125 16.890625 C 68.316406 14.003906 62.175781 12.3125 55.820312 12.058594 L 55.820312 8.378906 C 55.820312 7.457031 55.074219 6.710938 54.152344 6.710938 C 53.230469 6.710938 52.480469 7.457031 52.480469 8.378906 L 52.480469 12.058594 C 49.410156 12.179688 46.304688 12.636719 43.214844 13.460938 C 40.125 14.289062 37.207031 15.4375 34.484375 16.863281 L 32.628906 13.652344 C 32.164062 12.855469 31.144531 12.585938 30.347656 13.042969 C 29.546875 13.503906 29.273438 14.523438 29.734375 15.320312 L 31.59375 18.527344 C 26.21875 21.914062 21.753906 26.433594 18.441406 31.671875 L 15.222656 29.816406 C 14.421875 29.355469 13.402344 29.628906 12.941406 30.425781 C 12.480469 31.222656 12.753906 32.242188 13.550781 32.699219 L 16.769531 34.554688 C 13.867188 40.050781 12.167969 46.191406 11.917969 52.550781 L 8.175781 52.550781 C 7.253906 52.550781 6.503906 53.296875 6.503906 54.214844 C 6.503906 55.136719 7.253906 55.882812 8.175781 55.882812 L 11.921875 55.882812 C 12.046875 58.925781 12.503906 62.007812 13.328125 65.070312 C 14.160156 68.164062 15.320312 71.082031 16.753906 73.800781 L 13.566406 75.636719 C 12.769531 76.097656 12.496094 77.113281 12.957031 77.910156 C 13.265625 78.445312 13.828125 78.742188 14.40625 78.742188 C 14.6875 78.742188 14.976562 78.671875 15.238281 78.519531 L 18.425781 76.683594 C 21.824219 82.035156 26.355469 86.480469 31.605469 89.78125 L 29.949219 92.640625 C 29.839844 92.746094 29.742188 92.871094 29.664062 93.007812 C 29.203125 93.804688 29.480469 94.824219 30.277344 95.28125 L 30.335938 95.3125 C 30.597656 95.464844 30.882812 95.535156 31.164062 95.535156 C 31.742188 95.535156 32.300781 95.234375 32.613281 94.699219 L 34.496094 91.445312 C 39.992188 94.328125 46.128906 96.015625 52.480469 96.269531 L 52.480469 100.054688 C 52.480469 100.972656 53.230469 101.71875 54.152344 101.71875 C 55.074219 101.71875 55.820312 100.972656 55.820312 100.054688 L 55.820312 96.273438 C 58.894531 96.152344 62 95.695312 65.089844 94.867188 C 68.183594 94.042969 71.105469 92.890625 73.828125 91.460938 L 75.703125 94.699219 C 76.011719 95.234375 76.574219 95.53125 77.152344 95.53125 C 77.433594 95.53125 77.722656 95.460938 77.984375 95.3125 L 78.035156 95.28125 C 78.835938 94.824219 79.109375 93.808594 78.652344 93.007812 C 78.574219 92.875 78.476562 92.753906 78.371094 92.648438 L 76.722656 89.796875 C 82.089844 86.414062 86.546875 81.894531 89.859375 76.667969 L 93.078125 78.519531 C 93.339844 78.671875 93.628906 78.742188 93.910156 78.742188 C 94.488281 78.742188 95.046875 78.445312 95.359375 77.910156 C 95.820312 77.113281 95.546875 76.097656 94.746094 75.636719 L 91.53125 73.785156 C 94.421875 68.3125 96.125 62.207031 96.386719 55.882812 L 100.125 55.882812 C 101.046875 55.882812 101.796875 55.136719 101.796875 54.214844 C 101.796875 53.296875 101.046875 52.550781 100.125 52.550781 Z M 73.65625 87.753906 C 73.644531 87.761719 73.632812 87.765625 73.621094 87.773438 C 73.605469 87.78125 73.59375 87.789062 73.578125 87.796875 C 70.707031 89.449219 67.578125 90.757812 64.226562 91.652344 C 60.863281 92.550781 57.488281 92.980469 54.160156 92.980469 C 40.347656 92.980469 27.449219 85.578125 20.503906 73.679688 C 20.488281 73.648438 20.476562 73.621094 20.457031 73.59375 C 20.441406 73.5625 20.421875 73.53125 20.402344 73.503906 C 18.753906 70.648438 17.449219 67.539062 16.554688 64.210938 C 15.691406 61 15.261719 57.769531 15.226562 54.589844 C 15.253906 54.46875 15.269531 54.34375 15.269531 54.214844 C 15.269531 54.089844 15.253906 53.964844 15.226562 53.847656 C 15.371094 36.839844 26.816406 21.289062 44.078125 16.679688 C 47.441406 15.78125 50.816406 15.351562 54.144531 15.351562 C 71.328125 15.351562 87.097656 26.804688 91.75 44.121094 C 96.402344 61.421875 88.507812 79.175781 73.65625 87.753906 Z M 73.65625 87.753906 " fill-opacity="1" fill-rule="nonzero"/></svg>