<svg xmlns="http://www.w3.org/2000/svg" xmlns:xlink="http://www.w3.org/1999/xlink" width="1080" zoomAndPan="magnify" viewBox="0 0 810 809.999993" height="1080" preserveAspectRatio="xMidYMid meet" version="1.0"><path fill="rgb(80.778503%, 66.668701%, 50.19989%)" d="M 344.054688 216.320312 C 344.054688 217.003906 344.023438 217.6875 343.957031 218.367188 C 343.890625 219.050781 343.789062 219.726562 343.65625 220.398438 C 343.519531 221.070312 343.355469 221.734375 343.15625 222.386719 C 342.957031 223.042969 342.726562 223.6875 342.464844 224.320312 C 342.203125 224.953125 341.910156 225.570312 341.585938 226.175781 C 341.265625 226.777344 340.914062 227.363281 340.53125 227.933594 C 340.152344 228.503906 339.746094 229.050781 339.3125 229.582031 C 338.875 230.109375 338.417969 230.617188 337.933594 231.101562 C 337.449219 231.585938 336.941406 232.046875 336.414062 232.480469 C 335.882812 232.914062 335.332031 233.320312 334.765625 233.703125 C 334.195312 234.082031 333.609375 234.433594 333.003906 234.757812 C 332.402344 235.078125 331.78125 235.371094 331.148438 235.632812 C 330.515625 235.894531 329.871094 236.125 329.21875 236.324219 C 328.5625 236.523438 327.898438 236.691406 327.226562 236.824219 C 326.554688 236.957031 325.878906 237.058594 325.199219 237.125 C 324.515625 237.191406 323.832031 237.226562 323.148438 237.226562 C 322.464844 237.226562 321.78125 237.191406 321.097656 237.125 C 320.417969 237.058594 319.742188 236.957031 319.070312 236.824219 C 318.398438 236.691406 317.734375 236.523438 317.078125 236.324219 C 316.425781 236.125 315.78125 235.894531 315.148438 235.632812 C 314.515625 235.371094 313.898438 235.078125 313.292969 234.757812 C 312.6875 234.433594 312.101562 234.082031 311.53125 233.703125 C 310.964844 233.320312 310.414062 232.914062 309.882812 232.480469 C 309.355469 232.046875 308.847656 231.585938 308.363281 231.101562 C 307.878906 230.617188 307.421875 230.109375 306.988281 229.582031 C 306.550781 229.050781 306.144531 228.503906 305.765625 227.933594 C 305.382812 227.363281 305.03125 226.777344 304.710938 226.175781 C 304.386719 225.570312 304.09375 224.953125 303.832031 224.320312 C 303.570312 223.6875 303.339844 223.042969 303.140625 222.386719 C 302.941406 221.734375 302.777344 221.070312 302.640625 220.398438 C 302.507812 219.726562 302.410156 219.050781 302.339844 218.367188 C 302.273438 217.6875 302.242188 217.003906 302.242188 216.320312 C 302.242188 215.632812 302.273438 214.953125 302.339844 214.269531 C 302.410156 213.589844 302.507812 212.910156 302.640625 212.242188 C 302.777344 211.570312 302.941406 210.90625 303.140625 210.25 C 303.339844 209.59375 303.570312 208.953125 303.832031 208.320312 C 304.09375 207.6875 304.386719 207.066406 304.710938 206.464844 C 305.03125 205.859375 305.382812 205.273438 305.765625 204.703125 C 306.144531 204.136719 306.550781 203.585938 306.988281 203.054688 C 307.421875 202.527344 307.878906 202.019531 308.363281 201.535156 C 308.847656 201.050781 309.355469 200.59375 309.882812 200.160156 C 310.414062 199.722656 310.964844 199.316406 311.53125 198.9375 C 312.101562 198.554688 312.6875 198.203125 313.292969 197.882812 C 313.898438 197.558594 314.515625 197.265625 315.148438 197.003906 C 315.78125 196.742188 316.425781 196.511719 317.078125 196.3125 C 317.734375 196.113281 318.398438 195.949219 319.070312 195.816406 C 319.742188 195.679688 320.417969 195.582031 321.097656 195.515625 C 321.78125 195.445312 322.464844 195.414062 323.148438 195.414062 C 323.832031 195.414062 324.515625 195.445312 325.199219 195.515625 C 325.878906 195.582031 326.554688 195.679688 327.226562 195.816406 C 327.898438 195.949219 328.5625 196.113281 329.21875 196.3125 C 329.871094 196.511719 330.515625 196.742188 331.148438 197.003906 C 331.78125 197.265625 332.402344 197.558594 333.003906 197.882812 C 333.609375 198.203125 334.195312 198.554688 334.765625 198.9375 C 335.332031 199.316406 335.882812 199.722656 336.414062 200.160156 C 336.941406 200.59375 337.449219 201.050781 337.933594 201.535156 C 338.417969 202.019531 338.875 202.527344 339.3125 203.054688 C 339.746094 203.585938 340.152344 204.136719 340.53125 204.703125 C 340.914062 205.273438 341.265625 205.859375 341.585938 206.464844 C 341.910156 207.066406 342.203125 207.6875 342.464844 208.320312 C 342.726562 208.953125 342.957031 209.59375 343.15625 210.25 C 343.355469 210.90625 343.519531 211.570312 343.65625 212.242188 C 343.789062 212.910156 343.890625 213.589844 343.957031 214.269531 C 344.023438 214.953125 344.054688 215.632812 344.054688 216.320312 Z M 344.054688 216.320312 " fill-opacity="1" fill-rule="nonzero"/><path fill="rgb(80.778503%, 66.668701%, 50.19989%)" d="M 503.710938 216.320312 C 503.710938 217.003906 503.679688 217.6875 503.609375 218.367188 C 503.542969 219.050781 503.445312 219.726562 503.308594 220.398438 C 503.175781 221.070312 503.011719 221.734375 502.8125 222.386719 C 502.613281 223.042969 502.382812 223.6875 502.121094 224.320312 C 501.859375 224.953125 501.566406 225.570312 501.242188 226.175781 C 500.921875 226.777344 500.570312 227.363281 500.1875 227.933594 C 499.808594 228.503906 499.402344 229.050781 498.964844 229.582031 C 498.53125 230.109375 498.074219 230.617188 497.589844 231.101562 C 497.105469 231.585938 496.597656 232.046875 496.066406 232.480469 C 495.539062 232.914062 494.988281 233.320312 494.417969 233.703125 C 493.851562 234.082031 493.265625 234.433594 492.660156 234.757812 C 492.054688 235.078125 491.4375 235.371094 490.804688 235.632812 C 490.171875 235.894531 489.527344 236.125 488.875 236.324219 C 488.21875 236.523438 487.554688 236.691406 486.882812 236.824219 C 486.210938 236.957031 485.535156 237.058594 484.851562 237.125 C 484.171875 237.191406 483.488281 237.226562 482.804688 237.226562 C 482.121094 237.226562 481.4375 237.191406 480.753906 237.125 C 480.074219 237.058594 479.398438 236.957031 478.726562 236.824219 C 478.054688 236.691406 477.390625 236.523438 476.734375 236.324219 C 476.078125 236.125 475.433594 235.894531 474.804688 235.632812 C 474.171875 235.371094 473.550781 235.078125 472.949219 234.757812 C 472.34375 234.433594 471.757812 234.082031 471.1875 233.703125 C 470.617188 233.320312 470.070312 232.914062 469.539062 232.480469 C 469.011719 232.046875 468.503906 231.585938 468.019531 231.101562 C 467.535156 230.617188 467.078125 230.109375 466.640625 229.582031 C 466.207031 229.050781 465.800781 228.503906 465.417969 227.933594 C 465.039062 227.363281 464.6875 226.777344 464.363281 226.175781 C 464.042969 225.570312 463.75 224.953125 463.488281 224.320312 C 463.226562 223.6875 462.996094 223.042969 462.796875 222.386719 C 462.597656 221.734375 462.429688 221.070312 462.296875 220.398438 C 462.164062 219.726562 462.0625 219.050781 461.996094 218.367188 C 461.929688 217.6875 461.894531 217.003906 461.894531 216.320312 C 461.894531 215.632812 461.929688 214.953125 461.996094 214.269531 C 462.0625 213.589844 462.164062 212.910156 462.296875 212.242188 C 462.429688 211.570312 462.597656 210.90625 462.796875 210.25 C 462.996094 209.59375 463.226562 208.953125 463.488281 208.320312 C 463.75 207.6875 464.042969 207.066406 464.363281 206.464844 C 464.6875 205.859375 465.039062 205.273438 465.417969 204.703125 C 465.800781 204.136719 466.207031 203.585938 466.640625 203.054688 C 467.078125 202.527344 467.535156 202.019531 468.019531 201.535156 C 468.503906 201.050781 469.011719 200.59375 469.539062 200.160156 C 470.070312 199.722656 470.617188 199.316406 471.1875 198.9375 C 471.757812 198.554688 472.34375 198.203125 472.949219 197.882812 C 473.550781 197.558594 474.171875 197.265625 474.804688 197.003906 C 475.433594 196.742188 476.078125 196.511719 476.734375 196.3125 C 477.390625 196.113281 478.054688 195.949219 478.726562 195.816406 C 479.398438 195.679688 480.074219 195.582031 480.753906 195.515625 C 481.4375 195.445312 482.121094 195.414062 482.804688 195.414062 C 483.488281 195.414062 484.171875 195.445312 484.851562 195.515625 C 485.535156 195.582031 486.210938 195.679688 486.882812 195.816406 C 487.554688 195.949219 488.21875 196.113281 488.875 196.3125 C 489.527344 196.511719 490.171875 196.742188 490.804688 197.003906 C 491.4375 197.265625 492.054688 197.558594 492.660156 197.882812 C 493.265625 198.203125 493.851562 198.554688 494.417969 198.9375 C 494.988281 199.316406 495.539062 199.722656 496.066406 200.160156 C 496.597656 200.59375 497.105469 201.050781 497.589844 201.535156 C 498.074219 202.019531 498.53125 202.527344 498.964844 203.054688 C 499.402344 203.585938 499.808594 204.136719 500.1875 204.703125 C 500.570312 205.273438 500.921875 205.859375 501.242188 206.464844 C 501.566406 207.066406 501.859375 207.6875 502.121094 208.320312 C 502.382812 208.953125 502.613281 209.59375 502.8125 210.25 C 503.011719 210.90625 503.175781 211.570312 503.308594 212.242188 C 503.445312 212.910156 503.542969 213.589844 503.609375 214.269531 C 503.679688 214.953125 503.710938 215.632812 503.710938 216.320312 Z M 503.710938 216.320312 " fill-opacity="1" fill-rule="nonzero"/><path fill="rgb(90.979004%, 21.958923%, 38.42926%)" d="M 335.542969 245.871094 C 335.542969 246.488281 335.511719 247.101562 335.449219 247.714844 C 335.390625 248.328125 335.300781 248.933594 335.179688 249.539062 C 335.058594 250.140625 334.910156 250.738281 334.730469 251.328125 C 334.554688 251.914062 334.347656 252.492188 334.109375 253.0625 C 333.875 253.632812 333.613281 254.1875 333.320312 254.730469 C 333.03125 255.273438 332.714844 255.800781 332.375 256.3125 C 332.03125 256.824219 331.667969 257.316406 331.277344 257.792969 C 330.886719 258.269531 330.472656 258.722656 330.039062 259.160156 C 329.601562 259.59375 329.148438 260.007812 328.671875 260.398438 C 328.195312 260.789062 327.703125 261.152344 327.191406 261.496094 C 326.679688 261.835938 326.152344 262.152344 325.609375 262.441406 C 325.066406 262.734375 324.507812 262.996094 323.941406 263.230469 C 323.371094 263.46875 322.792969 263.675781 322.203125 263.851562 C 321.617188 264.03125 321.019531 264.179688 320.414062 264.300781 C 319.8125 264.421875 319.203125 264.511719 318.589844 264.570312 C 317.980469 264.632812 317.363281 264.660156 316.75 264.660156 C 316.132812 264.660156 315.519531 264.632812 314.90625 264.570312 C 314.296875 264.511719 313.6875 264.421875 313.082031 264.300781 C 312.480469 264.179688 311.882812 264.03125 311.292969 263.851562 C 310.707031 263.675781 310.125 263.46875 309.558594 263.230469 C 308.988281 262.996094 308.433594 262.734375 307.890625 262.441406 C 307.347656 262.152344 306.820312 261.835938 306.308594 261.496094 C 305.796875 261.152344 305.304688 260.789062 304.828125 260.398438 C 304.351562 260.007812 303.898438 259.59375 303.460938 259.160156 C 303.027344 258.722656 302.613281 258.269531 302.222656 257.792969 C 301.832031 257.316406 301.464844 256.824219 301.125 256.3125 C 300.78125 255.800781 300.464844 255.273438 300.175781 254.730469 C 299.886719 254.1875 299.625 253.632812 299.386719 253.0625 C 299.152344 252.492188 298.945312 251.914062 298.765625 251.328125 C 298.589844 250.738281 298.4375 250.140625 298.320312 249.539062 C 298.199219 248.933594 298.109375 248.328125 298.046875 247.714844 C 297.988281 247.101562 297.957031 246.488281 297.957031 245.871094 C 297.957031 245.257812 297.988281 244.644531 298.046875 244.03125 C 298.109375 243.417969 298.199219 242.808594 298.320312 242.207031 C 298.4375 241.601562 298.589844 241.007812 298.765625 240.417969 C 298.945312 239.828125 299.152344 239.25 299.386719 238.679688 C 299.625 238.113281 299.886719 237.558594 300.175781 237.015625 C 300.464844 236.472656 300.78125 235.945312 301.125 235.433594 C 301.464844 234.921875 301.832031 234.425781 302.222656 233.953125 C 302.613281 233.476562 303.027344 233.019531 303.460938 232.585938 C 303.898438 232.152344 304.351562 231.738281 304.828125 231.347656 C 305.304688 230.957031 305.796875 230.589844 306.308594 230.25 C 306.820312 229.90625 307.347656 229.589844 307.890625 229.300781 C 308.433594 229.011719 308.988281 228.746094 309.558594 228.511719 C 310.125 228.277344 310.707031 228.070312 311.292969 227.890625 C 311.882812 227.710938 312.480469 227.5625 313.082031 227.441406 C 313.6875 227.324219 314.296875 227.234375 314.90625 227.171875 C 315.519531 227.113281 316.132812 227.082031 316.75 227.082031 C 317.363281 227.082031 317.980469 227.113281 318.589844 227.171875 C 319.203125 227.234375 319.8125 227.324219 320.414062 227.441406 C 321.019531 227.5625 321.617188 227.710938 322.203125 227.890625 C 322.792969 228.070312 323.371094 228.277344 323.941406 228.511719 C 324.507812 228.746094 325.066406 229.011719 325.609375 229.300781 C 326.152344 229.589844 326.679688 229.90625 327.191406 230.25 C 327.703125 230.589844 328.195312 230.957031 328.671875 231.347656 C 329.148438 231.738281 329.601562 232.152344 330.039062 232.585938 C 330.472656 233.019531 330.886719 233.476562 331.277344 233.953125 C 331.667969 234.425781 332.03125 234.921875 332.375 235.433594 C 332.714844 235.945312 333.03125 236.472656 333.320312 237.015625 C 333.613281 237.558594 333.875 238.113281 334.109375 238.679688 C 334.347656 239.25 334.554688 239.828125 334.730469 240.417969 C 334.910156 241.007812 335.058594 241.601562 335.179688 242.207031 C 335.300781 242.808594 335.390625 243.417969 335.449219 244.03125 C 335.511719 244.644531 335.542969 245.257812 335.542969 245.871094 Z M 335.542969 245.871094 " fill-opacity="1" fill-rule="nonzero"/><path fill="rgb(90.979004%, 21.958923%, 38.42926%)" d="M 507.996094 245.871094 C 507.996094 246.488281 507.964844 247.101562 507.90625 247.714844 C 507.84375 248.328125 507.753906 248.933594 507.636719 249.539062 C 507.515625 250.140625 507.367188 250.738281 507.1875 251.328125 C 507.007812 251.914062 506.800781 252.492188 506.566406 253.0625 C 506.332031 253.632812 506.066406 254.1875 505.777344 254.730469 C 505.488281 255.273438 505.171875 255.800781 504.828125 256.3125 C 504.488281 256.824219 504.121094 257.316406 503.730469 257.792969 C 503.339844 258.269531 502.925781 258.722656 502.492188 259.160156 C 502.058594 259.59375 501.601562 260.007812 501.125 260.398438 C 500.648438 260.789062 500.15625 261.152344 499.644531 261.496094 C 499.132812 261.835938 498.605469 262.152344 498.0625 262.441406 C 497.519531 262.734375 496.964844 262.996094 496.394531 263.230469 C 495.828125 263.46875 495.25 263.675781 494.660156 263.851562 C 494.070312 264.03125 493.472656 264.179688 492.871094 264.300781 C 492.265625 264.421875 491.660156 264.511719 491.046875 264.570312 C 490.433594 264.632812 489.820312 264.660156 489.203125 264.660156 C 488.589844 264.660156 487.976562 264.632812 487.363281 264.570312 C 486.75 264.511719 486.140625 264.421875 485.539062 264.300781 C 484.933594 264.179688 484.339844 264.03125 483.75 263.851562 C 483.160156 263.675781 482.582031 263.46875 482.011719 263.230469 C 481.445312 262.996094 480.890625 262.734375 480.347656 262.441406 C 479.804688 262.152344 479.277344 261.835938 478.765625 261.496094 C 478.253906 261.152344 477.757812 260.789062 477.28125 260.398438 C 476.808594 260.007812 476.351562 259.59375 475.917969 259.160156 C 475.480469 258.722656 475.070312 258.269531 474.679688 257.792969 C 474.289062 257.316406 473.921875 256.824219 473.578125 256.3125 C 473.238281 255.800781 472.921875 255.273438 472.632812 254.730469 C 472.339844 254.1875 472.078125 253.632812 471.84375 253.0625 C 471.609375 252.492188 471.402344 251.914062 471.222656 251.328125 C 471.042969 250.738281 470.894531 250.140625 470.773438 249.539062 C 470.652344 248.933594 470.5625 248.328125 470.503906 247.714844 C 470.441406 247.101562 470.414062 246.488281 470.414062 245.871094 C 470.414062 245.257812 470.441406 244.644531 470.503906 244.03125 C 470.5625 243.417969 470.652344 242.808594 470.773438 242.207031 C 470.894531 241.601562 471.042969 241.007812 471.222656 240.417969 C 471.402344 239.828125 471.609375 239.25 471.84375 238.679688 C 472.078125 238.113281 472.339844 237.558594 472.632812 237.015625 C 472.921875 236.472656 473.238281 235.945312 473.578125 235.433594 C 473.921875 234.921875 474.289062 234.425781 474.679688 233.953125 C 475.070312 233.476562 475.480469 233.019531 475.917969 232.585938 C 476.351562 232.152344 476.808594 231.738281 477.285156 231.347656 C 477.757812 230.957031 478.253906 230.589844 478.765625 230.25 C 479.277344 229.90625 479.804688 229.589844 480.347656 229.300781 C 480.890625 229.011719 481.445312 228.746094 482.011719 228.511719 C 482.582031 228.277344 483.160156 228.070312 483.75 227.890625 C 484.339844 227.710938 484.933594 227.5625 485.539062 227.441406 C 486.140625 227.324219 486.75 227.234375 487.363281 227.171875 C 487.976562 227.113281 488.589844 227.082031 489.203125 227.082031 C 489.820312 227.082031 490.433594 227.113281 491.046875 227.171875 C 491.660156 227.234375 492.265625 227.324219 492.871094 227.441406 C 493.472656 227.5625 494.070312 227.710938 494.660156 227.890625 C 495.25 228.070312 495.828125 228.277344 496.394531 228.511719 C 496.964844 228.746094 497.519531 229.011719 498.0625 229.300781 C 498.605469 229.589844 499.132812 229.90625 499.644531 230.25 C 500.15625 230.589844 500.648438 230.957031 501.125 231.347656 C 501.601562 231.738281 502.058594 232.152344 502.492188 232.585938 C 502.925781 233.019531 503.339844 233.476562 503.730469 233.953125 C 504.121094 234.425781 504.488281 234.921875 504.828125 235.433594 C 505.171875 235.945312 505.488281 236.472656 505.777344 237.015625 C 506.066406 237.558594 506.332031 238.113281 506.566406 238.679688 C 506.800781 239.25 507.007812 239.828125 507.1875 240.417969 C 507.367188 241.007812 507.515625 241.601562 507.636719 242.207031 C 507.753906 242.808594 507.84375 243.417969 507.90625 244.03125 C 507.964844 244.644531 507.996094 245.257812 507.996094 245.871094 Z M 507.996094 245.871094 " fill-opacity="1" fill-rule="nonzero"/><path fill="rgb(90.979004%, 21.958923%, 38.42926%)" d="M 335.542969 269.351562 C 335.542969 269.96875 335.511719 270.582031 335.449219 271.195312 C 335.390625 271.808594 335.300781 272.414062 335.179688 273.019531 C 335.058594 273.621094 334.910156 274.21875 334.730469 274.808594 C 334.554688 275.394531 334.347656 275.976562 334.109375 276.542969 C 333.875 277.113281 333.613281 277.667969 333.320312 278.210938 C 333.03125 278.753906 332.714844 279.28125 332.375 279.792969 C 332.03125 280.304688 331.667969 280.796875 331.277344 281.273438 C 330.886719 281.75 330.472656 282.203125 330.039062 282.640625 C 329.601562 283.074219 329.148438 283.488281 328.671875 283.878906 C 328.195312 284.269531 327.703125 284.632812 327.191406 284.976562 C 326.679688 285.316406 326.152344 285.632812 325.609375 285.925781 C 325.066406 286.214844 324.507812 286.476562 323.941406 286.710938 C 323.371094 286.949219 322.792969 287.15625 322.203125 287.332031 C 321.617188 287.511719 321.019531 287.660156 320.414062 287.78125 C 319.8125 287.902344 319.203125 287.992188 318.589844 288.050781 C 317.980469 288.113281 317.363281 288.144531 316.75 288.144531 C 316.132812 288.144531 315.519531 288.113281 314.90625 288.050781 C 314.296875 287.992188 313.6875 287.902344 313.082031 287.78125 C 312.480469 287.660156 311.882812 287.511719 311.292969 287.332031 C 310.707031 287.15625 310.125 286.949219 309.558594 286.710938 C 308.988281 286.476562 308.433594 286.214844 307.890625 285.925781 C 307.347656 285.632812 306.820312 285.316406 306.308594 284.976562 C 305.796875 284.632812 305.304688 284.269531 304.828125 283.878906 C 304.351562 283.488281 303.898438 283.074219 303.460938 282.640625 C 303.027344 282.203125 302.613281 281.75 302.222656 281.273438 C 301.832031 280.796875 301.464844 280.304688 301.125 279.792969 C 300.78125 279.28125 300.464844 278.753906 300.175781 278.210938 C 299.886719 277.667969 299.625 277.113281 299.386719 276.542969 C 299.152344 275.976562 298.945312 275.394531 298.765625 274.808594 C 298.589844 274.21875 298.4375 273.621094 298.320312 273.019531 C 298.199219 272.414062 298.109375 271.808594 298.046875 271.195312 C 297.988281 270.582031 297.957031 269.96875 297.957031 269.351562 C 297.957031 268.738281 297.988281 268.125 298.046875 267.511719 C 298.109375 266.898438 298.199219 266.289062 298.320312 265.6875 C 298.4375 265.082031 298.589844 264.488281 298.765625 263.898438 C 298.945312 263.308594 299.152344 262.730469 299.386719 262.164062 C 299.625 261.59375 299.886719 261.039062 300.175781 260.496094 C 300.464844 259.953125 300.78125 259.425781 301.125 258.914062 C 301.464844 258.402344 301.832031 257.910156 302.222656 257.433594 C 302.613281 256.957031 303.027344 256.5 303.460938 256.066406 C 303.898438 255.632812 304.351562 255.21875 304.828125 254.828125 C 305.304688 254.4375 305.796875 254.070312 306.308594 253.730469 C 306.820312 253.386719 307.347656 253.070312 307.890625 252.78125 C 308.433594 252.492188 308.988281 252.230469 309.558594 251.992188 C 310.125 251.757812 310.707031 251.550781 311.292969 251.371094 C 311.882812 251.195312 312.480469 251.042969 313.082031 250.925781 C 313.6875 250.804688 314.296875 250.714844 314.90625 250.652344 C 315.519531 250.59375 316.132812 250.5625 316.75 250.5625 C 317.363281 250.5625 317.980469 250.59375 318.589844 250.652344 C 319.203125 250.714844 319.8125 250.804688 320.414062 250.925781 C 321.019531 251.042969 321.617188 251.195312 322.203125 251.371094 C 322.792969 251.550781 323.371094 251.757812 323.941406 251.992188 C 324.507812 252.230469 325.066406 252.492188 325.609375 252.78125 C 326.152344 253.070312 326.679688 253.386719 327.191406 253.730469 C 327.703125 254.070312 328.195312 254.4375 328.671875 254.828125 C 329.148438 255.21875 329.601562 255.632812 330.039062 256.066406 C 330.472656 256.5 330.886719 256.957031 331.277344 257.433594 C 331.667969 257.910156 332.03125 258.402344 332.375 258.914062 C 332.714844 259.425781 333.03125 259.953125 333.320312 260.496094 C 333.613281 261.039062 333.875 261.59375 334.109375 262.164062 C 334.347656 262.730469 334.554688 263.308594 334.730469 263.898438 C 334.910156 264.488281 335.058594 265.082031 335.179688 265.6875 C 335.300781 266.289062 335.390625 266.898438 335.449219 267.511719 C 335.511719 268.125 335.542969 268.738281 335.542969 269.351562 Z M 335.542969 269.351562 " fill-opacity="1" fill-rule="nonzero"/><path fill="rgb(90.979004%, 21.958923%, 38.42926%)" d="M 507.996094 269.351562 C 507.996094 269.96875 507.964844 270.582031 507.90625 271.195312 C 507.84375 271.808594 507.753906 272.414062 507.636719 273.019531 C 507.515625 273.621094 507.367188 274.21875 507.1875 274.808594 C 507.007812 275.394531 506.800781 275.976562 506.566406 276.542969 C 506.332031 277.113281 506.066406 277.667969 505.777344 278.210938 C 505.488281 278.753906 505.171875 279.28125 504.828125 279.792969 C 504.488281 280.304688 504.121094 280.796875 503.730469 281.273438 C 503.339844 281.75 502.925781 282.203125 502.492188 282.640625 C 502.058594 283.074219 501.601562 283.488281 501.125 283.878906 C 500.648438 284.269531 500.15625 284.632812 499.644531 284.976562 C 499.132812 285.316406 498.605469 285.632812 498.0625 285.925781 C 497.519531 286.214844 496.964844 286.476562 496.394531 286.710938 C 495.828125 286.949219 495.25 287.15625 494.660156 287.332031 C 494.070312 287.511719 493.472656 287.660156 492.871094 287.78125 C 492.265625 287.902344 491.660156 287.992188 491.046875 288.050781 C 490.433594 288.113281 489.820312 288.144531 489.203125 288.144531 C 488.589844 288.144531 487.976562 288.113281 487.363281 288.050781 C 486.75 287.992188 486.140625 287.902344 485.539062 287.78125 C 484.933594 287.660156 484.339844 287.511719 483.75 287.332031 C 483.160156 287.15625 482.582031 286.949219 482.011719 286.710938 C 481.445312 286.476562 480.890625 286.214844 480.347656 285.925781 C 479.804688 285.632812 479.277344 285.316406 478.765625 284.976562 C 478.253906 284.632812 477.757812 284.269531 477.28125 283.878906 C 476.808594 283.488281 476.351562 283.074219 475.917969 282.640625 C 475.480469 282.203125 475.070312 281.75 474.679688 281.273438 C 474.289062 280.796875 473.921875 280.304688 473.578125 279.792969 C 473.238281 279.28125 472.921875 278.753906 472.632812 278.210938 C 472.339844 277.667969 472.078125 277.113281 471.84375 276.542969 C 471.609375 275.976562 471.402344 275.394531 471.222656 274.808594 C 471.042969 274.21875 470.894531 273.621094 470.773438 273.019531 C 470.652344 272.414062 470.5625 271.808594 470.503906 271.195312 C 470.441406 270.582031 470.414062 269.96875 470.414062 269.351562 C 470.414062 268.738281 470.441406 268.125 470.503906 267.511719 C 470.5625 266.898438 470.652344 266.289062 470.773438 265.6875 C 470.894531 265.082031 471.042969 264.488281 471.222656 263.898438 C 471.402344 263.308594 471.609375 262.730469 471.84375 262.164062 C 472.078125 261.59375 472.339844 261.039062 472.632812 260.496094 C 472.921875 259.953125 473.238281 259.425781 473.578125 258.914062 C 473.921875 258.402344 474.289062 257.910156 474.679688 257.433594 C 475.070312 256.957031 475.480469 256.5 475.917969 256.066406 C 476.351562 255.632812 476.808594 255.21875 477.285156 254.828125 C 477.757812 254.4375 478.253906 254.070312 478.765625 253.730469 C 479.277344 253.386719 479.804688 253.070312 480.347656 252.78125 C 480.890625 252.492188 481.445312 252.230469 482.011719 251.992188 C 482.582031 251.757812 483.160156 251.550781 483.75 251.371094 C 484.339844 251.195312 484.933594 251.042969 485.539062 250.925781 C 486.140625 250.804688 486.75 250.714844 487.363281 250.652344 C 487.976562 250.59375 488.589844 250.5625 489.203125 250.5625 C 489.820312 250.5625 490.433594 250.59375 491.046875 250.652344 C 491.660156 250.714844 492.265625 250.804688 492.871094 250.925781 C 493.472656 251.042969 494.070312 251.195312 494.660156 251.371094 C 495.25 251.550781 495.828125 251.757812 496.394531 251.992188 C 496.964844 252.230469 497.519531 252.492188 498.0625 252.78125 C 498.605469 253.070312 499.132812 253.386719 499.644531 253.730469 C 500.15625 254.070312 500.648438 254.4375 501.125 254.828125 C 501.601562 255.21875 502.058594 255.632812 502.492188 256.066406 C 502.925781 256.5 503.339844 256.957031 503.730469 257.433594 C 504.121094 257.910156 504.488281 258.402344 504.828125 258.914062 C 505.171875 259.425781 505.488281 259.953125 505.777344 260.496094 C 506.066406 261.039062 506.332031 261.59375 506.566406 262.164062 C 506.800781 262.730469 507.007812 263.308594 507.1875 263.898438 C 507.367188 264.488281 507.515625 265.082031 507.636719 265.6875 C 507.753906 266.289062 507.84375 266.898438 507.90625 267.511719 C 507.964844 268.125 507.996094 268.738281 507.996094 269.351562 Z M 507.996094 269.351562 " fill-opacity="1" fill-rule="nonzero"/><path fill="rgb(97.648621%, 85.879517%, 71.759033%)" d="M 489.027344 231.285156 C 489.027344 274.410156 457.277344 299.570312 415.875 303.835938 C 411.675781 304.289062 407.367188 304.5 402.984375 304.5 C 398.601562 304.5 394.289062 304.277344 390.078125 303.835938 C 387.972656 303.625 385.878906 303.355469 383.828125 303.03125 C 345.523438 296.96875 316.925781 272.21875 316.925781 231.285156 C 316.925781 205.324219 328.417969 176.957031 346.582031 156.558594 C 361.695312 139.597656 381.425781 128.136719 402.984375 128.136719 C 450.507812 128.136719 489.027344 183.769531 489.027344 231.285156 Z M 489.027344 231.285156 " fill-opacity="1" fill-rule="nonzero"/><path fill="rgb(100%, 100%, 100%)" d="M 419.878906 228.625 C 419.878906 242.328125 412.3125 253.441406 402.980469 253.441406 C 393.648438 253.441406 386.082031 242.328125 386.082031 228.625 C 386.082031 228.625 419.878906 228.625 419.878906 228.625 Z M 419.878906 228.625 " fill-opacity="1" fill-rule="nonzero"/><path fill="rgb(0%, 0%, 0%)" d="M 374.214844 219.382812 C 374.214844 219.382812 373.785156 219.328125 373.113281 219.144531 C 372.785156 219.03125 372.363281 218.945312 371.941406 218.875 C 371.519531 218.792969 371.089844 218.6875 370.574219 218.613281 C 370.085938 218.503906 369.5625 218.421875 369.023438 218.351562 C 368.503906 218.234375 367.925781 218.238281 367.386719 218.132812 C 366.816406 218.121094 366.261719 218.023438 365.691406 218.019531 C 365.121094 217.972656 364.546875 217.988281 363.976562 217.96875 C 363.402344 217.992188 362.828125 217.976562 362.261719 218.023438 C 361.6875 218.035156 361.136719 218.121094 360.566406 218.140625 C 360.027344 218.246094 359.449219 218.242188 358.929688 218.359375 C 358.390625 218.429688 357.867188 218.511719 357.378906 218.617188 C 356.871094 218.6875 356.417969 218.804688 355.984375 218.898438 C 355.546875 218.984375 355.144531 219.054688 354.832031 219.148438 C 354.179688 219.3125 353.734375 219.382812 353.734375 219.382812 C 353.734375 219.382812 353.820312 218.972656 354.089844 218.304688 C 354.21875 217.960938 354.402344 217.558594 354.679688 217.148438 C 354.941406 216.722656 355.265625 216.246094 355.695312 215.808594 C 355.902344 215.578125 356.132812 215.351562 356.375 215.113281 C 356.628906 214.898438 356.90625 214.695312 357.191406 214.472656 C 357.757812 214.019531 358.4375 213.695312 359.144531 213.328125 C 359.875 213.050781 360.644531 212.726562 361.464844 212.59375 C 362.277344 212.382812 363.128906 212.367188 363.976562 212.3125 C 364.824219 212.367188 365.675781 212.386719 366.488281 212.597656 C 367.308594 212.734375 368.078125 213.054688 368.804688 213.335938 C 369.511719 213.699219 370.191406 214.023438 370.757812 214.480469 C 371.042969 214.699219 371.320312 214.902344 371.574219 215.117188 C 371.816406 215.355469 372.046875 215.582031 372.253906 215.8125 C 372.679688 216.242188 373.027344 216.734375 373.296875 217.167969 C 373.589844 217.59375 373.753906 217.984375 373.867188 218.308594 C 374.113281 218.964844 374.214844 219.382812 374.214844 219.382812 Z M 374.214844 219.382812 " fill-opacity="1" fill-rule="nonzero"/><path fill="rgb(0%, 0%, 0%)" d="M 452.230469 219.382812 C 452.230469 219.382812 451.800781 219.328125 451.128906 219.144531 C 450.800781 219.03125 450.378906 218.945312 449.957031 218.875 C 449.535156 218.792969 449.105469 218.6875 448.589844 218.613281 C 448.101562 218.503906 447.578125 218.421875 447.039062 218.351562 C 446.519531 218.238281 445.941406 218.238281 445.402344 218.132812 C 444.832031 218.121094 444.277344 218.023438 443.703125 218.019531 C 443.136719 217.972656 442.5625 217.988281 441.992188 217.96875 C 441.417969 217.992188 440.84375 217.976562 440.277344 218.023438 C 439.703125 218.035156 439.152344 218.121094 438.582031 218.140625 C 438.042969 218.246094 437.464844 218.242188 436.945312 218.359375 C 436.40625 218.429688 435.882812 218.511719 435.394531 218.617188 C 434.886719 218.6875 434.433594 218.808594 434 218.898438 C 433.5625 218.984375 433.160156 219.058594 432.847656 219.152344 C 432.195312 219.316406 431.75 219.382812 431.75 219.382812 C 431.75 219.382812 431.835938 218.976562 432.105469 218.304688 C 432.234375 217.960938 432.417969 217.558594 432.695312 217.148438 C 432.957031 216.726562 433.28125 216.25 433.710938 215.808594 C 433.917969 215.582031 434.148438 215.355469 434.390625 215.113281 C 434.644531 214.902344 434.921875 214.695312 435.207031 214.472656 C 435.773438 214.023438 436.453125 213.695312 437.160156 213.332031 C 437.890625 213.054688 438.660156 212.730469 439.480469 212.597656 C 440.292969 212.386719 441.144531 212.367188 441.992188 212.316406 C 442.839844 212.371094 443.6875 212.390625 444.503906 212.601562 C 445.324219 212.738281 446.09375 213.058594 446.820312 213.339844 C 447.527344 213.703125 448.207031 214.027344 448.773438 214.480469 C 449.058594 214.703125 449.335938 214.902344 449.589844 215.121094 C 449.832031 215.359375 450.0625 215.585938 450.269531 215.8125 C 450.695312 216.246094 451.042969 216.738281 451.3125 217.171875 C 451.605469 217.59375 451.769531 217.984375 451.882812 218.3125 C 452.128906 218.964844 452.230469 219.382812 452.230469 219.382812 Z M 452.230469 219.382812 " fill-opacity="1" fill-rule="nonzero"/><path fill="rgb(97.648621%, 85.879517%, 71.759033%)" d="M 547.445312 459.988281 C 547.628906 472.140625 546.3125 483.972656 543.671875 495.28125 C 542.738281 499.25 536.898438 498.585938 536.898438 494.503906 L 536.898438 494.191406 C 536.898438 444.03125 509.308594 400.3125 468.453125 377.375 L 467.175781 384.363281 C 467.175781 400.957031 456.214844 414.601562 440.28125 416.976562 L 440.28125 432.695312 C 440.28125 443.453125 444.820312 453.714844 452.777344 460.949219 C 455.832031 463.71875 458.617188 466.800781 461.078125 470.136719 C 468.695312 480.46875 473.203125 493.230469 473.203125 507.070312 C 473.203125 507.070312 478.945312 600.453125 442.261719 704.648438 C 442.148438 704.960938 442.050781 705.257812 441.9375 705.570312 C 439.929688 711.238281 437.796875 716.945312 435.519531 722.65625 C 433.710938 727.277344 431.789062 731.902344 429.78125 736.535156 C 427.703125 741.34375 420.632812 740.464844 419.773438 735.308594 C 419.148438 731.589844 418.472656 727.351562 417.75 722.65625 C 416.945312 717.46875 416.097656 711.730469 415.25 705.570312 C 415.207031 705.273438 415.164062 704.960938 415.121094 704.648438 C 408.886719 659.546875 402.214844 592.355469 410.03125 549.316406 L 395.925781 549.316406 C 403.742188 592.355469 397.070312 659.546875 390.824219 704.648438 C 390.78125 704.960938 390.738281 705.273438 390.695312 705.570312 C 389.847656 711.730469 389 717.472656 388.191406 722.65625 C 387.472656 727.351562 386.792969 731.589844 386.171875 735.308594 C 385.324219 740.464844 378.257812 741.34375 376.179688 736.535156 C 374.171875 731.902344 372.25 727.277344 370.4375 722.65625 C 368.164062 716.945312 366.027344 711.238281 364.019531 705.570312 C 363.910156 705.257812 363.808594 704.960938 363.695312 704.648438 C 327.015625 600.453125 332.738281 507.070312 332.738281 507.070312 C 332.738281 493.230469 337.25 480.46875 344.867188 470.136719 C 347.328125 466.800781 350.113281 463.71875 353.164062 460.949219 C 361.136719 453.714844 365.675781 443.453125 365.675781 432.695312 L 365.675781 416.976562 C 349.730469 414.605469 338.660156 401.164062 338.660156 384.570312 L 337.503906 377.359375 C 296.652344 400.296875 269.042969 444.03125 269.042969 494.191406 L 269.042969 494.503906 C 269.058594 498.574219 263.234375 499.335938 262.300781 495.363281 C 259.8125 484.734375 258.484375 473.65625 258.484375 462.261719 C 258.484375 398.007812 300.453125 343.550781 358.464844 324.78125 C 361.351562 323.847656 364.277344 323 367.246094 322.25 C 369.421875 321.699219 371.613281 321.191406 373.816406 320.738281 C 381.890625 319.085938 388.207031 312.792969 389.890625 304.738281 L 390.074219 303.832031 C 394.285156 304.273438 398.597656 304.496094 402.980469 304.496094 C 407.359375 304.496094 411.671875 304.285156 415.871094 303.832031 L 416.097656 304.90625 C 417.765625 312.90625 424 319.15625 432 320.878906 C 434.375 321.386719 436.71875 321.96875 439.054688 322.605469 C 442.007812 323.394531 444.917969 324.285156 447.804688 325.273438 C 504.132812 344.496094 546.496094 398.53125 547.445312 459.988281 Z M 547.445312 459.988281 " fill-opacity="1" fill-rule="nonzero"/><path fill="rgb(30.198669%, 30.198669%, 30.198669%)" d="M 421.5 315.003906 C 415.746094 317.164062 409.523438 318.339844 403.023438 318.339844 C 396.492188 318.339844 390.230469 317.152344 384.449219 314.976562 C 387.175781 312.21875 389.113281 308.683594 389.933594 304.742188 L 390.117188 303.835938 C 394.328125 304.277344 398.640625 304.5 403.023438 304.5 C 407.40625 304.5 411.714844 304.289062 415.914062 303.835938 L 416.140625 304.910156 C 416.945312 308.796875 418.839844 312.261719 421.5 315.003906 Z M 421.5 315.003906 " fill-opacity="0.2863" fill-rule="nonzero"/><path fill="rgb(97.648621%, 78.42865%, 24.308777%)" d="M 485.855469 161.941406 C 485.855469 175.355469 482.632812 188.003906 476.921875 199.183594 C 430.34375 178.886719 377.378906 178.886719 330.804688 199.183594 C 325.09375 188.003906 321.871094 175.355469 321.871094 161.941406 C 321.871094 161.007812 321.882812 160.074219 321.925781 159.140625 C 323.394531 115.15625 359.511719 79.949219 403.855469 79.949219 C 448.210938 79.949219 484.328125 115.15625 485.800781 159.140625 C 485.839844 160.074219 485.855469 161.007812 485.855469 161.941406 Z M 485.855469 161.941406 " fill-opacity="1" fill-rule="nonzero"/><path fill="rgb(90.979004%, 21.958923%, 38.42926%)" d="M 485.273438 140.34375 C 485.195312 138.390625 483.550781 136.875 481.601562 136.949219 L 434.355469 138.820312 C 430.609375 138.96875 429.242188 133.949219 432.546875 132.175781 L 469.558594 112.308594 C 471.277344 111.386719 471.925781 109.242188 471.003906 107.523438 C 470.078125 105.804688 467.9375 105.160156 466.21875 106.082031 L 422.496094 129.550781 C 419.425781 131.199219 416.078125 127.882812 417.695312 124.796875 L 440.738281 80.851562 C 441.644531 79.125 440.980469 76.988281 439.25 76.082031 C 437.523438 75.175781 435.386719 75.84375 434.480469 77.570312 L 414.058594 116.511719 C 412.34375 119.78125 407.394531 118.5625 407.394531 114.871094 L 407.394531 70.902344 C 407.394531 68.949219 405.8125 67.371094 403.859375 67.371094 C 401.90625 67.371094 400.324219 68.949219 400.324219 70.902344 L 400.324219 114.871094 C 400.324219 118.5625 395.375 119.78125 393.664062 116.511719 L 373.242188 77.574219 C 372.335938 75.84375 370.199219 75.179688 368.46875 76.085938 C 366.742188 76.992188 366.074219 79.125 366.980469 80.855469 L 390.027344 124.800781 C 391.644531 127.882812 388.296875 131.199219 385.226562 129.550781 L 341.507812 106.082031 C 339.789062 105.160156 337.648438 105.804688 336.722656 107.523438 L 336.722656 107.527344 C 335.800781 109.246094 336.449219 111.386719 338.167969 112.308594 L 375.179688 132.179688 C 378.484375 133.949219 377.117188 138.96875 373.371094 138.820312 L 326.125 136.953125 C 324.175781 136.875 322.53125 138.394531 322.453125 140.34375 C 322.375 142.292969 323.894531 143.933594 325.84375 144.011719 L 400.191406 146.957031 C 402.144531 147.035156 403.785156 145.515625 403.863281 143.566406 C 403.941406 145.515625 405.585938 147.035156 407.535156 146.957031 L 481.882812 144.011719 C 483.832031 143.933594 485.347656 142.292969 485.273438 140.34375 Z M 485.273438 140.34375 " fill-opacity="1" fill-rule="nonzero"/><path fill="rgb(0%, 44.309998%, 73.728943%)" d="M 505.207031 167.890625 C 499.085938 179.890625 492.980469 191.890625 486.859375 203.875 C 483.578125 202.207031 480.273438 200.640625 476.921875 199.183594 C 430.34375 178.886719 377.378906 178.886719 330.804688 199.183594 C 327.453125 200.640625 324.144531 202.207031 320.867188 203.875 C 314.746094 191.890625 308.636719 179.890625 302.519531 167.890625 C 308.878906 164.65625 315.351562 161.730469 321.925781 159.140625 C 374.550781 138.363281 433.171875 138.363281 485.800781 159.140625 C 492.371094 161.730469 498.847656 164.65625 505.207031 167.890625 Z M 505.207031 167.890625 " fill-opacity="1" fill-rule="nonzero"/><path fill="rgb(91.758728%, 72.158813%, 23.139954%)" d="M 434.125 143.5625 C 434.125 144.554688 434.074219 145.542969 433.976562 146.53125 C 433.882812 147.515625 433.734375 148.496094 433.542969 149.464844 C 433.347656 150.4375 433.109375 151.398438 432.820312 152.347656 C 432.53125 153.296875 432.199219 154.226562 431.820312 155.144531 C 431.441406 156.058594 431.019531 156.953125 430.550781 157.828125 C 430.082031 158.703125 429.574219 159.550781 429.023438 160.375 C 428.472656 161.199219 427.882812 161.992188 427.253906 162.757812 C 426.625 163.523438 425.960938 164.257812 425.261719 164.960938 C 424.558594 165.660156 423.828125 166.324219 423.058594 166.953125 C 422.292969 167.582031 421.5 168.171875 420.675781 168.722656 C 419.851562 169.273438 419 169.78125 418.128906 170.25 C 417.253906 170.714844 416.359375 171.140625 415.441406 171.519531 C 414.527344 171.898438 413.59375 172.230469 412.648438 172.519531 C 411.699219 172.808594 410.738281 173.046875 409.765625 173.242188 C 408.792969 173.433594 407.816406 173.578125 406.828125 173.675781 C 405.84375 173.773438 404.855469 173.820312 403.863281 173.820312 C 402.871094 173.820312 401.882812 173.773438 400.894531 173.675781 C 399.910156 173.578125 398.929688 173.433594 397.957031 173.242188 C 396.988281 173.046875 396.027344 172.808594 395.078125 172.519531 C 394.128906 172.230469 393.199219 171.898438 392.28125 171.519531 C 391.367188 171.140625 390.472656 170.714844 389.597656 170.25 C 388.722656 169.78125 387.875 169.273438 387.050781 168.722656 C 386.226562 168.171875 385.429688 167.582031 384.664062 166.953125 C 383.898438 166.324219 383.164062 165.660156 382.464844 164.960938 C 381.765625 164.257812 381.097656 163.523438 380.46875 162.757812 C 379.839844 161.992188 379.25 161.199219 378.699219 160.375 C 378.152344 159.550781 377.640625 158.703125 377.175781 157.828125 C 376.707031 156.953125 376.285156 156.058594 375.90625 155.144531 C 375.523438 154.226562 375.191406 153.296875 374.902344 152.347656 C 374.617188 151.398438 374.375 150.4375 374.183594 149.464844 C 373.988281 148.496094 373.84375 147.515625 373.746094 146.53125 C 373.648438 145.542969 373.601562 144.554688 373.601562 143.5625 C 373.601562 142.574219 373.648438 141.582031 373.746094 140.597656 C 373.84375 139.613281 373.988281 138.632812 374.183594 137.660156 C 374.375 136.6875 374.617188 135.726562 374.902344 134.78125 C 375.191406 133.832031 375.527344 132.898438 375.90625 131.984375 C 376.285156 131.070312 376.707031 130.175781 377.175781 129.300781 C 377.640625 128.425781 378.152344 127.578125 378.699219 126.753906 C 379.25 125.929688 379.839844 125.132812 380.46875 124.367188 C 381.097656 123.601562 381.765625 122.867188 382.464844 122.167969 C 383.164062 121.46875 383.898438 120.800781 384.664062 120.171875 C 385.429688 119.542969 386.226562 118.957031 387.050781 118.40625 C 387.875 117.855469 388.722656 117.34375 389.597656 116.878906 C 390.472656 116.410156 391.367188 115.988281 392.28125 115.609375 C 393.199219 115.230469 394.128906 114.894531 395.078125 114.609375 C 396.027344 114.320312 396.988281 114.078125 397.957031 113.886719 C 398.929688 113.691406 399.910156 113.546875 400.894531 113.449219 C 401.882812 113.355469 402.871094 113.304688 403.863281 113.304688 C 404.855469 113.304688 405.84375 113.355469 406.828125 113.449219 C 407.816406 113.546875 408.792969 113.691406 409.765625 113.886719 C 410.738281 114.078125 411.699219 114.320312 412.648438 114.609375 C 413.59375 114.894531 414.527344 115.230469 415.441406 115.609375 C 416.359375 115.988281 417.253906 116.410156 418.128906 116.878906 C 419 117.34375 419.851562 117.855469 420.675781 118.40625 C 421.5 118.957031 422.292969 119.542969 423.058594 120.171875 C 423.828125 120.800781 424.558594 121.46875 425.261719 122.167969 C 425.960938 122.867188 426.625 123.601562 427.253906 124.367188 C 427.882812 125.132812 428.472656 125.929688 429.023438 126.753906 C 429.574219 127.578125 430.082031 128.425781 430.550781 129.300781 C 431.019531 130.175781 431.441406 131.070312 431.820312 131.984375 C 432.199219 132.898438 432.53125 133.832031 432.820312 134.78125 C 433.109375 135.726562 433.347656 136.6875 433.542969 137.660156 C 433.734375 138.632812 433.882812 139.613281 433.976562 140.597656 C 434.074219 141.582031 434.125 142.574219 434.125 143.5625 Z M 434.125 143.5625 " fill-opacity="1" fill-rule="nonzero"/><path fill="rgb(90.979004%, 21.958923%, 38.42926%)" d="M 420.519531 143.5625 C 420.519531 144.109375 420.492188 144.652344 420.441406 145.195312 C 420.386719 145.738281 420.304688 146.277344 420.199219 146.8125 C 420.09375 147.347656 419.960938 147.875 419.800781 148.398438 C 419.644531 148.921875 419.460938 149.433594 419.25 149.9375 C 419.042969 150.441406 418.808594 150.933594 418.554688 151.414062 C 418.296875 151.894531 418.015625 152.363281 417.710938 152.816406 C 417.410156 153.269531 417.085938 153.707031 416.738281 154.128906 C 416.394531 154.550781 416.027344 154.957031 415.640625 155.339844 C 415.253906 155.726562 414.851562 156.09375 414.429688 156.4375 C 414.007812 156.785156 413.570312 157.109375 413.117188 157.414062 C 412.664062 157.714844 412.195312 157.996094 411.714844 158.253906 C 411.234375 158.507812 410.742188 158.742188 410.238281 158.953125 C 409.734375 159.160156 409.21875 159.34375 408.699219 159.503906 C 408.175781 159.660156 407.648438 159.792969 407.113281 159.898438 C 406.578125 160.003906 406.039062 160.085938 405.496094 160.140625 C 404.953125 160.191406 404.40625 160.21875 403.863281 160.21875 C 403.316406 160.21875 402.773438 160.191406 402.230469 160.140625 C 401.6875 160.085938 401.148438 160.003906 400.613281 159.898438 C 400.078125 159.792969 399.550781 159.660156 399.027344 159.503906 C 398.503906 159.34375 397.992188 159.160156 397.488281 158.953125 C 396.984375 158.742188 396.492188 158.507812 396.011719 158.253906 C 395.527344 157.996094 395.0625 157.714844 394.609375 157.414062 C 394.15625 157.109375 393.71875 156.785156 393.296875 156.4375 C 392.875 156.09375 392.46875 155.726562 392.085938 155.339844 C 391.699219 154.957031 391.332031 154.550781 390.984375 154.128906 C 390.640625 153.707031 390.316406 153.269531 390.011719 152.816406 C 389.710938 152.363281 389.429688 151.894531 389.171875 151.414062 C 388.914062 150.933594 388.683594 150.441406 388.472656 149.9375 C 388.265625 149.433594 388.082031 148.921875 387.921875 148.398438 C 387.765625 147.875 387.632812 147.347656 387.523438 146.8125 C 387.417969 146.277344 387.339844 145.738281 387.285156 145.195312 C 387.230469 144.652344 387.207031 144.109375 387.207031 143.5625 C 387.207031 143.019531 387.230469 142.472656 387.285156 141.929688 C 387.339844 141.386719 387.417969 140.847656 387.523438 140.3125 C 387.632812 139.777344 387.765625 139.25 387.921875 138.730469 C 388.082031 138.207031 388.265625 137.695312 388.472656 137.191406 C 388.683594 136.6875 388.914062 136.191406 389.171875 135.710938 C 389.429688 135.230469 389.710938 134.765625 390.011719 134.308594 C 390.316406 133.855469 390.640625 133.417969 390.984375 132.996094 C 391.332031 132.574219 391.699219 132.171875 392.085938 131.785156 C 392.46875 131.402344 392.875 131.035156 393.296875 130.6875 C 393.71875 130.34375 394.15625 130.019531 394.609375 129.714844 C 395.0625 129.410156 395.527344 129.132812 396.011719 128.875 C 396.492188 128.617188 396.984375 128.382812 397.488281 128.175781 C 397.992188 127.96875 398.503906 127.785156 399.027344 127.625 C 399.550781 127.464844 400.078125 127.335938 400.613281 127.226562 C 401.148438 127.121094 401.6875 127.042969 402.230469 126.988281 C 402.773438 126.933594 403.316406 126.90625 403.863281 126.90625 C 404.40625 126.90625 404.953125 126.933594 405.496094 126.988281 C 406.039062 127.042969 406.578125 127.121094 407.113281 127.226562 C 407.648438 127.335938 408.175781 127.464844 408.699219 127.625 C 409.21875 127.785156 409.734375 127.96875 410.238281 128.175781 C 410.742188 128.382812 411.234375 128.617188 411.714844 128.875 C 412.195312 129.132812 412.664062 129.410156 413.117188 129.714844 C 413.570312 130.019531 414.007812 130.34375 414.429688 130.6875 C 414.851562 131.035156 415.253906 131.402344 415.640625 131.785156 C 416.027344 132.171875 416.394531 132.574219 416.738281 132.996094 C 417.085938 133.417969 417.410156 133.855469 417.710938 134.308594 C 418.015625 134.765625 418.296875 135.230469 418.554688 135.710938 C 418.808594 136.191406 419.042969 136.6875 419.25 137.191406 C 419.460938 137.695312 419.644531 138.207031 419.800781 138.730469 C 419.960938 139.25 420.09375 139.777344 420.199219 140.3125 C 420.304688 140.847656 420.386719 141.386719 420.441406 141.929688 C 420.492188 142.472656 420.519531 143.019531 420.519531 143.5625 Z M 420.519531 143.5625 " fill-opacity="1" fill-rule="nonzero"/><path fill="rgb(0%, 44.309998%, 73.728943%)" d="M 402.980469 470.132812 L 344.890625 470.132812 L 337.5 377.371094 L 402.980469 377.363281 L 468.457031 377.371094 L 461.066406 470.132812 Z M 402.980469 470.132812 " fill-opacity="1" fill-rule="nonzero"/><path fill="rgb(90.979004%, 21.958923%, 38.42926%)" d="M 473.203125 507.066406 L 473.203125 704.648438 L 332.738281 704.648438 L 332.738281 507.066406 C 332.738281 493.230469 337.25 480.46875 344.867188 470.136719 L 461.078125 470.136719 C 468.695312 480.46875 473.203125 493.230469 473.203125 507.066406 Z M 473.203125 507.066406 " fill-opacity="1" fill-rule="nonzero"/><path fill="rgb(14.509583%, 53.329468%, 74.899292%)" d="M 339.605469 403.78125 L 465.308594 416.90625 L 463.425781 440.558594 L 343.890625 457.601562 Z M 339.605469 403.78125 " fill-opacity="1" fill-rule="nonzero"/><path fill="rgb(97.648621%, 78.42865%, 24.308777%)" d="M 439.054688 322.601562 C 436.945312 340.554688 421.679688 354.476562 403.164062 354.476562 C 384.546875 354.476562 369.195312 340.371094 367.246094 322.25 C 364.277344 323 361.351562 323.847656 358.464844 324.78125 C 361.464844 348.738281 380.332031 377.359375 403.164062 377.359375 C 425.835938 377.359375 444.609375 349.117188 447.804688 325.273438 C 444.917969 324.285156 442.007812 323.394531 439.054688 322.601562 Z M 439.054688 322.601562 " fill-opacity="1" fill-rule="nonzero"/><path fill="rgb(90.979004%, 21.958923%, 38.42926%)" d="M 418.984375 377.363281 C 418.984375 377.890625 418.960938 378.410156 418.90625 378.933594 C 418.855469 379.457031 418.78125 379.972656 418.675781 380.488281 C 418.574219 381 418.449219 381.507812 418.296875 382.011719 C 418.144531 382.511719 417.96875 383.003906 417.765625 383.488281 C 417.566406 383.972656 417.34375 384.445312 417.09375 384.910156 C 416.847656 385.371094 416.578125 385.820312 416.285156 386.257812 C 415.996094 386.691406 415.683594 387.113281 415.351562 387.519531 C 415.019531 387.921875 414.667969 388.3125 414.296875 388.683594 C 413.925781 389.054688 413.539062 389.40625 413.132812 389.738281 C 412.726562 390.070312 412.304688 390.382812 411.871094 390.671875 C 411.433594 390.964844 410.984375 391.234375 410.523438 391.480469 C 410.0625 391.726562 409.585938 391.949219 409.101562 392.152344 C 408.617188 392.351562 408.125 392.527344 407.625 392.679688 C 407.121094 392.832031 406.613281 392.960938 406.101562 393.0625 C 405.585938 393.164062 405.070312 393.242188 404.546875 393.292969 C 404.023438 393.34375 403.503906 393.371094 402.976562 393.371094 C 402.453125 393.371094 401.929688 393.34375 401.410156 393.292969 C 400.886719 393.242188 400.367188 393.164062 399.855469 393.0625 C 399.339844 392.960938 398.832031 392.832031 398.332031 392.679688 C 397.828125 392.527344 397.335938 392.351562 396.851562 392.152344 C 396.367188 391.949219 395.894531 391.726562 395.433594 391.480469 C 394.96875 391.234375 394.519531 390.964844 394.085938 390.671875 C 393.648438 390.382812 393.226562 390.070312 392.824219 389.738281 C 392.417969 389.40625 392.03125 389.054688 391.660156 388.683594 C 391.289062 388.3125 390.9375 387.921875 390.605469 387.519531 C 390.269531 387.113281 389.960938 386.691406 389.667969 386.257812 C 389.378906 385.820312 389.109375 385.371094 388.859375 384.910156 C 388.613281 384.445312 388.390625 383.972656 388.1875 383.488281 C 387.988281 383.003906 387.8125 382.511719 387.660156 382.011719 C 387.507812 381.507812 387.378906 381 387.277344 380.488281 C 387.175781 379.972656 387.097656 379.457031 387.046875 378.933594 C 386.996094 378.410156 386.96875 377.890625 386.96875 377.363281 C 386.96875 376.839844 386.996094 376.316406 387.046875 375.796875 C 387.097656 375.273438 387.175781 374.757812 387.277344 374.242188 C 387.378906 373.726562 387.507812 373.21875 387.660156 372.71875 C 387.8125 372.21875 387.988281 371.722656 388.1875 371.238281 C 388.390625 370.753906 388.613281 370.28125 388.859375 369.820312 C 389.109375 369.359375 389.378906 368.910156 389.667969 368.472656 C 389.960938 368.035156 390.269531 367.617188 390.605469 367.210938 C 390.9375 366.804688 391.289062 366.417969 391.660156 366.046875 C 392.03125 365.675781 392.417969 365.324219 392.824219 364.992188 C 393.226562 364.660156 393.648438 364.347656 394.085938 364.054688 C 394.519531 363.765625 394.96875 363.496094 395.433594 363.25 C 395.894531 363.003906 396.367188 362.777344 396.851562 362.578125 C 397.335938 362.375 397.828125 362.199219 398.332031 362.046875 C 398.832031 361.894531 399.339844 361.769531 399.855469 361.667969 C 400.367188 361.5625 400.886719 361.488281 401.410156 361.4375 C 401.929688 361.386719 402.453125 361.359375 402.976562 361.359375 C 403.503906 361.359375 404.023438 361.386719 404.546875 361.4375 C 405.070312 361.488281 405.585938 361.5625 406.101562 361.667969 C 406.613281 361.769531 407.121094 361.894531 407.625 362.046875 C 408.125 362.199219 408.617188 362.375 409.101562 362.578125 C 409.585938 362.777344 410.0625 363.003906 410.523438 363.25 C 410.984375 363.496094 411.433594 363.765625 411.871094 364.054688 C 412.304688 364.347656 412.726562 364.660156 413.132812 364.992188 C 413.539062 365.324219 413.925781 365.675781 414.296875 366.046875 C 414.667969 366.417969 415.019531 366.804688 415.351562 367.210938 C 415.683594 367.617188 415.996094 368.035156 416.285156 368.472656 C 416.578125 368.910156 416.847656 369.355469 417.09375 369.820312 C 417.34375 370.28125 417.566406 370.753906 417.765625 371.238281 C 417.96875 371.722656 418.144531 372.21875 418.296875 372.71875 C 418.449219 373.21875 418.574219 373.726562 418.675781 374.242188 C 418.78125 374.757812 418.855469 375.273438 418.90625 375.796875 C 418.960938 376.316406 418.984375 376.839844 418.984375 377.363281 Z M 418.984375 377.363281 " fill-opacity="1" fill-rule="nonzero"/><path fill="rgb(83.918762%, 19.60907%, 38.038635%)" d="M 473.203125 507.066406 L 473.203125 704.648438 L 442.261719 704.648438 L 396.390625 470.136719 L 461.078125 470.136719 C 468.695312 480.46875 473.203125 493.230469 473.203125 507.066406 Z M 473.203125 507.066406 " fill-opacity="1" fill-rule="nonzero"/><path fill="rgb(97.648621%, 78.42865%, 24.308777%)" d="M 445.851562 704.648438 L 438.671875 704.648438 L 392.800781 470.136719 L 399.980469 470.136719 Z M 445.851562 704.648438 " fill-opacity="1" fill-rule="nonzero"/><path fill="rgb(30.198669%, 30.198669%, 30.198669%)" d="M 363.695312 704.648438 L 390.824219 704.648438 C 390.78125 704.960938 390.738281 705.269531 390.695312 705.566406 C 389.847656 711.730469 389 717.46875 388.191406 722.65625 L 370.4375 722.65625 C 368.164062 716.945312 366.027344 711.234375 364.023438 705.566406 C 363.910156 705.257812 363.808594 704.960938 363.695312 704.648438 Z M 363.695312 704.648438 " fill-opacity="0.2863" fill-rule="nonzero"/><path fill="rgb(30.198669%, 30.198669%, 30.198669%)" d="M 442.261719 704.648438 C 442.148438 704.960938 442.050781 705.257812 441.9375 705.566406 C 439.929688 711.234375 437.796875 716.945312 435.519531 722.65625 L 417.75 722.65625 C 416.945312 717.46875 416.097656 711.730469 415.25 705.566406 C 415.207031 705.269531 415.164062 704.960938 415.121094 704.648438 Z M 442.261719 704.648438 " fill-opacity="0.2863" fill-rule="nonzero"/><path fill="rgb(90.979004%, 21.958923%, 38.038635%)" d="M 404.824219 801.789062 C 185.65625 801.789062 7.023438 623.171875 7.023438 404.027344 C 7.023438 184.878906 185.65625 6.261719 404.824219 6.261719 C 623.992188 6.261719 802.628906 184.878906 802.628906 404.027344 C 802.628906 623.171875 623.992188 801.789062 404.824219 801.789062 Z M 404.824219 51.292969 C 210.425781 51.292969 52.054688 209.648438 52.054688 404.027344 C 52.054688 598.402344 210.425781 756.757812 404.824219 756.757812 C 599.222656 756.757812 757.59375 598.402344 757.59375 404.027344 C 757.59375 209.648438 599.222656 51.292969 404.824219 51.292969 Z M 404.824219 51.292969 " fill-opacity="1" fill-rule="nonzero"/></svg>