<svg xmlns="http://www.w3.org/2000/svg" xmlns:xlink="http://www.w3.org/1999/xlink" width="200" zoomAndPan="magnify" viewBox="0 0 150 149.999998" height="200" preserveAspectRatio="xMidYMid meet" version="1.0"><path fill="rgb(100%, 100%, 100%)" d="M 128.453125 95.714844 C 128.394531 95.519531 128.246094 95.335938 128.199219 95.148438 C 128.15625 94.992188 128.113281 94.542969 128.03125 94.433594 C 127.933594 94.296875 127.691406 94.488281 127.589844 94.285156 C 127.503906 94.109375 127.46875 94.027344 127.351562 93.871094 C 127.226562 93.699219 127.488281 93.5 127.3125 93.375 L 126.679688 92.925781 C 126.34375 92.6875 126.242188 93.261719 126.023438 92.675781 C 125.964844 92.519531 125.789062 92.511719 125.703125 92.355469 C 125.625 92.003906 125.902344 91.90625 126.117188 91.746094 C 126.265625 91.632812 126.183594 91.328125 126.183594 91.15625 C 125.832031 91.066406 125.644531 90.894531 125.46875 90.5625 C 125.28125 90.203125 125.816406 90.308594 125.605469 89.960938 C 125.53125 89.839844 125.007812 89.894531 124.871094 89.808594 C 124.804688 89.765625 124.863281 89.609375 124.816406 89.527344 C 124.761719 89.425781 124.492188 89.289062 124.550781 89.195312 C 124.761719 88.875 125.152344 88.753906 124.625 88.40625 C 124.324219 88.207031 123.988281 87.363281 123.675781 87.40625 C 123.359375 87.453125 122.511719 87.089844 122.484375 87.113281 C 122.269531 87.265625 122.203125 87.539062 121.914062 87.59375 C 120.25 87.914062 118.929688 85.933594 117.714844 85.121094 C 117.292969 84.863281 116.875 84.480469 116.621094 84.0625 C 116.429688 83.753906 116.082031 83.785156 115.972656 83.433594 C 115.910156 83.222656 115.683594 83.105469 115.539062 82.949219 C 115.234375 82.617188 115.382812 82.574219 114.917969 82.445312 C 114.617188 82.363281 114.007812 82.136719 113.816406 81.882812 C 113.644531 81.648438 113.453125 81.472656 113.210938 81.292969 C 112.953125 81.035156 112.671875 80.796875 112.308594 80.730469 C 111.960938 80.667969 111.789062 80.410156 111.484375 80.273438 C 110.824219 79.976562 109.96875 79.535156 109.203125 79.683594 C 108.691406 79.785156 108.199219 80.03125 107.679688 79.820312 C 107.511719 79.75 107.238281 79.457031 107.082031 79.457031 C 107.082031 79.355469 107.039062 78.933594 107.167969 78.933594 C 107.515625 78.933594 107.507812 78.777344 107.621094 78.484375 C 107.699219 78.425781 107.777344 78.355469 107.867188 78.308594 C 107.875 78.257812 107.929688 78.230469 107.929688 78.164062 L 107.921875 78.15625 C 107.679688 78.15625 107.363281 78.222656 107.214844 77.996094 C 107.046875 77.742188 106.253906 77.800781 106.3125 77.652344 C 106.636719 76.859375 107.21875 77.621094 107.742188 77.175781 C 107.898438 77.042969 108.683594 76.136719 108.476562 76.070312 C 108.15625 75.972656 108.113281 76.179688 108.214844 75.761719 C 108.234375 75.683594 108.414062 75.1875 108.335938 75.160156 C 108.320312 75.101562 107.703125 74.734375 107.609375 74.675781 C 107.21875 74.429688 107.441406 74.289062 107.269531 74.007812 C 107.183594 73.867188 106.929688 73.851562 106.847656 73.671875 C 106.722656 73.390625 106.882812 73.238281 106.660156 72.945312 C 106.476562 72.539062 106.335938 72.65625 106.375 72.15625 C 106.382812 72.011719 106.191406 71.683594 106.046875 71.648438 C 105.816406 71.589844 106.023438 71.46875 105.933594 71.332031 C 105.847656 71.195312 105.324219 71.367188 105.234375 71.480469 C 104.976562 71.800781 104.882812 71.59375 104.492188 71.578125 C 103.816406 71.554688 104.28125 71.355469 104.601562 71.097656 C 104.984375 70.785156 105.464844 70.535156 105.007812 70.070312 C 104.710938 69.773438 104.574219 69.804688 104.773438 69.386719 C 104.859375 69.207031 104.421875 69.316406 104.367188 69.320312 C 103.957031 69.351562 103.535156 69.382812 103.265625 69.667969 C 103.117188 69.824219 102.792969 69.800781 102.625 69.921875 C 102.625 69.835938 102.785156 69.566406 102.820312 69.433594 C 102.898438 69.117188 102.707031 69.207031 102.472656 69.113281 C 101.972656 68.777344 101.164062 68.179688 101.164062 67.511719 C 101.164062 67.363281 101.234375 67.164062 101.191406 67.035156 C 101.15625 66.929688 100.753906 66.710938 100.644531 66.613281 C 100.394531 66.386719 100.265625 66.03125 100.191406 65.714844 C 100.140625 65.496094 99.953125 65.316406 99.882812 65.117188 C 99.484375 64.867188 99.511719 64.738281 99.417969 64.347656 L 99.410156 64.339844 C 99.226562 64.339844 98.421875 64.433594 98.34375 64.304688 C 98.027344 63.785156 98.414062 64.011719 98.46875 63.636719 C 98.511719 63.371094 98.714844 63.542969 98.871094 63.40625 C 98.910156 63.375 99.042969 62.75 99.035156 62.675781 C 99.027344 62.566406 98.878906 62.488281 99.011719 62.355469 C 99.152344 62.210938 99.207031 62.207031 99.335938 62.019531 C 99.46875 61.832031 99.609375 61.691406 99.804688 61.570312 C 99.914062 61.503906 100.457031 61.289062 100.457031 61.214844 C 100.203125 61.046875 100.070312 60.484375 100.078125 60.195312 C 100.5 59.402344 100.511719 58.859375 99.96875 58.191406 C 99.789062 57.96875 99.710938 58.234375 99.523438 58.097656 C 99.40625 58.015625 99.339844 58.1875 99.242188 58.191406 C 99.113281 58.199219 98.933594 57.625 98.824219 57.488281 C 98.695312 57.332031 98.742188 57.140625 98.742188 56.945312 C 98.742188 56.808594 98.492188 56.355469 98.515625 56.320312 C 98.558594 56.265625 99.015625 56.019531 99.03125 56.027344 C 99.375 56.21875 99.507812 56.074219 99.628906 55.746094 C 99.644531 55.507812 99.703125 55.351562 99.675781 55.109375 C 99.664062 54.980469 99.46875 54.847656 99.523438 54.761719 C 99.59375 54.644531 99.757812 54.148438 99.855469 54.148438 C 99.867188 54.195312 100.054688 54.203125 100.105469 54.203125 C 100.242188 54.761719 100.414062 55.074219 101.085938 54.828125 C 101.308594 54.742188 101.378906 54.925781 101.511719 54.875 C 101.597656 54.839844 101.726562 54.757812 101.816406 54.78125 C 102.042969 54.835938 102.09375 55.257812 102.433594 55.027344 C 102.5 54.980469 102.382812 54.789062 102.371094 54.738281 C 102.339844 54.574219 102.441406 54.429688 102.378906 54.265625 C 102.28125 54.003906 102.25 54.003906 102.25 53.714844 C 102.25 53.617188 102.136719 53.144531 102.078125 53.0625 C 101.992188 52.941406 101.871094 52.996094 101.871094 52.816406 C 101.871094 52.667969 101.925781 52.617188 101.886719 52.53125 L 42.847656 52.53125 L 42.367188 53.21875 L 40.550781 57.28125 L 36.058594 58.683594 L 12.015625 73.371094 L 15.835938 87.003906 L 14.589844 87.285156 L 15.378906 90.019531 L 18.085938 89.175781 L 18.605469 91.109375 L 17.371094 92.328125 L 32.472656 95.410156 L 33.175781 95.507812 L 33.953125 96.023438 L 128.75 96.023438 C 128.632812 95.96875 128.511719 95.910156 128.453125 95.714844 Z M 128.453125 95.714844 " fill-opacity="1" fill-rule="nonzero"/><path fill="rgb(80.778503%, 6.669617%, 14.898682%)" d="M 101.785156 52.402344 C 101.347656 52.144531 101.308594 52.230469 101.5625 51.84375 C 101.714844 51.617188 101.550781 51.414062 101.929688 51.367188 C 101.929688 51.25 101.835938 51.253906 101.835938 51.152344 C 102.007812 51.097656 101.714844 50.757812 101.792969 50.683594 L 102.296875 50.195312 C 102.445312 50.394531 102.265625 50.539062 102.605469 50.410156 C 102.714844 50.367188 102.933594 50.207031 103.039062 50.128906 C 103.304688 49.925781 102.996094 49.222656 103.136719 49.222656 C 103.476562 49.222656 103.484375 49.148438 103.804688 49.332031 C 104.140625 49.519531 104.125 48.859375 104.191406 48.679688 C 104.261719 48.5 104.492188 48.484375 104.460938 48.257812 C 104.402344 47.847656 103.992188 47.429688 104.359375 47.066406 C 104.472656 46.949219 105.191406 47.019531 104.78125 46.78125 L 104.875 46.304688 C 104.882812 46.273438 104.882812 46.289062 104.90625 46.304688 C 104.957031 46.335938 105.027344 46.34375 105.144531 46.3125 C 105.296875 46.277344 105.515625 46.578125 105.613281 46.667969 C 105.773438 46.816406 105.917969 46.542969 106.011719 46.648438 C 106.144531 46.796875 106.15625 46.75 106.328125 46.804688 C 106.371094 46.816406 106.871094 47.265625 106.765625 46.851562 C 106.578125 46.089844 107.191406 46.652344 107.496094 46.46875 C 107.707031 46.339844 108.011719 46.398438 108.128906 46.160156 C 108.164062 46.089844 108.203125 46.023438 108.253906 45.964844 L 107.996094 45.738281 C 107.757812 45.5 107.796875 45.113281 108.027344 44.898438 C 108.289062 44.65625 108.488281 44.671875 108.222656 44.308594 C 108.066406 44.097656 108.101562 44.074219 107.828125 44.101562 C 107.507812 44.136719 107.21875 44.097656 107.449219 43.6875 C 107.617188 43.386719 107.964844 43.347656 107.882812 42.921875 C 107.800781 42.507812 107.027344 41.964844 106.648438 41.84375 L 105.660156 39.953125 L 105.6875 39.429688 L 105.699219 39.421875 C 105.710938 39.371094 105.929688 39.390625 105.972656 39.375 C 105.972656 39.359375 105.976562 39.351562 105.960938 39.347656 C 105.960938 39.265625 105.773438 39.195312 105.773438 39.035156 C 105.773438 38.855469 105.730469 38.769531 105.621094 38.632812 C 105.242188 38.152344 105.957031 38.542969 106.105469 38.550781 C 106.316406 38.5625 106.078125 38.230469 106.035156 38.164062 C 105.984375 38.085938 105.992188 37.941406 105.992188 37.855469 C 105.992188 37.671875 106.085938 37.65625 105.867188 37.550781 C 105.640625 37.445312 105.785156 37.375 105.832031 37.171875 C 105.914062 36.925781 106.171875 36.429688 106.46875 36.527344 C 106.792969 36.632812 107.105469 36.863281 107.480469 36.6875 C 107.820312 36.527344 107.652344 36.75 107.921875 36.75 C 108.070312 36.296875 108.351562 36.148438 108.789062 36.253906 C 109.179688 36.34375 109.375 36.039062 109.628906 35.78125 C 109.875 35.535156 109.824219 35.597656 110.175781 35.507812 C 110.199219 35.417969 110.121094 35.132812 110.253906 35.097656 C 110.269531 35.042969 110.285156 34.613281 110.25 34.601562 C 110.234375 34.539062 109.789062 34.695312 109.707031 34.363281 C 109.566406 34.324219 109.425781 34.792969 109.046875 34.703125 C 108.753906 34.632812 108.648438 35.1875 108.386719 34.824219 C 108.183594 34.542969 108.171875 34.894531 107.988281 34.882812 C 107.839844 34.875 107.667969 34.410156 107.601562 34.289062 C 107.503906 34.113281 106.820312 33.980469 106.648438 34.011719 C 106.351562 34.070312 106.269531 34.304688 105.917969 34.292969 C 105.632812 34.292969 105.273438 34.214844 105.273438 34.503906 C 105.273438 34.65625 104.632812 34.339844 104.519531 34.339844 C 104.25 34.339844 104.269531 34.636719 104.125 34.71875 C 104.019531 34.773438 103.964844 34.644531 103.917969 34.664062 C 103.832031 34.695312 103.710938 34.789062 103.613281 34.757812 C 103.492188 34.71875 103.347656 34.523438 103.292969 34.515625 C 103.183594 34.503906 103.074219 34.679688 102.953125 34.710938 C 102.878906 34.730469 102.753906 34.847656 102.738281 34.84375 C 102.507812 34.816406 102.179688 33.824219 102.042969 33.636719 C 101.871094 33.402344 101.597656 33.328125 101.570312 33.027344 C 101.558594 32.917969 100.980469 32.425781 100.863281 32.390625 C 100.503906 32.277344 100.285156 32.046875 100.0625 31.753906 L 99.410156 31.699219 C 99.296875 31.769531 99.132812 31.6875 99.003906 31.6875 C 98.929688 31.6875 98.496094 31.800781 98.4375 31.847656 C 98.179688 32.042969 97.992188 32.359375 97.722656 32 C 97.585938 31.824219 97.507812 32.117188 97.402344 32 C 97.367188 31.964844 97.398438 31.808594 97.320312 31.855469 C 97.238281 31.902344 97.359375 31.558594 97.253906 31.527344 C 97.253906 31.523438 97.234375 31.523438 97.1875 31.511719 C 97.351562 31.285156 97.742188 30.757812 97.796875 30.472656 C 97.871094 30.066406 97.664062 30.0625 97.375 29.917969 C 96.980469 29.71875 97.109375 28.890625 97.183594 28.554688 C 97.207031 28.4375 96.929688 27.890625 96.835938 27.8125 C 96.710938 27.707031 96.304688 27.808594 96.347656 27.578125 C 96.394531 27.332031 96.683594 27.429688 96.683594 27.15625 C 96.683594 26.910156 96.164062 26.902344 96.226562 26.660156 C 96.25 26.414062 96.496094 26.335938 96.402344 26.074219 C 96.324219 25.859375 96.339844 25.707031 96.339844 25.472656 C 96.339844 25.277344 95.882812 24.753906 95.742188 24.78125 C 95.523438 24.828125 94.960938 24.839844 94.847656 25.015625 C 94.757812 25.152344 94.617188 25.285156 94.445312 25.183594 C 93.949219 24.890625 93.953125 24.554688 93.632812 24.179688 C 93.503906 24.027344 93.605469 23.5 93.460938 23.449219 C 93.261719 23.378906 92.628906 23.042969 92.867188 22.75 C 92.972656 22.621094 93.195312 22.695312 93.300781 22.589844 C 93.398438 22.488281 93.207031 22.191406 93.160156 22.09375 C 92.992188 21.757812 93.660156 21.859375 93.660156 21.625 C 93.660156 21.390625 93.664062 21.058594 93.625 20.832031 C 93.53125 20.238281 93.347656 19.40625 92.574219 19.578125 C 92.113281 19.683594 92.480469 18.65625 91.839844 19.078125 C 91.539062 19.273438 91.449219 18.953125 91.226562 19.011719 C 90.777344 19.125 90.878906 19.0625 90.785156 18.675781 C 90.679688 18.246094 91.121094 18.21875 91.085938 18.070312 C 90.996094 17.722656 91.554688 17.835938 91.617188 17.488281 C 91.636719 17.179688 91.691406 16.867188 91.566406 16.578125 C 91.472656 16.367188 91.324219 16.308594 91.324219 16.046875 C 91.324219 15.820312 91.640625 15.191406 91.4375 14.988281 C 91.257812 14.808594 90.925781 15.003906 90.824219 14.644531 C 90.804688 14.644531 90.8125 14.640625 90.796875 14.625 C 90.554688 14.6875 90.332031 14.980469 90.203125 14.558594 C 90.160156 14.40625 89.925781 14.125 89.925781 14.050781 C 89.925781 13.835938 89.824219 13.816406 89.804688 13.679688 C 89.738281 13.644531 89.617188 13.507812 89.589844 13.441406 L 89.976562 13.050781 C 89.855469 12.960938 89.785156 12.875 89.65625 12.808594 C 89.535156 12.746094 89.328125 12.792969 89.230469 12.6875 C 88.964844 12.394531 88.386719 12.8125 88.269531 12.507812 C 88.1875 12.292969 87.769531 12.527344 87.65625 12.59375 C 87.585938 12.636719 87.484375 12.84375 87.421875 12.855469 C 87.351562 12.871094 87.242188 12.855469 87.164062 12.863281 C 87.058594 13.003906 87.003906 13.433594 86.855469 13.480469 C 86.578125 13.566406 86.660156 13.484375 86.542969 13.726562 C 86.492188 13.835938 86.3125 13.90625 86.210938 13.960938 C 86.066406 14.039062 84.878906 14.832031 84.796875 14.5 C 84.746094 14.5 84.394531 14.710938 84.363281 14.746094 C 84.339844 14.773438 84.5 15.03125 84.476562 15.128906 C 84.242188 15.164062 83.945312 15.882812 83.882812 16.082031 C 83.738281 16.082031 83.53125 15.84375 83.320312 15.824219 C 82.972656 15.800781 83.070312 15.652344 83.035156 15.390625 C 83.007812 15.207031 82.949219 15.1875 82.847656 15.042969 C 82.699219 14.835938 82.785156 14.742188 82.714844 14.519531 C 82.234375 14.242188 82.429688 14.210938 82.28125 13.816406 C 82.171875 13.53125 82.5 13.335938 82.632812 13.105469 C 82.65625 13.066406 82.6875 12.898438 82.726562 12.890625 C 82.742188 12.828125 83.441406 12.996094 83.441406 12.640625 C 83.441406 12.304688 83.242188 12.191406 83.242188 11.925781 C 83.242188 11.8125 83.324219 11.425781 83.292969 11.414062 L 83.292969 11.402344 C 83.109375 11.375 82.921875 11.132812 82.886719 10.960938 C 82.832031 10.695312 82.570312 10.867188 82.386719 10.792969 C 82.257812 10.738281 82.261719 10.601562 82.066406 10.558594 C 81.78125 10.488281 81.714844 10.433594 81.539062 10.214844 C 81.449219 10.101562 81.269531 10.234375 81.125 10.25 C 80.847656 10.40625 80.605469 10.207031 80.347656 10.109375 C 80.039062 9.988281 79.894531 10.320312 79.699219 10.503906 C 79.59375 10.601562 79.242188 10.59375 79.246094 10.65625 C 79.261719 10.882812 79.183594 11.0625 79.183594 11.226562 C 78.957031 11.390625 78.917969 11.667969 78.652344 11.832031 C 78.386719 11.988281 77.992188 11.648438 77.84375 11.910156 C 77.75 12.078125 77.742188 12.320312 77.511719 12.21875 C 77.320312 12.136719 77.308594 11.78125 77.136719 11.710938 C 76.816406 11.578125 76.214844 11.675781 75.84375 11.601562 C 75.691406 11.574219 75.386719 11.785156 75.222656 11.832031 C 74.769531 11.957031 74.878906 11.933594 74.722656 11.5625 L 74.554688 11.574219 C 74.414062 11.53125 74.355469 11.460938 74.234375 11.402344 C 74.1875 11.046875 73.644531 11.453125 73.488281 11.460938 C 73.074219 11.480469 73.140625 11.242188 72.828125 11.09375 C 72.4375 10.90625 71.632812 10.59375 71.546875 10.15625 C 71.0625 10.035156 71.132812 10.285156 70.882812 10.457031 C 70.617188 10.632812 70.285156 10.296875 70.226562 10.0625 C 70.050781 10.015625 70.007812 9.941406 69.921875 9.800781 C 69.824219 9.644531 69.480469 9.886719 69.394531 9.691406 C 69.332031 9.554688 68.441406 9.347656 68.253906 9.371094 C 68.035156 9.46875 67.742188 9.371094 67.574219 9.566406 C 67.433594 9.71875 67.363281 9.632812 67.160156 9.632812 C 67 10.125 66.914062 9.984375 66.503906 10.121094 C 66.382812 10.160156 66.40625 10.300781 66.34375 10.328125 C 66.078125 10.457031 65.207031 9.9375 64.964844 9.785156 C 64.625 9.574219 64.648438 10.003906 64.496094 9.398438 L 64.492188 9.390625 C 64.472656 9.386719 64.453125 9.378906 64.445312 9.363281 C 64.300781 9.363281 64.148438 9.277344 64.03125 9.277344 L 64.023438 9.28125 C 63.980469 9.507812 63.425781 9.714844 63.378906 9.921875 C 63.332031 9.933594 63.390625 10.144531 63.378906 10.179688 C 63.363281 10.222656 63.199219 10.296875 63.15625 10.335938 C 62.820312 10.648438 62.699219 10.136719 62.761719 10.703125 C 62.738281 10.738281 62.664062 11.015625 62.648438 11.019531 C 62.640625 11.0625 62.363281 11.046875 62.308594 11.058594 C 62.308594 11.234375 62.378906 11.429688 62.277344 11.574219 C 62.175781 11.722656 61.8125 11.886719 61.847656 12.039062 C 61.875 12.144531 61.746094 12.277344 61.667969 12.351562 C 61.503906 12.519531 61.367188 12.703125 61.289062 12.917969 C 61.230469 13.085938 60.683594 13.097656 60.503906 13.144531 C 60.242188 13.210938 60.035156 13.183594 59.78125 13.21875 C 59.476562 13.257812 59.363281 13.496094 59.054688 13.554688 L 58.441406 13.558594 L 58.515625 13.941406 L 58.585938 14.453125 L 51.53125 22.234375 L 46.019531 23.265625 L 44.449219 26.054688 L 44.101562 30.722656 L 45.554688 34.234375 L 45.769531 37.8125 L 44.234375 39.945312 L 44.207031 41.769531 L 43.605469 43.523438 L 43.527344 45.320312 L 43.742188 51.246094 L 42.847656 52.53125 L 101.886719 52.53125 C 101.871094 52.496094 101.839844 52.453125 101.785156 52.402344 Z M 101.785156 52.402344 " fill-opacity="1" fill-rule="nonzero"/><path fill="rgb(0%, 0%, 0%)" d="M 46.554688 104.355469 L 54.933594 108.28125 L 89.203125 137.191406 L 111.289062 139.269531 L 113.058594 138.644531 L 113.804688 137.746094 C 114.117188 137.386719 114.523438 137.175781 114.792969 136.757812 C 115.128906 136.230469 115.519531 135.730469 115.796875 135.164062 C 115.941406 134.707031 116.355469 134.421875 116.679688 134.117188 C 117.089844 133.730469 117.457031 132.90625 117.632812 132.367188 C 117.871094 131.636719 118.386719 131.175781 118.699219 130.511719 C 118.851562 130.148438 118.941406 129.765625 118.941406 129.371094 C 118.941406 128.917969 119.566406 128.222656 119.742188 127.789062 C 120.039062 127.054688 120.386719 126.28125 120.582031 125.503906 C 121.113281 125.175781 120.992188 124.742188 121.726562 124.632812 C 122.105469 124.574219 122.5 124.335938 122.828125 124.136719 C 123.480469 123.742188 123.511719 123.539062 124.34375 123.554688 L 128.226562 123.621094 L 131.585938 125.382812 C 132.199219 124.484375 132.679688 124.464844 133.679688 124.644531 C 134.160156 124.734375 134.585938 124.8125 135.042969 125 C 135.703125 125.191406 136.261719 125.84375 136.835938 126.214844 C 137.117188 126.398438 137.769531 126.328125 138.117188 126.328125 C 138.265625 126.328125 138.332031 126.222656 138.457031 126.222656 C 138.613281 126.222656 138.867188 126.382812 139.0625 126.410156 C 139.21875 126.429688 139.292969 126.179688 139.285156 126.066406 C 139.277344 125.960938 138.015625 125.671875 138.015625 125.308594 C 137.871094 125.128906 137.734375 124.941406 137.578125 124.773438 C 137.285156 124.460938 137.773438 123.953125 137.125 123.566406 C 136.507812 123.199219 136.871094 122.628906 136.871094 122.078125 C 136.871094 121.269531 134.667969 120.253906 134.175781 119.757812 C 133.507812 119.089844 133.636719 118.292969 132.425781 118.082031 C 132.332031 118.066406 132.238281 118.050781 132.136719 118.027344 L 132.226562 110.066406 L 127.703125 110.023438 L 127.726562 103.910156 L 130.011719 98.265625 C 130.117188 98.035156 130.140625 97.746094 129.941406 97.554688 C 129.695312 97.324219 129.402344 97.253906 129.234375 96.933594 C 129.230469 96.9375 129.226562 96.945312 129.226562 96.953125 C 129.226562 96.945312 129.230469 96.9375 129.230469 96.929688 C 129.230469 96.925781 129.226562 96.921875 129.226562 96.917969 C 129.230469 96.917969 129.234375 96.917969 129.238281 96.917969 C 129.277344 96.8125 129.398438 96.601562 129.359375 96.539062 C 129.296875 96.429688 129.074219 96.578125 129.027344 96.316406 C 128.992188 96.125 128.875 96.078125 128.75 96.023438 L 33.953125 96.023438 Z M 46.554688 104.355469 " fill-opacity="1" fill-rule="nonzero"/><path fill="rgb(0%, 0%, 0%)" d="M 129.234375 96.933594 C 129.238281 96.925781 129.242188 96.921875 129.238281 96.917969 C 129.234375 96.921875 129.234375 96.925781 129.230469 96.929688 C 129.234375 96.933594 129.234375 96.933594 129.234375 96.933594 Z M 129.234375 96.933594 " fill-opacity="1" fill-rule="nonzero"/><path fill="rgb(0%, 47.839355%, 23.919678%)" d="M 79.613281 66.722656 C 79.367188 66.59375 79.09375 66.382812 79 66.257812 C 78.863281 66.0625 78.941406 66.054688 79.511719 66.210938 C 80.535156 66.488281 81.191406 66.378906 81.847656 65.824219 L 82.421875 65.335938 L 83.101562 65.683594 C 83.472656 65.875 83.871094 66.003906 83.984375 65.972656 C 84.277344 65.894531 84.886719 65.113281 84.867188 64.839844 C 84.84375 64.503906 85.125 64.589844 85.261719 64.957031 C 85.535156 65.679688 85.136719 66.503906 84.441406 66.6875 C 84.101562 66.777344 83.785156 66.746094 83.269531 66.566406 C 82.636719 66.34375 82.527344 66.347656 82.210938 66.589844 C 81.496094 67.136719 80.503906 67.191406 79.613281 66.722656 Z M 79.613281 66.722656 " fill-opacity="1" fill-rule="nonzero"/><path fill="rgb(0%, 47.839355%, 23.919678%)" d="M 82.140625 64.40625 C 81.890625 64.089844 81.59375 62.894531 81.691406 62.597656 C 81.773438 62.34375 81.863281 62.292969 82.09375 62.367188 C 82.496094 62.492188 82.589844 62.773438 82.53125 63.71875 C 82.484375 64.492188 82.367188 64.695312 82.140625 64.40625 Z M 82.140625 64.40625 " fill-opacity="1" fill-rule="nonzero"/><path fill="rgb(0%, 47.839355%, 23.919678%)" d="M 52.402344 63.546875 C 52.320312 64.125 53.425781 65.566406 53.925781 65.824219 C 53.585938 65.976562 53.164062 65.910156 52.851562 66.082031 C 51.113281 67.824219 44.761719 74.039062 43.601562 75.523438 C 47.039062 75.589844 50.847656 75.476562 54.070312 75.328125 C 54.066406 72.988281 56.277344 72.867188 57.761719 72.011719 C 58.523438 73.21875 60.4375 73.125 60.675781 74.9375 C 60.675781 77.109375 60.679688 80.378906 60.679688 82.738281 C 50.964844 82.738281 41.050781 82.738281 31.332031 82.738281 C 30.816406 85.023438 28.757812 86.769531 25.890625 86.050781 C 26.777344 85.121094 28.273438 84.800781 28.808594 83.519531 C 29.257812 80.703125 27.90625 78.96875 27.03125 77.371094 C 28.476562 76.84375 28.699219 76.710938 30.167969 75.71875 C 29.136719 78.867188 32.851562 78.519531 35.609375 78.449219 C 35.703125 77.378906 35.648438 76.117188 34.832031 75.964844 C 35.886719 75.578125 36.0625 75.445312 37.746094 74.011719 C 37.746094 75.3125 37.746094 76.953125 37.746094 78.253906 C 44.304688 78.253906 51.375 78.203125 58.070312 78.203125 C 58.070312 76.875 58.417969 74.746094 57.375 74.746094 C 56.375 74.746094 57.324219 77.472656 56.550781 77.472656 C 55.773438 77.472656 46.101562 77.472656 40.855469 77.472656 C 40.855469 76.886719 40.839844 75.660156 40.839844 74.777344 C 41.503906 74.109375 41.425781 74.167969 45.972656 69.605469 C 46.425781 69.152344 49.613281 66.261719 52.402344 63.546875 Z M 52.402344 63.546875 " fill-opacity="1" fill-rule="nonzero"/><path fill="rgb(0%, 47.839355%, 23.919678%)" d="M 91.628906 63.433594 C 92.726562 64.023438 93.59375 64.84375 94.933594 65.1875 C 94.777344 65.746094 94.285156 65.964844 94.15625 66.554688 C 94.15625 70.519531 94.15625 74.484375 94.15625 78.445312 C 95.652344 78.777344 95.96875 77.925781 96.679688 77.472656 C 96.875 79.375 98.085938 81.242188 98.042969 82.734375 C 95.90625 82.734375 93.765625 82.734375 91.628906 82.734375 C 91.628906 76.304688 91.628906 69.867188 91.628906 63.433594 Z M 91.628906 63.433594 " fill-opacity="1" fill-rule="nonzero"/><path fill="rgb(0%, 47.839355%, 23.919678%)" d="M 83.078125 69.804688 C 83.078125 69.804688 85.410156 67.828125 85.410156 67.75 C 85.410156 71.132812 85.410156 74.75 85.410156 78.132812 L 87.089844 78.128906 C 87.089844 74.175781 87.039062 70.164062 87.039062 66.488281 C 87.722656 65.804688 89.058594 64.8125 89.390625 64.121094 C 89.390625 71.183594 89.390625 77.167969 89.390625 82.707031 C 84.65625 82.707031 75.828125 82.714844 74.660156 82.714844 C 74.441406 78.855469 74.40625 74.859375 78.886719 75.71875 C 78.886719 75.0625 78.886719 74.671875 78.886719 74.144531 C 78.75 73.875 78.507812 74.210938 78.449219 73.859375 C 79.160156 73.144531 79.402344 72.960938 81.328125 71.273438 C 81.328125 73.3125 81.363281 78.125 81.363281 78.125 C 81.835938 78.125 82.753906 78.125 83.0625 78.125 C 83.0625 78.125 83.078125 70.070312 83.078125 69.804688 Z M 77.550781 78.023438 C 77.863281 78.5 78.9375 78.492188 78.886719 77.691406 C 78.707031 77.03125 77.296875 77.28125 77.550781 78.023438 Z M 77.550781 78.023438 " fill-opacity="1" fill-rule="nonzero"/><path fill="rgb(0%, 47.839355%, 23.919678%)" d="M 35.808594 84.929688 C 35.808594 85.175781 35.71875 85.390625 35.542969 85.566406 C 35.367188 85.742188 35.15625 85.832031 34.90625 85.832031 C 34.660156 85.832031 34.445312 85.742188 34.273438 85.566406 C 34.097656 85.390625 34.007812 85.175781 34.007812 84.929688 C 34.007812 84.679688 34.097656 84.464844 34.273438 84.289062 C 34.445312 84.113281 34.660156 84.027344 34.90625 84.027344 C 35.15625 84.027344 35.367188 84.113281 35.542969 84.289062 C 35.71875 84.464844 35.808594 84.679688 35.808594 84.929688 Z M 35.808594 84.929688 " fill-opacity="1" fill-rule="nonzero"/><path fill="rgb(0%, 47.839355%, 23.919678%)" d="M 62.667969 63.453125 C 63.761719 64.042969 64.628906 64.863281 65.972656 65.207031 C 65.816406 65.765625 65.320312 65.984375 65.191406 66.570312 C 65.191406 70.535156 65.191406 74.5 65.191406 78.464844 C 66.691406 78.796875 67.003906 77.945312 67.71875 77.492188 C 67.914062 79.394531 69.121094 81.261719 69.078125 82.753906 C 66.941406 82.753906 64.804688 82.753906 62.667969 82.753906 C 62.667969 76.320312 62.667969 69.886719 62.667969 63.453125 Z M 62.667969 63.453125 " fill-opacity="1" fill-rule="nonzero"/><path stroke-linecap="butt" transform="matrix(0.0810194, 0, 0, 0.0812965, 5.901284, 3.029163)" fill="none" stroke-linejoin="miter" d="M 1037.718121 123.272441 L 1032.944958 128.029334 C 1033.330668 128.894224 1034.777081 130.527904 1035.596715 131.008398 C 1035.837784 132.690128 1037.091342 132.930375 1037.091342 135.573093 C 1037.091342 136.486032 1039.984169 139.94559 1040.51452 141.819518 C 1042.105575 147.008855 1044.85376 143.405149 1047.843014 142.636358 C 1048.035869 142.828556 1047.939441 142.876605 1048.18051 142.876605 C 1049.434068 147.297152 1053.580453 144.894681 1055.750072 147.104954 C 1058.257189 149.603524 1054.351873 157.339481 1054.351873 160.126347 C 1054.351873 163.345658 1056.183996 164.0664 1057.341127 166.661068 C 1058.883968 170.216725 1058.208975 174.060679 1057.967906 177.856583 C 1057.196486 182.132982 1050.301916 180.739549 1051.410833 185.015947 C 1051.844757 186.841825 1046.3966 187.178171 1047.698372 192.463607 C 1048.855503 197.2205 1047.601945 197.989291 1053.146529 196.595857 C 1055.894714 195.875116 1057.00363 199.815169 1060.716091 197.412698 C 1068.62315 192.22336 1064.091055 204.860358 1069.78028 203.563023 C 1079.326607 201.448849 1081.592655 211.683375 1082.797999 218.986887 C 1083.231923 221.773754 1083.183709 225.857955 1083.183709 228.74092 C 1083.183709 231.623885 1074.939154 230.3746 1077.012346 234.50685 C 1077.590912 235.708086 1079.953386 239.359842 1078.748042 240.609127 C 1077.44627 241.858412 1074.698085 240.993522 1073.396313 242.579153 C 1070.455273 246.18286 1078.265904 250.31511 1080.724807 251.179999 C 1082.55693 251.804642 1081.255158 258.243264 1082.846213 260.165241 C 1086.799742 264.777985 1086.751528 268.862186 1092.922891 272.513942 C 1094.996084 273.763227 1096.731779 272.129547 1097.840696 270.447817 C 1099.238896 268.285593 1106.181679 268.141445 1108.88165 267.564852 C 1110.617346 267.180456 1116.258357 273.667128 1116.258357 276.069599 C 1116.258357 278.952564 1116.065502 280.826492 1117.029778 283.46921 C 1118.186908 286.688521 1115.149441 287.64951 1114.860158 290.676623 C 1114.088738 293.655687 1120.501169 293.751786 1120.501169 296.778899 C 1120.501169 300.142359 1116.93335 298.941123 1116.354785 301.968237 C 1115.824434 304.803153 1120.838666 303.505818 1122.381507 304.851202 C 1123.538637 305.812191 1126.961815 312.539109 1126.672532 313.980592 C 1125.756471 318.112842 1124.165416 328.299319 1129.035007 330.74984 C 1132.602827 332.527668 1135.20637 332.575718 1134.242095 337.572858 C 1133.567102 341.032416 1128.745725 347.567137 1126.720746 350.354004 C 1127.299311 350.498152 1127.54038 350.498152 1127.54038 350.546201 C 1128.842152 350.930597 1127.347525 355.158946 1128.360014 354.582353 C 1129.372504 354.00576 1128.93858 355.927736 1129.372504 356.360181 C 1130.674276 357.801664 1131.638551 354.197957 1133.326033 356.360181 C 1136.652783 360.780728 1138.967045 356.888725 1142.149154 354.486254 C 1142.920574 353.909661 1148.224089 352.516227 1149.140151 352.516227 C 1150.731205 352.516227 1152.756184 353.525265 1154.154383 352.660376 L 1162.206083 353.333068 C 1164.954268 356.936774 1167.654239 359.77169 1172.089907 361.165123 C 1173.53632 361.597568 1180.671958 367.651795 1180.8166 368.997179 C 1181.154096 372.696984 1184.52906 373.609923 1186.650466 376.492888 C 1188.337948 378.799261 1192.387905 391.003813 1195.232518 391.340159 C 1195.425373 391.388209 1196.968213 389.898677 1197.884275 389.706479 C 1199.378902 389.322084 1200.728888 387.15986 1202.078873 387.304008 C 1202.753866 387.400107 1204.537776 389.802578 1206.032403 390.283072 C 1207.237747 390.667467 1208.732374 389.514281 1209.793077 389.129886 C 1210.371642 388.889639 1211.094849 390.47527 1212.348407 389.754528 C 1214.132317 388.79354 1213.891248 385.141784 1217.217998 385.141784 C 1218.616198 385.141784 1226.523256 389.033787 1226.523256 387.15986 C 1226.523256 383.556153 1230.958923 384.565191 1234.526743 384.565191 C 1238.817768 384.709339 1239.830258 381.826374 1243.494504 381.105633 C 1245.61591 380.721237 1254.053321 382.354918 1255.258665 384.517142 C 1256.078299 385.958624 1258.199705 391.724555 1260.031829 391.820654 C 1262.297876 391.964802 1262.442517 387.640354 1264.949633 391.099912 C 1268.179956 395.568508 1269.481728 388.745491 1273.097761 389.61038 C 1277.774497 390.715517 1279.510193 384.949586 1281.245889 385.382031 C 1282.258378 389.514281 1287.754748 387.592305 1287.947603 388.361095 C 1288.381527 388.505244 1288.188672 393.79068 1287.995817 394.463372 C 1286.356549 394.895817 1287.320824 398.403424 1287.031541 399.508561 C 1282.692302 400.613698 1283.319081 399.844907 1280.281613 402.87202 C 1277.147718 405.995233 1274.737029 409.791137 1269.915652 408.637951 C 1264.515709 407.388666 1261.044318 409.214544 1259.212194 414.740227 C 1255.885444 414.740227 1257.958636 412.04946 1253.764038 414.019486 C 1249.135516 416.18171 1245.278414 413.346794 1241.276671 412.04946 C 1237.612424 410.848224 1234.430315 416.902451 1233.417826 419.977614 C 1232.839261 422.476184 1231.055351 423.341074 1233.85175 424.638408 C 1236.551721 425.935742 1235.394591 426.12794 1235.394591 428.386263 C 1235.394591 429.44335 1235.298163 431.221179 1235.924942 432.134118 C 1236.455294 432.999007 1239.396334 437.083208 1236.79279 436.93906 C 1234.960667 436.842961 1226.137546 432.038019 1230.814282 437.948097 C 1232.164268 439.629827 1232.694619 440.686914 1232.694619 442.897188 C 1232.694619 444.867214 1235.00888 445.732104 1235.00888 446.741141 C 1235.201735 446.789191 1235.153522 446.88529 1235.153522 447.077487 C 1234.62317 447.269685 1231.923199 447.029438 1231.778558 447.65408 L 1231.633916 447.750179 L 1231.29642 454.188802 L 1243.494504 477.444721 C 1248.17124 478.934253 1257.717567 485.613123 1258.730057 490.706361 C 1259.742546 495.943748 1255.45152 496.424242 1253.378328 500.124048 C 1250.533715 505.121188 1254.101534 505.601682 1258.055064 505.217286 C 1261.430028 504.88094 1260.996104 505.169237 1262.924655 507.763906 C 1266.203192 512.232502 1263.744289 512.040304 1260.513966 515.019368 C 1257.669354 517.662086 1257.187216 522.418979 1260.128256 525.349994 L 1263.310365 528.13686 C 1262.683586 528.857601 1262.201448 529.674442 1261.767524 530.539331 C 1260.321111 533.422296 1256.560437 532.749604 1253.956893 534.335235 C 1250.196219 536.593558 1242.626657 529.674442 1244.940918 539.044079 C 1246.242689 544.137317 1240.071327 538.611634 1239.540975 538.467485 C 1237.467783 537.794794 1237.274928 538.371387 1235.635659 536.545509 C 1234.478529 535.248174 1232.694619 538.611634 1230.717855 536.785756 C 1229.51251 535.680619 1226.812539 531.980814 1224.980416 532.413258 C 1223.485789 532.749604 1222.617941 532.653506 1221.991162 532.26911 C 1221.701879 532.124962 1221.701879 531.932764 1221.605451 532.31716 L 1220.448321 538.179189 C 1225.510767 541.110204 1216.639433 540.245314 1215.241233 541.638747 C 1210.709139 546.155393 1215.771585 551.296681 1216.494792 556.34187 C 1216.880502 559.128736 1214.035889 559.320934 1213.168041 561.531207 C 1212.348407 563.741481 1212.541262 571.813783 1208.394878 569.507411 C 1204.441348 567.297138 1204.344921 568.210077 1200.198536 568.210077 C 1198.414627 568.210077 1202.223515 576.858973 1198.944978 579.357542 C 1197.643206 580.318531 1194.943235 582.288557 1193.593249 582.817101 C 1189.398651 584.402732 1191.664698 582.624903 1189.784361 580.174383 L 1183.564785 586.18056 C 1182.600509 587.093499 1186.216542 591.273799 1184.14335 591.946491 C 1184.14335 593.195776 1185.252267 593.099677 1185.252267 594.589209 C 1180.575531 595.165802 1182.600509 597.664372 1180.768386 600.451238 C 1177.586277 605.160081 1178.116628 604.151044 1183.468357 607.274256 C 1185.879046 609.628678 1184.52906 609.868925 1184.52906 612.415544 C 1184.52906 614.625817 1186.023687 613.953125 1187.08439 615.442657 C 1187.807597 616.451695 1189.205796 622.265675 1189.205796 623.466911 C 1189.205796 627.022568 1189.591506 627.022568 1190.796851 630.241879 C 1191.568271 632.259955 1190.314713 634.037783 1190.700423 636.055859 C 1190.845064 636.680501 1192.291477 639.034923 1191.471843 639.611516 C 1187.277245 642.446432 1186.650466 637.257094 1183.854067 636.584403 C 1182.74515 636.296106 1181.105882 637.305144 1180.093393 637.737589 C 1178.454125 638.362231 1177.586277 636.103908 1174.838092 637.160996 C 1166.545323 640.188109 1164.375703 636.344155 1162.736435 629.473088 C 1162.109656 629.473088 1159.795394 629.376989 1159.650753 628.800396 C 1158.445409 628.800396 1156.42043 634.902673 1155.552582 636.344155 C 1154.87759 637.401243 1157.288278 639.034923 1157.43292 640.620554 C 1157.770416 643.599618 1157.047209 645.521595 1156.854354 648.452609 C 1155.359727 652.488761 1153.720459 654.266589 1149.477647 651.912168 C 1149.284792 651.816069 1143.643781 654.843182 1143.113429 655.515874 C 1142.824146 655.948319 1145.909828 661.522052 1145.909828 663.203782 C 1145.909828 665.606253 1145.331263 667.960674 1146.922317 669.882651 C 1148.272303 671.564381 1150.490136 678.627646 1152.081191 678.531547 C 1153.286535 678.483497 1154.106169 676.369323 1155.552582 677.378361 C 1157.866844 679.06009 1158.831119 675.79273 1161.048953 678.531547 C 1167.750667 686.747998 1167.606026 693.426867 1162.398938 703.1809 C 1162.302511 706.736557 1163.941779 713.607624 1167.075674 715.721798 C 1167.075674 716.634737 1160.37396 719.277456 1159.023974 720.094296 C 1156.613285 721.583828 1154.87759 723.313607 1153.238321 725.619979 C 1151.647267 727.926351 1150.972274 727.974401 1149.236578 729.752229 C 1147.59731 731.38591 1149.429433 732.346898 1149.525861 733.692282 C 1149.622288 734.605221 1147.98302 742.293128 1147.500882 742.677523 C 1145.572331 744.359253 1143.065215 742.245079 1142.534864 745.512439 C 1141.859871 750.125184 1137.086707 747.338317 1140.992023 753.72889 C 1141.956298 755.314521 1151.888336 754.161335 1154.154383 754.161335 L 1154.250811 754.257434 C 1155.407941 759.062376 1155.070445 760.648007 1159.98825 763.72317 C 1160.856097 766.17369 1163.170359 768.383963 1163.797138 771.074731 C 1164.713199 774.966734 1166.25604 779.339231 1169.389935 782.126098 C 1170.739921 783.279284 1175.70594 786.018101 1176.139864 787.315435 C 1176.670215 788.901066 1175.802367 791.351587 1175.802367 793.177465 C 1175.802367 801.393915 1185.782618 808.745477 1191.953981 812.877727 C 1194.846807 814.030913 1197.209282 812.925776 1196.245007 816.817779 C 1195.811083 818.45146 1193.834318 821.76687 1193.834318 822.823957 C 1195.90751 821.334425 1199.909254 821.622722 1201.741377 819.700745 C 1205.068127 816.193137 1210.275215 815.808742 1215.337661 815.424346 C 1216.012654 815.376297 1221.412596 814.030913 1220.351893 816.241186 C 1217.892991 821.382474 1219.580473 820.998079 1223.24472 824.649835 C 1228.885731 830.367716 1222.955437 833.442879 1218.182274 837.286833 C 1214.276958 840.458094 1208.539519 842.908615 1216.880502 843.196911 C 1221.701879 843.389109 1222.85901 845.887679 1226.041119 841.995676 C 1227.150035 840.602243 1233.610681 838.488068 1234.671384 840.169798 C 1235.780301 841.851528 1233.224971 843.34106 1236.069583 844.013752 C 1237.853493 844.494246 1240.215968 848.530397 1240.11954 850.308226 C 1239.637403 856.458552 1241.373098 855.017069 1243.639146 860.014209 C 1246.387331 863.617915 1244.410566 865.491843 1245.953407 868.951401 C 1246.965896 871.161674 1250.099791 871.353872 1251.160494 873.083651 C 1253.233687 876.543209 1250.533715 878.272989 1255.355093 881.300102 C 1256.512223 882.020843 1264.129999 886.537489 1264.322854 887.25823 C 1265.28713 887.546527 1263.069296 893.696853 1262.828227 894.657841 C 1261.574669 899.799129 1262.105021 897.25251 1266.05855 898.453745 C 1268.61388 899.270585 1258.922912 910.418051 1256.994361 912.051731 C 1250.533715 917.529365 1243.349863 908.159728 1239.34812 917.913761 C 1238.624913 919.739639 1248.412309 919.018897 1250.485502 922.14211 C 1252.317625 924.928976 1256.222941 924.112136 1259.212194 924.112136 L 1259.308622 924.208235 C 1259.308622 925.025075 1258.633629 925.361421 1258.537202 925.986063 C 1257.428285 926.562656 1256.464009 927.427546 1255.499734 928.148287 C 1254.101534 931.751994 1254.197962 933.673971 1249.906936 933.673971 C 1248.315882 933.673971 1248.846233 938.863308 1248.846233 940.112593 C 1250.774784 940.112593 1254.149748 943.716299 1256.222941 944.53314 C 1262.635372 947.175858 1268.710308 944.148744 1275.026312 942.899459 C 1284.476211 941.025532 1295.035028 946.503166 1303.183155 950.154922 C 1306.94383 951.836652 1309.065236 955.007913 1313.356262 955.776704 C 1317.840142 956.593544 1321.311534 959.524559 1324.493643 962.695821 C 1327.482897 964.906094 1329.845372 967.068318 1331.966778 969.951283 C 1334.329253 973.074496 1341.850601 975.861362 1345.563062 976.8704 C 1351.300501 978.456031 1349.468377 978.984574 1353.229052 983.068775 C 1355.012961 984.990752 1357.80936 986.432234 1358.580781 988.978854 C 1359.930766 993.351351 1364.221792 992.966956 1366.584267 996.76286 C 1369.718162 1001.904148 1374.877036 1006.612991 1380.084123 1009.784253 C 1395.078607 1019.778532 1411.374862 1044.139589 1431.913929 1040.199536 C 1435.481749 1039.526844 1436.301383 1036.163385 1438.904926 1034.289457 C 1439.290637 1034.001161 1449.753025 1038.469757 1453.658341 1037.893164 C 1457.467229 1037.36462 1461.661827 1047.743295 1465.374288 1050.193816 C 1471.883147 1054.470214 1467.06177 1055.959746 1464.458226 1059.899799 C 1463.686806 1061.052985 1467.06177 1062.734715 1467.736763 1063.93595 C 1468.315328 1064.944988 1467.592121 1066.915014 1468.411756 1067.395508 C 1470.099238 1068.500645 1476.559883 1067.827953 1477.475945 1069.317485 C 1480.079489 1073.593884 1473.474202 1072.296549 1475.788463 1076.717096 C 1477.958083 1080.801297 1480.272344 1082.867422 1484.611583 1083.972558 C 1484.611583 1086.134782 1485.624072 1089.882637 1483.791949 1091.228021 C 1481.140192 1093.246097 1477.717014 1094.447332 1478.681289 1098.77178 C 1479.741992 1100.693757 1481.911612 1100.789856 1482.634819 1102.711833 C 1485.33479 1109.919246 1486.588348 1102.855981 1490.686519 1105.786995 L 1498.545364 1111.264629 C 1500.714983 1112.802211 1497.484661 1115.300781 1499.027501 1117.366906 C 1500.473915 1119.336932 1500.907839 1120.34597 1501.968542 1122.508194 C 1503.2221 1125.006764 1506.211354 1122.652342 1507.416698 1124.334072 C 1508.429187 1125.679456 1508.959539 1131.205139 1509.48989 1133.127116 C 1510.068455 1135.433488 1511.900579 1137.691811 1512.623785 1140.046232 C 1514.118412 1144.995323 1518.843362 1142.929198 1519.71121 1147.493893 C 1520.289775 1150.713204 1523.03796 1148.887326 1523.809381 1150.23271 C 1524.339732 1151.097599 1522.411181 1154.220811 1522.170112 1155.325948 C 1522.26654 1154.989602 1522.507609 1154.845454 1522.170112 1154.893503 C 1524.195091 1159.025754 1527.907551 1159.842594 1530.945019 1162.725559 C 1533.452135 1165.079981 1533.162853 1168.635638 1531.861081 1171.470554 L 1503.656024 1240.901966 L 1503.366741 1316.09931 L 1559.19829 1316.627853 L 1558.089373 1414.552573 C 1559.342931 1414.79282 1560.500062 1415.033067 1561.657192 1415.225265 C 1576.603462 1417.819933 1575.012408 1427.622015 1583.256963 1435.838466 C 1589.331898 1441.940742 1616.524466 1454.433592 1616.524466 1464.379822 C 1616.524466 1471.15479 1612.040585 1478.170006 1619.658361 1482.686651 C 1627.661848 1487.443544 1621.635126 1493.689969 1625.251159 1497.533922 C 1627.17971 1499.600047 1628.867192 1501.90642 1630.651102 1504.116693 C 1630.651102 1508.585289 1646.22415 1512.140946 1646.320578 1513.43828 C 1646.417005 1514.831714 1645.500944 1517.906877 1643.572393 1517.666629 C 1641.161704 1517.330284 1638.027809 1515.360257 1636.099258 1515.360257 C 1634.556417 1515.360257 1633.688569 1516.657592 1631.90466 1516.657592 C 1627.613634 1516.657592 1619.561934 1517.522481 1616.090542 1515.264158 C 1609.003118 1510.699463 1602.108548 1502.67521 1593.96042 1500.320789 C 1588.319409 1498.014416 1583.064108 1497.005379 1577.133814 1495.948291 C 1564.791088 1493.738018 1558.860794 1493.978265 1551.291231 1505.029632 L 1509.827387 1483.359343 L 1461.902896 1482.542503 C 1451.633362 1482.350305 1451.247652 1484.848875 1443.195952 1489.701867 C 1439.145995 1492.152387 1434.276404 1495.083402 1429.599668 1495.804143 C 1420.535479 1497.149527 1422.030106 1502.483013 1415.473033 1506.519164 C 1413.062344 1516.080999 1408.771318 1525.594784 1405.107072 1534.628075 C 1402.937452 1539.961561 1395.223248 1548.514358 1395.223248 1554.08809 C 1395.223248 1558.941082 1394.114331 1563.649925 1392.233994 1568.118521 C 1388.376892 1576.286923 1382.012674 1581.956754 1379.071634 1590.941996 C 1376.902014 1597.572816 1372.36992 1607.711244 1367.307474 1612.468136 C 1363.30573 1616.215991 1358.19507 1619.723599 1356.411161 1625.345381 C 1352.987983 1632.312547 1348.166606 1638.462873 1344.020221 1644.949545 C 1340.693471 1650.090833 1335.679238 1652.685502 1331.822137 1657.106048 L 1322.613306 1668.157415 L 1300.772467 1675.845322 L 1028.171794 1650.283031 L 605.192364 1294.669268 L 501.773821 1246.3796 L 336.641648 1137.547663 L 327.963169 1136.346427 L 141.568722 1098.435434 L 156.804275 1083.444015 L 150.391843 1059.659552 L 116.979698 1070.038226 L 107.240516 1036.403632 L 122.62071 1032.944074 L 75.46764 865.251596 L 372.223412 684.585774 L 427.669251 667.336032 L 450.088656 617.364634 L 467.059904 593.099677 L 464.408146 520.208706 L 465.372422 498.105972 L 472.797343 476.531782 L 473.134839 454.092703 L 492.082852 427.857719 L 489.431095 383.84445 L 471.495571 340.648021 L 475.786597 283.228963 L 495.168534 248.921676 L 563.198167 236.236629 L 650.272241 140.522183 L 649.404393 134.227709 L 648.488332 129.518866 L 656.057894 129.470817 C 659.866782 128.750075 661.264982 125.819061 665.025656 125.338567 C 668.159551 124.906122 670.714881 125.242468 673.945204 124.425628 C 676.163037 123.849034 682.912966 123.704886 683.636172 121.638761 C 684.600448 118.996043 686.28793 116.73772 688.312908 114.671595 C 689.277184 113.758656 690.868238 112.124976 690.530742 110.827641 C 690.096818 108.953714 694.580699 106.935638 695.834257 105.10976 C 697.087815 103.331932 696.219967 100.929461 696.219967 98.767237 C 696.89496 98.623089 700.318138 98.815286 700.414565 98.286743 C 700.60742 98.238693 701.523482 94.827184 701.812765 94.39474 C 701.041344 87.427574 702.535971 93.722048 706.682356 89.878094 C 707.212707 89.3976 709.237686 88.484661 709.382327 87.956117 C 709.575182 87.475623 708.851976 84.929004 709.382327 84.736806 C 710.009106 82.238236 716.855462 79.691617 717.385813 76.90475 L 717.482241 76.856701 C 718.928654 76.856701 720.808991 77.913788 722.592901 77.913788 C 722.689328 78.105986 722.930397 78.202085 723.171466 78.250134 L 723.21968 78.346233 C 725.100017 85.793893 724.810734 80.508457 729.005333 83.103126 C 731.994587 84.929004 742.746258 91.367626 746.024795 89.781995 C 746.796215 89.445649 746.506932 87.71587 748.001559 87.235376 C 753.064005 85.553646 754.124708 87.283425 756.101473 81.229198 C 758.608589 81.229198 759.476437 82.286286 761.212133 80.412358 C 763.285325 78.009887 766.901358 79.211123 769.60133 78.009887 C 771.915591 77.721591 782.908331 80.26821 783.679751 81.94994 C 784.740454 84.352411 788.983266 81.373347 790.188611 83.295323 C 791.249314 85.025103 791.779665 85.938042 793.949285 86.514635 C 794.672492 89.3976 798.770662 93.52985 802.049199 91.367626 C 805.13488 89.253452 804.267032 86.178289 810.24554 87.667821 C 811.306243 93.049356 821.23828 96.893309 826.059658 99.199682 C 829.91676 101.02556 829.097125 103.956574 834.207785 103.716327 C 836.136336 103.620228 842.838051 98.623089 843.416616 102.995586 C 844.911243 103.716327 845.63445 104.581217 847.370145 105.10976 L 849.443338 104.965612 C 851.371889 109.530307 850.021903 109.818604 855.614701 108.281022 C 857.639679 107.704429 861.400353 105.10976 863.280691 105.446106 C 867.860999 106.359045 875.28592 105.15781 879.239449 106.79149 C 881.360855 107.65638 881.505497 112.028877 883.867972 113.037915 C 886.712584 114.2872 886.809012 111.308136 887.966142 109.242011 C 889.798266 106.022699 894.667857 110.202999 897.946393 108.281022 C 901.22493 106.262946 901.707068 102.851438 904.503466 100.833362 C 904.503466 98.815286 905.467742 96.605013 905.274887 93.818147 C 905.226673 93.049356 909.565913 93.145455 910.867684 91.944219 C 913.278373 89.685896 915.110496 85.601696 918.871171 87.091228 C 922.05328 88.292463 925.042534 90.742984 928.465712 88.821007 C 930.249621 88.628809 932.467455 86.995129 933.576372 88.388562 C 935.745991 91.07933 936.565625 91.752021 940.085231 92.616911 C 942.49592 93.145455 942.447706 94.827184 944.03876 95.499876 C 946.304808 96.412815 949.53513 94.298641 950.210123 97.566001 C 950.644047 99.680176 952.958308 102.65924 955.224356 102.995586 L 955.224356 103.139734 C 955.610066 103.283882 954.597577 108.040775 954.597577 109.434208 C 954.597577 112.701569 957.056479 114.095002 957.056479 118.227252 C 957.056479 122.59975 948.426214 120.533624 948.233359 121.302415 C 947.751221 121.398514 947.365511 123.464639 947.076228 123.945133 C 945.43696 126.780049 941.387003 129.18252 942.736988 132.690128 C 944.569112 137.543119 942.158423 137.927515 948.088717 141.339024 C 948.956565 144.077841 947.895862 145.231027 949.727986 147.777646 C 950.981544 149.555475 951.70475 149.795722 952.042247 152.054044 C 952.476171 155.273356 951.270826 157.099234 955.561852 157.38753 C 958.165396 157.627777 960.720726 160.558792 962.504635 160.558792 C 963.276056 158.108271 966.940302 149.267178 969.833129 148.834733 C 970.122411 147.633498 968.145647 144.462236 968.434929 144.12589 C 968.82064 143.693445 973.159879 141.098776 973.786658 141.098776 C 974.799147 145.182977 989.456134 135.428945 991.240044 134.467956 C 992.493602 133.795265 994.711436 132.930375 995.338215 131.584991 C 996.784628 128.605927 995.772139 129.614965 999.195317 128.557878 C 1001.02744 127.981285 1001.702433 122.695848 1003.004205 120.966069 C 1003.96848 120.86997 1005.318466 121.062168 1006.186314 120.86997 C 1006.957734 120.725822 1008.211292 118.179203 1009.07914 117.650659 C 1010.477339 116.833819 1015.636213 113.950854 1016.648702 116.593572 C 1018.095116 120.341427 1025.230754 115.200139 1028.509291 118.803845 C 1029.714635 120.10118 1032.269965 119.524587 1033.764592 120.293377 C 1035.355646 121.110217 1036.223494 122.167305 1037.718121 123.272441 Z M 1037.718121 123.272441 " stroke="rgb(0%, 0%, 0%)" stroke-width="1" stroke-opacity="1" stroke-miterlimit="10"/></svg>