<?xml version="1.0" encoding="utf-8"?>
<!-- Generator: Adobe Illustrator 21.0.0, SVG Export Plug-In . SVG Version: 6.00 Build 0)  -->
<svg version="1.1" id="Слой_1" xmlns="http://www.w3.org/2000/svg" xmlns:xlink="http://www.w3.org/1999/xlink" x="0px" y="0px"
	 viewBox="0 0 37.8 38" style="enable-background:new 0 0 37.8 38;" xml:space="preserve">
<style type="text/css">
	.st0{fill-rule:evenodd;clip-rule:evenodd;}
</style>
<g>
	<path class="st0" d="M2.4,26.5l3.1-1.8C4.7,22.9,4.3,21,4.3,19c0-7.5,5.7-13.7,13-14.5V0.9C8,1.7,0.8,9.5,0.8,19
		C0.8,21.6,1.3,24.2,2.4,26.5L2.4,26.5z M35.5,26.5l-3.1-1.8c0.8-1.8,1.2-3.7,1.2-5.7c0-7.2-5.2-13.2-12-14.4
		c-0.3-0.1-0.6-0.1-0.9-0.1V0.9C29.8,1.7,37.1,9.5,37.1,19C37.1,21.6,36.5,24.2,35.5,26.5L35.5,26.5z M33.7,29.5l-3.1-1.8
		c-2.5,3.3-6.3,5.6-10.7,5.9v3.5C25.6,36.8,30.6,33.9,33.7,29.5L33.7,29.5z M17.9,33.6c-4.4-0.3-8.3-2.6-10.7-5.9l-3.1,1.8
		c3.1,4.4,8.1,7.3,13.8,7.7V33.6L17.9,33.6z"/>
	<path class="st0" d="M19.1,7.5c2,0,3.8,0.6,5.5,1.5l-5.6,11l-5.6-11c1.6-0.9,3.5-1.4,5.4-1.5C18.8,7.5,19,7.5,19.1,7.5L19.1,7.5z
		 M20,30.5C25.8,30,30.4,25,30.4,19c0-3.6-1.6-6.8-4.2-8.9L20,22.4v0h5.8l-0.7,2H20v1.1h4.8l-0.7,2H20V30.5L20,30.5z M17.9,30.5
		C12,30,7.4,25,7.4,19c0-3.6,1.6-6.8,4.2-8.9l6.3,12.3v0h-5.8l0.7,2h5.1v1.1H13l0.7,2h4.1V30.5L17.9,30.5z"/>
</g>
</svg>
