<?xml version="1.0" encoding="utf-8"?>
<svg id="master-artboard" height="980px" viewBox="0 0 1400 980" version="1.1" xmlns="http://www.w3.org/2000/svg" style="shape-rendering:geometricPrecision; text-rendering:geometricPrecision; image-rendering:optimizeQuality; fill-rule:evenodd; clip-rule:evenodd" width="1400px"><defs><style id="ee-google-fonts">@import url(https://fonts.googleapis.com/css?family=Bungee:400);</style></defs><g transform="matrix(1.179675817489624, 0, 0, 1.179675817489624, 43.554652806878494, 40.40036046826802)"><g transform="matrix(1.389064073562622, 0, 0, 1.389064073562622, 12.878763198852596, 31.545452117919936)"><g id="XMLID_2_">
	<path id="XMLID_4_" class="st0" d="M0.8,256c0,50.3,14.1,97.4,39.3,136.6H472c24.3-39.3,39.3-86.4,39.3-136.6&#10;&#9;&#9;s-14.1-97.4-39.3-136.6H40C14.9,158.6,0.8,205.7,0.8,256z" style="fill: rgb(237, 76, 92);"/>
	<path id="XMLID_5_" class="st1" d="M472.7,119.4C427.2,47.9,347.1,0,256,0S84.8,47.9,39.3,119.4H472.7z" style="fill: rgb(42, 95, 158);"/>
	<path id="XMLID_6_" class="st1" d="M40,392.6C85.6,464.1,165.7,512,256.8,512S428,464.1,473.5,392.6H40z" style="fill: rgb(42, 95, 158);"/>
	<path id="XMLID_7_" class="st2" d="M374.6,287.4v-26.7c0.8-3.1,3.1-6.3,6.3-7.1v-22.8v-0.8c-2.4,0-3.9,3.1-3.9,3.9v-9.4&#10;&#9;&#9;c-0.8-0.8-2.4-0.8-3.9,0v2.4h-5.5v-11c-1.6,0-1.6,5.5-5.5,5.5c-1.6,0-1.6-2.4-0.8-3.9c0.8-1.6,1.6-3.9,0.8-7.9&#10;&#9;&#9;c-0.8,2.4-3.1,3.9-3.1,1.6c0.8-3.1,3.1-3.9,1.6-9.4c-0.8,3.9-3.1,3.9-2.4,1.6c0.8-2.4,2.4-3.9,0-8.6c-0.8,3.9-2.4,3.9-2.4,1.6&#10;&#9;&#9;c0-3.9,0-8.6-5.5-10.2c0,0,0-3.9-2.4-3.9c-2.4,0-2.4,3.9-2.4,3.9c-5.5,1.6-5.5,6.3-5.5,10.2c0,2.4-1.6,3.1-2.4-1.6&#10;&#9;&#9;c-1.6,3.9,0,5.5,0,8.6c0.8,2.4-1.6,2.4-2.4-1.6c-1.6,5.5,0.8,6.3,1.6,9.4c0.8,1.6-2.4,0.8-3.1-2.4c-1.6,3.9,0,7.1,0.8,7.9&#10;&#9;&#9;c0.8,1.6,0.8,3.9-0.8,3.9c-3.1,0-3.1-5.5-5.5-5.5v20.4h-40v-18.1c-2.4,0.8-3.1,3.1-3.1,3.1v3.9h-2.4c0,0-1.6,0-1.6-3.1&#10;&#9;&#9;s0.8-5.5,3.1-5.5v-7.1c0,0-6.3,0.8-6.3,7.9v-6.3c-1.6,0-1.6,2.4-1.6,8.6h-1.6v-6.3c0-3.1,3.1-3.1,3.1-6.3c0,0,0.8-3.9-0.8-6.3&#10;&#9;&#9;c-1.6,5.5-3.1,3.9-3.1,1.6c0-1.6,1.6-3.1,3.9-8.6c0.8-1.6,0-6.3-0.8-7.9c-0.8,3.9-0.8,6.3-2.4,6.3c-0.8,0-1.6-0.8-1.6-2.4&#10;&#9;&#9;c0-2.4,1.6-3.1,2.4-6.3c0.8-3.1,0-5.5-0.8-7.1c-0.8,3.9-0.8,5.5-1.6,5.5c-3.1-0.8,0-6.3,0.8-7.9c0.8-2.4-0.8-3.9-0.8-3.9&#10;&#9;&#9;c-0.8,3.1-1.6,3.1-2.4,3.1c-1.6,0-0.8-2.4,0.8-3.9c0.8-0.8,0.8-2.4,0-3.9c-0.8,2.4-3.1,2.4-2.4,0.8l0.8-5.5h-2.4v-11h-3.1&#10;&#9;&#9;c0-2.4-1.6-5.5-5.5-5.5c-3.1,0-3.9,3.1-5.5,5.5h-5.5v12.6h-2.4l0.8,6.3c0,1.6-1.6,1.6-2.4-0.8c-0.8,1.6-1.6,3.1,0,3.9&#10;&#9;&#9;c1.6,1.6,1.6,3.9,0.8,3.9c-0.8,0-1.6,0-2.4-3.1c0,0-1.6,2.4-0.8,3.9c0.8,0.8,3.9,6.3,0.8,7.9c-1.6,0-1.6-1.6-1.6-5.5&#10;&#9;&#9;c-1.6,1.6-2.4,3.9-0.8,7.1c0.8,2.4,2.4,3.1,2.4,6.3c0,1.6-0.8,2.4-1.6,2.4c-1.6,0-2.4-1.6-2.4-6.3c-0.8,1.6-1.6,6.3-0.8,7.9&#10;&#9;&#9;c2.4,3.9,3.9,6.3,3.9,8.6c0,1.6-2.4,3.1-3.1-1.6c-0.8,1.6-0.8,6.3-0.8,6.3c0,2.4,3.1,2.4,3.1,6.3v7.1h-1.6c0-6.3,0-8.6-2.4-8.6v6.3&#10;&#9;&#9;c0-7.1-6.3-7.9-6.3-7.9v7.1c2.4,0,3.1,1.6,3.1,5.5c0,3.1-1.6,3.1-1.6,3.1h-3.1v-3.1c0,0-0.8-2.4-3.1-3.1v18.1h-39.3v-22.8&#10;&#9;&#9;c-1.6,0-1.6,5.5-5.5,5.5c-1.6,0-1.6-2.4-0.8-3.9c0.8-1.6,1.6-3.9,0.8-7.9c-0.8,3.1-3.1,3.9-3.1,2.4c0.8-3.1,3.1-3.9,1.6-9.4&#10;&#9;&#9;c-0.8,3.9-3.1,3.9-2.4,1.6c0.8-2.4,2.4-3.9,0-8.6c-0.8,3.9-2.4,3.9-2.4,1.6c0-3.9,0-8.6-5.5-10.2c0,0,0-3.9-2.4-3.9&#10;&#9;&#9;s-3.1,2.4-3.1,2.4c-5.5,1.6-5.5,6.3-5.5,10.2c0,2.4-1.6,3.1-2.4-1.6c-1.6,3.9,0,5.5,0,8.6c0.8,2.4-1.6,2.4-2.4-1.6&#10;&#9;&#9;c-1.6,5.5,0.8,6.3,1.6,9.4c0.8,1.6-2.4,0.8-3.1-2.4c-1.6,3.9,0,7.1,0.8,7.9c0.8,1.6,0.8,3.9-0.8,3.9c-3.1,0-3.1-5.5-5.5-5.5v11&#10;&#9;&#9;h-3.9v-2.4c-1.6-0.8-3.1-0.8-3.9,0V234c0,0-1.6-3.9-3.9-3.9v1.6v22.8c1.6,0.8,5.5,3.1,6.3,7.1v25.9c-0.8,2.4-3.1,6.3-5.5,7.1h245.8&#10;&#9;&#9;C378.5,293.7,375.4,290.6,374.6,287.4" style="fill: rgb(226, 226, 226);"/>
	<path d="M 407.6000061035156 342.3999938964844 L 407.6000061035156 325.8999938964844 L 398.8999938964844 325.8999938964844 L 398.8999938964844 312.5 L 391.1000061035156 312.5 L 391.1000061035156 302.29998779296875 L 387.1000061035156 302.29998779296875 L 387.1000061035156 294.5 L 126.4000015258789 294.5 L 126.4000015258789 302.29998779296875 L 121.69999694824219 302.29998779296875 L 121.69999694824219 312.5 L 113.9000015258789 312.5 L 113.9000015258789 325.8999938964844 L 105.19999694824219 325.8999938964844 L 105.19999694824219 342.3999938964844 L 98.19999694824219 342.3999938964844 L 98.19999694824219 358.1000061035156 L 414.6000061035156 358.1000061035156 L 414.6000061035156 342.3999938964844 Z" id="XMLID_8_" class="st3" style="fill: rgb(255, 255, 255);"/>
	<path id="XMLID_9_" class="st3" d="M178.3,294.5c-1.6-0.8-5.5-3.1-5.5-7.1v-28.3l2.4-3.9h0.8v-8.6c-1.6,0.8-2.4,1.6-3.9,2.4&#10;&#9;&#9;c0-0.8-0.8-1.6-0.8-2.4c0.8-0.8,3.9-5.5,5.5-7.1v-7.1c-0.8,0-1.6,0.8-2.4,0.8c1.6-1.6,2.4-3.1,2.4-5.5v-7.1c-1.6,0-3.9,1.6-5.5,3.9&#10;&#9;&#9;c0-1.6-0.8-3.1-1.6-5.5c0.8-0.8,3.1-3.1,3.1-5.5v-3.9c-1.6,0-2.4,0.8-3.9,2.4c0-0.8,0-0.8-0.8-1.6l2.4-3.1v-3.9&#10;&#9;&#9;c-0.8,0-1.6,0.8-2.4,1.6c0-0.8-0.8-1.6-0.8-2.4l0.8-2.4v-3.1c-0.8,0-0.8,0-1.6,0.8c0-0.8-0.8-1.6-0.8-1.6h0.8l2.4-1.6v-1.6&#10;&#9;&#9;c-0.8,0-0.8,0-1.6,0.8c-0.8-1.6-1.6-2.4-3.1-3.1c-1.6,0.8-2.4,1.6-3.1,3.1c-1.6-0.8-1.6-0.8-2.4-0.8v2.4l2.4,1.6h1.6&#10;&#9;&#9;c0,0.8-0.8,0.8-0.8,1.6c-0.8-0.8-0.8-0.8-1.6-0.8v3.1l0.8,2.4c0,0.8-0.8,0.8-0.8,1.6c-0.8-1.6-1.6-1.6-2.4-1.6v3.9l2.4,3.1&#10;&#9;&#9;c0,0.8,0,0.8-0.8,1.6c-0.8-1.6-2.4-2.4-3.9-2.4v3.9c0,1.6,2.4,3.9,3.1,5.5c-0.8,1.6-0.8,3.1-1.6,5.5c-1.6-2.4-3.1-3.9-5.5-3.9v7.1&#10;&#9;&#9;c0,0.8,1.6,3.1,2.4,5.5c-0.8-0.8-1.6-0.8-2.4-0.8v7.1c0.8,1.6,3.1,5.5,5.5,6.3c0,0.8-0.8,1.6-0.8,2.4c-0.8,0.8-1.6,0-3.1,0v7.9&#10;&#9;&#9;l2.4,3.9v28.3c0,2.4-3.1,5.5-5.5,7.1h3.9v62.8h19.6v-63.6H178.3" style="fill: rgb(255, 255, 255);"/>
	<path id="XMLID_10_" class="st3" d="M270.9,224.6V216c-3.1,0.8-5.5,3.1-6.3,5.5c0-1.6-0.8-3.1-1.6-5.5c0.8-3.1,1.6-5.5,3.1-7.1h0.8&#10;&#9;&#9;V201c-2.4,0.8-3.9,2.4-5.5,3.9c0-0.8-0.8-3.1-1.6-5.5l2.4-3.9h3.1v-7.9c-2.4,0.8-3.9,2.4-3.9,3.9c0-0.8-0.8-3.1-1.6-5.5l3.9-3.1&#10;&#9;&#9;v-5.5c-1.6,0.8-3.9,0.8-3.9,3.9c0-1.6-0.8-3.1-0.8-3.9l3.9-3.1v-5.5c-1.6,0-3.1,0.8-3.1,2.4c0-0.8-0.8-1.6-0.8-2.4l2.4-1.6v-3.9&#10;&#9;&#9;c-0.8,0-2.4,0.8-2.4,2.4c0-2.4-0.8-2.4-2.4-3.1c-0.8,0.8-1.6,0.8-2.4,3.1c0-1.6-1.6-1.6-2.4-2.4v3.9l2.4,1.6c0,0.8-0.8,1.6-0.8,2.4&#10;&#9;&#9;c0-2.4-1.6-2.4-3.1-2.4v3.9l3.9,3.1c-0.8,0.8-0.8,2.4-0.8,3.9c0-3.1-2.4-3.1-3.9-3.9v6.3l3.1,3.1c-0.8,1.6-1.6,3.9-1.6,5.5&#10;&#9;&#9;c-0.8-1.6-2.4-3.1-3.9-3.9v7.9h0.8l2.4,3.9c-0.8,1.6-1.6,3.1-1.6,5.5c-0.8-1.6-2.4-3.1-5.5-3.9v7.9h0.8c1.6,0.8,3.1,3.1,3.1,7.1&#10;&#9;&#9;c0,1.6,0,3.1,0,3.9c-0.8-1.6-3.1-3.9-6.3-5.5v8.6h1.6c2.4,3.1,3.1,8.6,3.1,11.8c-0.8-0.8-1.6-1.6-2.4-2.4v8.6h8.6&#10;&#9;&#9;c-1.6,2.4-2.4,5.5-2.4,8.6c-1.6,0-1.6-0.8-4.7-1.6v8.6l1.6,2.4v29.8c0,2.4-3.1,5.5-5.5,7.1h3.9v62.8h19.6v-63.6h3.9&#10;&#9;&#9;c-1.6-0.8-5.5-3.1-5.5-7.1v-29.8l1.6-2.4v-8.6c-3.1,0.8-3.1,1.6-3.9,3.9c0-2.4-0.8-6.3-2.4-8.6h8.6v-8.6c-0.8,0.8-1.6,0.8-2.4,1.6&#10;&#9;&#9;c0-3.9,0.8-8.6,3.1-11.8C270.1,224.6,270.9,224.6,270.9,224.6" style="fill: rgb(255, 255, 255);"/>
	<path id="XMLID_11_" class="st3" d="M362,294.5c-1.6-0.8-5.5-3.1-5.5-7.1v-28.3l2.4-3.9h0.8v-8.6c-0.8,0.8-1.6,1.6-3.1,1.6&#10;&#9;&#9;c0-0.8-0.8-1.6-0.8-2.4c0.8-1.6,3.9-3.9,5.5-6.3v-7.1c-0.8,0-1.6,0.8-2.4,0.8c1.6-1.6,2.4-3.9,2.4-5.5v-7.1c-1.6,0-3.9,1.6-5.5,3.9&#10;&#9;&#9;c0-1.6-0.8-3.1-1.6-5.5c0.8-0.8,3.1-3.1,3.1-5.5v-3.9c-1.6,0-2.4,0.8-3.9,2.4c0-0.8,0-0.8-0.8-1.6l2.4-3.1v-3.9&#10;&#9;&#9;c-0.8,0-1.6,0.8-2.4,1.6c0-0.8-0.8-1.6-0.8-1.6l0.8-2.4v-3.1c-0.8,0-0.8,0-1.6,0.8c0-0.8-0.8-1.6-0.8-1.6h0l2.4-1.6v-2.4&#10;&#9;&#9;c-0.8,0-0.8,0-1.6,0.8c-0.8-1.6-1.6-2.4-3.1-3.1c-1.6,0.8-2.4,1.6-3.1,3.1c-0.8-0.8-0.8-0.8-1.6-0.8v2.4l2.4,1.6h0.8&#10;&#9;&#9;c0,0.8-0.8,0.8-0.8,1.6c-0.8-0.8-0.8-0.8-1.6-0.8v3.1l0.8,2.4c-0.8,0.8-0.8,0.8-0.8,2.4c-0.8-1.6-1.6-1.6-2.4-1.6v3.9l2.4,3.1&#10;&#9;&#9;c0,0.8,0,0.8-0.8,1.6c-0.8-1.6-1.6-1.6-3.1-2.4v6.3c0,1.6,2.4,3.9,3.1,5.5c-0.8,1.6-0.8,3.1-1.6,5.5c-1.6-2.4-3.1-3.9-5.5-3.9v7.1&#10;&#9;&#9;c0,0.8,1.6,3.1,2.4,5.5c-0.8-0.8-1.6-0.8-2.4-0.8v4.7c0.8,1.6,3.9,5.5,5.5,7.1c0,0.8-0.8,1.6-0.8,2.4c-0.8-0.8-2.4-1.6-3.9-2.4v8.6&#10;&#9;&#9;h0.8l2.4,3.9v28.3c0,2.4-3.1,5.5-5.5,7.1h3.9v62.8h19.6v-63.6H362" style="fill: rgb(255, 255, 255);"/>
</g></g><path d="M 346.72369384765625 631 L 343.0036926269531 631 C 342.6970520019531 631 342.47705078125 630.933349609375 342.34368896484375 630.7999877929688 C 342.2103576660156 630.6599731445312 342.1437072753906 630.4400024414062 342.1437072753906 630.1400146484375 L 342.1437072753906 614.5800170898438 C 342.1437072753906 614.280029296875 342.2103576660156 614.0599975585938 342.34368896484375 613.9199829101562 C 342.47705078125 613.7866821289062 342.6970520019531 613.719970703125 343.0036926269531 613.719970703125 L 346.72369384765625 613.719970703125 C 347.0303649902344 613.719970703125 347.2503662109375 613.7866821289062 347.3836975097656 613.9199829101562 C 347.51702880859375 614.0599975585938 347.5837097167969 614.280029296875 347.5837097167969 614.5800170898438 L 347.5837097167969 620.0999755859375 L 348.543701171875 620.0999755859375 L 351.0237121582031 614.510009765625 C 351.13037109375 614.2233276367188 351.2803649902344 614.02001953125 351.47369384765625 613.9000244140625 C 351.6670227050781 613.780029296875 351.9170227050781 613.719970703125 352.22369384765625 613.719970703125 L 355.9136962890625 613.719970703125 C 356.1870422363281 613.719970703125 356.370361328125 613.7866821289062 356.4637145996094 613.9199829101562 C 356.5636901855469 614.0599975585938 356.5570373535156 614.2566528320312 356.4436950683594 614.510009765625 L 353.99371337890625 620.0999755859375 C 354.8937072753906 620.1533203125 355.6103820800781 620.469970703125 356.1437072753906 621.0499877929688 C 356.6770324707031 621.6366577148438 356.9436950683594 622.4099731445312 356.9436950683594 623.3699951171875 L 356.9436950683594 630.1400146484375 C 356.9436950683594 630.4400024414062 356.8770446777344 630.6599731445312 356.74371337890625 630.7999877929688 C 356.6103820800781 630.933349609375 356.390380859375 631 356.0837097167969 631 L 352.3836975097656 631 C 352.0837097167969 631 351.86370849609375 630.933349609375 351.72369384765625 630.7999877929688 C 351.5903625488281 630.6599731445312 351.5237121582031 630.4400024414062 351.5237121582031 630.1400146484375 L 351.5237121582031 625.4600219726562 C 351.5237121582031 625.2000122070312 351.4603576660156 625 351.3337097167969 624.8599853515625 C 351.20703125 624.7133178710938 351.0137023925781 624.6400146484375 350.7536926269531 624.6400146484375 L 347.5837097167969 624.6400146484375 L 347.5837097167969 630.1400146484375 C 347.5837097167969 630.4400024414062 347.51702880859375 630.6599731445312 347.3836975097656 630.7999877929688 C 347.2503662109375 630.933349609375 347.0303649902344 631 346.72369384765625 631 ZM 364.61431884765625 631 L 360.8943176269531 631 C 360.5876770019531 631 360.36767578125 630.933349609375 360.23431396484375 630.7999877929688 C 360.1009826660156 630.6599731445312 360.0343322753906 630.4400024414062 360.0343322753906 630.1400146484375 L 360.0343322753906 614.5800170898438 C 360.0343322753906 614.280029296875 360.1009826660156 614.0599975585938 360.23431396484375 613.9199829101562 C 360.36767578125 613.7866821289062 360.5876770019531 613.719970703125 360.8943176269531 613.719970703125 L 364.61431884765625 613.719970703125 C 364.9209899902344 613.719970703125 365.1409912109375 613.7866821289062 365.2743225097656 613.9199829101562 C 365.40765380859375 614.0599975585938 365.4743347167969 614.280029296875 365.4743347167969 614.5800170898438 L 365.4743347167969 619.7899780273438 L 369.48431396484375 619.7899780273438 L 369.48431396484375 614.5800170898438 C 369.48431396484375 614.280029296875 369.5543212890625 614.0599975585938 369.6943359375 613.9199829101562 C 369.8276672363281 613.7866821289062 370.04766845703125 613.719970703125 370.3543395996094 613.719970703125 L 374.0743408203125 613.719970703125 C 374.37432861328125 613.719970703125 374.5943298339844 613.7866821289062 374.73431396484375 613.9199829101562 C 374.86767578125 614.0599975585938 374.934326171875 614.280029296875 374.934326171875 614.5800170898438 L 374.934326171875 630.1400146484375 C 374.934326171875 630.4400024414062 374.86767578125 630.6599731445312 374.73431396484375 630.7999877929688 C 374.5943298339844 630.933349609375 374.37432861328125 631 374.0743408203125 631 L 370.3543395996094 631 C 370.04766845703125 631 369.8276672363281 630.933349609375 369.6943359375 630.7999877929688 C 369.5543212890625 630.6599731445312 369.48431396484375 630.4400024414062 369.48431396484375 630.1400146484375 L 369.48431396484375 624.8099975585938 L 365.4743347167969 624.8099975585938 L 365.4743347167969 630.1400146484375 C 365.4743347167969 630.4400024414062 365.40765380859375 630.6599731445312 365.2743225097656 630.7999877929688 C 365.1409912109375 630.933349609375 364.9209899902344 631 364.61431884765625 631 ZM 383.6730651855469 618.0399780273438 L 383.6730651855469 621.1099853515625 L 385.47308349609375 621.1099853515625 C 385.88641357421875 621.1099853515625 386.1664123535156 621.0033569335938 386.3130798339844 620.7899780273438 C 386.4597473144531 620.5700073242188 386.5330810546875 620.2999877929688 386.5330810546875 619.97998046875 L 386.5330810546875 619.1699829101562 C 386.5330810546875 618.8499755859375 386.4597473144531 618.5800170898438 386.3130798339844 618.3599853515625 C 386.1664123535156 618.1466674804688 385.88641357421875 618.0399780273438 385.47308349609375 618.0399780273438 L 383.6730651855469 618.0399780273438 M 382.8130798339844 631 L 379.1130676269531 631 C 378.8064270019531 631 378.58642578125 630.933349609375 378.45306396484375 630.7999877929688 C 378.3197326660156 630.6599731445312 378.2530822753906 630.4400024414062 378.2530822753906 630.1400146484375 L 378.2530822753906 614.5800170898438 C 378.2530822753906 614.280029296875 378.3197326660156 614.0599975585938 378.45306396484375 613.9199829101562 C 378.58642578125 613.7866821289062 378.8064270019531 613.719970703125 379.1130676269531 613.719970703125 L 387.10308837890625 613.719970703125 C 388.89642333984375 613.719970703125 390.1330871582031 614.0933227539062 390.8130798339844 614.8400268554688 C 391.4930725097656 615.5800170898438 391.83306884765625 616.5433349609375 391.83306884765625 617.72998046875 L 391.83306884765625 618.8300170898438 C 391.83306884765625 619.5033569335938 391.73309326171875 620.07666015625 391.5330810546875 620.5499877929688 C 391.33306884765625 621.0233154296875 390.9864196777344 621.3633422851562 390.4930725097656 621.5700073242188 C 391.35308837890625 621.663330078125 392.0530700683594 622.0133056640625 392.59307861328125 622.6199951171875 C 393.12640380859375 623.2333374023438 393.39306640625 624.0433349609375 393.39306640625 625.0499877929688 L 393.39306640625 630.1400146484375 C 393.39306640625 630.4400024414062 393.326416015625 630.6599731445312 393.1930847167969 630.7999877929688 C 393.0530700683594 630.933349609375 392.83306884765625 631 392.5330810546875 631 L 388.8130798339844 631 C 388.50640869140625 631 388.2864074707031 630.933349609375 388.153076171875 630.7999877929688 C 388.0130920410156 630.6599731445312 387.9430847167969 630.4400024414062 387.9430847167969 630.1400146484375 L 387.9430847167969 626.4600219726562 C 387.9430847167969 626.1133422851562 387.87640380859375 625.8533325195312 387.7430725097656 625.6799926757812 C 387.60308837890625 625.5133056640625 387.3664245605469 625.4299926757812 387.0330810546875 625.4299926757812 L 383.6730651855469 625.4299926757812 L 383.6730651855469 630.1400146484375 C 383.6730651855469 630.4400024414062 383.6064147949219 630.6599731445312 383.47308349609375 630.7999877929688 C 383.33306884765625 630.933349609375 383.1130676269531 631 382.8130798339844 631 ZM 400.5212097167969 631 L 396.9411926269531 631 C 396.6345520019531 631 396.41455078125 630.933349609375 396.28118896484375 630.7999877929688 C 396.1478576660156 630.6599731445312 396.0812072753906 630.4400024414062 396.0812072753906 630.1400146484375 L 396.0812072753906 614.5800170898438 C 396.0812072753906 614.280029296875 396.1478576660156 614.0599975585938 396.28118896484375 613.9199829101562 C 396.41455078125 613.7866821289062 396.6345520019531 613.719970703125 396.9411926269531 613.719970703125 L 400.80120849609375 613.719970703125 C 401.06121826171875 613.719970703125 401.2745361328125 613.7766723632812 401.4411926269531 613.8900146484375 C 401.6078796386719 614.0033569335938 401.7645263671875 614.1866455078125 401.91119384765625 614.4400024414062 L 404.0711975097656 618.3499755859375 C 404.1512145996094 618.4966430664062 404.2178649902344 618.5999755859375 404.2712097167969 618.6599731445312 C 404.3312072753906 618.7266845703125 404.4078674316406 618.760009765625 404.5011901855469 618.760009765625 L 404.72119140625 618.760009765625 C 404.8145446777344 618.760009765625 404.88787841796875 618.7266845703125 404.9411926269531 618.6599731445312 C 405.0011901855469 618.5999755859375 405.0711975097656 618.4966430664062 405.1512145996094 618.3499755859375 L 407.28118896484375 614.4400024414062 C 407.4278564453125 614.1866455078125 407.58453369140625 614.0033569335938 407.7511901855469 613.8900146484375 C 407.9178771972656 613.7766723632812 408.1311950683594 613.719970703125 408.3912048339844 613.719970703125 L 412.28118896484375 613.719970703125 C 412.5812072753906 613.719970703125 412.80120849609375 613.7866821289062 412.9411926269531 613.9199829101562 C 413.07452392578125 614.0599975585938 413.1412048339844 614.280029296875 413.1412048339844 614.5800170898438 L 413.1412048339844 630.1400146484375 C 413.1412048339844 630.4400024414062 413.07452392578125 630.6599731445312 412.9411926269531 630.7999877929688 C 412.80120849609375 630.933349609375 412.5812072753906 631 412.28118896484375 631 L 408.5812072753906 631 C 408.2745361328125 631 408.0545349121094 630.933349609375 407.92120361328125 630.7999877929688 C 407.7878723144531 630.6599731445312 407.72119140625 630.4400024414062 407.72119140625 630.1400146484375 L 407.72119140625 621.6900024414062 L 406.30120849609375 624.2999877929688 C 406.154541015625 624.5733032226562 405.981201171875 624.77001953125 405.78118896484375 624.8900146484375 C 405.5812072753906 625.010009765625 405.3312072753906 625.0700073242188 405.03118896484375 625.0700073242188 L 404.0711975097656 625.0700073242188 C 403.7645263671875 625.0700073242188 403.5111999511719 625.010009765625 403.31121826171875 624.8900146484375 C 403.1112060546875 624.77001953125 402.9411926269531 624.5733032226562 402.80120849609375 624.2999877929688 L 401.3811950683594 621.6900024414062 L 401.3811950683594 630.1400146484375 C 401.3811950683594 630.4400024414062 401.3145446777344 630.6599731445312 401.18121337890625 630.7999877929688 C 401.04119873046875 630.933349609375 400.8211975097656 631 400.5212097167969 631 Z" transform="matrix(4.984152317047119, 0, 0, 4.984152317047119, -1511.7630615234375, -2464.038818359375)" style="fill: rgb(255, 255, 255); white-space: pre; color: rgb(51, 51, 51);"/></g><g transform="matrix(8.801553726196289, 0, 0, 8.801553726196289, -5277.966796875, -6817.50634765625)"><g id="g-1" transform="matrix(1, 0, 0, 1, 0, 0)">
	<g id="g-2">
		<g>
			<path class="st0" d="M654,884c-29.2,0-53-23.8-53-53s23.8-53,53-53s53,23.8,53,53S683.2,884,654,884z M654,784&#10;&#9;&#9;&#9;&#9;c-25.9,0-47,21.1-47,47s21.1,47,47,47s47-21.1,47-47S679.9,784,654,784z" style="fill: rgb(42, 94, 158); stroke: rgb(0, 0, 0); stroke-width: 0; stroke-opacity: 0; fill-opacity: 0.5;"/>
		</g>
	</g>
</g></g></svg>