<svg xmlns="http://www.w3.org/2000/svg" xmlns:xlink="http://www.w3.org/1999/xlink" width="200" zoomAndPan="magnify" viewBox="0 0 150 149.999998" height="200" preserveAspectRatio="xMidYMid meet" version="1.0"><defs><clipPath id="id1"><path d="M 0 0.949219 L 150 0.949219 L 150 149.449219 L 0 149.449219 Z M 0 0.949219 " clip-rule="nonzero"/></clipPath></defs><path fill="rgb(15.689087%, 31.759644%, 60.778809%)" d="M 40.695312 103.882812 C 40.53125 103.984375 40.441406 104.15625 40.441406 104.335938 C 40.441406 104.425781 40.46875 104.519531 40.515625 104.605469 C 40.664062 104.851562 40.984375 104.9375 41.234375 104.792969 C 41.234375 104.792969 46.769531 101.597656 54.78125 96.976562 L 54.78125 95.257812 C 46.335938 100.429688 40.695312 103.882812 40.695312 103.882812 " fill-opacity="1" fill-rule="nonzero"/><path fill="rgb(15.689087%, 31.759644%, 60.778809%)" d="M 43.214844 104.601562 C 43.050781 104.699219 42.960938 104.875 42.960938 105.054688 C 42.960938 105.144531 42.984375 105.238281 43.035156 105.320312 C 43.183594 105.570312 43.503906 105.65625 43.753906 105.511719 C 43.753906 105.511719 48.355469 102.855469 54.78125 99.148438 L 54.78125 97.617188 C 47.890625 101.777344 43.214844 104.601562 43.214844 104.601562 " fill-opacity="1" fill-rule="nonzero"/><path fill="rgb(15.689087%, 31.759644%, 60.778809%)" d="M 52.066406 110.96875 C 51.902344 111.070312 51.8125 111.242188 51.8125 111.421875 C 51.8125 111.511719 51.835938 111.605469 51.886719 111.691406 C 52.035156 111.9375 52.355469 112.023438 52.605469 111.878906 C 52.605469 111.878906 53.382812 111.429688 54.78125 110.625 L 54.78125 109.324219 C 53.058594 110.371094 52.066406 110.96875 52.066406 110.96875 " fill-opacity="1" fill-rule="nonzero"/><path fill="rgb(15.689087%, 31.759644%, 60.778809%)" d="M 45.066406 105.457031 C 44.902344 105.558594 44.8125 105.734375 44.8125 105.910156 C 44.8125 106.003906 44.835938 106.097656 44.886719 106.179688 C 45.03125 106.429688 45.355469 106.515625 45.605469 106.371094 C 45.605469 106.371094 49.140625 104.328125 54.78125 101.074219 L 54.78125 99.613281 C 49.085938 103.039062 45.066406 105.457031 45.066406 105.457031 " fill-opacity="1" fill-rule="nonzero"/><path fill="rgb(15.689087%, 31.759644%, 60.778809%)" d="M 50.257812 109.863281 C 50.097656 109.964844 50.007812 110.136719 50.007812 110.3125 C 50.007812 110.40625 50.03125 110.5 50.082031 110.585938 C 50.230469 110.832031 50.550781 110.917969 50.800781 110.773438 C 50.800781 110.773438 52.277344 109.917969 54.78125 108.476562 L 54.78125 107.082031 C 51.925781 108.839844 50.257812 109.863281 50.257812 109.863281 " fill-opacity="1" fill-rule="nonzero"/><path fill="rgb(15.689087%, 31.759644%, 60.778809%)" d="M 47.726562 108.507812 C 47.5625 108.605469 47.472656 108.78125 47.472656 108.957031 C 47.472656 109.050781 47.496094 109.144531 47.542969 109.226562 C 47.691406 109.476562 48.011719 109.5625 48.265625 109.417969 C 48.265625 109.417969 50.71875 108 54.78125 105.65625 L 54.78125 104.246094 C 50.488281 106.839844 47.726562 108.507812 47.726562 108.507812 " fill-opacity="1" fill-rule="nonzero"/><path fill="rgb(15.689087%, 31.759644%, 60.778809%)" d="M 48.066406 106.269531 C 47.902344 106.367188 47.8125 106.542969 47.8125 106.71875 C 47.8125 106.8125 47.835938 106.902344 47.886719 106.988281 C 48.035156 107.238281 48.355469 107.320312 48.605469 107.175781 C 48.605469 107.175781 51.003906 105.792969 54.78125 103.613281 L 54.78125 102.179688 C 50.601562 104.722656 48.066406 106.269531 48.066406 106.269531 " fill-opacity="1" fill-rule="nonzero"/><path fill="rgb(15.689087%, 31.759644%, 60.778809%)" d="M 52.132812 77.492188 C 53.015625 76.9375 53.902344 76.382812 54.78125 75.832031 L 54.78125 71.398438 C 52.96875 72.445312 51.113281 73.515625 49.261719 74.582031 C 51.117188 73.414062 52.972656 72.242188 54.78125 71.101562 L 54.78125 68.964844 C 51.539062 70.835938 48.085938 72.828125 44.679688 74.792969 C 48.089844 72.605469 51.546875 70.386719 54.78125 68.3125 L 54.78125 66.070312 C 51.800781 67.789062 48.613281 69.628906 45.429688 71.46875 C 48.601562 69.457031 51.785156 67.441406 54.78125 65.542969 L 54.78125 63.394531 C 51.28125 65.410156 47.519531 67.585938 43.824219 69.714844 C 47.5625 67.304688 51.351562 64.859375 54.78125 62.648438 L 54.78125 59.039062 C 54.542969 59.175781 54.304688 59.3125 54.074219 59.445312 C 54.304688 59.300781 54.542969 59.15625 54.78125 59.007812 L 54.78125 57.261719 C 50.089844 59.96875 44.601562 63.136719 39.320312 66.1875 C 44.789062 62.644531 50.386719 59.023438 54.78125 56.179688 L 54.78125 54.375 C 51.394531 56.328125 47.273438 58.707031 43.175781 61.074219 C 47.246094 58.5 51.320312 55.925781 54.78125 53.738281 L 54.78125 52.003906 C 53.378906 52.8125 51.957031 53.632812 50.636719 54.394531 C 51.921875 53.597656 53.367188 52.703125 54.78125 51.824219 L 54.78125 50.292969 C 50.242188 52.914062 43.921875 56.558594 37.75 60.121094 C 44 56.066406 50.394531 51.917969 54.78125 49.070312 L 54.78125 47.453125 C 51.039062 49.613281 45.671875 52.707031 40.300781 55.808594 C 46.160156 52.046875 52.066406 48.25 54.78125 46.507812 L 54.78125 45.1875 C 52.589844 46.453125 47.089844 49.625 41.726562 52.722656 C 47.589844 48.929688 53.855469 44.878906 53.855469 44.878906 C 54.011719 44.777344 54.097656 44.609375 54.097656 44.433594 C 54.097656 44.339844 54.070312 44.246094 54.019531 44.160156 C 53.871094 43.914062 53.550781 43.832031 53.304688 43.976562 C 53.304688 43.976562 45.242188 48.628906 37.386719 53.164062 C 43.792969 48.820312 50.210938 44.472656 50.210938 44.472656 C 50.359375 44.371094 50.441406 44.203125 50.441406 44.035156 C 50.441406 43.941406 50.414062 43.84375 50.359375 43.753906 C 50.210938 43.515625 49.894531 43.4375 49.648438 43.578125 C 49.648438 43.578125 41.441406 48.3125 34.195312 52.496094 C 39.6875 48.558594 45.347656 44.5 45.347656 44.5 C 45.492188 44.398438 45.566406 44.238281 45.566406 44.070312 C 45.566406 43.972656 45.539062 43.875 45.484375 43.785156 C 45.332031 43.550781 45.019531 43.472656 44.773438 43.613281 C 44.773438 43.613281 40.078125 46.324219 35.726562 48.835938 C 38.441406 46.671875 41.15625 44.507812 41.15625 44.507812 C 41.289062 44.402344 41.355469 44.25 41.355469 44.09375 C 41.355469 43.992188 41.324219 43.886719 41.265625 43.796875 C 41.109375 43.566406 40.800781 43.496094 40.5625 43.636719 L 32.742188 48.148438 C 32.492188 48.292969 32.402344 48.617188 32.550781 48.871094 C 32.695312 49.121094 33.019531 49.210938 33.273438 49.0625 C 33.273438 49.0625 34.398438 48.414062 34.984375 48.074219 C 32.269531 50.238281 29.554688 52.40625 29.554688 52.40625 C 29.421875 52.507812 29.355469 52.664062 29.355469 52.820312 C 29.355469 52.921875 29.382812 53.023438 29.445312 53.117188 C 29.601562 53.34375 29.90625 53.414062 30.148438 53.277344 C 30.148438 53.277344 33.234375 51.496094 36.023438 49.882812 C 30.53125 53.820312 24.871094 57.878906 24.871094 57.878906 C 24.730469 57.980469 24.652344 58.144531 24.652344 58.308594 C 24.652344 58.40625 24.679688 58.503906 24.738281 58.59375 C 24.890625 58.832031 25.199219 58.90625 25.445312 58.765625 C 25.445312 58.765625 31.476562 55.285156 37.503906 51.804688 C 31.097656 56.148438 24.679688 60.496094 24.679688 60.496094 C 24.527344 60.597656 24.445312 60.765625 24.445312 60.933594 C 24.445312 61.03125 24.472656 61.128906 24.527344 61.214844 C 24.679688 61.457031 24.992188 61.535156 25.238281 61.390625 C 25.238281 61.390625 30.867188 58.144531 35.757812 55.324219 C 29.890625 59.117188 23.625 63.167969 23.625 63.167969 C 23.46875 63.269531 23.382812 63.441406 23.382812 63.613281 C 23.382812 63.707031 23.410156 63.800781 23.460938 63.886719 C 23.609375 64.132812 23.929688 64.214844 24.175781 64.070312 C 24.175781 64.070312 30.859375 60.214844 37.03125 56.652344 C 29.070312 61.761719 21.015625 66.9375 21.015625 66.9375 C 20.859375 67.039062 20.773438 67.207031 20.773438 67.382812 C 20.773438 67.476562 20.800781 67.570312 20.851562 67.65625 C 21 67.902344 21.320312 67.980469 21.566406 67.839844 C 21.566406 67.839844 32.273438 61.660156 42.789062 55.59375 C 31.714844 62.777344 20.183594 70.257812 20.183594 70.257812 C 20.03125 70.359375 19.945312 70.53125 19.945312 70.703125 C 19.945312 70.796875 19.96875 70.894531 20.023438 70.976562 C 20.171875 71.222656 20.488281 71.304688 20.738281 71.160156 C 20.738281 71.160156 28.007812 66.964844 33.414062 63.84375 C 28.824219 66.695312 22.199219 70.808594 22.199219 70.808594 C 22.035156 70.910156 21.949219 71.082031 21.949219 71.257812 C 21.949219 71.351562 21.972656 71.445312 22.023438 71.527344 C 22.171875 71.777344 22.492188 71.859375 22.742188 71.714844 C 22.742188 71.714844 32.136719 66.292969 41.335938 60.984375 C 30.855469 67.605469 20.359375 74.238281 20.359375 74.238281 C 20.199219 74.339844 20.113281 74.511719 20.113281 74.6875 C 20.113281 74.78125 20.136719 74.875 20.1875 74.960938 C 20.335938 75.207031 20.65625 75.289062 20.90625 75.144531 C 20.90625 75.144531 33.300781 67.992188 45.15625 61.148438 C 33.53125 68.671875 21.332031 76.566406 21.332031 76.566406 C 21.175781 76.664062 21.09375 76.835938 21.09375 77.007812 C 21.09375 77.105469 21.117188 77.199219 21.167969 77.285156 C 21.320312 77.527344 21.636719 77.609375 21.886719 77.464844 C 21.886719 77.464844 30.378906 72.5625 37.199219 68.628906 C 31.355469 72.238281 23.597656 77.03125 23.597656 77.03125 C 23.4375 77.132812 23.347656 77.304688 23.347656 77.480469 C 23.347656 77.574219 23.371094 77.667969 23.421875 77.753906 C 23.570312 78 23.890625 78.082031 24.140625 77.9375 C 24.140625 77.9375 29.265625 74.980469 31.203125 73.863281 C 28.699219 75.394531 23 78.878906 23 78.878906 C 22.839844 78.980469 22.746094 79.152344 22.746094 79.332031 C 22.746094 79.421875 22.773438 79.515625 22.824219 79.601562 C 22.96875 79.847656 23.289062 79.933594 23.539062 79.789062 C 23.539062 79.789062 36.789062 72.144531 49.339844 64.902344 C 37.570312 72.492188 25.300781 80.40625 25.300781 80.40625 C 25.144531 80.507812 25.058594 80.675781 25.058594 80.851562 C 25.058594 80.945312 25.082031 81.039062 25.136719 81.125 C 25.285156 81.371094 25.605469 81.449219 25.851562 81.308594 C 25.851562 81.308594 37.464844 74.605469 49.066406 67.910156 C 36.289062 76.007812 23.3125 84.230469 23.3125 84.230469 C 23.152344 84.332031 23.066406 84.503906 23.066406 84.679688 C 23.066406 84.769531 23.089844 84.867188 23.140625 84.949219 C 23.289062 85.195312 23.609375 85.277344 23.859375 85.136719 C 23.859375 85.136719 37.894531 77.035156 51.164062 69.378906 C 38.496094 77.503906 25.191406 86.039062 25.191406 86.039062 C 25.035156 86.140625 24.949219 86.3125 24.949219 86.484375 C 24.949219 86.578125 24.972656 86.675781 25.023438 86.761719 C 25.175781 87.003906 25.492188 87.085938 25.742188 86.941406 C 25.742188 86.941406 37.160156 80.351562 48.578125 73.765625 C 37.300781 80.878906 26.019531 87.996094 26.019531 87.996094 C 25.859375 88.097656 25.773438 88.265625 25.773438 88.441406 C 25.773438 88.535156 25.796875 88.628906 25.847656 88.714844 C 25.996094 88.960938 26.316406 89.042969 26.566406 88.898438 C 26.566406 88.898438 36.875 82.953125 46.707031 77.277344 C 37.546875 82.980469 27.808594 89.042969 27.808594 89.042969 C 27.648438 89.140625 27.558594 89.3125 27.558594 89.488281 C 27.558594 89.582031 27.582031 89.675781 27.632812 89.761719 C 27.78125 90.007812 28.101562 90.089844 28.351562 89.949219 C 28.351562 89.949219 40.449219 82.964844 52.546875 75.984375 C 40.128906 83.785156 27.703125 91.589844 27.703125 91.589844 C 27.542969 91.691406 27.457031 91.863281 27.457031 92.039062 C 27.457031 92.132812 27.480469 92.226562 27.53125 92.3125 C 27.679688 92.558594 28 92.640625 28.25 92.496094 C 28.25 92.496094 42.320312 84.375 52.539062 78.480469 C 43.890625 83.65625 31.003906 91.375 31.003906 91.375 C 30.839844 91.476562 30.746094 91.648438 30.746094 91.828125 C 30.746094 91.921875 30.769531 92.011719 30.820312 92.097656 C 30.96875 92.347656 31.289062 92.433594 31.539062 92.285156 C 31.539062 92.285156 41.703125 86.421875 54.78125 78.875 L 54.78125 75.964844 C 53.886719 76.480469 53.003906 76.992188 52.132812 77.492188 " fill-opacity="1" fill-rule="nonzero"/><path fill="rgb(15.689087%, 31.759644%, 60.778809%)" d="M 28.953125 95.167969 C 28.789062 95.269531 28.699219 95.441406 28.699219 95.621094 C 28.699219 95.710938 28.722656 95.804688 28.773438 95.890625 C 28.921875 96.136719 29.242188 96.222656 29.492188 96.078125 C 29.492188 96.078125 40.652344 89.636719 54.78125 81.484375 L 54.78125 79.421875 C 40.359375 88.210938 28.953125 95.167969 28.953125 95.167969 " fill-opacity="1" fill-rule="nonzero"/><path fill="rgb(15.689087%, 31.759644%, 60.778809%)" d="M 34.183594 97.34375 C 34.019531 97.441406 33.929688 97.617188 33.929688 97.796875 C 33.929688 97.886719 33.953125 97.980469 34.003906 98.066406 C 34.152344 98.3125 34.472656 98.398438 34.722656 98.253906 C 34.722656 98.253906 43.148438 93.390625 54.78125 86.679688 L 54.78125 84.761719 C 42.878906 92.03125 34.183594 97.34375 34.183594 97.34375 " fill-opacity="1" fill-rule="nonzero"/><path fill="rgb(15.689087%, 31.759644%, 60.778809%)" d="M 30.707031 96.589844 C 30.542969 96.691406 30.453125 96.863281 30.453125 97.042969 C 30.453125 97.132812 30.476562 97.226562 30.527344 97.3125 C 30.675781 97.558594 30.996094 97.644531 31.246094 97.5 C 31.246094 97.5 41.320312 91.6875 54.78125 83.917969 L 54.78125 81.972656 C 41.292969 90.160156 30.707031 96.589844 30.707031 96.589844 " fill-opacity="1" fill-rule="nonzero"/><path fill="rgb(15.689087%, 31.759644%, 60.778809%)" d="M 37.355469 98.234375 C 37.191406 98.332031 37.101562 98.507812 37.101562 98.683594 C 37.101562 98.777344 37.125 98.871094 37.175781 98.953125 C 37.324219 99.203125 37.644531 99.285156 37.894531 99.140625 C 37.894531 99.140625 44.789062 95.164062 54.78125 89.398438 L 54.78125 87.574219 C 44.574219 93.816406 37.355469 98.234375 37.355469 98.234375 " fill-opacity="1" fill-rule="nonzero"/><path fill="rgb(15.689087%, 31.759644%, 60.778809%)" d="M 38.164062 102.421875 C 38 102.519531 37.90625 102.695312 37.90625 102.875 C 37.90625 102.964844 37.929688 103.058594 37.980469 103.144531 C 38.125 103.394531 38.449219 103.476562 38.699219 103.332031 C 38.699219 103.332031 45.214844 99.570312 54.78125 94.054688 L 54.78125 92.472656 C 46.195312 97.613281 38.164062 102.421875 38.164062 102.421875 " fill-opacity="1" fill-rule="nonzero"/><path fill="rgb(15.689087%, 31.759644%, 60.778809%)" d="M 38.871094 100.242188 C 38.707031 100.339844 38.617188 100.515625 38.617188 100.691406 C 38.617188 100.785156 38.640625 100.878906 38.691406 100.960938 C 38.839844 101.210938 39.160156 101.292969 39.410156 101.148438 C 39.410156 101.148438 46.84375 96.859375 54.78125 92.28125 L 54.78125 90.507812 C 45.332031 96.285156 38.871094 100.242188 38.871094 100.242188 " fill-opacity="1" fill-rule="nonzero"/><path fill="rgb(97.24884%, 80.389404%, 10.198975%)" d="M 76.976562 61.886719 C 77.136719 61.785156 77.222656 61.613281 77.222656 61.4375 C 77.222656 61.34375 77.199219 61.25 77.148438 61.167969 C 77 60.917969 76.679688 60.835938 76.429688 60.980469 C 76.429688 60.980469 65.667969 67.191406 55.257812 73.199219 C 64.417969 67.496094 74.15625 61.4375 74.15625 61.4375 C 74.316406 61.335938 74.40625 61.164062 74.40625 60.988281 C 74.40625 60.894531 74.382812 60.800781 74.332031 60.714844 C 74.183594 60.46875 73.863281 60.386719 73.613281 60.53125 C 73.613281 60.53125 64.859375 65.582031 54.78125 71.398438 L 54.78125 75.832031 C 66.257812 68.621094 76.976562 61.886719 76.976562 61.886719 " fill-opacity="1" fill-rule="nonzero"/><path fill="rgb(97.24884%, 80.389404%, 10.198975%)" d="M 67.859375 54.210938 C 68.015625 54.109375 68.101562 53.941406 68.101562 53.765625 C 68.101562 53.671875 68.078125 53.578125 68.027344 53.492188 C 67.875 53.246094 67.558594 53.167969 67.308594 53.308594 C 67.308594 53.308594 61.523438 56.648438 58.980469 58.117188 C 61.484375 56.585938 67.183594 53.101562 67.183594 53.101562 C 67.347656 53 67.4375 52.828125 67.4375 52.648438 C 67.4375 52.558594 67.414062 52.464844 67.363281 52.378906 C 67.214844 52.132812 66.894531 52.046875 66.644531 52.191406 C 66.644531 52.191406 59.914062 56.074219 54.78125 59.039062 L 54.78125 62.648438 C 62.148438 57.898438 67.859375 54.210938 67.859375 54.210938 " fill-opacity="1" fill-rule="nonzero"/><path fill="rgb(97.24884%, 80.389404%, 10.198975%)" d="M 70.648438 58.132812 C 70.804688 58.03125 70.890625 57.863281 70.890625 57.6875 C 70.890625 57.59375 70.867188 57.5 70.816406 57.414062 C 70.664062 57.167969 70.347656 57.085938 70.097656 57.230469 C 70.097656 57.230469 63.304688 61.152344 54.78125 66.070312 L 54.78125 68.3125 C 63.546875 62.691406 70.648438 58.132812 70.648438 58.132812 " fill-opacity="1" fill-rule="nonzero"/><path fill="rgb(97.24884%, 80.389404%, 10.198975%)" d="M 71.1875 55.144531 C 71.347656 55.042969 71.433594 54.871094 71.433594 54.695312 C 71.433594 54.605469 71.410156 54.507812 71.359375 54.421875 C 71.210938 54.179688 70.890625 54.097656 70.640625 54.238281 C 70.640625 54.238281 63.554688 58.328125 54.78125 63.394531 L 54.78125 65.542969 C 63.851562 59.792969 71.1875 55.144531 71.1875 55.144531 " fill-opacity="1" fill-rule="nonzero"/><path fill="rgb(97.24884%, 80.389404%, 10.198975%)" d="M 56.320312 45.519531 C 56.476562 45.417969 56.5625 45.25 56.5625 45.074219 C 56.5625 44.980469 56.539062 44.886719 56.484375 44.800781 C 56.335938 44.554688 56.019531 44.476562 55.769531 44.617188 C 55.769531 44.617188 55.410156 44.824219 54.78125 45.1875 L 54.78125 46.507812 C 55.753906 45.882812 56.320312 45.519531 56.320312 45.519531 " fill-opacity="1" fill-rule="nonzero"/><path fill="rgb(97.24884%, 80.389404%, 10.198975%)" d="M 71.816406 60.355469 C 71.976562 60.253906 72.0625 60.082031 72.0625 59.90625 C 72.0625 59.8125 72.039062 59.71875 71.984375 59.632812 C 71.835938 59.386719 71.519531 59.304688 71.269531 59.449219 C 71.269531 59.449219 63.867188 63.71875 54.78125 68.964844 L 54.78125 71.101562 C 63.945312 65.320312 71.816406 60.355469 71.816406 60.355469 " fill-opacity="1" fill-rule="nonzero"/><path fill="rgb(97.24884%, 80.389404%, 10.198975%)" d="M 94.0625 86.734375 C 94.738281 86.324219 95.417969 85.914062 96.09375 85.503906 L 96.09375 83.414062 C 91.816406 85.882812 87.359375 88.457031 82.929688 91.011719 C 87.355469 88.289062 91.816406 85.546875 96.09375 82.914062 L 96.09375 80.59375 C 95.382812 81.003906 94.671875 81.414062 93.964844 81.824219 C 94.671875 81.394531 95.382812 80.96875 96.09375 80.539062 L 96.09375 78.554688 C 93.011719 80.332031 89.835938 82.164062 86.664062 83.996094 C 89.832031 82.066406 93 80.136719 96.09375 78.25 L 96.09375 76.011719 C 95.617188 76.289062 95.140625 76.5625 94.667969 76.835938 C 95.140625 76.550781 95.617188 76.265625 96.09375 75.976562 L 96.09375 74.085938 C 93.820312 75.398438 91.515625 76.730469 89.226562 78.050781 C 91.519531 76.664062 93.824219 75.273438 96.09375 73.902344 L 96.09375 71.914062 C 89.648438 75.632812 82.660156 79.667969 75.777344 83.640625 C 82.65625 79.425781 89.648438 75.144531 96.09375 71.199219 L 96.09375 68.992188 C 95.628906 69.261719 95.167969 69.527344 94.707031 69.792969 C 95.164062 69.519531 95.625 69.242188 96.09375 68.960938 L 96.09375 67.21875 C 89.386719 71.089844 81.867188 75.429688 74.414062 79.730469 C 81.796875 75.210938 89.296875 70.625 96.09375 66.464844 L 96.09375 64.335938 C 88.964844 68.449219 81.019531 73.035156 73.191406 77.554688 C 81.140625 72.6875 89.15625 67.789062 96.09375 63.542969 L 96.09375 61.617188 C 88.53125 65.980469 79.597656 71.136719 70.746094 76.246094 C 79.582031 70.84375 88.515625 65.386719 96.09375 60.757812 L 96.09375 58.859375 C 88.8125 63.058594 80.222656 68.015625 71.640625 72.96875 C 80.335938 67.6875 89.027344 62.410156 96.09375 58.117188 L 96.09375 56.421875 C 87.933594 61.132812 77.429688 67.191406 66.984375 73.222656 C 77.523438 66.792969 88.109375 60.34375 96.09375 55.476562 L 96.09375 53.816406 C 93.132812 55.523438 90.078125 57.285156 87.429688 58.816406 C 90.082031 57.226562 93.136719 55.398438 96.09375 53.625 L 96.09375 52.125 C 85.140625 58.445312 68.761719 67.898438 54.78125 75.964844 L 54.78125 78.875 C 60.0625 75.828125 65.816406 72.507812 71.574219 69.183594 C 65.847656 72.675781 60.109375 76.175781 54.78125 79.421875 L 54.78125 81.484375 C 59.898438 78.53125 65.40625 75.351562 70.910156 72.175781 C 65.394531 75.523438 59.878906 78.875 54.78125 81.972656 L 54.78125 83.917969 C 62.378906 79.535156 71.058594 74.523438 79.617188 69.585938 C 70.976562 74.867188 62.246094 80.199219 54.78125 84.761719 L 54.78125 86.679688 C 62.511719 82.214844 71.660156 76.9375 80.695312 71.722656 C 71.566406 77.308594 62.351562 82.945312 54.78125 87.574219 L 54.78125 89.398438 C 63.792969 84.195312 75.328125 77.539062 86.597656 71.035156 C 75.28125 77.960938 63.699219 85.046875 54.78125 90.507812 L 54.78125 92.28125 C 57.730469 90.578125 60.75 88.835938 63.480469 87.261719 C 60.714844 88.917969 57.714844 90.714844 54.78125 92.472656 L 54.78125 94.054688 C 64.277344 88.570312 76.785156 81.355469 88.898438 74.363281 C 76.644531 81.871094 64.027344 89.59375 54.78125 95.257812 L 54.78125 96.976562 C 61.578125 93.054688 70.15625 88.101562 78.65625 83.199219 C 70.097656 88.367188 61.410156 93.613281 54.78125 97.617188 L 54.78125 99.148438 C 60.257812 95.984375 67.0625 92.058594 73.472656 88.359375 C 67.058594 92.222656 60.167969 96.371094 54.78125 99.613281 L 54.78125 101.074219 C 63.167969 96.234375 76.210938 88.707031 89.199219 81.210938 C 75.867188 89.332031 62.511719 97.46875 54.78125 102.179688 L 54.78125 103.613281 C 60.644531 100.230469 69.835938 94.925781 78.515625 89.914062 C 69.863281 95.140625 60.8125 100.605469 54.78125 104.246094 L 54.78125 105.65625 C 63.027344 100.894531 77.910156 92.308594 92.355469 83.972656 C 77.453125 93.140625 62.15625 102.546875 54.78125 107.082031 L 54.78125 108.476562 C 60.675781 105.074219 72.265625 98.382812 83.613281 91.835938 C 71.972656 98.898438 60 106.15625 54.78125 109.324219 L 54.78125 110.625 C 60.785156 107.160156 78.304688 97.050781 95.457031 87.152344 C 75.957031 99.113281 56.21875 111.222656 56.21875 111.222656 C 56.054688 111.320312 55.964844 111.492188 55.964844 111.671875 C 55.964844 111.765625 55.988281 111.855469 56.039062 111.941406 C 56.1875 112.191406 56.507812 112.273438 56.757812 112.128906 C 56.757812 112.128906 69.890625 104.550781 80.453125 98.457031 C 70.1875 104.648438 57.328125 112.410156 57.328125 112.410156 C 57.164062 112.507812 57.070312 112.683594 57.070312 112.859375 C 57.070312 112.953125 57.097656 113.046875 57.144531 113.128906 C 57.292969 113.378906 57.613281 113.464844 57.867188 113.320312 C 57.867188 113.320312 76.605469 102.503906 95.226562 91.757812 C 76.570312 103.21875 57.75 114.777344 57.75 114.777344 C 57.585938 114.875 57.496094 115.046875 57.496094 115.226562 C 57.496094 115.320312 57.519531 115.410156 57.570312 115.496094 C 57.71875 115.746094 58.039062 115.828125 58.289062 115.683594 C 58.289062 115.683594 71.363281 108.140625 82.121094 101.929688 C 71.753906 108.195312 59.023438 115.890625 59.023438 115.890625 C 58.855469 115.988281 58.765625 116.164062 58.765625 116.34375 C 58.765625 116.433594 58.789062 116.527344 58.839844 116.609375 C 58.988281 116.859375 59.308594 116.945312 59.558594 116.800781 C 59.558594 116.800781 74.632812 108.101562 88.976562 99.824219 C 76.09375 107.652344 62.179688 116.105469 62.179688 116.105469 C 62.015625 116.207031 61.925781 116.382812 61.925781 116.558594 C 61.925781 116.652344 61.949219 116.742188 62 116.828125 C 62.148438 117.078125 62.46875 117.160156 62.71875 117.015625 C 62.71875 117.015625 75.859375 109.433594 87.644531 102.632812 C 76.289062 109.539062 63.519531 117.300781 63.519531 117.300781 C 63.355469 117.398438 63.265625 117.574219 63.265625 117.753906 C 63.265625 117.84375 63.289062 117.9375 63.339844 118.019531 C 63.488281 118.269531 63.808594 118.355469 64.058594 118.210938 C 64.058594 118.210938 79.855469 109.09375 96.09375 99.722656 L 96.09375 92.648438 C 94.464844 93.585938 92.824219 94.535156 91.1875 95.480469 C 92.824219 94.472656 94.464844 93.464844 96.09375 92.464844 L 96.09375 88.210938 C 94.1875 89.308594 92.261719 90.421875 90.335938 91.535156 C 92.257812 90.351562 94.183594 89.171875 96.09375 88 L 96.09375 85.5625 C 95.417969 85.953125 94.742188 86.34375 94.0625 86.734375 " fill-opacity="1" fill-rule="nonzero"/><path fill="rgb(97.24884%, 80.389404%, 10.198975%)" d="M 61.855469 47.433594 C 62.015625 47.332031 62.105469 47.160156 62.105469 46.984375 C 62.105469 46.890625 62.078125 46.796875 62.03125 46.710938 C 61.878906 46.464844 61.5625 46.382812 61.3125 46.527344 C 61.3125 46.527344 58.714844 48.023438 54.78125 50.292969 L 54.78125 51.824219 C 58.417969 49.566406 61.855469 47.433594 61.855469 47.433594 " fill-opacity="1" fill-rule="nonzero"/><path fill="rgb(97.24884%, 80.389404%, 10.198975%)" d="M 60.347656 45.457031 C 60.503906 45.359375 60.589844 45.1875 60.589844 45.015625 C 60.589844 44.921875 60.5625 44.824219 60.511719 44.738281 C 60.363281 44.496094 60.042969 44.414062 59.796875 44.558594 C 59.796875 44.558594 57.828125 45.695312 54.78125 47.453125 L 54.78125 49.070312 C 58.164062 46.878906 60.347656 45.457031 60.347656 45.457031 " fill-opacity="1" fill-rule="nonzero"/><path fill="rgb(97.24884%, 80.389404%, 10.198975%)" d="M 63.140625 50.769531 C 63.296875 50.667969 63.382812 50.5 63.382812 50.324219 C 63.382812 50.230469 63.359375 50.136719 63.304688 50.050781 C 63.15625 49.804688 62.839844 49.726562 62.589844 49.867188 C 62.589844 49.867188 59.359375 51.734375 54.78125 54.375 L 54.78125 56.179688 C 59.722656 52.984375 63.140625 50.769531 63.140625 50.769531 " fill-opacity="1" fill-rule="nonzero"/><path fill="rgb(97.24884%, 80.389404%, 10.198975%)" d="M 64.15625 47.8125 C 64.316406 47.714844 64.402344 47.542969 64.402344 47.367188 C 64.402344 47.273438 64.378906 47.179688 64.324219 47.09375 C 64.175781 46.847656 63.859375 46.765625 63.609375 46.910156 C 63.609375 46.910156 59.300781 49.394531 54.78125 52.003906 L 54.78125 53.738281 C 60.230469 50.296875 64.15625 47.8125 64.15625 47.8125 " fill-opacity="1" fill-rule="nonzero"/><path fill="rgb(97.24884%, 80.389404%, 10.198975%)" d="M 67.679688 51.039062 C 67.839844 50.941406 67.929688 50.769531 67.929688 50.589844 C 67.929688 50.5 67.90625 50.40625 67.855469 50.320312 C 67.707031 50.070312 67.386719 49.988281 67.136719 50.132812 C 67.136719 50.132812 61.867188 53.175781 54.78125 57.261719 L 54.78125 59.007812 C 60.523438 55.460938 67.679688 51.039062 67.679688 51.039062 " fill-opacity="1" fill-rule="nonzero"/><path fill="rgb(97.24884%, 80.389404%, 10.198975%)" d="M 68.164062 117.210938 C 68.003906 117.308594 67.917969 117.484375 67.917969 117.660156 C 67.917969 117.75 67.941406 117.84375 67.992188 117.929688 C 68.140625 118.179688 68.460938 118.261719 68.710938 118.117188 C 68.710938 118.117188 80.777344 111.152344 92.191406 104.566406 C 81.039062 111.421875 69.222656 118.6875 69.222656 118.6875 C 69.0625 118.785156 68.972656 118.957031 68.972656 119.136719 C 68.972656 119.230469 68.996094 119.320312 69.046875 119.40625 C 69.195312 119.65625 69.515625 119.738281 69.765625 119.59375 C 69.765625 119.59375 82.433594 112.28125 96.09375 104.398438 L 96.09375 101.09375 C 96.027344 101.132812 95.964844 101.167969 95.898438 101.207031 C 95.964844 101.164062 96.027344 101.125 96.09375 101.085938 L 96.09375 99.839844 C 81.785156 108.742188 68.164062 117.210938 68.164062 117.210938 " fill-opacity="1" fill-rule="nonzero"/><path fill="rgb(97.24884%, 80.389404%, 10.198975%)" d="M 73.480469 118.957031 C 73.324219 119.058594 73.234375 119.230469 73.234375 119.40625 C 73.234375 119.5 73.261719 119.59375 73.3125 119.679688 C 73.460938 119.925781 73.777344 120.007812 74.027344 119.863281 C 74.027344 119.863281 84.511719 113.8125 96.09375 107.128906 L 96.09375 104.699219 C 84.175781 112.214844 73.480469 118.957031 73.480469 118.957031 " fill-opacity="1" fill-rule="nonzero"/><path fill="rgb(97.24884%, 80.389404%, 10.198975%)" d="M 90.871094 113.816406 C 90.71875 113.917969 90.632812 114.085938 90.632812 114.257812 C 90.632812 114.351562 90.660156 114.449219 90.714844 114.535156 C 90.863281 114.777344 91.179688 114.855469 91.425781 114.714844 L 96.09375 112.019531 L 96.09375 110.335938 C 93.003906 112.394531 90.871094 113.816406 90.871094 113.816406 " fill-opacity="1" fill-rule="nonzero"/><path fill="rgb(97.24884%, 80.389404%, 10.198975%)" d="M 79.875 117.699219 C 79.71875 117.796875 79.628906 117.96875 79.628906 118.144531 C 79.628906 118.238281 79.65625 118.332031 79.707031 118.417969 C 79.855469 118.664062 80.175781 118.746094 80.421875 118.601562 C 80.421875 118.601562 87.683594 114.414062 96.09375 109.558594 L 96.09375 107.410156 C 87.394531 112.929688 79.875 117.699219 79.875 117.699219 " fill-opacity="1" fill-rule="nonzero"/><path fill="rgb(79.60968%, 16.079712%, 26.269531%)" d="M 120.011719 54.640625 C 120.175781 54.539062 120.265625 54.367188 120.265625 54.1875 C 120.265625 54.09375 120.242188 54.003906 120.195312 53.917969 C 120.046875 53.667969 119.726562 53.582031 119.472656 53.730469 C 119.472656 53.730469 109.382812 59.550781 96.09375 67.21875 L 96.09375 68.960938 C 106.746094 62.582031 120.011719 54.640625 120.011719 54.640625 " fill-opacity="1" fill-rule="nonzero"/><path fill="rgb(79.60968%, 16.079712%, 26.269531%)" d="M 129.039062 66.550781 C 129.039062 66.550781 112.753906 75.949219 96.09375 85.5625 L 96.09375 88 C 113.539062 77.296875 129.578125 67.460938 129.578125 67.460938 C 129.742188 67.359375 129.832031 67.1875 129.832031 67.007812 C 129.832031 66.917969 129.808594 66.824219 129.757812 66.738281 C 129.609375 66.492188 129.289062 66.40625 129.039062 66.550781 " fill-opacity="1" fill-rule="nonzero"/><path fill="rgb(79.60968%, 16.079712%, 26.269531%)" d="M 125.605469 67.605469 C 125.769531 67.503906 125.859375 67.332031 125.859375 67.152344 C 125.859375 67.058594 125.835938 66.96875 125.785156 66.882812 C 125.640625 66.632812 125.316406 66.550781 125.066406 66.695312 C 125.066406 66.695312 111.828125 74.332031 96.09375 83.414062 L 96.09375 85.503906 C 110.917969 76.511719 125.605469 67.605469 125.605469 67.605469 " fill-opacity="1" fill-rule="nonzero"/><path fill="rgb(79.60968%, 16.079712%, 26.269531%)" d="M 108.980469 45.90625 C 109.148438 45.808594 109.238281 45.632812 109.238281 45.453125 C 109.238281 45.363281 109.214844 45.269531 109.164062 45.1875 C 109.019531 44.9375 108.699219 44.851562 108.445312 44.996094 C 108.445312 44.996094 103.515625 47.839844 96.09375 52.125 L 96.09375 53.625 C 102.78125 49.621094 108.980469 45.90625 108.980469 45.90625 " fill-opacity="1" fill-rule="nonzero"/><path fill="rgb(79.60968%, 16.079712%, 26.269531%)" d="M 101.683594 101.175781 C 99.816406 102.351562 97.941406 103.535156 96.09375 104.699219 L 96.09375 107.128906 C 97.734375 106.183594 99.394531 105.222656 101.050781 104.269531 C 99.386719 105.324219 97.71875 106.382812 96.09375 107.410156 L 96.09375 109.558594 C 98.96875 107.898438 101.976562 106.164062 104.878906 104.488281 C 101.738281 106.578125 98.601562 108.667969 96.09375 110.335938 L 96.09375 112.019531 L 114.375 101.472656 C 114.628906 101.324219 114.714844 101 114.570312 100.75 C 114.421875 100.496094 114.101562 100.410156 113.847656 100.554688 C 113.847656 100.554688 109.257812 103.203125 105.195312 105.546875 C 112.199219 100.886719 119.203125 96.21875 119.203125 96.21875 C 119.359375 96.117188 119.441406 95.949219 119.441406 95.78125 C 119.441406 95.683594 119.414062 95.589844 119.359375 95.5 C 119.210938 95.257812 118.894531 95.179688 118.648438 95.324219 C 118.648438 95.324219 110.078125 100.269531 101.792969 105.050781 C 112.378906 98.335938 122.964844 91.621094 122.964844 91.621094 C 123.125 91.519531 123.210938 91.347656 123.210938 91.175781 C 123.210938 91.082031 123.1875 90.988281 123.136719 90.902344 C 122.988281 90.65625 122.667969 90.574219 122.417969 90.71875 C 122.417969 90.71875 109.605469 98.113281 96.84375 105.476562 C 110.78125 96.6875 125.039062 87.695312 125.039062 87.695312 C 125.199219 87.597656 125.285156 87.425781 125.285156 87.25 C 125.285156 87.15625 125.261719 87.0625 125.207031 86.976562 C 125.058594 86.730469 124.742188 86.648438 124.492188 86.792969 C 124.492188 86.792969 112.90625 93.476562 102.136719 99.695312 C 113.289062 92.835938 125.101562 85.574219 125.101562 85.574219 C 125.265625 85.472656 125.351562 85.300781 125.351562 85.125 C 125.351562 85.03125 125.328125 84.9375 125.277344 84.855469 C 125.128906 84.605469 124.8125 84.523438 124.558594 84.667969 C 124.558594 84.667969 110.355469 92.863281 96.09375 101.09375 L 96.09375 104.398438 C 97.949219 103.328125 99.820312 102.25 101.683594 101.175781 " fill-opacity="1" fill-rule="nonzero"/><path fill="rgb(79.60968%, 16.079712%, 26.269531%)" d="M 128.664062 72.464844 C 128.824219 72.363281 128.914062 72.191406 128.914062 72.011719 C 128.914062 71.921875 128.890625 71.828125 128.839844 71.742188 C 128.691406 71.492188 128.371094 71.410156 128.121094 71.554688 C 128.121094 71.554688 114.9375 79.164062 104.300781 85.300781 C 114.554688 79.113281 127.410156 71.359375 127.410156 71.359375 C 127.574219 71.261719 127.664062 71.085938 127.664062 70.90625 C 127.664062 70.816406 127.640625 70.722656 127.589844 70.636719 C 127.441406 70.390625 127.121094 70.304688 126.871094 70.449219 C 126.871094 70.449219 112.238281 78.894531 96.09375 88.210938 L 96.09375 92.464844 C 113.003906 82.078125 128.664062 72.464844 128.664062 72.464844 " fill-opacity="1" fill-rule="nonzero"/><path fill="rgb(79.60968%, 16.079712%, 26.269531%)" d="M 123.984375 54.117188 C 124.148438 54.015625 124.238281 53.84375 124.238281 53.664062 C 124.238281 53.574219 124.214844 53.480469 124.164062 53.394531 C 124.015625 53.148438 123.695312 53.0625 123.445312 53.207031 C 123.445312 53.207031 108.664062 61.738281 96.09375 68.992188 L 96.09375 71.199219 C 111.621094 61.6875 123.984375 54.117188 123.984375 54.117188 " fill-opacity="1" fill-rule="nonzero"/><path fill="rgb(79.60968%, 16.079712%, 26.269531%)" d="M 98.707031 98.214844 C 97.835938 98.757812 96.964844 99.300781 96.09375 99.839844 L 96.09375 101.085938 C 111.25 91.660156 126.445312 82.207031 126.445312 82.207031 C 126.605469 82.109375 126.695312 81.9375 126.695312 81.757812 C 126.695312 81.667969 126.667969 81.574219 126.617188 81.488281 C 126.46875 81.242188 126.148438 81.15625 125.902344 81.300781 C 125.902344 81.300781 113.832031 88.265625 103.566406 94.191406 C 114.929688 87.28125 127.699219 79.519531 127.699219 79.519531 C 127.863281 79.417969 127.953125 79.246094 127.953125 79.066406 C 127.953125 78.976562 127.929688 78.882812 127.878906 78.796875 C 127.730469 78.546875 127.410156 78.464844 127.160156 78.609375 C 127.160156 78.609375 114.140625 86.121094 102.574219 92.796875 C 115.460938 84.96875 129.371094 76.511719 129.371094 76.511719 C 129.535156 76.414062 129.625 76.238281 129.625 76.0625 C 129.625 75.96875 129.601562 75.875 129.550781 75.792969 C 129.402344 75.542969 129.082031 75.460938 128.832031 75.605469 C 128.832031 75.605469 115.527344 83.28125 104.433594 89.683594 C 114.800781 83.417969 127.535156 75.722656 127.535156 75.722656 C 127.699219 75.625 127.789062 75.449219 127.789062 75.269531 C 127.789062 75.179688 127.765625 75.085938 127.71875 75.003906 C 127.570312 74.753906 127.25 74.667969 126.996094 74.8125 C 126.996094 74.8125 112.207031 83.347656 96.09375 92.648438 L 96.09375 99.722656 C 96.964844 99.222656 97.835938 98.71875 98.707031 98.214844 " fill-opacity="1" fill-rule="nonzero"/><path fill="rgb(79.60968%, 16.079712%, 26.269531%)" d="M 109.601562 47.242188 C 109.765625 47.140625 109.855469 46.96875 109.855469 46.789062 C 109.855469 46.699219 109.832031 46.605469 109.78125 46.519531 C 109.632812 46.269531 109.3125 46.1875 109.0625 46.332031 C 109.0625 46.332031 102.816406 49.9375 96.09375 53.816406 L 96.09375 55.476562 C 104.179688 50.542969 109.601562 47.242188 109.601562 47.242188 " fill-opacity="1" fill-rule="nonzero"/><path fill="rgb(79.60968%, 16.079712%, 26.269531%)" d="M 123.066406 59.742188 C 123.230469 59.644531 123.324219 59.46875 123.324219 59.289062 C 123.324219 59.199219 123.300781 59.105469 123.25 59.019531 C 123.101562 58.769531 122.78125 58.6875 122.53125 58.832031 C 122.53125 58.832031 109.929688 66.101562 96.09375 74.085938 L 96.09375 75.976562 C 108.929688 68.25 123.066406 59.742188 123.066406 59.742188 " fill-opacity="1" fill-rule="nonzero"/><path fill="rgb(79.60968%, 16.079712%, 26.269531%)" d="M 116.53125 51.042969 C 116.695312 50.945312 116.785156 50.769531 116.785156 50.59375 C 116.785156 50.5 116.761719 50.40625 116.710938 50.324219 C 116.5625 50.074219 116.242188 49.992188 115.992188 50.136719 C 115.992188 50.136719 107.636719 54.957031 96.09375 61.617188 L 96.09375 63.542969 C 107.863281 56.34375 116.53125 51.042969 116.53125 51.042969 " fill-opacity="1" fill-rule="nonzero"/><path fill="rgb(79.60968%, 16.079712%, 26.269531%)" d="M 116.171875 48.492188 C 116.335938 48.390625 116.425781 48.21875 116.425781 48.039062 C 116.425781 47.949219 116.402344 47.855469 116.351562 47.769531 C 116.203125 47.519531 115.882812 47.4375 115.632812 47.582031 C 115.632812 47.582031 107.453125 52.300781 96.09375 58.859375 L 96.09375 60.757812 C 107.730469 53.648438 116.171875 48.492188 116.171875 48.492188 " fill-opacity="1" fill-rule="nonzero"/><path fill="rgb(79.60968%, 16.079712%, 26.269531%)" d="M 122.144531 50.523438 C 122.308594 50.421875 122.398438 50.25 122.398438 50.070312 C 122.398438 49.980469 122.375 49.886719 122.324219 49.800781 C 122.175781 49.554688 121.855469 49.46875 121.605469 49.613281 C 121.605469 49.613281 110.519531 56.011719 96.09375 64.335938 L 96.09375 66.464844 C 110.746094 57.5 122.144531 50.523438 122.144531 50.523438 " fill-opacity="1" fill-rule="nonzero"/><path fill="rgb(79.60968%, 16.079712%, 26.269531%)" d="M 124.667969 56.644531 C 124.835938 56.546875 124.925781 56.371094 124.925781 56.191406 C 124.925781 56.101562 124.902344 56.007812 124.851562 55.925781 C 124.703125 55.675781 124.382812 55.589844 124.132812 55.734375 C 124.132812 55.734375 111.710938 62.902344 96.09375 71.914062 L 96.09375 73.902344 C 111.09375 64.84375 124.667969 56.644531 124.667969 56.644531 " fill-opacity="1" fill-rule="nonzero"/><path fill="rgb(79.60968%, 16.079712%, 26.269531%)" d="M 125.019531 65.121094 C 125.183594 65.023438 125.273438 64.851562 125.273438 64.671875 C 125.273438 64.578125 125.25 64.488281 125.199219 64.402344 C 125.050781 64.152344 124.730469 64.070312 124.480469 64.214844 C 124.480469 64.214844 110.082031 72.523438 96.09375 80.59375 L 96.09375 82.914062 C 111.789062 73.261719 125.019531 65.121094 125.019531 65.121094 " fill-opacity="1" fill-rule="nonzero"/><path fill="rgb(79.60968%, 16.079712%, 26.269531%)" d="M 127.800781 58.9375 C 127.964844 58.835938 128.054688 58.664062 128.054688 58.484375 C 128.054688 58.394531 128.03125 58.300781 127.980469 58.214844 C 127.832031 57.96875 127.511719 57.882812 127.261719 58.027344 C 127.261719 58.027344 111.285156 67.246094 96.09375 76.011719 L 96.09375 78.25 C 113.066406 67.914062 127.800781 58.9375 127.800781 58.9375 " fill-opacity="1" fill-rule="nonzero"/><path fill="rgb(79.60968%, 16.079712%, 26.269531%)" d="M 111.84375 48.554688 C 112.007812 48.453125 112.097656 48.28125 112.097656 48.101562 C 112.097656 48.007812 112.074219 47.917969 112.023438 47.832031 C 111.878906 47.582031 111.558594 47.5 111.304688 47.644531 C 111.304688 47.644531 105.140625 51.203125 96.09375 56.421875 L 96.09375 58.117188 C 105.367188 52.488281 111.84375 48.554688 111.84375 48.554688 " fill-opacity="1" fill-rule="nonzero"/><path fill="rgb(79.60968%, 16.079712%, 26.269531%)" d="M 124.761719 63.230469 C 124.925781 63.128906 125.019531 62.953125 125.019531 62.777344 C 125.019531 62.683594 124.996094 62.59375 124.945312 62.507812 C 124.796875 62.257812 124.476562 62.175781 124.226562 62.320312 C 124.226562 62.320312 111.253906 69.804688 96.09375 78.554688 L 96.09375 80.539062 C 110.269531 71.980469 124.761719 63.230469 124.761719 63.230469 " fill-opacity="1" fill-rule="nonzero"/><path fill="rgb(15.689087%, 31.369019%, 60.778809%)" d="M 75.042969 147.226562 C 35.339844 147.226562 2.980469 114.882812 2.980469 75.195312 C 2.980469 35.511719 35.339844 3.167969 75.042969 3.167969 C 114.75 3.167969 147.109375 35.511719 147.109375 75.195312 C 147.109375 114.882812 114.75 147.226562 75.042969 147.226562 Z M 75.042969 11.324219 C 39.828125 11.324219 11.140625 40 11.140625 75.195312 C 11.140625 110.394531 39.828125 139.070312 75.042969 139.070312 C 110.261719 139.070312 138.949219 110.394531 138.949219 75.195312 C 138.949219 40 110.261719 11.324219 75.042969 11.324219 Z M 75.042969 11.324219 " fill-opacity="1" fill-rule="nonzero"/><g clip-path="url(#id1)"><path stroke-linecap="butt" transform="matrix(1.359698, 0, 0, 1.359033, -814.197263, -1054.158921)" fill="none" stroke-linejoin="miter" d="M 653.998565 884.000468 C 624.798596 884.000468 600.999645 860.20137 600.999645 830.998613 C 600.999645 801.79873 624.798596 777.999633 653.998565 777.999633 C 683.201406 777.999633 707.000357 801.79873 707.000357 830.998613 C 707.000357 860.20137 683.201406 884.000468 653.998565 884.000468 Z M 653.998565 784.001144 C 628.099537 784.001144 607.001095 805.101286 607.001095 830.998613 C 607.001095 856.898814 628.099537 877.998956 653.998565 877.998956 C 679.900465 877.998956 700.998907 856.898814 700.998907 830.998613 C 700.998907 805.101286 679.900465 784.001144 653.998565 784.001144 Z M 653.998565 784.001144 " stroke="rgb(97.24884%, 79.998779%, 10.198975%)" stroke-width="1" stroke-opacity="1" stroke-miterlimit="4"/></g></svg>