<svg xmlns="http://www.w3.org/2000/svg" xmlns:xlink="http://www.w3.org/1999/xlink" width="144" zoomAndPan="magnify" viewBox="0 0 108 107.999999" height="144" preserveAspectRatio="xMidYMid meet" version="1.0"><defs><clipPath id="id1"><path d="M 3 3 L 106 3 L 106 106.238281 L 3 106.238281 Z M 3 3 " clip-rule="nonzero"/></clipPath></defs><path fill="rgb(100%, 100%, 100%)" d="M 37.332031 65.144531 C 37.640625 64.839844 38.0625 64.660156 38.507812 64.660156 L 79.054688 64.660156 C 79.792969 64.660156 80.164062 65.554688 79.640625 66.082031 L 71.632812 74.117188 C 71.324219 74.425781 70.902344 74.605469 70.457031 74.605469 L 29.910156 74.605469 C 29.171875 74.605469 28.800781 73.707031 29.324219 73.183594 Z M 37.332031 65.144531 " fill-opacity="1" fill-rule="nonzero"/><path fill="rgb(100%, 100%, 100%)" d="M 37.332031 35.136719 C 37.652344 34.832031 38.074219 34.652344 38.507812 34.652344 L 79.054688 34.652344 C 79.792969 34.652344 80.164062 35.546875 79.640625 36.074219 L 71.632812 44.109375 C 71.324219 44.417969 70.902344 44.597656 70.457031 44.597656 L 29.910156 44.597656 C 29.171875 44.597656 28.800781 43.699219 29.324219 43.175781 Z M 37.332031 35.136719 " fill-opacity="1" fill-rule="nonzero"/><path fill="rgb(100%, 100%, 100%)" d="M 71.632812 50.046875 C 71.324219 49.738281 70.902344 49.558594 70.457031 49.558594 L 29.910156 49.558594 C 29.171875 49.558594 28.800781 50.457031 29.324219 50.980469 L 37.332031 59.019531 C 37.640625 59.328125 38.0625 59.503906 38.507812 59.503906 L 79.054688 59.503906 C 79.792969 59.503906 80.164062 58.609375 79.640625 58.082031 Z M 71.632812 50.046875 " fill-opacity="1" fill-rule="nonzero"/><g clip-path="url(#id1)"><path fill="rgb(100%, 100%, 100%)" d="M 104.144531 41.277344 C 100.589844 27.964844 92.082031 16.839844 80.1875 9.949219 C 68.296875 3.058594 54.441406 1.230469 41.175781 4.796875 C 27.910156 8.363281 16.824219 16.898438 9.957031 28.832031 C 3.089844 40.765625 1.265625 54.671875 4.820312 67.980469 C 8.375 81.292969 16.882812 92.417969 28.777344 99.304688 C 36.699219 103.894531 45.488281 106.238281 54.398438 106.238281 C 58.863281 106.238281 63.359375 105.652344 67.789062 104.460938 C 81.054688 100.894531 92.140625 92.355469 99.007812 80.421875 C 105.875 68.488281 107.699219 54.585938 104.144531 41.277344 Z M 101.445312 65.566406 L 97.863281 64.605469 C 97.003906 64.375 96.121094 64.886719 95.890625 65.75 C 95.65625 66.613281 96.167969 67.5 97.027344 67.730469 L 100.601562 68.691406 C 99.539062 72.179688 98.074219 75.570312 96.214844 78.804688 C 94.355469 82.035156 92.167969 84.996094 89.695312 87.65625 L 87.359375 85.3125 C 87.289062 85.191406 87.203125 85.074219 87.097656 84.96875 C 86.472656 84.332031 85.449219 84.332031 84.816406 84.960938 L 84.777344 85 C 84.472656 85.304688 84.300781 85.71875 84.300781 86.148438 C 84.296875 86.578125 84.46875 86.988281 84.773438 87.292969 L 87.421875 89.953125 C 82.09375 94.96875 75.660156 98.707031 68.503906 100.886719 L 67.542969 97.285156 C 67.433594 96.867188 67.160156 96.515625 66.789062 96.300781 C 66.417969 96.085938 65.972656 96.027344 65.5625 96.140625 L 65.511719 96.15625 C 64.648438 96.386719 64.136719 97.273438 64.367188 98.136719 C 64.40625 98.285156 64.464844 98.425781 64.542969 98.550781 L 65.386719 101.722656 C 58.113281 103.425781 50.679688 103.417969 43.570312 101.75 L 44.53125 98.15625 C 44.761719 97.289062 44.25 96.402344 43.390625 96.171875 C 42.527344 95.941406 41.644531 96.453125 41.414062 97.316406 L 40.457031 100.902344 C 36.984375 99.835938 33.609375 98.367188 30.390625 96.503906 C 27.167969 94.636719 24.210938 92.433594 21.554688 89.953125 L 24.203125 87.292969 C 24.832031 86.664062 24.832031 85.636719 24.203125 85.003906 L 24.160156 84.960938 C 23.527344 84.332031 22.507812 84.332031 21.878906 84.960938 C 21.769531 85.070312 21.679688 85.191406 21.605469 85.320312 L 19.269531 87.667969 C 14.273438 82.320312 10.546875 75.867188 8.378906 68.6875 L 11.945312 67.730469 C 12.804688 67.5 13.316406 66.613281 13.085938 65.75 C 12.855469 64.886719 11.972656 64.371094 11.109375 64.605469 L 7.546875 65.5625 C 5.851562 58.257812 5.863281 50.800781 7.527344 43.667969 L 11.230469 44.660156 C 11.371094 44.699219 11.511719 44.71875 11.648438 44.71875 C 12.359375 44.71875 13.011719 44.242188 13.207031 43.519531 C 13.4375 42.652344 12.925781 41.765625 12.066406 41.535156 L 8.371094 40.542969 C 9.433594 37.0625 10.894531 33.679688 12.75 30.453125 C 14.613281 27.214844 16.808594 24.25 19.285156 21.582031 L 21.972656 24.277344 C 22.285156 24.59375 22.699219 24.753906 23.113281 24.753906 C 23.523438 24.753906 23.9375 24.59375 24.253906 24.277344 C 24.882812 23.648438 24.882812 22.621094 24.253906 21.992188 L 21.558594 19.289062 C 26.886719 14.28125 33.3125 10.546875 40.460938 8.371094 L 41.441406 12.042969 C 41.632812 12.765625 42.285156 13.242188 42.996094 13.242188 C 43.136719 13.242188 43.277344 13.222656 43.414062 13.1875 C 44.277344 12.953125 44.785156 12.066406 44.554688 11.203125 L 43.574219 7.53125 C 47.21875 6.675781 50.898438 6.253906 54.5625 6.253906 C 58.210938 6.253906 61.84375 6.675781 65.394531 7.507812 L 64.402344 11.222656 C 64.171875 12.085938 64.683594 12.972656 65.542969 13.203125 C 65.683594 13.242188 65.824219 13.261719 65.960938 13.261719 C 66.675781 13.261719 67.324219 12.785156 67.519531 12.058594 L 68.507812 8.351562 C 71.980469 9.417969 75.355469 10.886719 78.574219 12.753906 C 81.796875 14.617188 84.75 16.816406 87.402344 19.296875 L 84.722656 21.992188 C 84.089844 22.621094 84.089844 23.648438 84.722656 24.277344 C 85.035156 24.59375 85.449219 24.753906 85.863281 24.753906 C 86.273438 24.753906 86.6875 24.59375 87.003906 24.277344 L 89.691406 21.582031 C 94.683594 26.925781 98.410156 33.375 100.578125 40.546875 L 96.910156 41.535156 C 96.050781 41.765625 95.539062 42.652344 95.769531 43.519531 C 95.960938 44.242188 96.613281 44.71875 97.324219 44.71875 C 97.464844 44.71875 97.605469 44.699219 97.746094 44.660156 L 101.414062 43.675781 C 103.113281 50.976562 103.105469 58.433594 101.445312 65.566406 Z M 101.445312 65.566406 " fill-opacity="1" fill-rule="nonzero"/></g><path fill="rgb(100%, 100%, 100%)" d="M 98.894531 53.058594 L 95.285156 53.058594 C 95.167969 50.066406 94.722656 47.039062 93.917969 44.023438 C 93.117188 41.023438 92 38.191406 90.617188 35.550781 L 93.714844 33.757812 C 94.484375 33.3125 94.75 32.320312 94.304688 31.546875 C 93.859375 30.773438 92.871094 30.507812 92.101562 30.957031 L 89.003906 32.75 C 85.722656 27.542969 81.339844 23.21875 76.269531 20.007812 L 78.078125 16.859375 C 78.523438 16.085938 78.261719 15.097656 77.488281 14.648438 C 76.71875 14.203125 75.730469 14.46875 75.285156 15.242188 L 73.476562 18.386719 C 68.164062 15.582031 62.234375 13.941406 56.09375 13.691406 L 56.09375 10.113281 C 56.09375 9.21875 55.371094 8.492188 54.480469 8.492188 C 53.589844 8.492188 52.867188 9.21875 52.867188 10.113281 L 52.867188 13.691406 C 49.902344 13.808594 46.902344 14.253906 43.914062 15.054688 C 40.929688 15.859375 38.113281 16.976562 35.484375 18.363281 L 33.6875 15.242188 C 33.242188 14.46875 32.257812 14.203125 31.484375 14.648438 C 30.714844 15.097656 30.449219 16.085938 30.894531 16.859375 L 32.6875 19.980469 C 27.496094 23.273438 23.1875 27.667969 19.984375 32.757812 L 16.875 30.957031 C 16.101562 30.507812 15.117188 30.773438 14.671875 31.546875 C 14.226562 32.320312 14.488281 33.3125 15.261719 33.757812 L 18.371094 35.558594 C 15.566406 40.90625 13.925781 46.878906 13.683594 53.058594 L 10.066406 53.058594 C 9.175781 53.058594 8.453125 53.785156 8.453125 54.675781 C 8.453125 55.570312 9.175781 56.296875 10.066406 56.296875 L 13.6875 56.296875 C 13.804688 59.257812 14.25 62.25 15.046875 65.230469 C 15.847656 68.238281 16.96875 71.074219 18.355469 73.71875 L 15.277344 75.503906 C 14.503906 75.949219 14.242188 76.941406 14.6875 77.714844 C 14.984375 78.234375 15.527344 78.523438 16.085938 78.523438 C 16.359375 78.523438 16.636719 78.453125 16.890625 78.304688 L 19.972656 76.519531 C 23.253906 81.722656 27.632812 86.046875 32.699219 89.253906 L 31.101562 92.035156 C 30.996094 92.136719 30.902344 92.257812 30.824219 92.390625 C 30.378906 93.167969 30.648438 94.15625 31.417969 94.601562 L 31.476562 94.632812 C 31.730469 94.777344 32.003906 94.847656 32.273438 94.847656 C 32.832031 94.847656 33.375 94.558594 33.671875 94.039062 L 35.492188 90.875 C 40.804688 93.675781 46.730469 95.316406 52.867188 95.5625 L 52.867188 99.242188 C 52.867188 100.136719 53.589844 100.863281 54.480469 100.863281 C 55.371094 100.863281 56.09375 100.136719 56.09375 99.242188 L 56.09375 95.566406 C 59.0625 95.449219 62.0625 95.003906 65.050781 94.199219 C 68.039062 93.398438 70.859375 92.277344 73.488281 90.890625 L 75.300781 94.039062 C 75.597656 94.554688 76.140625 94.84375 76.699219 94.84375 C 76.972656 94.84375 77.25 94.777344 77.503906 94.628906 L 77.554688 94.601562 C 78.328125 94.15625 78.589844 93.167969 78.148438 92.394531 C 78.074219 92.261719 77.980469 92.144531 77.878906 92.042969 L 76.285156 89.273438 C 81.46875 85.980469 85.777344 81.589844 88.976562 76.503906 L 92.085938 78.304688 C 92.339844 78.453125 92.617188 78.523438 92.890625 78.523438 C 93.445312 78.523438 93.988281 78.234375 94.289062 77.714844 C 94.734375 76.941406 94.46875 75.949219 93.695312 75.503906 L 90.589844 73.703125 C 93.382812 68.382812 95.027344 62.445312 95.28125 56.296875 L 98.894531 56.296875 C 99.785156 56.296875 100.507812 55.570312 100.507812 54.675781 C 100.507812 53.785156 99.785156 53.058594 98.894531 53.058594 Z M 73.324219 87.28125 C 73.3125 87.289062 73.300781 87.292969 73.289062 87.300781 C 73.273438 87.308594 73.261719 87.320312 73.25 87.328125 C 70.472656 88.929688 67.449219 90.203125 64.214844 91.074219 C 60.964844 91.945312 57.703125 92.363281 54.492188 92.363281 C 41.144531 92.363281 28.6875 85.167969 21.976562 73.597656 C 21.960938 73.570312 21.949219 73.542969 21.933594 73.515625 C 21.917969 73.484375 21.898438 73.457031 21.878906 73.429688 C 20.289062 70.652344 19.027344 67.628906 18.160156 64.394531 C 17.328125 61.269531 16.910156 58.132812 16.878906 55.039062 C 16.90625 54.921875 16.921875 54.800781 16.921875 54.675781 C 16.921875 54.554688 16.90625 54.433594 16.878906 54.320312 C 17.019531 37.785156 28.078125 22.664062 44.75 18.183594 C 48 17.308594 51.261719 16.894531 54.472656 16.894531 C 71.074219 16.894531 86.308594 28.027344 90.804688 44.863281 C 95.292969 61.683594 87.671875 78.945312 73.324219 87.28125 Z M 73.324219 87.28125 " fill-opacity="1" fill-rule="nonzero"/></svg>