<svg xmlns="http://www.w3.org/2000/svg" xmlns:xlink="http://www.w3.org/1999/xlink" width="1080" zoomAndPan="magnify" viewBox="0 0 810 809.999993" height="1080" preserveAspectRatio="xMidYMid meet" version="1.0"><path fill="rgb(0%, 29.019165%, 67.83905%)" d="M 745.390625 248.738281 C 720.09375 175.480469 672.011719 111.808594 601.933594 76.4375 C 521.953125 36.035156 427.519531 32.261719 340.46875 46.097656 C 262.21875 58.515625 179.726562 86.8125 121.117188 142.152344 C 90.320312 171.234375 66.59375 206.449219 54.023438 247.164062 C 41.453125 288.039062 37.679688 330.640625 35.007812 373.085938 C 34.851562 374.816406 34.382812 376.230469 33.4375 377.332031 C 33.4375 377.644531 33.59375 378.117188 33.59375 378.589844 C 33.59375 461.75 31.867188 548.84375 80.890625 620.53125 C 120.644531 678.855469 182.238281 717.210938 249.332031 736.390625 C 387.609375 776.007812 554.480469 751.484375 665.570312 656.53125 C 782.003906 557.019531 792.84375 385.664062 745.390625 248.738281 Z M 688.039062 241.820312 C 685.683594 241.976562 683.324219 241.976562 680.96875 241.976562 C 679.867188 242.761719 678.609375 243.550781 677.039062 243.863281 C 659.285156 247.792969 646.085938 260.054688 635.558594 274.363281 C 635.242188 274.832031 634.773438 275.304688 634.300781 275.621094 C 634.300781 275.777344 634.144531 275.777344 634.144531 275.933594 C 628.171875 284.265625 626.757812 295.898438 624.558594 305.488281 C 621.886719 317.90625 617.488281 328.914062 613.089844 340.703125 C 607.589844 355.636719 603.03125 370.886719 597.0625 385.507812 C 591.089844 400.125 584.332031 414.433594 576.949219 428.425781 C 569.71875 442.101562 562.019531 455.777344 556.050781 470.082031 C 550.238281 483.761719 545.679688 497.753906 541.28125 512.058594 C 538.136719 522.277344 534.210938 532.023438 529.652344 541.613281 C 529.652344 542.085938 529.652344 542.714844 529.496094 543.183594 C 526.195312 560.164062 520.695312 576.984375 511.113281 591.445312 C 508.753906 594.90625 506.398438 598.523438 504.667969 602.292969 C 503.097656 605.753906 502.3125 609.527344 500.425781 612.828125 C 497.914062 617.230469 494.925781 621.472656 489.742188 623.046875 C 473.714844 627.761719 467.429688 605.597656 463.816406 594.589844 C 463.660156 593.960938 463.5 593.492188 463.1875 592.863281 C 458.945312 582.328125 454.859375 571.640625 451.875 560.792969 C 441.660156 539.097656 435.6875 515.203125 426.261719 493.191406 C 423.433594 486.589844 420.761719 479.988281 417.933594 473.386719 C 417.460938 474.484375 416.992188 475.585938 416.519531 476.527344 C 410.707031 490.207031 406.148438 504.199219 401.75 518.503906 C 397.351562 533.125 391.066406 546.484375 384.152344 560.164062 C 379.4375 569.4375 369.378906 578.714844 369.066406 589.5625 C 369.066406 591.289062 368.59375 592.703125 367.808594 593.804688 C 366.082031 605.597656 355.238281 614.871094 348.796875 624.304688 C 342.199219 633.894531 331.667969 644.898438 319.257812 637.664062 C 306.527344 630.121094 304.015625 611.882812 298.515625 599.464844 C 294.117188 589.5625 290.34375 579.65625 288.929688 569.125 C 277.144531 546.171875 271.019531 520.234375 260.960938 496.496094 C 249.492188 469.769531 238.804688 442.574219 229.378906 415.0625 C 219.949219 387.863281 212.25 360.195312 202.351562 333.15625 C 194.023438 310.675781 184.910156 288.511719 175.796875 266.1875 C 166.054688 256.910156 154.898438 249.996094 141.070312 251.410156 C 138.714844 250.625 136.042969 250.625 133.214844 250.9375 C 132.585938 250.625 132.117188 250.152344 131.644531 249.835938 C 124.417969 249.679688 117.34375 249.679688 110.117188 249.996094 C 99.117188 250.464844 96.917969 233.332031 107.917969 232.859375 C 139.5 231.601562 170.925781 236.316406 202.351562 234.746094 C 226.863281 233.488281 252.476562 228.929688 276.203125 236.945312 C 285.003906 239.933594 281.703125 251.253906 274.316406 252.980469 C 272.746094 252.980469 271.332031 252.824219 269.761719 252.824219 C 269.605469 252.824219 269.445312 252.667969 269.289062 252.667969 C 265.519531 251.410156 261.589844 250.464844 257.660156 249.996094 C 256.875 250.464844 255.933594 250.9375 254.832031 251.09375 C 248.390625 252.511719 235.507812 254.394531 232.207031 261.3125 C 230.320312 265.242188 230.792969 268.703125 230.792969 273.105469 C 230.792969 274.519531 230.792969 275.933594 230.792969 277.191406 C 242.261719 301.558594 251.0625 327.339844 260.804688 352.179688 C 274.003906 386.449219 287.359375 420.5625 299.773438 455.148438 C 305.585938 471.5 311.558594 487.691406 318.628906 503.570312 C 322.085938 511.273438 325.699219 518.976562 328.527344 526.992188 C 329.941406 530.765625 332.769531 536.109375 332.769531 540.828125 C 334.96875 544.601562 337.328125 548.371094 339.210938 552.144531 C 344.398438 561.421875 348.796875 570.851562 350.523438 581.859375 C 350.996094 583.117188 351.3125 584.371094 351.78125 585.628906 C 351.941406 585.316406 352.097656 585 352.253906 584.6875 C 353.511719 572.582031 363.09375 563.308594 368.4375 552.929688 C 375.351562 539.410156 381.480469 525.890625 386.035156 511.273438 C 390.59375 496.179688 395.308594 481.089844 401.90625 466.78125 C 404.261719 461.59375 406.777344 456.5625 409.449219 451.375 C 404.261719 438.171875 399.390625 424.808594 394.835938 411.445312 C 385.40625 384.25 377.707031 356.582031 367.808594 329.542969 C 359.480469 307.0625 350.367188 284.894531 341.253906 262.570312 C 330.882812 252.667969 318.941406 245.4375 304.015625 248.265625 C 303.699219 248.265625 303.542969 248.265625 303.230469 248.421875 C 302.914062 242.132812 302.285156 235.847656 301.816406 229.558594 C 323.8125 230.5 345.8125 232.386719 367.964844 231.285156 C 389.335938 230.1875 411.492188 226.570312 432.703125 230.972656 C 432.234375 236.945312 432.390625 242.761719 432.859375 248.738281 C 429.71875 247.792969 426.417969 247.164062 423.117188 246.691406 C 422.332031 247.164062 421.390625 247.636719 420.289062 247.792969 C 413.847656 249.207031 400.964844 251.09375 397.664062 258.011719 C 395.777344 261.941406 396.25 265.402344 396.25 269.800781 C 396.25 271.21875 396.25 272.632812 396.25 273.890625 C 407.71875 298.257812 416.519531 324.039062 426.261719 348.878906 C 431.289062 361.609375 436.160156 374.503906 441.03125 387.234375 C 442.132812 384.5625 443.074219 381.890625 444.175781 379.21875 C 449.675781 364.285156 454.230469 349.035156 460.203125 334.414062 C 464.757812 323.253906 467.273438 312.40625 470.101562 300.773438 C 472.457031 290.867188 474.972656 280.808594 480.628906 272.316406 C 480.472656 272.160156 480.472656 271.847656 480.472656 271.6875 C 482.042969 267.601562 482.199219 263.199219 480 258.796875 C 479.058594 256.753906 477.644531 255.183594 476.070312 253.925781 C 475.914062 253.765625 475.601562 253.609375 475.441406 253.453125 C 472.929688 251.722656 469.628906 250.78125 466.328125 250.308594 C 466.171875 249.996094 465.859375 249.679688 465.703125 249.367188 C 464.285156 249.523438 463.03125 249.523438 461.773438 249.679688 C 454.546875 249.050781 447.160156 249.367188 441.976562 247.320312 C 441.347656 247.007812 440.71875 247.007812 440.089844 247.007812 C 437.574219 242.292969 439.144531 234.902344 446.21875 233.960938 C 479.527344 229.402344 513.3125 232.230469 546.78125 230.816406 C 557.777344 230.34375 559.980469 247.480469 548.980469 247.949219 C 546.621094 248.109375 544.265625 248.109375 541.910156 248.109375 C 540.808594 248.894531 539.550781 249.679688 537.980469 249.996094 C 520.226562 253.925781 507.027344 266.1875 496.5 280.492188 C 496.183594 280.964844 495.710938 281.4375 495.242188 281.75 C 495.242188 281.90625 495.085938 281.90625 495.085938 282.066406 C 489.113281 290.398438 487.699219 302.03125 485.5 311.621094 C 482.828125 324.039062 478.429688 335.042969 474.027344 346.832031 C 468.53125 361.769531 463.972656 377.015625 458 391.636719 C 455.488281 397.925781 452.816406 403.898438 449.988281 410.03125 C 455.171875 423.863281 460.359375 437.699219 465.386719 451.691406 C 471.199219 468.039062 477.171875 484.230469 484.242188 500.109375 C 487.699219 507.8125 491.3125 515.515625 494.140625 523.535156 C 495.554688 527.308594 498.226562 532.335938 498.382812 537.054688 C 500.269531 540.828125 502.46875 544.601562 504.199219 548.371094 C 504.828125 549 505.453125 549.628906 505.769531 550.417969 C 506.554688 549 507.339844 547.742188 508.125 546.328125 C 515.039062 532.808594 521.167969 519.289062 525.722656 504.667969 C 530.28125 489.578125 534.996094 474.484375 541.59375 460.179688 C 548.195312 446.03125 555.578125 432.355469 562.808594 418.519531 C 570.507812 403.585938 577.890625 388.335938 583.707031 372.617188 C 589.203125 357.679688 593.761719 342.433594 599.734375 327.8125 C 604.289062 316.648438 606.804688 305.804688 609.632812 294.167969 C 611.988281 284.265625 614.503906 274.203125 620.160156 265.714844 C 620.003906 265.402344 620.003906 265.085938 619.84375 264.613281 C 622.359375 258.484375 622.203125 251.722656 616.546875 246.535156 C 609.003906 239.460938 595.804688 243.390625 586.21875 244.492188 C 576.476562 244.335938 575.0625 228.613281 585.589844 227.199219 C 618.902344 222.640625 652.683594 225.46875 686.152344 224.054688 C 696.996094 224.210938 699.195312 241.347656 688.039062 241.820312 Z M 688.039062 241.820312 " fill-opacity="1" fill-rule="nonzero"/><path fill="rgb(100%, 100%, 100%)" d="M 766.761719 259.585938 C 744.449219 185.855469 702.496094 120.769531 637.914062 77.695312 C 565.007812 28.960938 472.457031 17.328125 386.820312 23.617188 C 305.585938 29.589844 222.464844 51.757812 153.328125 95.933594 C 119.386719 117.625 89.0625 146.082031 66.90625 179.878906 C 43.496094 215.566406 31.550781 256.597656 25.109375 298.414062 C 21.496094 322.152344 19.769531 346.046875 18.195312 370.101562 C 18.039062 371.515625 18.355469 372.929688 18.824219 374.1875 C 17.410156 375.601562 16.46875 377.644531 16.46875 380.160156 C 16.46875 427.480469 15.527344 475.113281 23.695312 521.960938 C 31.238281 564.566406 47.578125 605.125 73.347656 640.023438 C 119.230469 702.121094 188.839844 739.535156 262.53125 757.929688 C 402.222656 792.828125 567.679688 763.746094 678.140625 668.164062 C 794.574219 567.394531 809.027344 399.496094 766.761719 259.585938 Z M 665.570312 656.53125 C 554.320312 751.484375 387.609375 776.007812 249.332031 736.390625 C 182.238281 717.210938 120.644531 678.855469 80.890625 620.53125 C 32.023438 548.84375 33.59375 461.75 33.59375 378.589844 C 33.59375 378.117188 33.59375 377.804688 33.4375 377.332031 C 34.222656 376.230469 34.851562 374.816406 35.007812 373.085938 C 37.679688 330.640625 41.453125 288.039062 54.023438 247.164062 C 66.433594 206.449219 90.320312 171.234375 121.117188 142.152344 C 179.726562 86.8125 262.21875 58.515625 340.46875 46.097656 C 427.675781 32.261719 521.953125 36.035156 601.933594 76.4375 C 672.011719 111.808594 719.9375 175.636719 745.390625 248.738281 C 792.84375 385.664062 782.003906 557.019531 665.570312 656.53125 Z M 665.570312 656.53125 " fill-opacity="1" fill-rule="nonzero"/><path fill="rgb(100%, 100%, 100%)" d="M 409.449219 451.847656 C 406.933594 456.878906 404.421875 462.066406 401.90625 467.253906 C 395.308594 481.558594 390.59375 496.652344 386.035156 511.742188 C 381.636719 526.363281 375.351562 539.726562 368.4375 553.402344 C 363.09375 563.777344 353.511719 573.210938 352.253906 585.160156 C 352.097656 585.472656 351.9375 585.789062 351.78125 586.101562 C 351.3125 584.84375 350.996094 583.585938 350.523438 582.328125 C 348.953125 571.324219 344.398438 561.890625 339.210938 552.617188 C 337.328125 548.84375 334.96875 545.070312 332.769531 541.296875 C 332.769531 536.582031 329.941406 531.238281 328.527344 527.464844 C 325.542969 519.445312 322.085938 511.742188 318.628906 504.039062 C 311.398438 488.164062 305.585938 472.128906 299.773438 455.621094 C 287.359375 421.035156 274.160156 386.921875 260.804688 352.652344 C 251.21875 327.8125 242.261719 301.871094 230.792969 277.664062 C 230.792969 276.25 230.792969 274.832031 230.792969 273.574219 C 230.792969 269.332031 230.320312 265.871094 232.207031 261.785156 C 235.507812 254.867188 248.390625 252.980469 254.832031 251.566406 C 255.933594 251.410156 256.875 250.9375 257.660156 250.464844 C 261.589844 251.09375 265.519531 251.882812 269.289062 253.140625 C 269.445312 253.140625 269.605469 253.296875 269.761719 253.296875 C 271.332031 253.296875 272.746094 253.296875 274.316406 253.453125 C 281.703125 251.566406 285.003906 240.246094 276.203125 237.417969 C 252.476562 229.402344 226.863281 233.960938 202.351562 235.21875 C 170.925781 236.789062 139.34375 232.074219 107.917969 233.332031 C 96.761719 233.800781 98.960938 250.9375 110.117188 250.464844 C 117.34375 250.152344 124.417969 250.152344 131.644531 250.308594 C 132.117188 250.78125 132.585938 251.09375 133.214844 251.410156 C 136.042969 251.09375 138.558594 250.9375 141.070312 251.882812 C 154.898438 250.308594 166.054688 257.382812 175.796875 266.660156 C 184.910156 288.824219 194.023438 310.992188 202.351562 333.628906 C 212.410156 360.667969 220.109375 388.335938 229.378906 415.53125 C 238.804688 443.042969 249.492188 470.082031 260.960938 496.964844 C 271.175781 520.703125 277.304688 546.484375 288.929688 569.59375 C 290.34375 579.972656 294.117188 590.03125 298.515625 599.9375 C 304.171875 612.511719 306.527344 630.589844 319.257812 638.136719 C 331.667969 645.367188 342.199219 634.363281 348.796875 624.773438 C 355.238281 615.34375 366.238281 606.066406 367.808594 594.277344 C 368.59375 593.175781 369.066406 591.761719 369.066406 590.03125 C 369.378906 579.34375 379.4375 569.910156 384.152344 560.632812 C 391.066406 547.113281 397.351562 533.59375 401.75 518.976562 C 405.992188 504.828125 410.546875 490.679688 416.519531 477 C 416.992188 475.898438 417.460938 474.800781 417.933594 473.855469 C 415.261719 466.3125 412.277344 459.078125 409.449219 451.847656 Z M 546.621094 231.128906 C 513.152344 232.542969 479.371094 229.714844 446.058594 234.273438 C 438.988281 235.21875 437.417969 242.605469 439.933594 247.320312 C 440.558594 247.320312 441.1875 247.320312 441.816406 247.636719 C 446.84375 249.679688 454.386719 249.523438 461.617188 249.996094 C 463.03125 249.835938 464.285156 249.679688 465.542969 249.679688 C 465.699219 249.996094 466.015625 250.308594 466.171875 250.625 C 469.628906 251.253906 472.773438 252.195312 475.285156 253.765625 C 475.601562 253.925781 475.757812 254.082031 475.914062 254.238281 C 477.484375 255.496094 478.898438 257.070312 479.84375 259.113281 C 482.042969 263.515625 481.726562 267.917969 480.3125 272.003906 C 480.3125 272.160156 480.472656 272.476562 480.472656 272.632812 C 474.65625 281.121094 472.144531 291.183594 469.945312 301.085938 C 467.273438 312.71875 464.601562 323.566406 460.042969 334.730469 C 454.074219 349.347656 449.515625 364.597656 444.015625 379.53125 C 443.074219 382.207031 441.972656 384.878906 440.875 387.550781 C 443.859375 395.253906 446.6875 402.800781 449.671875 410.503906 C 452.503906 404.371094 455.171875 398.398438 457.6875 392.109375 C 463.660156 377.488281 468.214844 362.238281 473.714844 347.304688 C 478.113281 335.515625 482.355469 324.511719 485.183594 312.089844 C 487.386719 302.34375 488.800781 290.710938 494.769531 282.535156 C 494.769531 282.378906 494.925781 282.378906 494.925781 282.222656 C 495.398438 281.90625 495.871094 281.4375 496.183594 280.964844 C 506.710938 266.660156 519.910156 254.394531 537.667969 250.464844 C 539.238281 250.152344 540.496094 249.523438 541.59375 248.578125 C 543.953125 248.578125 546.308594 248.421875 548.664062 248.421875 C 559.820312 247.792969 557.621094 230.65625 546.621094 231.128906 Z M 546.621094 231.128906 " fill-opacity="1" fill-rule="nonzero"/><path fill="rgb(100%, 100%, 100%)" d="M 426.261719 349.191406 C 416.675781 324.351562 407.71875 298.414062 396.25 274.203125 C 396.25 272.789062 396.25 271.375 396.25 270.117188 C 396.25 265.871094 395.777344 262.414062 397.664062 258.328125 C 400.964844 251.410156 413.847656 249.523438 420.289062 248.109375 C 421.390625 247.949219 422.332031 247.480469 423.117188 247.007812 C 426.417969 247.480469 429.5625 248.109375 432.859375 249.050781 C 432.390625 243.234375 432.234375 237.261719 432.703125 231.285156 C 411.648438 226.886719 389.335938 230.5 367.964844 231.601562 C 345.96875 232.703125 323.96875 230.65625 301.816406 229.871094 C 302.285156 236.160156 302.914062 242.449219 303.230469 248.738281 C 303.542969 248.738281 303.699219 248.738281 304.015625 248.578125 C 319.097656 245.90625 330.882812 253.136719 341.253906 262.886719 C 350.367188 285.050781 359.480469 307.21875 367.808594 329.855469 C 377.867188 356.894531 385.566406 384.5625 394.835938 411.761719 C 399.390625 425.121094 404.421875 438.484375 409.449219 451.691406 C 414.003906 442.886719 418.5625 434.082031 423.117188 425.28125 C 429.5625 412.859375 435.6875 400.285156 440.875 387.394531 C 436.160156 374.816406 431.132812 361.925781 426.261719 349.191406 Z M 685.996094 224.683594 C 652.527344 226.097656 618.746094 223.269531 585.433594 227.828125 C 574.90625 229.242188 576.320312 244.964844 586.0625 245.121094 C 595.648438 244.019531 608.847656 240.089844 616.386719 247.164062 C 621.886719 252.351562 622.042969 259.113281 619.6875 265.242188 C 619.84375 265.558594 619.84375 266.03125 620.003906 266.34375 C 614.1875 274.832031 611.675781 284.894531 609.472656 294.796875 C 606.804688 306.433594 604.132812 317.277344 599.574219 328.441406 C 593.605469 343.0625 589.046875 358.308594 583.546875 373.246094 C 577.734375 388.964844 570.347656 404.214844 562.648438 419.148438 C 555.421875 432.984375 548.035156 446.660156 541.4375 460.808594 C 534.835938 475.113281 530.125 490.207031 525.566406 505.296875 C 521.167969 519.917969 514.882812 533.28125 507.96875 546.957031 C 507.339844 548.371094 506.554688 549.628906 505.613281 551.046875 C 505.140625 550.257812 504.667969 549.628906 504.039062 549 C 502.3125 545.070312 500.113281 541.457031 498.226562 537.683594 C 498.070312 533.125 495.398438 527.9375 493.984375 524.164062 C 491 516.144531 487.542969 508.441406 484.085938 500.738281 C 476.855469 484.859375 471.042969 468.824219 465.230469 452.320312 C 460.203125 438.328125 455.171875 424.492188 449.832031 410.660156 C 446.058594 418.992188 441.972656 427.167969 437.730469 435.183594 C 431.132812 447.917969 424.0625 460.496094 418.246094 473.542969 C 420.917969 480.144531 423.746094 486.746094 426.574219 493.351562 C 436.003906 515.359375 441.972656 539.253906 452.1875 560.949219 C 455.332031 571.796875 459.414062 582.488281 463.5 593.019531 C 463.660156 593.648438 463.816406 594.277344 464.128906 594.75 C 467.902344 605.753906 474.1875 627.917969 490.054688 623.203125 C 495.242188 621.632812 498.226562 617.386719 500.742188 612.984375 C 502.625 609.683594 503.410156 605.910156 504.984375 602.453125 C 506.710938 598.523438 509.226562 595.0625 511.425781 591.605469 C 521.011719 576.984375 526.511719 560.320312 529.808594 543.34375 C 529.96875 542.714844 529.96875 542.242188 529.96875 541.769531 C 534.523438 532.179688 538.453125 522.433594 541.59375 512.214844 C 545.835938 498.066406 550.394531 483.917969 556.363281 470.242188 C 562.492188 455.933594 570.191406 442.257812 577.261719 428.582031 C 584.648438 414.589844 591.40625 400.285156 597.375 385.664062 C 603.347656 371.042969 607.902344 355.792969 613.402344 340.859375 C 617.800781 329.070312 622.042969 318.066406 624.871094 305.644531 C 627.074219 295.898438 628.488281 284.265625 634.457031 276.089844 C 634.457031 275.933594 634.613281 275.933594 634.613281 275.777344 C 635.085938 275.460938 635.558594 274.992188 635.871094 274.519531 C 646.398438 260.214844 659.597656 247.949219 677.355469 244.019531 C 678.925781 243.707031 680.183594 243.078125 681.28125 242.132812 C 683.640625 242.132812 685.996094 241.976562 688.351562 241.976562 C 699.195312 241.347656 696.996094 224.210938 685.996094 224.683594 Z M 685.996094 224.683594 " fill-opacity="1" fill-rule="nonzero"/><path fill="rgb(100%, 100%, 100%)" d="M 441.03125 387.550781 C 435.847656 400.441406 429.71875 413.019531 423.277344 425.4375 C 418.71875 434.242188 414.003906 443.042969 409.605469 451.847656 C 412.433594 459.078125 415.261719 466.3125 418.246094 473.542969 C 424.0625 460.492188 431.132812 447.761719 437.730469 435.183594 C 441.972656 427.007812 446.058594 418.835938 449.832031 410.660156 C 446.84375 402.800781 444.015625 395.253906 441.03125 387.550781 Z M 441.03125 387.550781 " fill-opacity="1" fill-rule="nonzero"/></svg>