<?xml version="1.0" encoding="utf-8"?>
<!-- Generator: Adobe Illustrator 21.0.0, SVG Export Plug-In . SVG Version: 6.00 Build 0)  -->
<svg version="1.1" id="Слой_1" xmlns="http://www.w3.org/2000/svg" xmlns:xlink="http://www.w3.org/1999/xlink" x="0px" y="0px"
	 viewBox="0 0 37.8 38" style="enable-background:new 0 0 37.8 38;" xml:space="preserve">
<style type="text/css">
	.st0{fill-rule:evenodd;clip-rule:evenodd;}
</style>
<g>
	<path class="st0" d="M2.4,26.3l3.1-1.8c-3.8-8.9,2-19.2,11.8-20.3V0.8C4.7,1.9-2.7,15.1,2.4,26.3L2.4,26.3z M35.5,26.3l-3.1-1.8
		c3.3-7.7-0.5-16.6-8.5-19.5c-0.4-0.2-0.9-0.3-1.3-0.4c-0.7-0.2-1.4-0.3-2.1-0.4V0.8C33.1,1.9,40.5,15.1,35.5,26.3L35.5,26.3z
		 M33.7,29.3l-3.1-1.8c-2.5,3.3-6.3,5.6-10.7,5.9V37C25.6,36.6,30.6,33.7,33.7,29.3L33.7,29.3z M17.9,33.4
		c-4.4-0.3-8.3-2.6-10.7-5.9l-3.1,1.8c3.1,4.4,8.1,7.3,13.8,7.7V33.4L17.9,33.4z"/>
	<path class="st0" d="M26.2,10c2.6,2.1,4.2,5.3,4.2,8.9c0,3.3-1.4,6.2-3.6,8.3c0.2-0.7,0.3-1.4,0.3-2.2c0-3.8-2.2-6.4-6.4-7.7
		L19.9,17V7.5c0.9,0.2,1.7,0.7,2.4,1.4c0.9,0.9,1.3,2,1.3,3.3h2.9C26.5,11.4,26.4,10.7,26.2,10L26.2,10z M19.9,30.3V19.7
		c2.9,1.1,4.4,2.8,4.5,5.1c0,1.5-0.5,2.8-1.6,3.9C22,29.6,21,30.1,19.9,30.3L19.9,30.3z M11.1,27.3c-2.2-2.1-3.6-5.1-3.6-8.4
		c0-3.7,1.7-7,4.4-9.1c-0.2,0.7-0.3,1.4-0.3,2.2c0,3.3,1.8,5.7,4.9,6.7l1.4,0.4v11.1c-1-0.2-2-0.7-2.8-1.6c-1-1.1-1.6-2.4-1.5-3.9
		h-2.9C10.7,25.7,10.8,26.5,11.1,27.3L11.1,27.3z M17.9,7.5v8.9l-0.5-0.2c-2.1-0.6-3.1-2-3.2-4.2c0-1.3,0.4-2.4,1.4-3.4
		C16.3,8.1,17.1,7.7,17.9,7.5L17.9,7.5z"/>
</g>
</svg>
