<svg xmlns="http://www.w3.org/2000/svg" xmlns:xlink="http://www.w3.org/1999/xlink" width="144" zoomAndPan="magnify" viewBox="0 0 108 107.999999" height="144" preserveAspectRatio="xMidYMid meet" version="1.0"><defs><clipPath id="id1"><path d="M 1.992188 1.433594 L 106.992188 1.433594 L 106.992188 106.433594 L 1.992188 106.433594 Z M 1.992188 1.433594 " clip-rule="nonzero"/></clipPath></defs><g clip-path="url(#id1)"><path fill="rgb(100%, 100%, 100%)" d="M 54.492188 106.433594 C 25.542969 106.433594 1.992188 82.882812 1.992188 53.933594 C 1.992188 24.984375 25.542969 1.433594 54.492188 1.433594 C 83.441406 1.433594 106.992188 24.984375 106.992188 53.933594 C 106.992188 82.882812 83.441406 106.433594 54.492188 106.433594 Z M 54.492188 4.648438 C 27.316406 4.648438 5.207031 26.757812 5.207031 53.933594 C 5.207031 81.109375 27.316406 103.21875 54.492188 103.21875 C 81.667969 103.21875 103.777344 81.109375 103.777344 53.933594 C 103.777344 26.757812 81.667969 4.648438 54.492188 4.648438 Z M 61.027344 44.210938 L 61.027344 36.335938 L 79.046875 36.335938 L 79.046875 24.328125 L 29.988281 24.328125 L 29.988281 36.335938 L 48.003906 36.335938 L 48.003906 44.207031 C 33.363281 44.878906 22.351562 47.78125 22.351562 51.257812 C 22.351562 54.730469 33.363281 57.628906 48.007812 58.304688 L 48.007812 83.539062 L 61.027344 83.539062 L 61.027344 58.296875 C 94.972656 56.632812 94.949219 45.878906 61.027344 44.210938 Z M 61.027344 56.160156 C 52.253906 56.902344 25.320312 55.4375 25.40625 50.644531 C 25.40625 47.953125 35.066406 45.699219 48.003906 45.121094 L 48.003906 53.917969 C 48.671875 54.152344 60.855469 54.144531 61.027344 53.921875 C 61.027344 53.921875 61.027344 45.125 61.027344 45.125 C 90.933594 46.539062 90.9375 54.753906 61.027344 56.160156 Z M 61.027344 56.160156 " fill-opacity="1" fill-rule="nonzero"/></g></svg>