<svg xmlns="http://www.w3.org/2000/svg" xmlns:xlink="http://www.w3.org/1999/xlink" width="144" zoomAndPan="magnify" viewBox="0 0 108 107.999999" height="144" preserveAspectRatio="xMidYMid meet" version="1.0"><defs><clipPath id="id1"><path d="M 1.816406 1.816406 L 106.066406 1.816406 L 106.066406 106.066406 L 1.816406 106.066406 Z M 1.816406 1.816406 " clip-rule="nonzero"/></clipPath></defs><path fill="rgb(100%, 92.158508%, 23.139954%)" d="M 104.328125 53.941406 C 104.328125 55.589844 104.246094 57.238281 104.085938 58.878906 C 103.925781 60.523438 103.683594 62.152344 103.359375 63.769531 C 103.039062 65.390625 102.636719 66.988281 102.160156 68.566406 C 101.679688 70.148438 101.125 71.699219 100.492188 73.222656 C 99.863281 74.746094 99.15625 76.238281 98.378906 77.695312 C 97.601562 79.148438 96.753906 80.5625 95.835938 81.933594 C 94.917969 83.308594 93.9375 84.628906 92.890625 85.90625 C 91.84375 87.183594 90.738281 88.402344 89.570312 89.570312 C 88.402344 90.738281 87.183594 91.84375 85.90625 92.890625 C 84.628906 93.9375 83.308594 94.917969 81.933594 95.835938 C 80.5625 96.753906 79.148438 97.601562 77.695312 98.378906 C 76.238281 99.15625 74.746094 99.863281 73.222656 100.492188 C 71.699219 101.125 70.148438 101.679688 68.566406 102.160156 C 66.988281 102.636719 65.390625 103.039062 63.769531 103.359375 C 62.152344 103.683594 60.523438 103.925781 58.878906 104.085938 C 57.238281 104.246094 55.589844 104.328125 53.941406 104.328125 C 52.289062 104.328125 50.644531 104.246094 49.003906 104.085938 C 47.359375 103.925781 45.730469 103.683594 44.109375 103.359375 C 42.492188 103.039062 40.894531 102.636719 39.3125 102.160156 C 37.734375 101.679688 36.183594 101.125 34.660156 100.492188 C 33.132812 99.863281 31.644531 99.15625 30.1875 98.378906 C 28.734375 97.601562 27.320312 96.753906 25.945312 95.835938 C 24.574219 94.917969 23.25 93.9375 21.976562 92.890625 C 20.699219 91.84375 19.476562 90.738281 18.3125 89.570312 C 17.144531 88.402344 16.039062 87.183594 14.992188 85.90625 C 13.945312 84.628906 12.960938 83.308594 12.046875 81.933594 C 11.128906 80.5625 10.28125 79.148438 9.503906 77.695312 C 8.726562 76.238281 8.019531 74.746094 7.390625 73.222656 C 6.757812 71.699219 6.203125 70.148438 5.722656 68.566406 C 5.242188 66.988281 4.84375 65.390625 4.523438 63.769531 C 4.199219 62.152344 3.957031 60.523438 3.796875 58.878906 C 3.632812 57.238281 3.554688 55.589844 3.554688 53.941406 C 3.554688 52.289062 3.632812 50.644531 3.796875 49.003906 C 3.957031 47.359375 4.199219 45.730469 4.523438 44.109375 C 4.84375 42.492188 5.242188 40.894531 5.722656 39.3125 C 6.203125 37.734375 6.757812 36.183594 7.390625 34.660156 C 8.019531 33.132812 8.726562 31.644531 9.503906 30.1875 C 10.28125 28.734375 11.128906 27.320312 12.046875 25.945312 C 12.960938 24.574219 13.945312 23.25 14.992188 21.976562 C 16.039062 20.699219 17.144531 19.476562 18.3125 18.3125 C 19.476562 17.144531 20.699219 16.039062 21.976562 14.992188 C 23.25 13.945312 24.574219 12.960938 25.945312 12.046875 C 27.320312 11.128906 28.734375 10.28125 30.1875 9.503906 C 31.644531 8.726562 33.132812 8.019531 34.660156 7.390625 C 36.183594 6.757812 37.734375 6.203125 39.3125 5.722656 C 40.894531 5.242188 42.492188 4.84375 44.109375 4.523438 C 45.730469 4.199219 47.359375 3.957031 49.003906 3.796875 C 50.644531 3.632812 52.289062 3.554688 53.941406 3.554688 C 55.589844 3.554688 57.238281 3.632812 58.878906 3.796875 C 60.523438 3.957031 62.152344 4.199219 63.769531 4.523438 C 65.390625 4.84375 66.988281 5.242188 68.566406 5.722656 C 70.148438 6.203125 71.699219 6.757812 73.222656 7.390625 C 74.746094 8.019531 76.238281 8.726562 77.695312 9.503906 C 79.148438 10.28125 80.5625 11.128906 81.933594 12.046875 C 83.308594 12.960938 84.628906 13.945312 85.90625 14.992188 C 87.183594 16.039062 88.402344 17.144531 89.570312 18.3125 C 90.738281 19.476562 91.84375 20.699219 92.890625 21.976562 C 93.9375 23.25 94.917969 24.574219 95.835938 25.945312 C 96.753906 27.320312 97.601562 28.734375 98.378906 30.1875 C 99.15625 31.644531 99.863281 33.132812 100.492188 34.660156 C 101.125 36.183594 101.679688 37.734375 102.160156 39.3125 C 102.636719 40.894531 103.039062 42.492188 103.359375 44.109375 C 103.683594 45.730469 103.925781 47.359375 104.085938 49.003906 C 104.246094 50.644531 104.328125 52.289062 104.328125 53.941406 Z M 104.328125 53.941406 " fill-opacity="1" fill-rule="nonzero"/><path fill="rgb(99.21875%, 84.709167%, 20.779419%)" d="M 97.378906 53.941406 C 97.378906 55.363281 97.308594 56.78125 97.167969 58.199219 C 97.03125 59.613281 96.820312 61.019531 96.542969 62.414062 C 96.265625 63.808594 95.921875 65.1875 95.507812 66.550781 C 95.09375 67.910156 94.617188 69.25 94.070312 70.5625 C 93.527344 71.878906 92.921875 73.164062 92.25 74.417969 C 91.578125 75.671875 90.847656 76.890625 90.058594 78.074219 C 89.265625 79.257812 88.421875 80.398438 87.519531 81.496094 C 86.617188 82.597656 85.660156 83.648438 84.65625 84.65625 C 83.648438 85.660156 82.597656 86.617188 81.496094 87.519531 C 80.398438 88.421875 79.257812 89.265625 78.074219 90.058594 C 76.890625 90.847656 75.671875 91.578125 74.417969 92.25 C 73.164062 92.921875 71.878906 93.527344 70.5625 94.070312 C 69.25 94.617188 67.910156 95.09375 66.550781 95.507812 C 65.1875 95.921875 63.808594 96.265625 62.414062 96.542969 C 61.019531 96.820312 59.613281 97.03125 58.199219 97.167969 C 56.78125 97.308594 55.363281 97.378906 53.941406 97.378906 C 52.519531 97.378906 51.097656 97.308594 49.683594 97.167969 C 48.265625 97.03125 46.863281 96.820312 45.464844 96.542969 C 44.070312 96.265625 42.691406 95.921875 41.332031 95.507812 C 39.96875 95.09375 38.632812 94.617188 37.316406 94.070312 C 36.003906 93.527344 34.71875 92.921875 33.464844 92.25 C 32.210938 91.578125 30.992188 90.847656 29.808594 90.058594 C 28.625 89.265625 27.484375 88.421875 26.382812 87.519531 C 25.285156 86.617188 24.230469 85.660156 23.226562 84.65625 C 22.21875 83.648438 21.265625 82.597656 20.363281 81.496094 C 19.460938 80.398438 18.613281 79.257812 17.824219 78.074219 C 17.035156 76.890625 16.304688 75.671875 15.632812 74.417969 C 14.960938 73.164062 14.355469 71.878906 13.808594 70.5625 C 13.265625 69.25 12.785156 67.910156 12.375 66.550781 C 11.960938 65.1875 11.617188 63.808594 11.339844 62.414062 C 11.058594 61.019531 10.851562 59.613281 10.710938 58.199219 C 10.574219 56.78125 10.503906 55.363281 10.503906 53.941406 C 10.503906 52.519531 10.574219 51.097656 10.710938 49.683594 C 10.851562 48.265625 11.058594 46.863281 11.339844 45.464844 C 11.617188 44.070312 11.960938 42.691406 12.375 41.332031 C 12.785156 39.96875 13.265625 38.632812 13.808594 37.316406 C 14.355469 36.003906 14.960938 34.71875 15.632812 33.464844 C 16.304688 32.210938 17.035156 30.992188 17.824219 29.808594 C 18.613281 28.625 19.460938 27.484375 20.363281 26.382812 C 21.265625 25.285156 22.21875 24.230469 23.226562 23.226562 C 24.230469 22.21875 25.285156 21.265625 26.382812 20.363281 C 27.484375 19.460938 28.625 18.613281 29.808594 17.824219 C 30.992188 17.035156 32.210938 16.304688 33.464844 15.632812 C 34.71875 14.960938 36.003906 14.355469 37.316406 13.808594 C 38.632812 13.265625 39.96875 12.785156 41.332031 12.375 C 42.691406 11.960938 44.070312 11.617188 45.464844 11.339844 C 46.863281 11.058594 48.265625 10.851562 49.683594 10.710938 C 51.097656 10.574219 52.519531 10.503906 53.941406 10.503906 C 55.363281 10.503906 56.78125 10.574219 58.199219 10.710938 C 59.613281 10.851562 61.019531 11.058594 62.414062 11.339844 C 63.808594 11.617188 65.1875 11.960938 66.550781 12.375 C 67.910156 12.785156 69.25 13.265625 70.5625 13.808594 C 71.878906 14.355469 73.164062 14.960938 74.417969 15.632812 C 75.671875 16.304688 76.890625 17.035156 78.074219 17.824219 C 79.257812 18.613281 80.398438 19.460938 81.496094 20.363281 C 82.597656 21.265625 83.648438 22.21875 84.65625 23.226562 C 85.660156 24.230469 86.617188 25.285156 87.519531 26.382812 C 88.421875 27.484375 89.265625 28.625 90.058594 29.808594 C 90.847656 30.992188 91.578125 32.210938 92.25 33.464844 C 92.921875 34.71875 93.527344 36.003906 94.070312 37.316406 C 94.617188 38.632812 95.09375 39.96875 95.507812 41.332031 C 95.921875 42.691406 96.265625 44.070312 96.542969 45.464844 C 96.820312 46.863281 97.03125 48.265625 97.167969 49.683594 C 97.308594 51.097656 97.378906 52.519531 97.378906 53.941406 Z M 97.378906 53.941406 " fill-opacity="1" fill-rule="nonzero"/><path fill="rgb(100%, 96.078491%, 61.569214%)" d="M 80.242188 31.351562 L 66.210938 45.382812 C 62.933594 48.664062 58.589844 50.464844 53.941406 50.464844 C 49.292969 50.464844 44.949219 48.664062 41.648438 45.382812 L 27.640625 31.351562 L 37.476562 31.351562 L 46.578125 40.453125 C 48.53125 42.429688 51.160156 43.515625 53.941406 43.515625 C 56.722656 43.515625 59.347656 42.429688 61.304688 40.453125 L 70.402344 31.351562 Z M 80.242188 31.351562 " fill-opacity="1" fill-rule="nonzero"/><path fill="rgb(100%, 96.078491%, 61.569214%)" d="M 80.242188 76.527344 L 70.402344 76.527344 L 61.304688 67.429688 C 59.347656 65.453125 56.722656 64.367188 53.941406 64.367188 C 51.160156 64.367188 48.53125 65.453125 46.578125 67.429688 L 37.476562 76.527344 L 27.640625 76.527344 L 41.667969 62.5 C 44.949219 59.21875 49.316406 57.414062 53.960938 57.414062 C 58.609375 57.414062 62.953125 59.21875 66.253906 62.5 Z M 80.242188 76.527344 " fill-opacity="1" fill-rule="nonzero"/><g clip-path="url(#id1)"><path fill="rgb(100%, 100%, 100%)" d="M 53.941406 1.816406 C 25.207031 1.816406 1.816406 25.207031 1.816406 53.941406 C 1.816406 82.675781 25.207031 106.066406 53.941406 106.066406 C 82.675781 106.066406 106.066406 82.675781 106.066406 53.941406 C 106.066406 25.207031 82.675781 1.816406 53.941406 1.816406 Z M 53.941406 95.640625 C 30.941406 95.640625 12.242188 76.941406 12.242188 53.941406 C 12.242188 30.941406 30.941406 12.242188 53.941406 12.242188 C 76.941406 12.242188 95.640625 30.941406 95.640625 53.941406 C 95.640625 76.941406 76.941406 95.640625 53.941406 95.640625 Z M 93.882812 32.875 L 96.902344 31.136719 C 98.335938 33.851562 99.527344 36.695312 100.460938 39.671875 L 97.097656 40.5625 C 96.269531 37.890625 95.183594 35.328125 93.882812 32.875 Z M 92.144531 29.875 C 90.644531 27.507812 88.953125 25.316406 87.0625 23.273438 L 89.515625 20.820312 C 91.621094 23.078125 93.511719 25.53125 95.140625 28.140625 Z M 84.609375 20.820312 C 82.566406 18.929688 80.351562 17.234375 78.003906 15.738281 L 79.742188 12.71875 C 82.371094 14.371094 84.804688 16.257812 87.0625 18.34375 Z M 75.007812 14 C 72.574219 12.695312 69.992188 11.632812 67.320312 10.785156 L 68.210938 7.417969 C 71.1875 8.332031 74.03125 9.527344 76.746094 10.980469 Z M 63.953125 9.894531 C 61.28125 9.289062 58.523438 8.917969 55.679688 8.808594 L 55.679688 5.335938 C 58.828125 5.441406 61.890625 5.855469 64.84375 6.527344 Z M 52.203125 8.808594 C 49.378906 8.917969 46.621094 9.289062 43.929688 9.894531 L 43.039062 6.527344 C 45.992188 5.855469 49.054688 5.441406 52.203125 5.335938 Z M 40.582031 10.785156 C 37.914062 11.609375 35.328125 12.695312 32.894531 14 L 31.15625 10.980469 C 33.871094 9.546875 36.71875 8.351562 39.695312 7.417969 Z M 29.875 15.738281 C 27.507812 17.234375 25.316406 18.929688 23.273438 20.820312 L 20.820312 18.367188 C 23.078125 16.257812 25.53125 14.371094 28.140625 12.742188 Z M 20.820312 23.273438 C 18.929688 25.316406 17.234375 27.53125 15.738281 29.875 L 12.71875 28.140625 C 14.371094 25.511719 16.257812 23.078125 18.34375 20.820312 Z M 14 32.875 C 12.695312 35.304688 11.632812 37.890625 10.785156 40.5625 L 7.417969 39.671875 C 8.332031 36.695312 9.527344 33.851562 10.980469 31.136719 Z M 9.894531 43.929688 C 9.289062 46.601562 8.917969 49.359375 8.808594 52.203125 L 5.335938 52.203125 C 5.441406 49.054688 5.855469 45.992188 6.527344 43.039062 Z M 8.808594 55.679688 C 8.917969 58.5 9.289062 61.261719 9.894531 63.953125 L 6.527344 64.84375 C 5.855469 61.890625 5.441406 58.828125 5.335938 55.679688 Z M 10.785156 67.296875 C 11.609375 69.96875 12.695312 72.554688 14 74.988281 L 10.980469 76.722656 C 9.546875 74.007812 8.351562 71.164062 7.417969 68.1875 Z M 15.738281 78.003906 C 17.234375 80.371094 18.929688 82.566406 20.820312 84.609375 L 18.367188 87.0625 C 16.257812 84.804688 14.371094 82.347656 12.742188 79.742188 Z M 23.273438 87.0625 C 25.316406 88.953125 27.53125 90.644531 29.875 92.144531 L 28.140625 95.164062 C 25.511719 93.511719 23.078125 91.621094 20.820312 89.539062 Z M 32.875 93.882812 C 35.304688 95.183594 37.890625 96.25 40.5625 97.097656 L 39.671875 100.460938 C 36.695312 99.550781 33.851562 98.355469 31.136719 96.902344 Z M 43.929688 97.988281 C 46.601562 98.59375 49.359375 98.964844 52.203125 99.074219 L 52.203125 102.546875 C 49.054688 102.4375 45.992188 102.027344 43.039062 101.351562 Z M 55.679688 99.074219 C 58.5 98.964844 61.261719 98.59375 63.953125 97.988281 L 64.84375 101.351562 C 61.890625 102.027344 58.828125 102.4375 55.679688 102.546875 Z M 67.296875 97.097656 C 69.96875 96.269531 72.554688 95.183594 74.988281 93.882812 L 76.722656 96.902344 C 74.007812 98.335938 71.164062 99.527344 68.1875 100.460938 Z M 78.003906 92.144531 C 80.371094 90.644531 82.566406 88.953125 84.609375 87.0625 L 87.0625 89.515625 C 84.804688 91.621094 82.347656 93.511719 79.742188 95.140625 Z M 87.0625 84.609375 C 88.953125 82.566406 90.644531 80.351562 92.144531 78.003906 L 95.164062 79.742188 C 93.511719 82.371094 91.621094 84.804688 89.539062 87.0625 Z M 93.882812 75.007812 C 95.183594 72.574219 96.25 69.992188 97.097656 67.320312 L 100.460938 68.210938 C 99.550781 71.1875 98.355469 74.03125 96.902344 76.746094 Z M 97.988281 63.953125 C 98.59375 61.28125 98.964844 58.523438 99.074219 55.679688 L 102.546875 55.679688 C 102.4375 58.828125 102.027344 61.890625 101.351562 64.84375 Z M 99.074219 52.203125 C 98.964844 49.378906 98.59375 46.621094 97.988281 43.929688 L 101.351562 43.039062 C 102.027344 45.992188 102.4375 49.054688 102.546875 52.203125 Z M 99.074219 52.203125 " fill-opacity="1" fill-rule="nonzero"/></g><path fill="rgb(100%, 100%, 100%)" d="M 80.242188 29.617188 L 70.402344 29.617188 C 69.949219 29.617188 69.492188 29.789062 69.164062 30.117188 L 60.066406 39.214844 C 58.4375 40.867188 56.265625 41.757812 53.941406 41.757812 C 51.617188 41.757812 49.421875 40.84375 47.792969 39.214844 L 38.695312 30.117188 C 38.367188 29.789062 37.933594 29.617188 37.457031 29.617188 L 27.617188 29.617188 C 26.921875 29.617188 26.269531 30.027344 26.011719 30.679688 C 25.75 31.332031 25.878906 32.070312 26.378906 32.570312 L 40.410156 46.601562 C 44.015625 50.207031 48.816406 52.203125 53.917969 52.203125 C 59.023438 52.203125 63.824219 50.207031 67.429688 46.601562 L 81.457031 32.570312 C 81.957031 32.070312 82.109375 31.332031 81.828125 30.679688 C 81.589844 30.027344 80.960938 29.617188 80.242188 29.617188 Z M 64.996094 44.144531 C 62.042969 47.097656 58.109375 48.726562 53.941406 48.726562 C 49.769531 48.726562 45.839844 47.097656 42.886719 44.144531 L 31.832031 33.089844 L 36.761719 33.089844 L 45.363281 41.691406 C 47.621094 43.992188 50.683594 45.253906 53.941406 45.253906 C 57.199219 45.253906 60.261719 43.992188 62.542969 41.691406 L 71.140625 33.089844 L 76.074219 33.089844 Z M 64.996094 44.144531 " fill-opacity="1" fill-rule="nonzero"/><path fill="rgb(100%, 100%, 100%)" d="M 67.449219 61.28125 C 63.84375 57.675781 59.042969 55.679688 53.941406 55.679688 C 48.835938 55.679688 44.039062 57.675781 40.433594 61.28125 L 26.402344 75.3125 C 25.902344 75.8125 25.75 76.550781 26.03125 77.203125 C 26.292969 77.851562 26.945312 78.265625 27.640625 78.265625 L 37.476562 78.265625 C 37.933594 78.265625 38.390625 78.09375 38.714844 77.765625 L 47.816406 68.667969 C 49.445312 67.015625 51.617188 66.125 53.941406 66.125 C 56.265625 66.125 58.457031 67.039062 60.085938 68.667969 L 69.1875 77.765625 C 69.511719 78.09375 69.949219 78.265625 70.425781 78.265625 L 80.265625 78.265625 C 80.960938 78.265625 81.609375 77.851562 81.871094 77.203125 C 82.132812 76.550781 82 75.8125 81.503906 75.3125 Z M 71.140625 74.789062 L 62.542969 66.191406 C 60.261719 63.886719 57.199219 62.628906 53.941406 62.628906 C 50.683594 62.628906 47.621094 63.886719 45.339844 66.191406 L 36.738281 74.789062 L 31.808594 74.789062 L 42.863281 63.734375 C 45.816406 60.78125 49.75 59.152344 53.917969 59.152344 C 58.089844 59.152344 62.019531 60.78125 64.972656 63.734375 L 76.027344 74.789062 Z M 71.140625 74.789062 " fill-opacity="1" fill-rule="nonzero"/></svg>