<svg xmlns="http://www.w3.org/2000/svg" xmlns:xlink="http://www.w3.org/1999/xlink" width="144" zoomAndPan="magnify" viewBox="0 0 108 107.999999" height="144" preserveAspectRatio="xMidYMid meet" version="1.0"><defs><clipPath id="id1"><path d="M 17.527344 2.097656 L 93 2.097656 L 93 105 L 17.527344 105 Z M 17.527344 2.097656 " clip-rule="nonzero"/></clipPath></defs><g clip-path="url(#id1)"><path fill="rgb(100%, 100%, 100%)" d="M 91.472656 67.644531 C 88.667969 56.988281 79.609375 51.320312 69.566406 50.324219 L 91.109375 27.925781 C 89.53125 24.554688 86.972656 22.4375 83.410156 22.570312 C 79.320312 22.550781 75.132812 22.585938 71.09375 22.621094 C 63.515625 22.703125 53.882812 22.734375 47.058594 22.417969 C 46.8125 17.6875 46.988281 13.035156 46.976562 8.265625 C 47.097656 4.632812 43.269531 2.148438 39.820312 2.171875 C 37.511719 2.21875 35.148438 2.277344 32.84375 2.097656 C 31.414062 2.097656 30.410156 2.722656 29.859375 3.953125 C 28.675781 6.605469 30.699219 8.347656 31.910156 9.386719 C 32.988281 10.234375 33.5 11.199219 33.429688 12.710938 C 33.230469 16.027344 33.613281 19.316406 33.246094 22.558594 C 28.328125 22.75 22.28125 22.371094 17.535156 22.855469 L 17.535156 30.757812 L 33.398438 30.757812 C 33.394531 41.386719 33.425781 51.628906 33.386719 62.375 C 33.375 66.023438 34.679688 69.164062 37.265625 71.703125 C 44.636719 79.59375 64.554688 78.839844 66.828125 66.097656 C 67.007812 63.566406 64.597656 60.980469 62.117188 62.386719 C 59.027344 66.210938 53.355469 71.527344 49.101562 67.199219 C 47.6875 65.710938 46.84375 63.449219 46.949219 61.445312 C 47.132812 51.085938 46.652344 41.105469 47.132812 30.710938 C 55.742188 30.898438 65.453125 30.199219 73.835938 30.871094 C 67.527344 39.964844 60.988281 48.289062 54.550781 57.226562 C 53.277344 58.769531 52.835938 60.21875 54.085938 62.453125 C 66.992188 58.199219 76.265625 53.957031 78.886719 75.089844 C 80.394531 84.835938 74.691406 96.1875 64.1875 96.109375 C 61.472656 96.152344 58.429688 95.363281 56.890625 93.664062 C 57.761719 92.148438 58.769531 90.671875 59.273438 89.046875 C 61.28125 84.257812 56.742188 78.117188 51.675781 78.261719 C 41.683594 78.363281 42.113281 93.078125 47.632812 98.246094 C 51.867188 102.777344 58.792969 104.480469 65.308594 104.480469 C 85.59375 105.597656 97.027344 86.761719 91.472656 67.644531 Z M 91.472656 67.644531 " fill-opacity="1" fill-rule="nonzero"/></g></svg>