<svg xmlns="http://www.w3.org/2000/svg" xmlns:xlink="http://www.w3.org/1999/xlink" width="1080" zoomAndPan="magnify" viewBox="0 0 810 809.999993" height="1080" preserveAspectRatio="xMidYMid meet" version="1.0"><path fill="rgb(100%, 100%, 100%)" d="M 376.414062 8.074219 C 146.488281 26.21875 -19.515625 228.4375 8.648438 456.078125 C 35.625 674.136719 235.625 829.703125 454.070312 802.539062 C 692.632812 772.878906 850.78125 540.914062 791.613281 307.449219 C 744.449219 121.355469 566.53125 -6.929688 376.414062 8.074219 M 445.636719 40.292969 C 668.871094 66.546875 817.382812 281.890625 761.53125 498.328125 C 703.230469 724.246094 449.910156 840.191406 241.515625 736.34375 C 56.652344 644.21875 -16.753906 420.773438 77.609375 237.414062 C 136.34375 123.289062 249.421875 49.082031 380.40625 38.707031 C 390.699219 37.890625 434.226562 38.949219 445.636719 40.292969 M 376.925781 72.832031 C 343.496094 75.980469 297.746094 87.308594 269.09375 99.542969 C 264.054688 101.691406 253.648438 94.082031 358.664062 165.066406 C 447.160156 224.886719 461.472656 234.574219 486.460938 251.539062 C 528.363281 279.984375 539.710938 287.476562 539.710938 286.699219 C 539.710938 286.21875 537.492188 273.917969 534.78125 259.371094 C 526.089844 212.757812 520.40625 182.179688 514.847656 152.167969 C 511.863281 136.0625 507.9375 114.902344 506.121094 105.140625 L 502.820312 87.394531 L 493.089844 84.152344 C 462.875 74.089844 414.085938 69.332031 376.925781 72.832031 M 523.289062 95.15625 C 523.734375 97.039062 532.175781 141.644531 539.703125 181.894531 C 544.652344 208.347656 549.863281 235.933594 554.878906 262.195312 C 557.300781 274.882812 559.460938 286.265625 559.675781 287.484375 C 560.039062 289.550781 562.152344 300.730469 574.714844 367.121094 C 577.367188 381.152344 580.636719 398.523438 581.976562 405.722656 C 583.316406 412.917969 584.640625 418.789062 584.914062 418.765625 C 585.191406 418.742188 609.578125 383.753906 639.109375 341.011719 C 668.640625 298.273438 694.558594 260.777344 696.703125 257.691406 L 700.605469 252.074219 L 696.90625 244.363281 C 669.519531 187.296875 609.160156 132.457031 536.753906 98.855469 C 522.996094 92.472656 522.628906 92.371094 523.289062 95.15625 M 232.855469 115.386719 C 187.042969 138.984375 140.570312 185.695312 109.296875 239.570312 C 99.070312 257.195312 85.453125 285.25 86.582031 286.382812 C 86.976562 286.773438 101.894531 284.101562 144.78125 275.941406 C 154.785156 274.039062 176.953125 269.84375 194.035156 266.621094 C 265.113281 253.210938 277.734375 250.824219 301.863281 246.242188 C 336.523438 239.660156 370.828125 233.214844 391.5 229.402344 C 401.019531 227.644531 409.527344 225.914062 410.40625 225.558594 C 412.140625 224.851562 247.410156 110.019531 244.664062 110.019531 C 243.898438 110.019531 238.585938 112.433594 232.855469 115.386719 M 701.914062 282.382812 C 689.207031 301.351562 654.542969 352.605469 630.652344 387.753906 C 578.960938 463.785156 527.269531 540.652344 527.597656 540.980469 C 527.976562 541.359375 547.921875 537.753906 607.160156 526.605469 C 618.632812 524.445312 638 520.84375 650.203125 518.601562 C 734.941406 503.03125 726.285156 504.867188 727.570312 502.179688 C 742.917969 470.144531 746.90625 396.222656 736.1875 342.5 C 731.214844 317.589844 715.585938 267.074219 712.847656 267.074219 C 712.472656 267.074219 707.550781 273.964844 701.914062 282.382812 M 259.265625 273.832031 C 250.722656 275.492188 229.554688 279.472656 212.230469 282.675781 C 194.902344 285.882812 169.941406 290.507812 156.761719 292.957031 C 143.582031 295.40625 121.359375 299.519531 107.378906 302.097656 C 77.054688 307.6875 80.8125 305.652344 76.558594 318.792969 C 61.78125 364.449219 60.90625 428.535156 74.304688 483.40625 C 79.394531 504.242188 91.539062 541.625 94.03125 544.113281 C 94.4375 544.519531 98.992188 538.554688 104.148438 530.855469 C 109.308594 523.15625 118.691406 509.269531 124.996094 500 C 131.304688 490.726562 154.175781 456.984375 175.824219 425.019531 C 211.410156 372.46875 224.992188 352.421875 267.359375 289.925781 L 280.445312 270.625 L 277.621094 270.71875 C 276.066406 270.769531 267.808594 272.171875 259.265625 273.832031 M 188.976562 440.371094 C 171.0625 466.335938 145.75 502.949219 132.730469 521.738281 C 119.707031 540.527344 108.480469 556.761719 107.785156 557.816406 C 106.621094 559.574219 106.984375 560.636719 112.339844 571.066406 C 139.226562 623.414062 192.839844 673.703125 255.554688 705.386719 C 269.476562 712.417969 283.417969 718.828125 283.855469 718.394531 C 284.050781 718.199219 283.199219 712.703125 281.964844 706.179688 C 280.726562 699.660156 277.488281 682.542969 274.761719 668.144531 C 272.039062 653.75 267.652344 630.589844 265.019531 616.679688 C 262.378906 602.773438 257.589844 577.417969 254.371094 560.335938 C 251.152344 543.257812 246.554688 518.898438 244.148438 506.210938 C 239.710938 482.800781 232.421875 444.203125 226.8125 414.371094 C 222.691406 392.476562 222.820312 393.070312 222.140625 393.121094 C 221.816406 393.144531 206.890625 414.40625 188.976562 440.371094 M 267.589844 525.953125 C 267.839844 526.808594 268.890625 532.296875 269.921875 538.152344 C 270.953125 544.007812 273.75 559.183594 276.136719 571.871094 C 278.523438 584.558594 282.910156 608.117188 285.886719 624.222656 C 288.859375 640.328125 293.058594 662.890625 295.210938 674.355469 C 297.367188 685.828125 300.21875 701.347656 301.554688 708.847656 C 304.375 724.714844 303.875 723.992188 314.496094 727.480469 C 376.222656 747.753906 458.398438 742.910156 531.410156 714.699219 C 537.15625 712.480469 542 710.519531 542.171875 710.347656 C 542.347656 710.171875 533.375 703.863281 522.238281 696.328125 C 511.101562 688.785156 469.84375 660.863281 430.550781 634.273438 C 391.257812 607.683594 338.65625 572.082031 313.660156 555.164062 C 266.234375 523.0625 266.855469 523.453125 267.589844 525.953125 M 705.226562 527.519531 C 696.929688 529.144531 677.160156 532.917969 661.296875 535.90625 C 645.433594 538.890625 620.871094 543.53125 606.714844 546.214844 C 546.117188 557.695312 529.378906 560.859375 527.285156 561.21875 C 526.066406 561.429688 513.484375 563.800781 499.328125 566.492188 C 463.800781 573.238281 424.65625 580.625 409.011719 583.527344 C 401.800781 584.867188 396.011719 586.273438 396.144531 586.652344 C 396.273438 587.039062 412.15625 598.261719 431.4375 611.601562 C 450.71875 624.9375 487.972656 650.730469 514.222656 668.917969 C 561.296875 701.527344 561.992188 701.96875 564.84375 701.03125 C 594.566406 691.222656 648.6875 644.148438 678.640625 602.039062 C 695.667969 578.105469 725.222656 523.945312 720.957031 524.480469 C 720.605469 524.527344 713.527344 525.894531 705.226562 527.519531 " fill-opacity="1" fill-rule="evenodd"/></svg>